G75*
G70*
%OFA0B0*%
%FSLAX24Y24*%
%IPPOS*%
%LPD*%
%AMOC8*
5,1,8,0,0,1.08239X$1,22.5*
%
%ADD10C,0.1969*%
%ADD11C,0.0476*%
%ADD12C,0.0700*%
%ADD13C,0.0600*%
%ADD14OC8,0.0600*%
%ADD15C,0.0475*%
%ADD16C,0.0240*%
%ADD17C,0.0100*%
%ADD18C,0.0320*%
%ADD19C,0.0400*%
%ADD20C,0.0591*%
%ADD21C,0.0400*%
%ADD22C,0.0160*%
D10*
X004552Y005182D03*
X006560Y003765D03*
X014237Y003765D03*
X016284Y005143D03*
D11*
X016796Y005654D03*
X017013Y005143D03*
X016796Y004631D03*
X016284Y004414D03*
X015772Y004631D03*
X015556Y005143D03*
X015772Y005654D03*
X016284Y005871D03*
X014965Y003765D03*
X014749Y004276D03*
X014237Y004493D03*
X013725Y004276D03*
X013509Y003765D03*
X013725Y003253D03*
X014237Y003036D03*
X014749Y003253D03*
X007288Y003765D03*
X007072Y004276D03*
X006560Y004493D03*
X006048Y004276D03*
X005831Y003765D03*
X006048Y003253D03*
X006560Y003036D03*
X007072Y003253D03*
X005280Y005182D03*
X005064Y005694D03*
X005064Y004670D03*
X004552Y004454D03*
X004040Y004670D03*
X003824Y005182D03*
X004040Y005694D03*
X004552Y005910D03*
D12*
X006993Y019237D03*
X007993Y019237D03*
X008993Y019237D03*
X009993Y019237D03*
X010993Y019237D03*
X011009Y020221D03*
X010812Y021245D03*
X009788Y021245D03*
X008804Y021245D03*
X006954Y022308D03*
X006954Y023308D03*
X006954Y024308D03*
X006954Y025308D03*
X006954Y026308D03*
X006954Y027308D03*
X006954Y028308D03*
X006954Y029308D03*
X011796Y035930D03*
X011796Y036914D03*
X012820Y036914D03*
X012820Y035930D03*
X013804Y035930D03*
X013804Y036914D03*
X013804Y021245D03*
X012780Y021245D03*
X012009Y020221D03*
X011993Y019237D03*
X012993Y019237D03*
X013993Y019237D03*
X011796Y021245D03*
D13*
X011430Y038119D03*
D14*
X011430Y039119D03*
X011430Y040119D03*
X010430Y040119D03*
X010430Y039119D03*
X010430Y038119D03*
D15*
X009457Y035776D03*
X008745Y037898D03*
X006879Y037824D03*
X005879Y033324D03*
X003143Y038434D03*
X002820Y025733D03*
X005379Y017324D03*
X008331Y023489D03*
X010320Y015824D03*
X010879Y009324D03*
X017430Y016682D03*
X019906Y020635D03*
X019379Y025961D03*
X016379Y032824D03*
X018883Y033528D03*
X013879Y040178D03*
X018292Y008548D03*
X019355Y003961D03*
X002170Y008587D03*
D16*
X010879Y009324D02*
X010906Y009296D01*
X013312Y009296D01*
X014611Y010595D01*
X014611Y014591D01*
X014985Y014965D01*
X014985Y015812D01*
X015831Y016658D01*
X017426Y016658D01*
X017430Y016662D01*
X017430Y016682D01*
X017623Y015713D02*
X019080Y017052D01*
X019080Y021206D01*
X019379Y021505D01*
X019379Y025961D01*
X019965Y027072D02*
X019965Y023076D01*
X019926Y023036D01*
X019926Y020635D01*
X019906Y020635D01*
X017623Y015713D02*
X017603Y015477D01*
X017288Y014926D01*
X016540Y013745D01*
X016540Y011875D01*
X015339Y010674D01*
X015339Y008666D01*
X015320Y008666D01*
X019965Y027072D02*
X019513Y027524D01*
X019513Y033410D01*
X018883Y033528D01*
D17*
X002126Y003298D02*
X001837Y003298D01*
X001667Y003397D02*
X002041Y003397D01*
X002050Y003375D02*
X002331Y003093D01*
X002699Y002941D01*
X003098Y002941D01*
X003466Y003093D01*
X003747Y003375D01*
X003900Y003743D01*
X003900Y004141D01*
X003831Y004306D01*
X003895Y004255D01*
X004002Y004188D01*
X004117Y004132D01*
X004237Y004090D01*
X004362Y004062D01*
X004488Y004048D01*
X004502Y004048D01*
X004502Y004068D01*
X004514Y004066D01*
X004533Y004066D01*
X004533Y004435D01*
X004571Y004435D01*
X004571Y004066D01*
X004590Y004066D01*
X004602Y004068D01*
X004602Y004048D01*
X004616Y004048D01*
X004742Y004062D01*
X004866Y004090D01*
X004987Y004132D01*
X005101Y004188D01*
X005209Y004255D01*
X005309Y004335D01*
X005399Y004425D01*
X005478Y004524D01*
X005546Y004632D01*
X005602Y004747D01*
X005644Y004867D01*
X005672Y004992D01*
X005686Y005118D01*
X005686Y005132D01*
X005666Y005132D01*
X005668Y005144D01*
X005668Y005163D01*
X005299Y005163D01*
X005299Y005201D01*
X005668Y005201D01*
X005668Y005220D01*
X005666Y005232D01*
X005686Y005232D01*
X005686Y005246D01*
X005672Y005372D01*
X005644Y005496D01*
X005602Y005617D01*
X005546Y005731D01*
X005478Y005839D01*
X005399Y005939D01*
X005309Y006029D01*
X005209Y006108D01*
X005101Y006176D01*
X004987Y006231D01*
X004866Y006274D01*
X004742Y006302D01*
X004616Y006316D01*
X004602Y006316D01*
X004602Y006296D01*
X004590Y006298D01*
X004571Y006298D01*
X004571Y005929D01*
X004533Y005929D01*
X004533Y006298D01*
X004514Y006298D01*
X004502Y006296D01*
X004502Y006316D01*
X004488Y006316D01*
X004362Y006302D01*
X004237Y006274D01*
X004117Y006231D01*
X004002Y006176D01*
X003895Y006108D01*
X003795Y006029D01*
X003705Y005939D01*
X003625Y005839D01*
X003558Y005731D01*
X003502Y005617D01*
X003460Y005496D01*
X003432Y005372D01*
X003418Y005246D01*
X003418Y005232D01*
X003438Y005232D01*
X003436Y005220D01*
X003436Y005201D01*
X003805Y005201D01*
X003805Y005163D01*
X003436Y005163D01*
X003436Y005144D01*
X003438Y005132D01*
X003418Y005132D01*
X003418Y005118D01*
X003432Y004992D01*
X003460Y004867D01*
X003499Y004757D01*
X003466Y004790D01*
X003098Y004943D01*
X002699Y004943D01*
X002331Y004790D01*
X002050Y004509D01*
X001897Y004141D01*
X001897Y003743D01*
X002050Y003375D01*
X002000Y003495D02*
X001496Y003495D01*
X001325Y003594D02*
X001959Y003594D01*
X001918Y003692D02*
X001155Y003692D01*
X000985Y003790D02*
X000927Y003829D01*
X000793Y003963D01*
X000699Y004126D01*
X000650Y004309D01*
X000644Y004404D01*
X000644Y007944D01*
X000647Y007987D01*
X000697Y008171D01*
X000793Y008335D01*
X000928Y008469D01*
X001094Y008563D01*
X001184Y008593D01*
X001548Y008687D01*
X002231Y009010D01*
X002841Y009454D01*
X002841Y009454D01*
X003334Y009980D01*
X003334Y009966D01*
X003405Y009702D01*
X003542Y009464D01*
X003736Y009271D01*
X003973Y009134D01*
X004238Y009063D01*
X004512Y009063D01*
X004776Y009134D01*
X004982Y009252D01*
X004596Y008866D01*
X004123Y008866D01*
X003572Y008315D01*
X003466Y008209D01*
X003466Y007004D01*
X003384Y007004D01*
X003315Y007008D01*
X003310Y007004D01*
X003304Y007004D01*
X003255Y006955D01*
X003203Y006908D01*
X003203Y006902D01*
X003199Y006898D01*
X003199Y006829D01*
X003187Y006633D01*
X003164Y006623D01*
X003071Y006530D01*
X003021Y006409D01*
X003021Y006278D01*
X003071Y006156D01*
X003164Y006064D01*
X003286Y006013D01*
X003417Y006013D01*
X003538Y006064D01*
X003631Y006156D01*
X003681Y006278D01*
X003681Y006409D01*
X003631Y006530D01*
X003547Y006614D01*
X003549Y006644D01*
X004804Y006644D01*
X005552Y005896D01*
X005549Y005889D01*
X005549Y005758D01*
X005599Y005637D01*
X005692Y005544D01*
X005813Y005494D01*
X005944Y005494D01*
X006066Y005544D01*
X006158Y005637D01*
X006209Y005758D01*
X006209Y005889D01*
X006158Y006011D01*
X006066Y006103D01*
X005944Y006154D01*
X005813Y006154D01*
X005806Y006151D01*
X005059Y006898D01*
X004953Y007004D01*
X003826Y007004D01*
X003826Y008060D01*
X004272Y008506D01*
X004745Y008506D01*
X004850Y008611D01*
X005598Y009359D01*
X005598Y010886D01*
X005493Y010992D01*
X004299Y012186D01*
X004299Y012470D01*
X004469Y012640D01*
X004560Y012731D01*
X004599Y012637D01*
X004692Y012544D01*
X004813Y012494D01*
X004944Y012494D01*
X004951Y012496D01*
X010838Y006610D01*
X009022Y006610D01*
X009007Y006620D01*
X008949Y006610D01*
X008891Y006610D01*
X008878Y006597D01*
X008860Y006594D01*
X008827Y006546D01*
X008785Y006504D01*
X008785Y006487D01*
X008567Y006173D01*
X008490Y006173D01*
X008369Y006123D01*
X008276Y006030D01*
X008226Y005909D01*
X008226Y005778D01*
X008276Y005656D01*
X008369Y005564D01*
X006085Y005564D01*
X006169Y005662D02*
X008274Y005662D01*
X008233Y005761D02*
X006209Y005761D01*
X006209Y005859D02*
X008226Y005859D01*
X008246Y005958D02*
X006180Y005958D01*
X006113Y006056D02*
X008302Y006056D01*
X008445Y006155D02*
X005802Y006155D01*
X005704Y006253D02*
X008622Y006253D01*
X008691Y006352D02*
X005605Y006352D01*
X005507Y006450D02*
X008760Y006450D01*
X008829Y006549D02*
X005408Y006549D01*
X005310Y006647D02*
X010801Y006647D01*
X010702Y006746D02*
X005211Y006746D01*
X005113Y006844D02*
X010604Y006844D01*
X010505Y006943D02*
X005014Y006943D01*
X004879Y006824D02*
X003568Y006824D01*
X003646Y006902D01*
X003646Y008135D01*
X004198Y008686D01*
X004670Y008686D01*
X005418Y009434D01*
X005418Y010812D01*
X004119Y012111D01*
X004119Y012544D01*
X004394Y012820D01*
X004391Y012824D01*
X004379Y012824D01*
X006879Y015324D01*
X010879Y015324D01*
X010879Y017107D01*
X011379Y017824D02*
X004379Y017824D01*
X003859Y018698D01*
X003557Y018566D02*
X001751Y018566D01*
X001751Y018664D02*
X003529Y018664D01*
X003529Y018632D02*
X003579Y018511D01*
X003672Y018418D01*
X003793Y018368D01*
X003846Y018368D01*
X004199Y017774D01*
X004199Y017749D01*
X004236Y017712D01*
X004262Y017668D01*
X004286Y017661D01*
X004304Y017644D01*
X004356Y017644D01*
X004407Y017631D01*
X004428Y017644D01*
X005191Y017644D01*
X005171Y017635D01*
X005149Y017614D01*
X001900Y017614D01*
X001751Y017763D01*
X001751Y020790D01*
X001887Y020926D01*
X001921Y020940D01*
X003491Y022510D01*
X004196Y022510D01*
X005389Y021317D01*
X005470Y021235D01*
X005577Y021191D01*
X007366Y021191D01*
X007472Y021235D01*
X008432Y022195D01*
X009598Y022195D01*
X009704Y022239D01*
X014699Y027234D01*
X014699Y022606D01*
X014692Y022603D01*
X014599Y022511D01*
X014549Y022389D01*
X014549Y022258D01*
X014599Y022137D01*
X014692Y022044D01*
X014813Y021994D01*
X014944Y021994D01*
X015066Y022044D01*
X015158Y022137D01*
X015209Y022258D01*
X015209Y022389D01*
X015158Y022511D01*
X015066Y022603D01*
X015059Y022606D01*
X015059Y027249D01*
X015367Y027557D01*
X015342Y027465D01*
X015342Y027191D01*
X015413Y026926D01*
X015550Y026689D01*
X015744Y026495D01*
X015981Y026358D01*
X016246Y026287D01*
X016520Y026287D01*
X016784Y026358D01*
X017022Y026495D01*
X017215Y026689D01*
X017352Y026926D01*
X017423Y027191D01*
X017423Y027465D01*
X017352Y027729D01*
X017215Y027966D01*
X017022Y028160D01*
X016784Y028297D01*
X016520Y028368D01*
X016246Y028368D01*
X016153Y028343D01*
X016953Y029144D01*
X017059Y029249D01*
X017059Y032898D01*
X016953Y033004D01*
X016732Y033004D01*
X016732Y039019D01*
X016688Y039126D01*
X016606Y039207D01*
X016291Y039522D01*
X016184Y039566D01*
X014671Y039566D01*
X014669Y039565D01*
X014669Y040236D01*
X019324Y040236D01*
X019362Y040171D02*
X019264Y040337D01*
X019129Y040473D01*
X018964Y040572D01*
X018779Y040626D01*
X018683Y040635D01*
X018615Y040637D01*
X002105Y040637D01*
X002007Y040629D01*
X001816Y040577D01*
X001645Y040478D01*
X001503Y040340D01*
X001399Y040171D01*
X001353Y040020D01*
X001580Y040081D01*
X001854Y040081D01*
X002119Y040010D01*
X002356Y039873D01*
X002550Y039679D01*
X002687Y039442D01*
X002758Y039177D01*
X002758Y038903D01*
X002687Y038639D01*
X002550Y038401D01*
X002356Y038208D01*
X002119Y038071D01*
X001854Y038000D01*
X001580Y038000D01*
X001316Y038071D01*
X001225Y038123D01*
X000648Y028756D01*
X000649Y028755D01*
X000644Y028679D01*
X000644Y017044D01*
X000650Y016949D01*
X000699Y016765D01*
X000795Y016600D01*
X000930Y016466D01*
X001095Y016372D01*
X001186Y016342D01*
X001273Y016319D01*
X001290Y016306D01*
X001548Y016240D01*
X001548Y016240D01*
X002231Y015918D01*
X002231Y015918D01*
X002841Y015473D01*
X002841Y015473D01*
X003358Y014923D01*
X003762Y014285D01*
X004040Y013583D01*
X004178Y012858D01*
X004199Y012878D01*
X004199Y012898D01*
X004304Y013004D01*
X004304Y013004D01*
X006804Y015504D01*
X010132Y015504D01*
X010112Y015512D01*
X010008Y015615D01*
X009952Y015751D01*
X009952Y015769D01*
X008688Y017034D01*
X005608Y017034D01*
X005587Y017012D01*
X005452Y016956D01*
X005306Y016956D01*
X005171Y017012D01*
X005149Y017034D01*
X001723Y017034D01*
X001616Y017078D01*
X001297Y017397D01*
X001216Y017478D01*
X001171Y017585D01*
X001171Y020968D01*
X001216Y021075D01*
X001491Y021350D01*
X001573Y021432D01*
X001606Y021446D01*
X003125Y022964D01*
X003207Y023046D01*
X003313Y023090D01*
X004373Y023090D01*
X004480Y023046D01*
X005755Y021771D01*
X007188Y021771D01*
X008066Y022649D01*
X008148Y022731D01*
X008254Y022775D01*
X009420Y022775D01*
X016059Y029414D01*
X016099Y029511D01*
X016192Y029603D01*
X016313Y029654D01*
X016444Y029654D01*
X016566Y029603D01*
X016581Y029588D01*
X016626Y029569D01*
X016699Y029496D01*
X016699Y032636D01*
X016690Y032615D01*
X016587Y032512D01*
X016452Y032456D01*
X016306Y032456D01*
X016171Y032512D01*
X016067Y032615D01*
X016011Y032751D01*
X016011Y032897D01*
X016067Y033032D01*
X016152Y033116D01*
X016152Y034503D01*
X016136Y034466D01*
X016055Y034385D01*
X015748Y034078D01*
X015641Y034034D01*
X015275Y034034D01*
X015275Y032959D01*
X016294Y031941D01*
X016338Y031834D01*
X016338Y030223D01*
X016294Y030116D01*
X016212Y030034D01*
X010177Y023999D01*
X010177Y023746D01*
X010132Y023640D01*
X010051Y023558D01*
X009944Y023514D01*
X009854Y023514D01*
X009854Y023396D01*
X009804Y023274D01*
X009711Y023182D01*
X009590Y023131D01*
X009459Y023131D01*
X009337Y023182D01*
X009245Y023274D01*
X009194Y023396D01*
X009194Y023514D01*
X008708Y023514D01*
X008699Y023505D01*
X008699Y023416D01*
X008643Y023281D01*
X008540Y023177D01*
X008405Y023121D01*
X008258Y023121D01*
X008123Y023177D01*
X008020Y023281D01*
X007964Y023416D01*
X007964Y023562D01*
X008020Y023697D01*
X008123Y023801D01*
X008210Y023836D01*
X008423Y024050D01*
X008530Y024094D01*
X009597Y024094D01*
X009597Y024177D01*
X009641Y024283D01*
X015758Y030400D01*
X015758Y031656D01*
X014821Y032594D01*
X014821Y032594D01*
X014739Y032675D01*
X014695Y032782D01*
X014695Y034034D01*
X006999Y034034D01*
X006246Y033281D01*
X006246Y033251D01*
X006190Y033115D01*
X006087Y033012D01*
X005952Y032956D01*
X005806Y032956D01*
X005777Y032968D01*
X004706Y031896D01*
X004709Y031889D01*
X004709Y031758D01*
X004658Y031637D01*
X004566Y031544D01*
X004444Y031494D01*
X004313Y031494D01*
X004192Y031544D01*
X004099Y031637D01*
X004059Y031734D01*
X004059Y031106D01*
X004066Y031103D01*
X004158Y031011D01*
X004161Y031004D01*
X014453Y031004D01*
X014559Y030898D01*
X014559Y030898D01*
X014806Y030651D01*
X014813Y030654D01*
X014944Y030654D01*
X015066Y030603D01*
X015158Y030511D01*
X015209Y030389D01*
X015209Y030258D01*
X015158Y030137D01*
X015066Y030044D01*
X014944Y029994D01*
X014813Y029994D01*
X014692Y030044D01*
X014599Y030137D01*
X014549Y030258D01*
X014549Y030389D01*
X014552Y030396D01*
X014304Y030644D01*
X004161Y030644D01*
X004158Y030637D01*
X004066Y030544D01*
X003944Y030494D01*
X003813Y030494D01*
X003692Y030544D01*
X003599Y030637D01*
X003549Y030758D01*
X003549Y030889D01*
X003599Y031011D01*
X003692Y031103D01*
X003699Y031106D01*
X003699Y033541D01*
X003692Y033544D01*
X003599Y033637D01*
X003549Y033758D01*
X003549Y033889D01*
X003599Y034011D01*
X003692Y034103D01*
X003813Y034154D01*
X003944Y034154D01*
X004066Y034103D01*
X004158Y034011D01*
X004209Y033889D01*
X004209Y033758D01*
X004158Y033637D01*
X004066Y033544D01*
X004059Y033541D01*
X004059Y031913D01*
X004099Y032011D01*
X004192Y032103D01*
X004313Y032154D01*
X004444Y032154D01*
X004451Y032151D01*
X005523Y033222D01*
X005511Y033251D01*
X005511Y033397D01*
X005567Y033532D01*
X005589Y033553D01*
X005589Y035231D01*
X005077Y035743D01*
X004995Y035825D01*
X004951Y035931D01*
X004951Y037307D01*
X004995Y037413D01*
X005487Y037905D01*
X005569Y037987D01*
X005675Y038031D01*
X006567Y038031D01*
X006567Y038032D01*
X006671Y038135D01*
X006806Y038191D01*
X006952Y038191D01*
X007087Y038135D01*
X007190Y038032D01*
X007246Y037897D01*
X007246Y037751D01*
X007190Y037615D01*
X007087Y037512D01*
X006952Y037456D01*
X006866Y037456D01*
X006854Y037451D01*
X005853Y037451D01*
X005531Y037129D01*
X005531Y036941D01*
X005560Y037011D01*
X005652Y037103D01*
X005774Y037154D01*
X005905Y037154D01*
X006026Y037103D01*
X006119Y037011D01*
X006169Y036889D01*
X006169Y036758D01*
X006168Y036754D01*
X007952Y035004D01*
X010974Y035004D01*
X010945Y035032D01*
X009485Y035014D01*
X009432Y035012D01*
X009427Y035013D01*
X009423Y035013D01*
X009373Y035033D01*
X009323Y035051D01*
X009320Y035054D01*
X009316Y035056D01*
X009278Y035093D01*
X009238Y035130D01*
X009237Y035134D01*
X009233Y035137D01*
X009212Y035186D01*
X009190Y035234D01*
X009190Y035239D01*
X009188Y035243D01*
X009187Y035296D01*
X009177Y035537D01*
X009146Y035568D01*
X009090Y035703D01*
X009090Y035849D01*
X009146Y035985D01*
X009249Y036088D01*
X009384Y036144D01*
X009531Y036144D01*
X009666Y036088D01*
X009769Y035985D01*
X009825Y035849D01*
X009825Y035703D01*
X009781Y035598D01*
X011004Y035613D01*
X011006Y035614D01*
X011062Y035614D01*
X011118Y035614D01*
X011120Y035614D01*
X011121Y035614D01*
X011173Y035592D01*
X011225Y035571D01*
X011226Y035570D01*
X011228Y035569D01*
X011267Y035531D01*
X011495Y035531D01*
X011470Y035549D01*
X011415Y035604D01*
X011368Y035668D01*
X011333Y035738D01*
X011308Y035813D01*
X011296Y035891D01*
X011296Y035901D01*
X011767Y035901D01*
X011767Y035959D01*
X011767Y036430D01*
X011767Y036885D01*
X011825Y036885D01*
X011825Y035959D01*
X011767Y035959D01*
X011296Y035959D01*
X011296Y035969D01*
X011308Y036047D01*
X011333Y036122D01*
X011368Y036192D01*
X011415Y036256D01*
X011470Y036311D01*
X011534Y036358D01*
X011604Y036393D01*
X011679Y036418D01*
X011707Y036422D01*
X011679Y036426D01*
X011604Y036451D01*
X011534Y036487D01*
X011470Y036533D01*
X011415Y036588D01*
X011368Y036652D01*
X011333Y036722D01*
X011308Y036797D01*
X011296Y036875D01*
X011296Y036885D01*
X011767Y036885D01*
X011767Y036943D01*
X011296Y036943D01*
X011296Y036954D01*
X011308Y037031D01*
X011333Y037106D01*
X011368Y037176D01*
X011415Y037240D01*
X011470Y037296D01*
X011534Y037342D01*
X011604Y037378D01*
X011679Y037402D01*
X011757Y037414D01*
X011767Y037414D01*
X011767Y036943D01*
X011825Y036943D01*
X012296Y036943D01*
X012296Y036954D01*
X012284Y037031D01*
X012259Y037106D01*
X012224Y037176D01*
X012177Y037240D01*
X012122Y037296D01*
X012058Y037342D01*
X011988Y037378D01*
X011913Y037402D01*
X011835Y037414D01*
X011825Y037414D01*
X011825Y036943D01*
X011825Y036885D01*
X012296Y036885D01*
X012296Y036875D01*
X012284Y036797D01*
X012259Y036722D01*
X012224Y036652D01*
X012177Y036588D01*
X012122Y036533D01*
X012058Y036487D01*
X011988Y036451D01*
X011913Y036426D01*
X011885Y036422D01*
X011913Y036418D01*
X011988Y036393D01*
X012058Y036358D01*
X012122Y036311D01*
X012177Y036256D01*
X012224Y036192D01*
X012259Y036122D01*
X012284Y036047D01*
X012296Y035969D01*
X012296Y035959D01*
X011825Y035959D01*
X011825Y035901D01*
X012296Y035901D01*
X012296Y035891D01*
X012284Y035813D01*
X012259Y035738D01*
X012224Y035668D01*
X012177Y035604D01*
X012122Y035549D01*
X012098Y035531D01*
X012540Y035531D01*
X012413Y035658D01*
X012340Y035834D01*
X012340Y036025D01*
X012413Y036202D01*
X012548Y036337D01*
X012724Y036410D01*
X012915Y036410D01*
X013092Y036337D01*
X013227Y036202D01*
X013300Y036025D01*
X013300Y035834D01*
X013227Y035658D01*
X013100Y035531D01*
X013524Y035531D01*
X013397Y035658D01*
X013324Y035834D01*
X013324Y036025D01*
X013397Y036202D01*
X013532Y036337D01*
X013708Y036410D01*
X013899Y036410D01*
X014076Y036337D01*
X014211Y036202D01*
X014284Y036025D01*
X014284Y035834D01*
X014211Y035658D01*
X014084Y035531D01*
X014137Y035531D01*
X014400Y035794D01*
X014400Y037542D01*
X014171Y037771D01*
X014090Y037852D01*
X014045Y037959D01*
X014045Y038838D01*
X014089Y038943D01*
X014089Y039868D01*
X014087Y039866D01*
X013952Y039810D01*
X013806Y039810D01*
X013671Y039866D01*
X013567Y039970D01*
X013511Y040105D01*
X013511Y040251D01*
X013567Y040386D01*
X013671Y040489D01*
X013806Y040545D01*
X013952Y040545D01*
X014087Y040489D01*
X014108Y040468D01*
X014436Y040468D01*
X014543Y040424D01*
X014625Y040342D01*
X014669Y040236D01*
X014669Y040137D02*
X019372Y040137D01*
X019362Y040171D02*
X019406Y040020D01*
X019177Y040081D01*
X018903Y040081D01*
X018639Y040010D01*
X018401Y039873D01*
X018208Y039679D01*
X018071Y039442D01*
X018000Y039177D01*
X018000Y038903D01*
X018071Y038639D01*
X018208Y038401D01*
X018401Y038208D01*
X018639Y038071D01*
X018903Y038000D01*
X019177Y038000D01*
X019442Y038071D01*
X019532Y038123D01*
X020109Y028761D01*
X020106Y028753D01*
X020112Y028663D01*
X020113Y028638D01*
X020114Y028614D01*
X020114Y020361D01*
X020013Y020361D01*
X019845Y020292D01*
X019717Y020164D01*
X019648Y019997D01*
X019648Y019816D01*
X019717Y019649D01*
X019330Y019649D01*
X019330Y019551D02*
X019815Y019551D01*
X019885Y019481D02*
X020052Y019412D01*
X020114Y019412D01*
X020114Y016983D01*
X020111Y016946D01*
X020062Y016761D01*
X019967Y016595D01*
X019831Y016459D01*
X019665Y016364D01*
X019573Y016334D01*
X019210Y016240D01*
X019210Y016240D01*
X018527Y015918D01*
X018527Y015918D01*
X017916Y015473D01*
X017845Y015397D01*
X017846Y015402D01*
X017848Y015407D01*
X017852Y015451D01*
X017857Y015495D01*
X017856Y015500D01*
X017864Y015595D01*
X019216Y016838D01*
X019221Y016840D01*
X019253Y016871D01*
X019285Y016902D01*
X019288Y016906D01*
X019291Y016910D01*
X019308Y016951D01*
X019327Y016992D01*
X019327Y016997D01*
X019330Y017002D01*
X019330Y017047D01*
X019331Y017091D01*
X019330Y017096D01*
X019330Y021102D01*
X019520Y021293D01*
X019591Y021363D01*
X019629Y021455D01*
X019629Y025692D01*
X019690Y025753D01*
X019746Y025888D01*
X019746Y026035D01*
X019690Y026170D01*
X019587Y026273D01*
X019452Y026329D01*
X019306Y026329D01*
X019171Y026273D01*
X019067Y026170D01*
X019011Y026035D01*
X019011Y025888D01*
X019067Y025753D01*
X019129Y025692D01*
X019129Y021608D01*
X018868Y021347D01*
X018830Y021255D01*
X018830Y017162D01*
X017457Y015901D01*
X017423Y015872D01*
X017421Y015867D01*
X017417Y015864D01*
X017398Y015823D01*
X017378Y015784D01*
X017377Y015778D01*
X017375Y015774D01*
X017373Y015729D01*
X017368Y015663D01*
X017352Y015721D01*
X017215Y015959D01*
X017022Y016152D01*
X016784Y016289D01*
X016520Y016360D01*
X016246Y016360D01*
X015981Y016289D01*
X015744Y016152D01*
X015550Y015959D01*
X015413Y015721D01*
X015342Y015457D01*
X015342Y015183D01*
X015413Y014918D01*
X015550Y014681D01*
X015744Y014487D01*
X015981Y014350D01*
X016246Y014279D01*
X016520Y014279D01*
X016595Y014299D01*
X016344Y013902D01*
X016328Y013886D01*
X016317Y013860D01*
X016302Y013837D01*
X016299Y013815D01*
X016290Y013795D01*
X016290Y013766D01*
X016285Y013739D01*
X014861Y013739D01*
X014861Y013641D02*
X016290Y013641D01*
X016290Y013717D02*
X016290Y011978D01*
X015198Y010886D01*
X015127Y010816D01*
X015089Y010724D01*
X015089Y008820D01*
X015049Y008724D01*
X015049Y008608D01*
X015094Y008502D01*
X015175Y008420D01*
X015282Y008376D01*
X015613Y008376D01*
X016137Y007852D01*
X016218Y007771D01*
X016325Y007727D01*
X017818Y007727D01*
X017925Y007771D01*
X018335Y008181D01*
X018365Y008181D01*
X018500Y008236D01*
X018604Y008340D01*
X018660Y008475D01*
X018660Y008621D01*
X018604Y008756D01*
X018500Y008860D01*
X018365Y008916D01*
X018219Y008916D01*
X018084Y008860D01*
X017981Y008756D01*
X017925Y008621D01*
X017925Y008591D01*
X017641Y008307D01*
X016503Y008307D01*
X015897Y008912D01*
X015791Y008956D01*
X015589Y008956D01*
X015589Y009425D01*
X015744Y009271D01*
X015981Y009134D01*
X016246Y009063D01*
X016520Y009063D01*
X016784Y009134D01*
X017022Y009271D01*
X017215Y009464D01*
X017352Y009702D01*
X017423Y009966D01*
X017423Y009980D01*
X017916Y009454D01*
X017916Y009454D01*
X017916Y009454D01*
X018527Y009010D01*
X019210Y008687D01*
X019575Y008593D01*
X019589Y008589D01*
X019663Y008565D01*
X019828Y008470D01*
X019963Y008336D01*
X020058Y008172D01*
X020107Y007989D01*
X020114Y007894D01*
X020114Y004498D01*
X020112Y004494D01*
X020112Y004404D01*
X020106Y004309D01*
X020057Y004127D01*
X019963Y003964D01*
X019829Y003830D01*
X019751Y003777D01*
X018752Y003201D01*
X018868Y003402D01*
X018939Y003667D01*
X018939Y003941D01*
X018868Y004206D01*
X018731Y004443D01*
X018537Y004637D01*
X018300Y004774D01*
X018035Y004844D01*
X017761Y004844D01*
X017497Y004774D01*
X017288Y004653D01*
X017323Y004712D01*
X017399Y004996D01*
X017399Y005289D01*
X017323Y005573D01*
X017176Y005827D01*
X016968Y006034D01*
X016714Y006181D01*
X016431Y006257D01*
X016138Y006257D01*
X015854Y006181D01*
X015600Y006034D01*
X015393Y005827D01*
X015246Y005573D01*
X015170Y005289D01*
X015170Y004996D01*
X015246Y004712D01*
X015393Y004458D01*
X015600Y004251D01*
X015854Y004104D01*
X016138Y004028D01*
X016431Y004028D01*
X016714Y004104D01*
X016948Y004239D01*
X016929Y004206D01*
X016858Y003941D01*
X016858Y003667D01*
X016929Y003402D01*
X017066Y003165D01*
X017260Y002971D01*
X017497Y002834D01*
X017761Y002763D01*
X017993Y002763D01*
X015235Y001172D01*
X015297Y001403D01*
X015297Y001677D01*
X015226Y001942D01*
X015089Y002179D01*
X014896Y002373D01*
X014658Y002510D01*
X014394Y002581D01*
X014120Y002581D01*
X013855Y002510D01*
X013618Y002373D01*
X013424Y002179D01*
X013287Y001942D01*
X013216Y001677D01*
X013216Y001403D01*
X013287Y001139D01*
X013424Y000901D01*
X013607Y000719D01*
X007105Y000719D01*
X007120Y000727D01*
X007314Y000921D01*
X007451Y001158D01*
X007522Y001423D01*
X007522Y001697D01*
X007451Y001961D01*
X007314Y002199D01*
X007120Y002392D01*
X007044Y002437D01*
X007585Y002443D01*
X009677Y002462D01*
X009680Y002456D01*
X009726Y002441D01*
X009753Y002416D01*
X009763Y002417D01*
X009770Y002412D01*
X009796Y002417D01*
X009833Y002405D01*
X009866Y002421D01*
X010164Y002434D01*
X010251Y002347D01*
X010372Y002297D01*
X010503Y002297D01*
X010625Y002347D01*
X010718Y002440D01*
X010768Y002561D01*
X010768Y002692D01*
X010718Y002814D01*
X010625Y002907D01*
X010503Y002957D01*
X010372Y002957D01*
X010251Y002907D01*
X010158Y002814D01*
X010150Y002794D01*
X009865Y002781D01*
X009863Y002783D01*
X009822Y002823D01*
X009803Y002823D01*
X009787Y002834D01*
X009730Y002822D01*
X007656Y002804D01*
X007581Y002803D01*
X007507Y002802D01*
X007113Y002797D01*
X007244Y002873D01*
X007451Y003080D01*
X007598Y003334D01*
X007674Y003618D01*
X007674Y003911D01*
X007598Y004195D01*
X007451Y004449D01*
X007244Y004656D01*
X006990Y004803D01*
X006707Y004879D01*
X006413Y004879D01*
X006130Y004803D01*
X005876Y004656D01*
X005668Y004449D01*
X005522Y004195D01*
X005446Y003911D01*
X005446Y003618D01*
X005522Y003334D01*
X005668Y003080D01*
X005876Y002873D01*
X006028Y002785D01*
X005896Y002783D01*
X005828Y002788D01*
X005822Y002782D01*
X005814Y002782D01*
X005767Y002734D01*
X005660Y002641D01*
X005709Y002758D01*
X005709Y002889D01*
X005658Y003011D01*
X005566Y003103D01*
X005444Y003154D01*
X005313Y003154D01*
X005192Y003103D01*
X005099Y003011D01*
X005049Y002889D01*
X005049Y002758D01*
X005099Y002637D01*
X005192Y002544D01*
X005199Y002541D01*
X005199Y002396D01*
X005197Y002395D01*
X005199Y002322D01*
X005199Y002249D01*
X005200Y002248D01*
X005200Y002245D01*
X005253Y002195D01*
X005304Y002144D01*
X005306Y002144D01*
X005308Y002142D01*
X005381Y002144D01*
X005453Y002144D01*
X005455Y002145D01*
X005571Y002147D01*
X005617Y002144D01*
X005511Y001961D01*
X005441Y001697D01*
X005441Y001423D01*
X005505Y001182D01*
X000985Y003790D01*
X000984Y003791D02*
X001897Y003791D01*
X001897Y003889D02*
X000867Y003889D01*
X000779Y003988D02*
X001897Y003988D01*
X001897Y004086D02*
X000722Y004086D01*
X000683Y004185D02*
X001915Y004185D01*
X001956Y004283D02*
X000657Y004283D01*
X000645Y004382D02*
X001997Y004382D01*
X002038Y004480D02*
X000644Y004480D01*
X000644Y004579D02*
X002119Y004579D01*
X002218Y004677D02*
X000644Y004677D01*
X000644Y004776D02*
X002316Y004776D01*
X002533Y004874D02*
X000644Y004874D01*
X000644Y004973D02*
X003436Y004973D01*
X003423Y005071D02*
X000644Y005071D01*
X000644Y005170D02*
X003805Y005170D01*
X003843Y005170D02*
X004502Y005170D01*
X004502Y005132D02*
X004209Y005132D01*
X004211Y005144D01*
X004211Y005163D01*
X003843Y005163D01*
X003843Y005201D01*
X004211Y005201D01*
X004211Y005220D01*
X004209Y005232D01*
X004502Y005232D01*
X004502Y005525D01*
X004514Y005522D01*
X004533Y005522D01*
X004533Y005891D01*
X004571Y005891D01*
X004571Y005522D01*
X004590Y005522D01*
X004602Y005525D01*
X004602Y005232D01*
X004502Y005232D01*
X004502Y005132D01*
X004602Y005132D01*
X004602Y005232D01*
X004895Y005232D01*
X004893Y005220D01*
X004893Y005201D01*
X005261Y005201D01*
X005261Y005163D01*
X004893Y005163D01*
X004893Y005144D01*
X004895Y005132D01*
X004602Y005132D01*
X004602Y004839D01*
X004590Y004841D01*
X004571Y004841D01*
X004571Y004472D01*
X004533Y004472D01*
X004533Y004841D01*
X004514Y004841D01*
X004502Y004839D01*
X004502Y005132D01*
X004502Y005071D02*
X004602Y005071D01*
X004602Y004973D02*
X004502Y004973D01*
X004502Y004874D02*
X004602Y004874D01*
X004571Y004776D02*
X004533Y004776D01*
X004533Y004677D02*
X004571Y004677D01*
X004571Y004579D02*
X004533Y004579D01*
X004533Y004480D02*
X004571Y004480D01*
X004571Y004382D02*
X004533Y004382D01*
X004533Y004283D02*
X004571Y004283D01*
X004571Y004185D02*
X004533Y004185D01*
X004533Y004086D02*
X004571Y004086D01*
X004256Y004086D02*
X003900Y004086D01*
X003900Y003988D02*
X005466Y003988D01*
X005446Y003889D02*
X003900Y003889D01*
X003900Y003791D02*
X005446Y003791D01*
X005446Y003692D02*
X003879Y003692D01*
X003838Y003594D02*
X005452Y003594D01*
X005478Y003495D02*
X003797Y003495D01*
X003756Y003397D02*
X005505Y003397D01*
X005543Y003298D02*
X003671Y003298D01*
X003572Y003200D02*
X005599Y003200D01*
X005568Y003101D02*
X005656Y003101D01*
X005662Y003003D02*
X005746Y003003D01*
X005703Y002904D02*
X005845Y002904D01*
X005709Y002806D02*
X005992Y002806D01*
X005891Y002603D02*
X007583Y002623D01*
X009749Y002643D01*
X009808Y002603D01*
X009820Y002599D01*
X010438Y002627D01*
X010747Y002510D02*
X013856Y002510D01*
X013923Y002673D02*
X014047Y002645D01*
X014173Y002630D01*
X014187Y002630D01*
X014187Y002651D01*
X014199Y002648D01*
X014218Y002648D01*
X014218Y003017D01*
X014256Y003017D01*
X014256Y002648D01*
X014275Y002648D01*
X014287Y002651D01*
X014287Y002630D01*
X014301Y002630D01*
X014427Y002645D01*
X014552Y002673D01*
X014672Y002715D01*
X014787Y002770D01*
X014894Y002838D01*
X014994Y002917D01*
X015084Y003008D01*
X015164Y003107D01*
X015231Y003215D01*
X015287Y003330D01*
X015329Y003450D01*
X015357Y003574D01*
X015371Y003701D01*
X015371Y003715D01*
X015351Y003715D01*
X015353Y003726D01*
X015353Y003746D01*
X014984Y003746D01*
X014984Y003783D01*
X015353Y003783D01*
X015353Y003803D01*
X015351Y003815D01*
X015371Y003815D01*
X015371Y003828D01*
X015357Y003955D01*
X015329Y004079D01*
X015287Y004199D01*
X015231Y004314D01*
X015164Y004422D01*
X015084Y004522D01*
X014994Y004612D01*
X014894Y004691D01*
X014787Y004759D01*
X014672Y004814D01*
X014552Y004856D01*
X014427Y004885D01*
X014301Y004899D01*
X014287Y004899D01*
X014287Y004878D01*
X014275Y004881D01*
X014256Y004881D01*
X014256Y004512D01*
X014218Y004512D01*
X014218Y004881D01*
X014199Y004881D01*
X014187Y004878D01*
X014187Y004899D01*
X014173Y004899D01*
X014047Y004885D01*
X013923Y004856D01*
X013802Y004814D01*
X013687Y004759D01*
X013580Y004691D01*
X013480Y004612D01*
X013390Y004522D01*
X013310Y004422D01*
X013243Y004314D01*
X013187Y004199D01*
X013145Y004079D01*
X013117Y003955D01*
X013103Y003828D01*
X013103Y003815D01*
X013123Y003815D01*
X013121Y003803D01*
X013121Y003783D01*
X013490Y003783D01*
X013490Y003746D01*
X013121Y003746D01*
X013121Y003726D01*
X013123Y003715D01*
X013103Y003715D01*
X013103Y003701D01*
X013117Y003574D01*
X013145Y003450D01*
X013187Y003330D01*
X013243Y003215D01*
X013310Y003107D01*
X013390Y003008D01*
X013480Y002917D01*
X013580Y002838D01*
X013687Y002770D01*
X013802Y002715D01*
X013923Y002673D01*
X013825Y002707D02*
X010762Y002707D01*
X010768Y002609D02*
X017725Y002609D01*
X017896Y002707D02*
X014649Y002707D01*
X014657Y002510D02*
X017554Y002510D01*
X017384Y002412D02*
X014828Y002412D01*
X014955Y002313D02*
X017213Y002313D01*
X017042Y002215D02*
X015054Y002215D01*
X015126Y002116D02*
X016872Y002116D01*
X016701Y002018D02*
X015183Y002018D01*
X015232Y001919D02*
X016530Y001919D01*
X016359Y001821D02*
X015259Y001821D01*
X015285Y001722D02*
X016189Y001722D01*
X016018Y001624D02*
X015297Y001624D01*
X015297Y001525D02*
X015847Y001525D01*
X015677Y001427D02*
X015297Y001427D01*
X015277Y001328D02*
X015506Y001328D01*
X015335Y001230D02*
X015251Y001230D01*
X014843Y002806D02*
X017604Y002806D01*
X017376Y002904D02*
X014977Y002904D01*
X015079Y003003D02*
X017228Y003003D01*
X017130Y003101D02*
X015159Y003101D01*
X015222Y003200D02*
X017046Y003200D01*
X016989Y003298D02*
X015271Y003298D01*
X015310Y003397D02*
X016932Y003397D01*
X016904Y003495D02*
X015339Y003495D01*
X015359Y003594D02*
X016878Y003594D01*
X016858Y003692D02*
X015370Y003692D01*
X015353Y003791D02*
X016858Y003791D01*
X016858Y003889D02*
X015364Y003889D01*
X015350Y003988D02*
X016870Y003988D01*
X016897Y004086D02*
X016647Y004086D01*
X016854Y004185D02*
X016923Y004185D01*
X017302Y004677D02*
X017330Y004677D01*
X017339Y004776D02*
X017504Y004776D01*
X017366Y004874D02*
X020114Y004874D01*
X020114Y004776D02*
X018293Y004776D01*
X018467Y004677D02*
X020114Y004677D01*
X020114Y004579D02*
X018595Y004579D01*
X018694Y004480D02*
X020112Y004480D01*
X020111Y004382D02*
X018766Y004382D01*
X018823Y004283D02*
X020099Y004283D01*
X020073Y004185D02*
X018874Y004185D01*
X018900Y004086D02*
X020033Y004086D01*
X020057Y004127D02*
X020057Y004127D01*
X019977Y003988D02*
X018926Y003988D01*
X018939Y003889D02*
X019888Y003889D01*
X019770Y003791D02*
X018939Y003791D01*
X018939Y003692D02*
X019603Y003692D01*
X019751Y003777D02*
X019751Y003777D01*
X019432Y003594D02*
X018919Y003594D01*
X018893Y003495D02*
X019261Y003495D01*
X019091Y003397D02*
X018865Y003397D01*
X018920Y003298D02*
X018808Y003298D01*
X020114Y004973D02*
X017392Y004973D01*
X017399Y005071D02*
X020114Y005071D01*
X020114Y005170D02*
X017399Y005170D01*
X017399Y005268D02*
X020114Y005268D01*
X020114Y005367D02*
X017378Y005367D01*
X017351Y005465D02*
X020114Y005465D01*
X020114Y005564D02*
X017325Y005564D01*
X017271Y005662D02*
X020114Y005662D01*
X020114Y005761D02*
X017214Y005761D01*
X017143Y005859D02*
X020114Y005859D01*
X020114Y005958D02*
X017045Y005958D01*
X016930Y006056D02*
X020114Y006056D01*
X020114Y006155D02*
X016760Y006155D01*
X016445Y006253D02*
X020114Y006253D01*
X020114Y006352D02*
X015920Y006352D01*
X015933Y006384D02*
X015933Y006515D01*
X015883Y006637D01*
X015790Y006729D01*
X015669Y006780D01*
X015538Y006780D01*
X015416Y006729D01*
X015323Y006637D01*
X015320Y006628D01*
X011347Y006610D01*
X010983Y006974D01*
X011029Y006974D01*
X011032Y006967D01*
X011125Y006875D01*
X011246Y006824D01*
X011377Y006824D01*
X011499Y006875D01*
X011592Y006967D01*
X011642Y007089D01*
X011642Y007220D01*
X011592Y007341D01*
X011499Y007434D01*
X011377Y007484D01*
X011246Y007484D01*
X011125Y007434D01*
X011032Y007341D01*
X011029Y007334D01*
X010922Y007334D01*
X010912Y007344D01*
X010925Y007344D01*
X011046Y007394D01*
X011139Y007487D01*
X011189Y007608D01*
X011189Y007740D01*
X011139Y007861D01*
X011046Y007954D01*
X010925Y008004D01*
X010793Y008004D01*
X010703Y007967D01*
X008806Y009883D01*
X008806Y009884D01*
X008754Y009935D01*
X008702Y009988D01*
X008701Y009988D01*
X007761Y010909D01*
X007756Y011117D01*
X007756Y011541D01*
X007763Y011544D01*
X007855Y011637D01*
X007906Y011758D01*
X007906Y011889D01*
X007855Y012011D01*
X007763Y012103D01*
X007641Y012154D01*
X007510Y012154D01*
X007389Y012103D01*
X007296Y012011D01*
X007246Y011889D01*
X007246Y011758D01*
X007296Y011637D01*
X007389Y011544D01*
X007396Y011541D01*
X007396Y011187D01*
X007394Y011184D01*
X007396Y011112D01*
X007396Y011040D01*
X007398Y011038D01*
X007403Y010853D01*
X007055Y011201D01*
X007055Y011548D01*
X007059Y011552D01*
X007059Y013644D01*
X011453Y013644D01*
X012953Y015144D01*
X013059Y015249D01*
X013059Y017898D01*
X012953Y018004D01*
X012661Y018004D01*
X012658Y018011D01*
X012566Y018103D01*
X012469Y018144D01*
X014080Y018144D01*
X014081Y018143D01*
X014155Y018144D01*
X014229Y018144D01*
X014230Y018144D01*
X014282Y018197D01*
X014334Y018249D01*
X014334Y018250D01*
X018270Y022224D01*
X018323Y022277D01*
X018323Y022278D01*
X018323Y022352D01*
X018323Y025836D01*
X018329Y025839D01*
X018422Y025932D01*
X018473Y026053D01*
X018473Y026185D01*
X018422Y026306D01*
X018329Y026399D01*
X018208Y026449D01*
X018077Y026449D01*
X017956Y026399D01*
X017863Y026306D01*
X017813Y026185D01*
X017813Y026053D01*
X017863Y025932D01*
X017956Y025839D01*
X017963Y025836D01*
X017963Y022425D01*
X014079Y018504D01*
X010953Y018504D01*
X010427Y019030D01*
X010473Y019142D01*
X010473Y019332D01*
X010400Y019509D01*
X010265Y019644D01*
X010088Y019717D01*
X009897Y019717D01*
X009721Y019644D01*
X009586Y019509D01*
X009513Y019332D01*
X009513Y019142D01*
X009586Y018965D01*
X009721Y018830D01*
X009897Y018757D01*
X010088Y018757D01*
X010161Y018787D01*
X010699Y018249D01*
X010804Y018144D01*
X011289Y018144D01*
X011192Y018103D01*
X011099Y018011D01*
X011096Y018004D01*
X004780Y018004D01*
X004782Y018004D01*
X004875Y018097D01*
X004879Y018108D01*
X007880Y018144D01*
X007953Y018144D01*
X007954Y018145D01*
X007955Y018145D01*
X008007Y018197D01*
X008680Y018871D01*
X008721Y018830D01*
X008897Y018757D01*
X009088Y018757D01*
X009265Y018830D01*
X009400Y018965D01*
X009473Y019142D01*
X009473Y019332D01*
X009400Y019509D01*
X009265Y019644D01*
X009088Y019717D01*
X008897Y019717D01*
X008721Y019644D01*
X008586Y019509D01*
X008513Y019332D01*
X008513Y019212D01*
X008473Y019172D01*
X008473Y019332D01*
X008400Y019509D01*
X008267Y019642D01*
X008267Y019753D01*
X008268Y019756D01*
X008267Y019811D01*
X008267Y019866D01*
X008266Y019868D01*
X008266Y019871D01*
X008244Y019922D01*
X008223Y019972D01*
X008221Y019974D01*
X008220Y019977D01*
X008180Y020015D01*
X008141Y020054D01*
X008139Y020055D01*
X007688Y020487D01*
X007649Y020526D01*
X007646Y020527D01*
X007644Y020529D01*
X007593Y020549D01*
X007543Y020570D01*
X007540Y020570D01*
X007537Y020571D01*
X007482Y020570D01*
X002778Y020570D01*
X002671Y020526D01*
X002590Y020445D01*
X002590Y020445D01*
X002288Y020143D01*
X002192Y020103D01*
X002099Y020011D01*
X002049Y019889D01*
X002049Y019758D01*
X002099Y019637D01*
X002192Y019544D01*
X002313Y019494D01*
X002444Y019494D01*
X002566Y019544D01*
X002658Y019637D01*
X002698Y019733D01*
X002956Y019990D01*
X007368Y019990D01*
X007687Y019684D01*
X007687Y019610D01*
X007586Y019509D01*
X007513Y019332D01*
X007513Y019142D01*
X007586Y018965D01*
X007721Y018830D01*
X007897Y018757D01*
X008058Y018757D01*
X007803Y018503D01*
X004877Y018468D01*
X004875Y018471D01*
X004782Y018564D01*
X004661Y018614D01*
X004530Y018614D01*
X004408Y018564D01*
X004316Y018471D01*
X004269Y018360D01*
X004156Y018551D01*
X004189Y018632D01*
X004189Y018763D01*
X004139Y018885D01*
X004046Y018977D01*
X003925Y019028D01*
X003793Y019028D01*
X003672Y018977D01*
X003579Y018885D01*
X003529Y018763D01*
X003529Y018632D01*
X003529Y018763D02*
X001751Y018763D01*
X001751Y018861D02*
X003570Y018861D01*
X003654Y018960D02*
X001751Y018960D01*
X001751Y019058D02*
X006525Y019058D01*
X006530Y019045D02*
X006565Y018975D01*
X006612Y018911D01*
X006667Y018856D01*
X006731Y018809D01*
X006801Y018774D01*
X006876Y018749D01*
X006954Y018737D01*
X006964Y018737D01*
X006964Y019208D01*
X007022Y019208D01*
X007022Y019266D01*
X007493Y019266D01*
X007493Y019276D01*
X007481Y019354D01*
X007456Y019429D01*
X007421Y019499D01*
X007374Y019563D01*
X007319Y019618D01*
X007255Y019665D01*
X007185Y019700D01*
X007110Y019725D01*
X007032Y019737D01*
X007022Y019737D01*
X007022Y019266D01*
X006964Y019266D01*
X006964Y019737D01*
X006954Y019737D01*
X006876Y019725D01*
X006801Y019700D01*
X006731Y019665D01*
X006667Y019618D01*
X006612Y019563D01*
X006565Y019499D01*
X006530Y019429D01*
X006505Y019354D01*
X006493Y019276D01*
X006493Y019266D01*
X006964Y019266D01*
X006964Y019208D01*
X006493Y019208D01*
X006493Y019198D01*
X006505Y019120D01*
X006530Y019045D01*
X006576Y018960D02*
X004064Y018960D01*
X004149Y018861D02*
X006662Y018861D01*
X006835Y018763D02*
X004189Y018763D01*
X004189Y018664D02*
X007965Y018664D01*
X007884Y018763D02*
X007151Y018763D01*
X007185Y018774D02*
X007255Y018809D01*
X007319Y018856D01*
X007374Y018911D01*
X007421Y018975D01*
X007456Y019045D01*
X007481Y019120D01*
X007493Y019198D01*
X007493Y019208D01*
X007022Y019208D01*
X007022Y018737D01*
X007032Y018737D01*
X007110Y018749D01*
X007185Y018774D01*
X007022Y018763D02*
X006964Y018763D01*
X006964Y018861D02*
X007022Y018861D01*
X007022Y018960D02*
X006964Y018960D01*
X006964Y019058D02*
X007022Y019058D01*
X007022Y019157D02*
X006964Y019157D01*
X006993Y019237D02*
X006879Y019324D01*
X001879Y019324D01*
X001879Y020375D01*
X002505Y020961D01*
X003883Y020969D01*
X007426Y020969D01*
X008320Y021824D01*
X012379Y021824D01*
X015406Y021824D01*
X016028Y022446D01*
X016028Y025654D01*
X016481Y026107D01*
X017170Y026107D01*
X017839Y026776D01*
X018469Y026776D01*
X018646Y026599D01*
X018646Y022347D01*
X017485Y021245D01*
X017485Y020044D01*
X017524Y020005D01*
X017086Y021028D02*
X018830Y021028D01*
X018830Y020930D02*
X016988Y020930D01*
X016891Y020831D02*
X018830Y020831D01*
X018830Y020733D02*
X016793Y020733D01*
X016696Y020634D02*
X018830Y020634D01*
X018830Y020536D02*
X016598Y020536D01*
X016500Y020437D02*
X018830Y020437D01*
X018830Y020339D02*
X016403Y020339D01*
X016305Y020240D02*
X018830Y020240D01*
X018830Y020142D02*
X016208Y020142D01*
X016110Y020043D02*
X018830Y020043D01*
X018830Y019945D02*
X016013Y019945D01*
X015915Y019846D02*
X018830Y019846D01*
X018830Y019748D02*
X015818Y019748D01*
X015720Y019649D02*
X016302Y019649D01*
X016313Y019654D02*
X016192Y019603D01*
X016099Y019511D01*
X016049Y019389D01*
X016049Y019258D01*
X016052Y019251D01*
X014951Y018151D01*
X014944Y018154D01*
X014813Y018154D01*
X014692Y018103D01*
X014599Y018011D01*
X014549Y017889D01*
X014549Y017758D01*
X014599Y017637D01*
X014692Y017544D01*
X014813Y017494D01*
X014944Y017494D01*
X015066Y017544D01*
X015158Y017637D01*
X015209Y017758D01*
X015209Y017889D01*
X015206Y017896D01*
X016306Y018996D01*
X016313Y018994D01*
X016444Y018994D01*
X016566Y019044D01*
X016658Y019137D01*
X016709Y019258D01*
X016709Y019389D01*
X016658Y019511D01*
X016566Y019603D01*
X016444Y019654D01*
X016313Y019654D01*
X016455Y019649D02*
X018830Y019649D01*
X018830Y019551D02*
X016618Y019551D01*
X016683Y019452D02*
X018830Y019452D01*
X018830Y019354D02*
X016709Y019354D01*
X016708Y019255D02*
X018830Y019255D01*
X018830Y019157D02*
X016667Y019157D01*
X016580Y019058D02*
X018830Y019058D01*
X018830Y018960D02*
X016269Y018960D01*
X016171Y018861D02*
X018830Y018861D01*
X018830Y018763D02*
X016072Y018763D01*
X015974Y018664D02*
X018830Y018664D01*
X018830Y018566D02*
X015875Y018566D01*
X015777Y018467D02*
X018830Y018467D01*
X018830Y018369D02*
X015678Y018369D01*
X015580Y018270D02*
X018830Y018270D01*
X018830Y018172D02*
X015481Y018172D01*
X015383Y018073D02*
X018830Y018073D01*
X018830Y017975D02*
X015284Y017975D01*
X015209Y017876D02*
X018830Y017876D01*
X018830Y017778D02*
X015209Y017778D01*
X015176Y017679D02*
X018830Y017679D01*
X018830Y017581D02*
X015102Y017581D01*
X014879Y017824D02*
X016379Y019324D01*
X016139Y019551D02*
X015623Y019551D01*
X015525Y019452D02*
X016075Y019452D01*
X016049Y019354D02*
X015428Y019354D01*
X015330Y019255D02*
X016050Y019255D01*
X015957Y019157D02*
X015232Y019157D01*
X015135Y019058D02*
X015859Y019058D01*
X015760Y018960D02*
X015037Y018960D01*
X014940Y018861D02*
X015662Y018861D01*
X015563Y018763D02*
X014842Y018763D01*
X014745Y018664D02*
X015465Y018664D01*
X015366Y018566D02*
X014647Y018566D01*
X014550Y018467D02*
X015268Y018467D01*
X015169Y018369D02*
X014452Y018369D01*
X014355Y018270D02*
X015071Y018270D01*
X014972Y018172D02*
X014257Y018172D01*
X014229Y018144D02*
X014229Y018144D01*
X014154Y018324D02*
X018143Y022351D01*
X018143Y026095D01*
X018174Y026127D01*
X018150Y026127D01*
X018143Y026119D01*
X018446Y026249D02*
X019146Y026249D01*
X019059Y026150D02*
X018473Y026150D01*
X018472Y026052D02*
X019018Y026052D01*
X019011Y025953D02*
X018431Y025953D01*
X018345Y025855D02*
X019025Y025855D01*
X019066Y025756D02*
X018323Y025756D01*
X018323Y025658D02*
X019129Y025658D01*
X019129Y025559D02*
X018323Y025559D01*
X018323Y025461D02*
X019129Y025461D01*
X019129Y025362D02*
X018323Y025362D01*
X018323Y025264D02*
X019129Y025264D01*
X019129Y025165D02*
X018323Y025165D01*
X018323Y025067D02*
X019129Y025067D01*
X019129Y024968D02*
X018323Y024968D01*
X018323Y024870D02*
X019129Y024870D01*
X019129Y024771D02*
X018323Y024771D01*
X018323Y024673D02*
X019129Y024673D01*
X019129Y024574D02*
X018323Y024574D01*
X018323Y024476D02*
X019129Y024476D01*
X019129Y024377D02*
X018323Y024377D01*
X018323Y024279D02*
X019129Y024279D01*
X019129Y024180D02*
X018323Y024180D01*
X018323Y024082D02*
X019129Y024082D01*
X019129Y023983D02*
X018323Y023983D01*
X018323Y023885D02*
X019129Y023885D01*
X019129Y023786D02*
X018323Y023786D01*
X018323Y023688D02*
X019129Y023688D01*
X019129Y023589D02*
X018323Y023589D01*
X018323Y023491D02*
X019129Y023491D01*
X019129Y023392D02*
X018323Y023392D01*
X018323Y023294D02*
X019129Y023294D01*
X019129Y023195D02*
X018323Y023195D01*
X018323Y023097D02*
X019129Y023097D01*
X019129Y022998D02*
X018323Y022998D01*
X018323Y022900D02*
X019129Y022900D01*
X019129Y022801D02*
X018323Y022801D01*
X018323Y022703D02*
X019129Y022703D01*
X019129Y022604D02*
X018323Y022604D01*
X018323Y022506D02*
X019129Y022506D01*
X019129Y022407D02*
X018323Y022407D01*
X018323Y022309D02*
X019129Y022309D01*
X019129Y022210D02*
X018256Y022210D01*
X018323Y022277D02*
X018323Y022277D01*
X018159Y022112D02*
X019129Y022112D01*
X019129Y022013D02*
X018061Y022013D01*
X017964Y021915D02*
X019129Y021915D01*
X019129Y021816D02*
X017866Y021816D01*
X017768Y021718D02*
X019129Y021718D01*
X019129Y021619D02*
X017671Y021619D01*
X017573Y021521D02*
X019041Y021521D01*
X018943Y021422D02*
X017476Y021422D01*
X017378Y021324D02*
X018858Y021324D01*
X018830Y021225D02*
X017281Y021225D01*
X017183Y021127D02*
X018830Y021127D01*
X019330Y021028D02*
X020114Y021028D01*
X020114Y020930D02*
X019330Y020930D01*
X019330Y020831D02*
X020114Y020831D01*
X020114Y020733D02*
X019330Y020733D01*
X019330Y020634D02*
X020114Y020634D01*
X020114Y020536D02*
X019330Y020536D01*
X019330Y020437D02*
X020114Y020437D01*
X019958Y020339D02*
X019330Y020339D01*
X019330Y020240D02*
X019794Y020240D01*
X019708Y020142D02*
X019330Y020142D01*
X019330Y020043D02*
X019667Y020043D01*
X019648Y019945D02*
X019330Y019945D01*
X019330Y019846D02*
X019648Y019846D01*
X019676Y019748D02*
X019330Y019748D01*
X019330Y019452D02*
X019955Y019452D01*
X019885Y019481D02*
X019717Y019649D01*
X019330Y019354D02*
X020114Y019354D01*
X020114Y019255D02*
X019330Y019255D01*
X019330Y019157D02*
X020114Y019157D01*
X020114Y019058D02*
X019330Y019058D01*
X019330Y018960D02*
X020114Y018960D01*
X020114Y018861D02*
X019330Y018861D01*
X019330Y018763D02*
X020114Y018763D01*
X020114Y018664D02*
X019330Y018664D01*
X019330Y018566D02*
X020114Y018566D01*
X020114Y018467D02*
X019330Y018467D01*
X019330Y018369D02*
X020114Y018369D01*
X020114Y018270D02*
X019330Y018270D01*
X019330Y018172D02*
X020114Y018172D01*
X020114Y018073D02*
X019330Y018073D01*
X019330Y017975D02*
X020114Y017975D01*
X020114Y017876D02*
X019330Y017876D01*
X019330Y017778D02*
X020114Y017778D01*
X020114Y017679D02*
X019330Y017679D01*
X019330Y017581D02*
X020114Y017581D01*
X020114Y017482D02*
X019330Y017482D01*
X019330Y017384D02*
X020114Y017384D01*
X020114Y017285D02*
X019330Y017285D01*
X019330Y017187D02*
X020114Y017187D01*
X020114Y017088D02*
X019331Y017088D01*
X019326Y016990D02*
X020114Y016990D01*
X020097Y016891D02*
X019274Y016891D01*
X019167Y016793D02*
X020071Y016793D01*
X020024Y016694D02*
X019060Y016694D01*
X018952Y016596D02*
X019967Y016596D01*
X019869Y016497D02*
X018845Y016497D01*
X018738Y016399D02*
X019725Y016399D01*
X019443Y016300D02*
X018631Y016300D01*
X018524Y016202D02*
X019128Y016202D01*
X018920Y016103D02*
X018416Y016103D01*
X018309Y016005D02*
X018711Y016005D01*
X018511Y015906D02*
X018202Y015906D01*
X018095Y015808D02*
X018375Y015808D01*
X018240Y015709D02*
X017988Y015709D01*
X017880Y015611D02*
X018105Y015611D01*
X017969Y015512D02*
X017857Y015512D01*
X017916Y015473D02*
X017916Y015473D01*
X017860Y015414D02*
X017849Y015414D01*
X017570Y016005D02*
X017169Y016005D01*
X017246Y015906D02*
X017463Y015906D01*
X017390Y015808D02*
X017302Y015808D01*
X017356Y015709D02*
X017372Y015709D01*
X017071Y016103D02*
X017677Y016103D01*
X017785Y016202D02*
X016936Y016202D01*
X016744Y016300D02*
X017892Y016300D01*
X017999Y016399D02*
X017666Y016399D01*
X017638Y016370D02*
X017741Y016474D01*
X017797Y016609D01*
X017797Y016755D01*
X017741Y016890D01*
X017638Y016993D01*
X017503Y017049D01*
X017357Y017049D01*
X017222Y016993D01*
X017137Y016908D01*
X015782Y016908D01*
X015690Y016870D01*
X015620Y016800D01*
X014773Y015953D01*
X014735Y015862D01*
X014735Y015069D01*
X014399Y014733D01*
X014361Y014641D01*
X014361Y010699D01*
X013208Y009546D01*
X011176Y009546D01*
X011087Y009635D01*
X010952Y009691D01*
X010806Y009691D01*
X010671Y009635D01*
X010567Y009532D01*
X010511Y009397D01*
X010511Y009251D01*
X010567Y009115D01*
X010671Y009012D01*
X010806Y008956D01*
X010952Y008956D01*
X011087Y009012D01*
X011121Y009046D01*
X013362Y009046D01*
X013453Y009084D01*
X014753Y010383D01*
X014823Y010454D01*
X014861Y010546D01*
X014861Y014488D01*
X015127Y014753D01*
X015197Y014824D01*
X015235Y014916D01*
X015235Y015708D01*
X015935Y016408D01*
X017184Y016408D01*
X017222Y016370D01*
X017357Y016314D01*
X017503Y016314D01*
X017638Y016370D01*
X017751Y016497D02*
X018106Y016497D01*
X018213Y016596D02*
X017792Y016596D01*
X017797Y016694D02*
X018321Y016694D01*
X018428Y016793D02*
X017782Y016793D01*
X017740Y016891D02*
X018535Y016891D01*
X018642Y016990D02*
X017642Y016990D01*
X017218Y016990D02*
X013059Y016990D01*
X013059Y017088D02*
X018749Y017088D01*
X018830Y017187D02*
X013059Y017187D01*
X013059Y017285D02*
X018830Y017285D01*
X018830Y017384D02*
X013059Y017384D01*
X013059Y017482D02*
X018830Y017482D01*
X017194Y016399D02*
X015925Y016399D01*
X016021Y016300D02*
X015827Y016300D01*
X015829Y016202D02*
X015728Y016202D01*
X015695Y016103D02*
X015630Y016103D01*
X015596Y016005D02*
X015531Y016005D01*
X015520Y015906D02*
X015433Y015906D01*
X015463Y015808D02*
X015334Y015808D01*
X015410Y015709D02*
X015236Y015709D01*
X015235Y015611D02*
X015383Y015611D01*
X015357Y015512D02*
X015235Y015512D01*
X015235Y015414D02*
X015342Y015414D01*
X015342Y015315D02*
X015235Y015315D01*
X015235Y015217D02*
X015342Y015217D01*
X015359Y015118D02*
X015235Y015118D01*
X015235Y015020D02*
X015386Y015020D01*
X015412Y014921D02*
X015235Y014921D01*
X015196Y014823D02*
X015468Y014823D01*
X015525Y014724D02*
X015097Y014724D01*
X014999Y014626D02*
X015605Y014626D01*
X015704Y014527D02*
X014900Y014527D01*
X014861Y014429D02*
X015845Y014429D01*
X016055Y014330D02*
X014861Y014330D01*
X014861Y014232D02*
X016552Y014232D01*
X016490Y014133D02*
X014861Y014133D01*
X014861Y014035D02*
X016428Y014035D01*
X016365Y013936D02*
X014861Y013936D01*
X014861Y013838D02*
X016303Y013838D01*
X016285Y013739D02*
X016290Y013717D01*
X016290Y013542D02*
X014861Y013542D01*
X014861Y013444D02*
X016290Y013444D01*
X016290Y013345D02*
X014861Y013345D01*
X014861Y013247D02*
X016290Y013247D01*
X016290Y013148D02*
X014861Y013148D01*
X014861Y013050D02*
X016290Y013050D01*
X016290Y012951D02*
X014861Y012951D01*
X014861Y012853D02*
X016290Y012853D01*
X016290Y012754D02*
X014861Y012754D01*
X014861Y012656D02*
X016290Y012656D01*
X016290Y012557D02*
X014861Y012557D01*
X014861Y012459D02*
X016290Y012459D01*
X016290Y012360D02*
X014861Y012360D01*
X014861Y012262D02*
X016290Y012262D01*
X016290Y012163D02*
X014861Y012163D01*
X014861Y012065D02*
X016290Y012065D01*
X016278Y011966D02*
X014861Y011966D01*
X014861Y011868D02*
X016179Y011868D01*
X016081Y011769D02*
X014861Y011769D01*
X014861Y011671D02*
X015982Y011671D01*
X015884Y011572D02*
X014861Y011572D01*
X014861Y011474D02*
X015785Y011474D01*
X015687Y011375D02*
X014861Y011375D01*
X014861Y011277D02*
X015588Y011277D01*
X015490Y011178D02*
X014861Y011178D01*
X014861Y011080D02*
X015391Y011080D01*
X015293Y010981D02*
X014861Y010981D01*
X014861Y010883D02*
X015194Y010883D01*
X015114Y010784D02*
X014861Y010784D01*
X014861Y010686D02*
X015089Y010686D01*
X015089Y010587D02*
X014861Y010587D01*
X014837Y010489D02*
X015089Y010489D01*
X015089Y010390D02*
X014759Y010390D01*
X014661Y010292D02*
X015089Y010292D01*
X015089Y010193D02*
X014562Y010193D01*
X014464Y010095D02*
X015089Y010095D01*
X015089Y009996D02*
X014365Y009996D01*
X014267Y009898D02*
X015089Y009898D01*
X015089Y009799D02*
X014168Y009799D01*
X014070Y009701D02*
X015089Y009701D01*
X015089Y009602D02*
X013971Y009602D01*
X013873Y009504D02*
X015089Y009504D01*
X015089Y009405D02*
X013774Y009405D01*
X013676Y009307D02*
X015089Y009307D01*
X015089Y009208D02*
X013577Y009208D01*
X013479Y009110D02*
X015089Y009110D01*
X015089Y009011D02*
X011084Y009011D01*
X010673Y009011D02*
X009669Y009011D01*
X009767Y008913D02*
X015089Y008913D01*
X015087Y008814D02*
X009864Y008814D01*
X009962Y008716D02*
X015049Y008716D01*
X015049Y008617D02*
X010059Y008617D01*
X010157Y008519D02*
X015087Y008519D01*
X015176Y008420D02*
X010254Y008420D01*
X010352Y008322D02*
X015668Y008322D01*
X015766Y008223D02*
X010449Y008223D01*
X010547Y008125D02*
X015865Y008125D01*
X015963Y008026D02*
X010644Y008026D01*
X010615Y007800D02*
X010891Y007702D01*
X010851Y007662D01*
X010851Y007666D01*
X010859Y007674D01*
X010615Y007800D02*
X008627Y009808D01*
X007583Y010831D01*
X007576Y011115D01*
X007576Y011824D01*
X007801Y012065D02*
X014361Y012065D01*
X014361Y012163D02*
X007059Y012163D01*
X007059Y012065D02*
X007350Y012065D01*
X007277Y011966D02*
X007059Y011966D01*
X007059Y011868D02*
X007246Y011868D01*
X007246Y011769D02*
X007059Y011769D01*
X007059Y011671D02*
X007282Y011671D01*
X007360Y011572D02*
X007059Y011572D01*
X007055Y011474D02*
X007396Y011474D01*
X007396Y011375D02*
X007055Y011375D01*
X007055Y011277D02*
X007396Y011277D01*
X007394Y011178D02*
X007078Y011178D01*
X007177Y011080D02*
X007396Y011080D01*
X007399Y010981D02*
X007275Y010981D01*
X007374Y010883D02*
X007402Y010883D01*
X007759Y010981D02*
X014361Y010981D01*
X014361Y010883D02*
X007788Y010883D01*
X007889Y010784D02*
X014361Y010784D01*
X014348Y010686D02*
X007989Y010686D01*
X008090Y010587D02*
X014249Y010587D01*
X014151Y010489D02*
X008190Y010489D01*
X008290Y010390D02*
X014052Y010390D01*
X013954Y010292D02*
X008391Y010292D01*
X008491Y010193D02*
X013855Y010193D01*
X013757Y010095D02*
X008592Y010095D01*
X008692Y009996D02*
X013658Y009996D01*
X013560Y009898D02*
X008792Y009898D01*
X008889Y009799D02*
X013461Y009799D01*
X013363Y009701D02*
X008986Y009701D01*
X009084Y009602D02*
X010638Y009602D01*
X010556Y009504D02*
X009181Y009504D01*
X009279Y009405D02*
X010515Y009405D01*
X010511Y009307D02*
X009376Y009307D01*
X009474Y009208D02*
X010529Y009208D01*
X010573Y009110D02*
X009572Y009110D01*
X009028Y008420D02*
X004186Y008420D01*
X004088Y008322D02*
X009126Y008322D01*
X009225Y008223D02*
X003989Y008223D01*
X003891Y008125D02*
X009323Y008125D01*
X009422Y008026D02*
X003826Y008026D01*
X003826Y007928D02*
X009520Y007928D01*
X009619Y007829D02*
X003826Y007829D01*
X003826Y007731D02*
X009717Y007731D01*
X009816Y007632D02*
X003826Y007632D01*
X003826Y007534D02*
X009914Y007534D01*
X010013Y007435D02*
X003826Y007435D01*
X003826Y007337D02*
X010111Y007337D01*
X010210Y007238D02*
X003826Y007238D01*
X003826Y007140D02*
X010308Y007140D01*
X010407Y007041D02*
X003826Y007041D01*
X003568Y006824D02*
X003379Y006824D01*
X003351Y006343D01*
X003681Y006352D02*
X005096Y006352D01*
X004998Y006450D02*
X003664Y006450D01*
X003613Y006549D02*
X004899Y006549D01*
X004879Y006824D02*
X005879Y005824D01*
X005672Y005564D02*
X005620Y005564D01*
X005588Y005662D02*
X005580Y005662D01*
X005549Y005761D02*
X005528Y005761D01*
X005549Y005859D02*
X005463Y005859D01*
X005490Y005958D02*
X005380Y005958D01*
X005392Y006056D02*
X005275Y006056D01*
X005293Y006155D02*
X005136Y006155D01*
X005195Y006253D02*
X004925Y006253D01*
X004571Y006253D02*
X004533Y006253D01*
X004533Y006155D02*
X004571Y006155D01*
X004571Y006056D02*
X004533Y006056D01*
X004533Y005958D02*
X004571Y005958D01*
X004571Y005859D02*
X004533Y005859D01*
X004533Y005761D02*
X004571Y005761D01*
X004571Y005662D02*
X004533Y005662D01*
X004533Y005564D02*
X004571Y005564D01*
X004602Y005465D02*
X004502Y005465D01*
X004502Y005367D02*
X004602Y005367D01*
X004602Y005268D02*
X004502Y005268D01*
X004602Y005170D02*
X005261Y005170D01*
X005280Y005182D02*
X005379Y005324D01*
X005299Y005170D02*
X015170Y005170D01*
X015170Y005268D02*
X005684Y005268D01*
X005673Y005367D02*
X015191Y005367D01*
X015217Y005465D02*
X005651Y005465D01*
X005681Y005071D02*
X015170Y005071D01*
X015176Y004973D02*
X005668Y004973D01*
X005645Y004874D02*
X006395Y004874D01*
X006082Y004776D02*
X005611Y004776D01*
X005568Y004677D02*
X005912Y004677D01*
X005798Y004579D02*
X005512Y004579D01*
X005443Y004480D02*
X005700Y004480D01*
X005629Y004382D02*
X005356Y004382D01*
X005244Y004283D02*
X005573Y004283D01*
X005519Y004185D02*
X005095Y004185D01*
X004848Y004086D02*
X005492Y004086D01*
X005190Y003101D02*
X003474Y003101D01*
X003247Y003003D02*
X005096Y003003D01*
X005055Y002904D02*
X002520Y002904D01*
X002550Y003003D02*
X002350Y003003D01*
X002323Y003101D02*
X002179Y003101D01*
X002225Y003200D02*
X002008Y003200D01*
X002691Y002806D02*
X005049Y002806D01*
X005070Y002707D02*
X002862Y002707D01*
X003032Y002609D02*
X005127Y002609D01*
X005199Y002510D02*
X003203Y002510D01*
X003374Y002412D02*
X005199Y002412D01*
X005199Y002313D02*
X003545Y002313D01*
X003715Y002215D02*
X005232Y002215D01*
X005379Y002324D02*
X005576Y002328D01*
X005891Y002603D01*
X005736Y002707D02*
X005688Y002707D01*
X005601Y002116D02*
X003886Y002116D01*
X004057Y002018D02*
X005544Y002018D01*
X005500Y001919D02*
X004227Y001919D01*
X004398Y001821D02*
X005474Y001821D01*
X005447Y001722D02*
X004569Y001722D01*
X004740Y001624D02*
X005441Y001624D01*
X005441Y001525D02*
X004910Y001525D01*
X005081Y001427D02*
X005441Y001427D01*
X005466Y001328D02*
X005252Y001328D01*
X005422Y001230D02*
X005492Y001230D01*
X005379Y002324D02*
X005379Y002824D01*
X004009Y004185D02*
X003882Y004185D01*
X003860Y004283D02*
X003841Y004283D01*
X003492Y004776D02*
X003480Y004776D01*
X003459Y004874D02*
X003264Y004874D01*
X003420Y005268D02*
X000644Y005268D01*
X000644Y005367D02*
X003431Y005367D01*
X003453Y005465D02*
X000644Y005465D01*
X000644Y005564D02*
X003484Y005564D01*
X003524Y005662D02*
X000644Y005662D01*
X000644Y005761D02*
X003576Y005761D01*
X003641Y005859D02*
X000644Y005859D01*
X000644Y005958D02*
X003724Y005958D01*
X003829Y006056D02*
X003520Y006056D01*
X003629Y006155D02*
X003968Y006155D01*
X004179Y006253D02*
X003671Y006253D01*
X003182Y006056D02*
X000644Y006056D01*
X000644Y006155D02*
X003073Y006155D01*
X003031Y006253D02*
X000644Y006253D01*
X000644Y006352D02*
X003021Y006352D01*
X003038Y006450D02*
X000644Y006450D01*
X000644Y006549D02*
X003090Y006549D01*
X003188Y006647D02*
X000644Y006647D01*
X000644Y006746D02*
X003194Y006746D01*
X003199Y006844D02*
X000644Y006844D01*
X000644Y006943D02*
X003242Y006943D01*
X003466Y007041D02*
X000644Y007041D01*
X000644Y007140D02*
X003466Y007140D01*
X003466Y007238D02*
X000644Y007238D01*
X000644Y007337D02*
X003466Y007337D01*
X003466Y007435D02*
X000644Y007435D01*
X000644Y007534D02*
X003466Y007534D01*
X003466Y007632D02*
X000644Y007632D01*
X000644Y007731D02*
X003466Y007731D01*
X003466Y007829D02*
X000644Y007829D01*
X000644Y007928D02*
X003466Y007928D01*
X003466Y008026D02*
X000657Y008026D01*
X000684Y008125D02*
X003466Y008125D01*
X003480Y008223D02*
X000728Y008223D01*
X000785Y008322D02*
X003579Y008322D01*
X003677Y008420D02*
X000879Y008420D01*
X001015Y008519D02*
X003776Y008519D01*
X003874Y008617D02*
X001276Y008617D01*
X001548Y008687D02*
X001548Y008687D01*
X001608Y008716D02*
X003973Y008716D01*
X004071Y008814D02*
X001817Y008814D01*
X002025Y008913D02*
X004642Y008913D01*
X004741Y009011D02*
X002233Y009011D01*
X002231Y009010D02*
X002231Y009010D01*
X002368Y009110D02*
X004062Y009110D01*
X003844Y009208D02*
X002504Y009208D01*
X002639Y009307D02*
X003700Y009307D01*
X003601Y009405D02*
X002774Y009405D01*
X002888Y009504D02*
X003519Y009504D01*
X003463Y009602D02*
X002980Y009602D01*
X003073Y009701D02*
X003406Y009701D01*
X003379Y009799D02*
X003165Y009799D01*
X003257Y009898D02*
X003353Y009898D01*
X004518Y011966D02*
X005482Y011966D01*
X005580Y011868D02*
X004617Y011868D01*
X004715Y011769D02*
X005679Y011769D01*
X005777Y011671D02*
X004814Y011671D01*
X004912Y011572D02*
X005876Y011572D01*
X005974Y011474D02*
X005011Y011474D01*
X005109Y011375D02*
X006073Y011375D01*
X006171Y011277D02*
X005208Y011277D01*
X005306Y011178D02*
X006270Y011178D01*
X006368Y011080D02*
X005405Y011080D01*
X005503Y010981D02*
X006467Y010981D01*
X006565Y010883D02*
X005598Y010883D01*
X005598Y010784D02*
X006664Y010784D01*
X006762Y010686D02*
X005598Y010686D01*
X005598Y010587D02*
X006861Y010587D01*
X006959Y010489D02*
X005598Y010489D01*
X005598Y010390D02*
X007058Y010390D01*
X007156Y010292D02*
X005598Y010292D01*
X005598Y010193D02*
X007255Y010193D01*
X007353Y010095D02*
X005598Y010095D01*
X005598Y009996D02*
X007452Y009996D01*
X007550Y009898D02*
X005598Y009898D01*
X005598Y009799D02*
X007649Y009799D01*
X007747Y009701D02*
X005598Y009701D01*
X005598Y009602D02*
X007846Y009602D01*
X007944Y009504D02*
X005598Y009504D01*
X005598Y009405D02*
X008043Y009405D01*
X008141Y009307D02*
X005545Y009307D01*
X005447Y009208D02*
X008240Y009208D01*
X008338Y009110D02*
X005348Y009110D01*
X005250Y009011D02*
X008437Y009011D01*
X008535Y008913D02*
X005151Y008913D01*
X005053Y008814D02*
X008634Y008814D01*
X008732Y008716D02*
X004954Y008716D01*
X004856Y008617D02*
X008831Y008617D01*
X008929Y008519D02*
X004757Y008519D01*
X004687Y009110D02*
X004839Y009110D01*
X004906Y009208D02*
X004938Y009208D01*
X005383Y012065D02*
X004420Y012065D01*
X004321Y012163D02*
X005285Y012163D01*
X005186Y012262D02*
X004299Y012262D01*
X004299Y012360D02*
X005088Y012360D01*
X004989Y012459D02*
X004299Y012459D01*
X004386Y012557D02*
X004679Y012557D01*
X004591Y012656D02*
X004485Y012656D01*
X004252Y012951D02*
X004160Y012951D01*
X004141Y013050D02*
X004350Y013050D01*
X004449Y013148D02*
X004123Y013148D01*
X004104Y013247D02*
X004547Y013247D01*
X004646Y013345D02*
X004085Y013345D01*
X004066Y013444D02*
X004744Y013444D01*
X004843Y013542D02*
X004047Y013542D01*
X004017Y013641D02*
X004941Y013641D01*
X005040Y013739D02*
X003978Y013739D01*
X003939Y013838D02*
X005138Y013838D01*
X005237Y013936D02*
X003900Y013936D01*
X003861Y014035D02*
X005335Y014035D01*
X005434Y014133D02*
X003822Y014133D01*
X003783Y014232D02*
X005532Y014232D01*
X005631Y014330D02*
X004702Y014330D01*
X004776Y014350D02*
X005014Y014487D01*
X005207Y014681D01*
X005344Y014918D01*
X005415Y015183D01*
X005415Y015457D01*
X005344Y015721D01*
X005207Y015959D01*
X005014Y016152D01*
X004776Y016289D01*
X004512Y016360D01*
X004238Y016360D01*
X003973Y016289D01*
X003736Y016152D01*
X003542Y015959D01*
X003405Y015721D01*
X003334Y015457D01*
X003334Y015183D01*
X003405Y014918D01*
X003542Y014681D01*
X003736Y014487D01*
X003973Y014350D01*
X004238Y014279D01*
X004512Y014279D01*
X004776Y014350D01*
X004913Y014429D02*
X005729Y014429D01*
X005828Y014527D02*
X005054Y014527D01*
X005152Y014626D02*
X005926Y014626D01*
X006025Y014724D02*
X005232Y014724D01*
X005289Y014823D02*
X006123Y014823D01*
X006222Y014921D02*
X005345Y014921D01*
X005372Y015020D02*
X006320Y015020D01*
X006419Y015118D02*
X005398Y015118D01*
X005415Y015217D02*
X006517Y015217D01*
X006616Y015315D02*
X005415Y015315D01*
X005415Y015414D02*
X006714Y015414D01*
X006879Y013824D02*
X011379Y013824D01*
X012879Y015324D01*
X012879Y017824D01*
X012379Y017824D01*
X012596Y018073D02*
X014662Y018073D01*
X014584Y017975D02*
X012982Y017975D01*
X013059Y017876D02*
X014549Y017876D01*
X014549Y017778D02*
X013059Y017778D01*
X013059Y017679D02*
X014581Y017679D01*
X014655Y017581D02*
X013059Y017581D01*
X013059Y016891D02*
X015740Y016891D01*
X015612Y016793D02*
X013059Y016793D01*
X013059Y016694D02*
X015514Y016694D01*
X015415Y016596D02*
X013059Y016596D01*
X013059Y016497D02*
X015317Y016497D01*
X015218Y016399D02*
X013059Y016399D01*
X013059Y016300D02*
X015120Y016300D01*
X015021Y016202D02*
X013059Y016202D01*
X013059Y016103D02*
X014923Y016103D01*
X014824Y016005D02*
X013059Y016005D01*
X013059Y015906D02*
X014754Y015906D01*
X014735Y015808D02*
X013059Y015808D01*
X013059Y015709D02*
X014735Y015709D01*
X014735Y015611D02*
X013059Y015611D01*
X013059Y015512D02*
X014735Y015512D01*
X014735Y015414D02*
X013059Y015414D01*
X013059Y015315D02*
X014735Y015315D01*
X014735Y015217D02*
X013026Y015217D01*
X012928Y015118D02*
X014735Y015118D01*
X014686Y015020D02*
X012829Y015020D01*
X012731Y014921D02*
X014587Y014921D01*
X014489Y014823D02*
X012632Y014823D01*
X012534Y014724D02*
X014395Y014724D01*
X014361Y014626D02*
X012435Y014626D01*
X012337Y014527D02*
X014361Y014527D01*
X014361Y014429D02*
X012238Y014429D01*
X012140Y014330D02*
X014361Y014330D01*
X014361Y014232D02*
X012041Y014232D01*
X011943Y014133D02*
X014361Y014133D01*
X014361Y014035D02*
X011844Y014035D01*
X011746Y013936D02*
X014361Y013936D01*
X014361Y013838D02*
X011647Y013838D01*
X011549Y013739D02*
X014361Y013739D01*
X014361Y013641D02*
X007059Y013641D01*
X007059Y013542D02*
X014361Y013542D01*
X014361Y013444D02*
X007059Y013444D01*
X007059Y013345D02*
X014361Y013345D01*
X014361Y013247D02*
X011308Y013247D01*
X011248Y013272D02*
X011116Y013272D01*
X010995Y013221D01*
X010902Y013129D01*
X010852Y013007D01*
X010852Y012876D01*
X010902Y012755D01*
X010995Y012662D01*
X011116Y012612D01*
X011248Y012612D01*
X011254Y012615D01*
X011284Y012585D01*
X013596Y012585D01*
X013599Y012578D01*
X013692Y012485D01*
X013813Y012435D01*
X013944Y012435D01*
X014066Y012485D01*
X014158Y012578D01*
X014209Y012699D01*
X014209Y012830D01*
X014158Y012951D01*
X014159Y012951D02*
X014361Y012951D01*
X014361Y012853D02*
X014199Y012853D01*
X014209Y012754D02*
X014361Y012754D01*
X014361Y012656D02*
X014191Y012656D01*
X014138Y012557D02*
X014361Y012557D01*
X014361Y012459D02*
X014002Y012459D01*
X013755Y012459D02*
X007059Y012459D01*
X007059Y012557D02*
X013620Y012557D01*
X013879Y012765D02*
X011359Y012765D01*
X011182Y012942D01*
X011056Y013247D02*
X007059Y013247D01*
X007059Y013148D02*
X010922Y013148D01*
X010869Y013050D02*
X007059Y013050D01*
X007059Y012951D02*
X010852Y012951D01*
X010862Y012853D02*
X007059Y012853D01*
X007059Y012754D02*
X010903Y012754D01*
X011010Y012656D02*
X007059Y012656D01*
X007059Y012360D02*
X014361Y012360D01*
X014361Y012262D02*
X007059Y012262D01*
X006875Y011639D02*
X006875Y011631D01*
X006879Y011627D01*
X006879Y013824D01*
X007874Y011966D02*
X014361Y011966D01*
X014361Y011868D02*
X007906Y011868D01*
X007906Y011769D02*
X014361Y011769D01*
X014361Y011671D02*
X007869Y011671D01*
X007791Y011572D02*
X014361Y011572D01*
X014361Y011474D02*
X007756Y011474D01*
X007756Y011375D02*
X014361Y011375D01*
X014361Y011277D02*
X007756Y011277D01*
X007756Y011178D02*
X014361Y011178D01*
X014361Y011080D02*
X007757Y011080D01*
X006875Y011127D02*
X006875Y011631D01*
X006875Y011127D02*
X010847Y007154D01*
X011312Y007154D01*
X011425Y006844D02*
X020114Y006844D01*
X020114Y006746D02*
X015751Y006746D01*
X015872Y006647D02*
X020114Y006647D01*
X020114Y006549D02*
X015919Y006549D01*
X015933Y006450D02*
X020114Y006450D01*
X020114Y006943D02*
X011567Y006943D01*
X011622Y007041D02*
X020114Y007041D01*
X020114Y007140D02*
X011642Y007140D01*
X011634Y007238D02*
X020114Y007238D01*
X020114Y007337D02*
X011594Y007337D01*
X011496Y007435D02*
X020114Y007435D01*
X020114Y007534D02*
X011158Y007534D01*
X011189Y007632D02*
X020114Y007632D01*
X020114Y007731D02*
X017828Y007731D01*
X017983Y007829D02*
X020114Y007829D01*
X020112Y007928D02*
X018082Y007928D01*
X018180Y008026D02*
X020097Y008026D01*
X020071Y008125D02*
X018279Y008125D01*
X018468Y008223D02*
X020029Y008223D01*
X019971Y008322D02*
X018585Y008322D01*
X018637Y008420D02*
X019879Y008420D01*
X019744Y008519D02*
X018660Y008519D01*
X018660Y008617D02*
X019482Y008617D01*
X019210Y008687D02*
X019210Y008687D01*
X019150Y008716D02*
X018620Y008716D01*
X018546Y008814D02*
X018941Y008814D01*
X018732Y008913D02*
X018372Y008913D01*
X018212Y008913D02*
X015896Y008913D01*
X015995Y008814D02*
X018038Y008814D01*
X017964Y008716D02*
X016094Y008716D01*
X016192Y008617D02*
X017925Y008617D01*
X017853Y008519D02*
X016291Y008519D01*
X016389Y008420D02*
X017754Y008420D01*
X017656Y008322D02*
X016488Y008322D01*
X016062Y007928D02*
X011072Y007928D01*
X011152Y007829D02*
X016160Y007829D01*
X016315Y007731D02*
X011189Y007731D01*
X011127Y007435D02*
X011087Y007435D01*
X011030Y007337D02*
X010920Y007337D01*
X011014Y006943D02*
X011057Y006943D01*
X011113Y006844D02*
X011198Y006844D01*
X011211Y006746D02*
X015455Y006746D01*
X015334Y006647D02*
X011310Y006647D01*
X011272Y006430D02*
X004879Y012824D01*
X004048Y014330D02*
X003733Y014330D01*
X003671Y014429D02*
X003837Y014429D01*
X003696Y014527D02*
X003608Y014527D01*
X003597Y014626D02*
X003546Y014626D01*
X003517Y014724D02*
X003484Y014724D01*
X003460Y014823D02*
X003421Y014823D01*
X003404Y014921D02*
X003359Y014921D01*
X003378Y015020D02*
X003267Y015020D01*
X003352Y015118D02*
X003174Y015118D01*
X003082Y015217D02*
X003334Y015217D01*
X003334Y015315D02*
X002990Y015315D01*
X002897Y015414D02*
X003334Y015414D01*
X003349Y015512D02*
X002788Y015512D01*
X002653Y015611D02*
X003375Y015611D01*
X003402Y015709D02*
X002517Y015709D01*
X002382Y015808D02*
X003455Y015808D01*
X003512Y015906D02*
X002247Y015906D01*
X002047Y016005D02*
X003588Y016005D01*
X003687Y016103D02*
X001838Y016103D01*
X001629Y016202D02*
X003821Y016202D01*
X004013Y016300D02*
X001315Y016300D01*
X001049Y016399D02*
X009323Y016399D01*
X009224Y016497D02*
X000899Y016497D01*
X000800Y016596D02*
X009126Y016596D01*
X009027Y016694D02*
X000741Y016694D01*
X000692Y016793D02*
X008929Y016793D01*
X008830Y016891D02*
X000665Y016891D01*
X000647Y016990D02*
X005225Y016990D01*
X005533Y016990D02*
X008732Y016990D01*
X007982Y018172D02*
X010776Y018172D01*
X010678Y018270D02*
X008080Y018270D01*
X008178Y018369D02*
X010579Y018369D01*
X010481Y018467D02*
X008277Y018467D01*
X008375Y018566D02*
X010382Y018566D01*
X010284Y018664D02*
X008474Y018664D01*
X008572Y018763D02*
X008884Y018763D01*
X008690Y018861D02*
X008671Y018861D01*
X008513Y019255D02*
X008473Y019255D01*
X008464Y019354D02*
X008522Y019354D01*
X008562Y019452D02*
X008423Y019452D01*
X008358Y019551D02*
X008628Y019551D01*
X008734Y019649D02*
X008267Y019649D01*
X008267Y019748D02*
X010898Y019748D01*
X010913Y019741D02*
X011104Y019741D01*
X011281Y019814D01*
X011416Y019949D01*
X011489Y020126D01*
X011489Y020317D01*
X011416Y020493D01*
X011281Y020628D01*
X011104Y020701D01*
X010913Y020701D01*
X010737Y020628D01*
X010602Y020493D01*
X010529Y020317D01*
X010529Y020126D01*
X010602Y019949D01*
X010737Y019814D01*
X010913Y019741D01*
X010897Y019717D02*
X010721Y019644D01*
X010586Y019509D01*
X010513Y019332D01*
X010513Y019142D01*
X010586Y018965D01*
X010721Y018830D01*
X010897Y018757D01*
X011088Y018757D01*
X011265Y018830D01*
X011400Y018965D01*
X011473Y019142D01*
X011473Y019332D01*
X011400Y019509D01*
X011265Y019644D01*
X011088Y019717D01*
X010897Y019717D01*
X010734Y019649D02*
X010252Y019649D01*
X010358Y019551D02*
X010628Y019551D01*
X010562Y019452D02*
X010423Y019452D01*
X010464Y019354D02*
X010522Y019354D01*
X010513Y019255D02*
X010473Y019255D01*
X010473Y019157D02*
X010513Y019157D01*
X010547Y019058D02*
X010438Y019058D01*
X010497Y018960D02*
X010591Y018960D01*
X010596Y018861D02*
X010690Y018861D01*
X010694Y018763D02*
X010884Y018763D01*
X010793Y018664D02*
X014238Y018664D01*
X014141Y018566D02*
X010891Y018566D01*
X010879Y018324D02*
X014154Y018324D01*
X014088Y018757D02*
X014265Y018830D01*
X014400Y018965D01*
X014473Y019142D01*
X014473Y019332D01*
X014400Y019509D01*
X014265Y019644D01*
X014953Y019644D01*
X015059Y019749D01*
X015306Y019996D01*
X015313Y019994D01*
X015444Y019994D01*
X015566Y020044D01*
X015658Y020137D01*
X015709Y020258D01*
X015709Y020389D01*
X015658Y020511D01*
X015566Y020603D01*
X015444Y020654D01*
X015313Y020654D01*
X015192Y020603D01*
X015099Y020511D01*
X015049Y020389D01*
X015049Y020258D01*
X015052Y020251D01*
X014804Y020004D01*
X012438Y020004D01*
X012489Y020126D01*
X012489Y020317D01*
X012416Y020493D01*
X012281Y020628D01*
X012104Y020701D01*
X011913Y020701D01*
X011737Y020628D01*
X011602Y020493D01*
X011529Y020317D01*
X011529Y020126D01*
X011602Y019949D01*
X011737Y019814D01*
X011913Y019741D01*
X012042Y019741D01*
X012018Y019717D01*
X011897Y019717D01*
X011721Y019644D01*
X011586Y019509D01*
X011513Y019332D01*
X011513Y019142D01*
X011586Y018965D01*
X011721Y018830D01*
X011897Y018757D01*
X012088Y018757D01*
X012265Y018830D01*
X012400Y018965D01*
X012473Y019142D01*
X012473Y019332D01*
X012400Y019509D01*
X012359Y019550D01*
X012453Y019644D01*
X012721Y019644D01*
X012586Y019509D01*
X012513Y019332D01*
X012513Y019142D01*
X012586Y018965D01*
X012721Y018830D01*
X012897Y018757D01*
X013088Y018757D01*
X013265Y018830D01*
X013400Y018965D01*
X013473Y019142D01*
X013473Y019332D01*
X013400Y019509D01*
X013265Y019644D01*
X013721Y019644D01*
X013586Y019509D01*
X013513Y019332D01*
X013513Y019142D01*
X013586Y018965D01*
X013721Y018830D01*
X013897Y018757D01*
X014088Y018757D01*
X014102Y018763D02*
X014336Y018763D01*
X014296Y018861D02*
X014433Y018861D01*
X014394Y018960D02*
X014531Y018960D01*
X014438Y019058D02*
X014628Y019058D01*
X014726Y019157D02*
X014473Y019157D01*
X014473Y019255D02*
X014823Y019255D01*
X014921Y019354D02*
X014464Y019354D01*
X014423Y019452D02*
X015018Y019452D01*
X015116Y019551D02*
X014358Y019551D01*
X014879Y019824D02*
X012379Y019824D01*
X011879Y019324D01*
X011993Y019237D01*
X011690Y018861D02*
X011296Y018861D01*
X011394Y018960D02*
X011591Y018960D01*
X011547Y019058D02*
X011438Y019058D01*
X011473Y019157D02*
X011513Y019157D01*
X011513Y019255D02*
X011473Y019255D01*
X011464Y019354D02*
X011522Y019354D01*
X011562Y019452D02*
X011423Y019452D01*
X011358Y019551D02*
X011628Y019551D01*
X011734Y019649D02*
X011252Y019649D01*
X011119Y019748D02*
X011898Y019748D01*
X011705Y019846D02*
X011312Y019846D01*
X011411Y019945D02*
X011606Y019945D01*
X011563Y020043D02*
X011454Y020043D01*
X011489Y020142D02*
X011529Y020142D01*
X011529Y020240D02*
X011489Y020240D01*
X011480Y020339D02*
X011538Y020339D01*
X011579Y020437D02*
X011439Y020437D01*
X011373Y020536D02*
X011644Y020536D01*
X011751Y020634D02*
X011266Y020634D01*
X011084Y020838D02*
X011219Y020973D01*
X011292Y021149D01*
X011292Y021340D01*
X011219Y021517D01*
X011084Y021652D01*
X010907Y021725D01*
X010716Y021725D01*
X010540Y021652D01*
X010405Y021517D01*
X010332Y021340D01*
X010332Y021149D01*
X010405Y020973D01*
X010540Y020838D01*
X010716Y020765D01*
X010907Y020765D01*
X011084Y020838D01*
X011067Y020831D02*
X011541Y020831D01*
X011524Y020838D02*
X011701Y020765D01*
X011892Y020765D01*
X012068Y020838D01*
X012203Y020973D01*
X012276Y021149D01*
X012276Y021340D01*
X012203Y021517D01*
X012068Y021652D01*
X011892Y021725D01*
X011701Y021725D01*
X011524Y021652D01*
X011389Y021517D01*
X011316Y021340D01*
X011316Y021149D01*
X011389Y020973D01*
X011524Y020838D01*
X011433Y020930D02*
X011175Y020930D01*
X011242Y021028D02*
X011366Y021028D01*
X011325Y021127D02*
X011282Y021127D01*
X011292Y021225D02*
X011316Y021225D01*
X011316Y021324D02*
X011292Y021324D01*
X011258Y021422D02*
X011350Y021422D01*
X011393Y021521D02*
X011215Y021521D01*
X011116Y021619D02*
X011491Y021619D01*
X011683Y021718D02*
X010925Y021718D01*
X010699Y021718D02*
X009901Y021718D01*
X009884Y021725D02*
X009693Y021725D01*
X009516Y021652D01*
X009381Y021517D01*
X009308Y021340D01*
X009308Y021149D01*
X009381Y020973D01*
X009516Y020838D01*
X009693Y020765D01*
X009884Y020765D01*
X010060Y020838D01*
X010195Y020973D01*
X010268Y021149D01*
X010268Y021340D01*
X010195Y021517D01*
X010060Y021652D01*
X009884Y021725D01*
X009675Y021718D02*
X008917Y021718D01*
X008899Y021725D02*
X008708Y021725D01*
X008532Y021652D01*
X008397Y021517D01*
X008324Y021340D01*
X008324Y021149D01*
X008397Y020973D01*
X008532Y020838D01*
X008708Y020765D01*
X008899Y020765D01*
X009076Y020838D01*
X009211Y020973D01*
X009284Y021149D01*
X009284Y021340D01*
X009211Y021517D01*
X009076Y021652D01*
X008899Y021725D01*
X008691Y021718D02*
X007955Y021718D01*
X008053Y021816D02*
X017359Y021816D01*
X017262Y021718D02*
X013917Y021718D01*
X013899Y021725D02*
X013708Y021725D01*
X013532Y021652D01*
X013397Y021517D01*
X013324Y021340D01*
X013324Y021149D01*
X013397Y020973D01*
X013532Y020838D01*
X013708Y020765D01*
X013899Y020765D01*
X014076Y020838D01*
X014211Y020973D01*
X014284Y021149D01*
X014284Y021340D01*
X014211Y021517D01*
X014076Y021652D01*
X013899Y021725D01*
X013691Y021718D02*
X012943Y021718D01*
X012972Y021708D02*
X012897Y021733D01*
X012820Y021745D01*
X012809Y021745D01*
X012809Y021274D01*
X012752Y021274D01*
X012752Y021745D01*
X012741Y021745D01*
X012663Y021733D01*
X012588Y021708D01*
X012518Y021673D01*
X012455Y021626D01*
X012399Y021571D01*
X012353Y021507D01*
X012317Y021437D01*
X012293Y021362D01*
X012280Y021284D01*
X012280Y021274D01*
X012752Y021274D01*
X012752Y021216D01*
X012809Y021216D01*
X012809Y020745D01*
X012820Y020745D01*
X012897Y020757D01*
X012972Y020782D01*
X013042Y020817D01*
X013106Y020864D01*
X013162Y020919D01*
X013208Y020983D01*
X013244Y021053D01*
X013268Y021128D01*
X013280Y021206D01*
X013280Y021216D01*
X012809Y021216D01*
X012809Y021274D01*
X013280Y021274D01*
X013280Y021284D01*
X013268Y021362D01*
X013244Y021437D01*
X013208Y021507D01*
X013162Y021571D01*
X013106Y021626D01*
X013042Y021673D01*
X012972Y021708D01*
X012809Y021718D02*
X012752Y021718D01*
X012752Y021619D02*
X012809Y021619D01*
X012809Y021521D02*
X012752Y021521D01*
X012752Y021422D02*
X012809Y021422D01*
X012809Y021324D02*
X012752Y021324D01*
X012780Y021245D02*
X012879Y021324D01*
X012379Y021824D01*
X012447Y021619D02*
X012101Y021619D01*
X012199Y021521D02*
X012363Y021521D01*
X012312Y021422D02*
X012242Y021422D01*
X012276Y021324D02*
X012287Y021324D01*
X012276Y021225D02*
X012752Y021225D01*
X012752Y021216D02*
X012280Y021216D01*
X012280Y021206D01*
X012293Y021128D01*
X012317Y021053D01*
X012353Y020983D01*
X012399Y020919D01*
X012455Y020864D01*
X012518Y020817D01*
X012588Y020782D01*
X012663Y020757D01*
X012741Y020745D01*
X012752Y020745D01*
X012752Y021216D01*
X012809Y021225D02*
X013324Y021225D01*
X013324Y021324D02*
X013274Y021324D01*
X013248Y021422D02*
X013358Y021422D01*
X013401Y021521D02*
X013198Y021521D01*
X013113Y021619D02*
X013499Y021619D01*
X013333Y021127D02*
X013268Y021127D01*
X013231Y021028D02*
X013374Y021028D01*
X013440Y020930D02*
X013169Y020930D01*
X013061Y020831D02*
X013549Y020831D01*
X014059Y020831D02*
X016384Y020831D01*
X016286Y020733D02*
X001751Y020733D01*
X001751Y020634D02*
X010751Y020634D01*
X010644Y020536D02*
X007628Y020536D01*
X007740Y020437D02*
X010579Y020437D01*
X010538Y020339D02*
X007843Y020339D01*
X007946Y020240D02*
X010529Y020240D01*
X010529Y020142D02*
X008048Y020142D01*
X008152Y020043D02*
X010563Y020043D01*
X010606Y019945D02*
X008234Y019945D01*
X008267Y019846D02*
X010705Y019846D01*
X011102Y018763D02*
X011884Y018763D01*
X012102Y018763D02*
X012884Y018763D01*
X012690Y018861D02*
X012296Y018861D01*
X012394Y018960D02*
X012591Y018960D01*
X012547Y019058D02*
X012438Y019058D01*
X012473Y019157D02*
X012513Y019157D01*
X012513Y019255D02*
X012473Y019255D01*
X012464Y019354D02*
X012522Y019354D01*
X012562Y019452D02*
X012423Y019452D01*
X012360Y019551D02*
X012628Y019551D01*
X012454Y020043D02*
X014844Y020043D01*
X014942Y020142D02*
X012489Y020142D01*
X012489Y020240D02*
X015041Y020240D01*
X015049Y020339D02*
X012480Y020339D01*
X012439Y020437D02*
X015069Y020437D01*
X015124Y020536D02*
X012373Y020536D01*
X012266Y020634D02*
X015266Y020634D01*
X015491Y020634D02*
X016189Y020634D01*
X016091Y020536D02*
X015633Y020536D01*
X015689Y020437D02*
X015994Y020437D01*
X015896Y020339D02*
X015709Y020339D01*
X015701Y020240D02*
X015799Y020240D01*
X015701Y020142D02*
X015661Y020142D01*
X015604Y020043D02*
X015564Y020043D01*
X015506Y019945D02*
X015254Y019945D01*
X015156Y019846D02*
X015409Y019846D01*
X015311Y019748D02*
X015057Y019748D01*
X014959Y019649D02*
X015214Y019649D01*
X014879Y019824D02*
X015379Y020324D01*
X014991Y022013D02*
X017554Y022013D01*
X017457Y021915D02*
X008152Y021915D01*
X008250Y022013D02*
X014766Y022013D01*
X014624Y022112D02*
X008349Y022112D01*
X008499Y021619D02*
X007856Y021619D01*
X007758Y021521D02*
X008401Y021521D01*
X008358Y021422D02*
X007659Y021422D01*
X007561Y021324D02*
X008324Y021324D01*
X008324Y021225D02*
X007448Y021225D01*
X007233Y021816D02*
X005710Y021816D01*
X005611Y021915D02*
X006668Y021915D01*
X006682Y021901D02*
X006858Y021828D01*
X007049Y021828D01*
X007225Y021901D01*
X007360Y022036D01*
X007434Y022212D01*
X007434Y022403D01*
X007360Y022580D01*
X007225Y022715D01*
X007049Y022788D01*
X006858Y022788D01*
X006682Y022715D01*
X006547Y022580D01*
X006474Y022403D01*
X006474Y022212D01*
X006547Y022036D01*
X006682Y021901D01*
X006569Y022013D02*
X005513Y022013D01*
X005414Y022112D02*
X006515Y022112D01*
X006474Y022210D02*
X005316Y022210D01*
X005217Y022309D02*
X006474Y022309D01*
X006475Y022407D02*
X005119Y022407D01*
X005020Y022506D02*
X006516Y022506D01*
X006571Y022604D02*
X004922Y022604D01*
X004823Y022703D02*
X006669Y022703D01*
X006685Y022900D02*
X004626Y022900D01*
X004528Y022998D02*
X006584Y022998D01*
X006547Y023036D02*
X006682Y022901D01*
X006858Y022828D01*
X007049Y022828D01*
X007225Y022901D01*
X007360Y023036D01*
X007434Y023212D01*
X007434Y023403D01*
X007360Y023580D01*
X007225Y023715D01*
X007049Y023788D01*
X006858Y023788D01*
X006682Y023715D01*
X006547Y023580D01*
X006474Y023403D01*
X006474Y023212D01*
X006547Y023036D01*
X006521Y023097D02*
X000644Y023097D01*
X000644Y023195D02*
X006481Y023195D01*
X006474Y023294D02*
X000644Y023294D01*
X000644Y023392D02*
X006474Y023392D01*
X006510Y023491D02*
X000644Y023491D01*
X000644Y023589D02*
X006556Y023589D01*
X006654Y023688D02*
X000644Y023688D01*
X000644Y023786D02*
X006854Y023786D01*
X006858Y023828D02*
X007049Y023828D01*
X007225Y023901D01*
X007360Y024036D01*
X007434Y024212D01*
X007434Y024403D01*
X007360Y024580D01*
X007225Y024715D01*
X007049Y024788D01*
X006858Y024788D01*
X006682Y024715D01*
X006547Y024580D01*
X006474Y024403D01*
X006474Y024212D01*
X006547Y024036D01*
X006682Y023901D01*
X006858Y023828D01*
X006721Y023885D02*
X000644Y023885D01*
X000644Y023983D02*
X006599Y023983D01*
X006528Y024082D02*
X000644Y024082D01*
X000644Y024180D02*
X006487Y024180D01*
X006474Y024279D02*
X000644Y024279D01*
X000644Y024377D02*
X006474Y024377D01*
X006503Y024476D02*
X000644Y024476D01*
X000644Y024574D02*
X006544Y024574D01*
X006639Y024673D02*
X000644Y024673D01*
X000644Y024771D02*
X006818Y024771D01*
X006858Y024828D02*
X007049Y024828D01*
X007225Y024901D01*
X007360Y025036D01*
X007434Y025212D01*
X007434Y025403D01*
X007360Y025580D01*
X007225Y025715D01*
X007049Y025788D01*
X006858Y025788D01*
X006682Y025715D01*
X006547Y025580D01*
X006474Y025403D01*
X006474Y025212D01*
X006547Y025036D01*
X006682Y024901D01*
X006858Y024828D01*
X006757Y024870D02*
X000644Y024870D01*
X000644Y024968D02*
X006614Y024968D01*
X006534Y025067D02*
X000644Y025067D01*
X000644Y025165D02*
X006493Y025165D01*
X006474Y025264D02*
X000644Y025264D01*
X000644Y025362D02*
X006474Y025362D01*
X006497Y025461D02*
X000644Y025461D01*
X000644Y025559D02*
X006538Y025559D01*
X006624Y025658D02*
X000644Y025658D01*
X000644Y025756D02*
X006781Y025756D01*
X006793Y025855D02*
X000644Y025855D01*
X000644Y025953D02*
X006629Y025953D01*
X006682Y025901D02*
X006547Y026036D01*
X006474Y026212D01*
X006474Y026403D01*
X006547Y026580D01*
X006682Y026715D01*
X006858Y026788D01*
X007049Y026788D01*
X007225Y026715D01*
X007360Y026580D01*
X007434Y026403D01*
X007434Y026212D01*
X007360Y026036D01*
X007225Y025901D01*
X007049Y025828D01*
X006858Y025828D01*
X006682Y025901D01*
X006540Y026052D02*
X000644Y026052D01*
X000644Y026150D02*
X006499Y026150D01*
X006474Y026249D02*
X000644Y026249D01*
X000644Y026347D02*
X004013Y026347D01*
X003973Y026358D02*
X004238Y026287D01*
X004512Y026287D01*
X004776Y026358D01*
X005014Y026495D01*
X005207Y026689D01*
X005344Y026926D01*
X005415Y027191D01*
X005415Y027465D01*
X005344Y027729D01*
X005207Y027966D01*
X005014Y028160D01*
X004776Y028297D01*
X004512Y028368D01*
X004238Y028368D01*
X003973Y028297D01*
X003736Y028160D01*
X003542Y027966D01*
X003405Y027729D01*
X003334Y027465D01*
X003334Y027191D01*
X003405Y026926D01*
X003542Y026689D01*
X003736Y026495D01*
X003973Y026358D01*
X003821Y026446D02*
X000644Y026446D01*
X000644Y026544D02*
X003687Y026544D01*
X003588Y026643D02*
X000644Y026643D01*
X000644Y026741D02*
X003512Y026741D01*
X003455Y026840D02*
X000644Y026840D01*
X000644Y026938D02*
X003402Y026938D01*
X003375Y027037D02*
X000644Y027037D01*
X000644Y027135D02*
X003349Y027135D01*
X003334Y027234D02*
X000644Y027234D01*
X000644Y027332D02*
X003334Y027332D01*
X003334Y027431D02*
X000644Y027431D01*
X000644Y027529D02*
X003352Y027529D01*
X003378Y027628D02*
X000644Y027628D01*
X000644Y027726D02*
X003404Y027726D01*
X003460Y027825D02*
X000644Y027825D01*
X000644Y027923D02*
X003517Y027923D01*
X003597Y028022D02*
X000644Y028022D01*
X000644Y028120D02*
X003696Y028120D01*
X003837Y028219D02*
X000644Y028219D01*
X000644Y028317D02*
X004048Y028317D01*
X004702Y028317D02*
X006474Y028317D01*
X006474Y028403D02*
X006474Y028212D01*
X006547Y028036D01*
X006682Y027901D01*
X006858Y027828D01*
X007049Y027828D01*
X007225Y027901D01*
X007360Y028036D01*
X007434Y028212D01*
X007434Y028403D01*
X007360Y028580D01*
X007225Y028715D01*
X007049Y028788D01*
X006858Y028788D01*
X006682Y028715D01*
X006547Y028580D01*
X006474Y028403D01*
X006479Y028416D02*
X000644Y028416D01*
X000644Y028514D02*
X006519Y028514D01*
X006579Y028613D02*
X000644Y028613D01*
X000646Y028711D02*
X006678Y028711D01*
X006682Y028901D02*
X006858Y028828D01*
X007049Y028828D01*
X007225Y028901D01*
X007360Y029036D01*
X007434Y029212D01*
X007434Y029403D01*
X007360Y029580D01*
X007225Y029715D01*
X007049Y029788D01*
X006858Y029788D01*
X006682Y029715D01*
X006547Y029580D01*
X006474Y029403D01*
X006474Y029212D01*
X006547Y029036D01*
X006682Y028901D01*
X006674Y028908D02*
X000658Y028908D01*
X000652Y028810D02*
X014167Y028810D01*
X014266Y028908D02*
X007233Y028908D01*
X007331Y029007D02*
X014364Y029007D01*
X014463Y029105D02*
X007389Y029105D01*
X007430Y029204D02*
X014561Y029204D01*
X014660Y029302D02*
X007434Y029302D01*
X007434Y029401D02*
X014758Y029401D01*
X014857Y029499D02*
X007394Y029499D01*
X007343Y029598D02*
X014955Y029598D01*
X015054Y029696D02*
X007244Y029696D01*
X006663Y029696D02*
X000706Y029696D01*
X000700Y029598D02*
X006564Y029598D01*
X006513Y029499D02*
X000694Y029499D01*
X000688Y029401D02*
X006474Y029401D01*
X006474Y029302D02*
X000682Y029302D01*
X000676Y029204D02*
X006477Y029204D01*
X006518Y029105D02*
X000670Y029105D01*
X000664Y029007D02*
X006576Y029007D01*
X006474Y028219D02*
X004913Y028219D01*
X005054Y028120D02*
X006512Y028120D01*
X006561Y028022D02*
X005152Y028022D01*
X005232Y027923D02*
X006659Y027923D01*
X006709Y027726D02*
X005345Y027726D01*
X005372Y027628D02*
X006594Y027628D01*
X006547Y027580D02*
X006474Y027403D01*
X006474Y027212D01*
X006547Y027036D01*
X006682Y026901D01*
X006858Y026828D01*
X007049Y026828D01*
X007225Y026901D01*
X007360Y027036D01*
X007434Y027212D01*
X007434Y027403D01*
X007360Y027580D01*
X007225Y027715D01*
X007049Y027788D01*
X006858Y027788D01*
X006682Y027715D01*
X006547Y027580D01*
X006526Y027529D02*
X005398Y027529D01*
X005415Y027431D02*
X006485Y027431D01*
X006474Y027332D02*
X005415Y027332D01*
X005415Y027234D02*
X006474Y027234D01*
X006506Y027135D02*
X005400Y027135D01*
X005374Y027037D02*
X006546Y027037D01*
X006644Y026938D02*
X005348Y026938D01*
X005295Y026840D02*
X006830Y026840D01*
X006745Y026741D02*
X005238Y026741D01*
X005161Y026643D02*
X006609Y026643D01*
X006532Y026544D02*
X005063Y026544D01*
X004928Y026446D02*
X006491Y026446D01*
X006474Y026347D02*
X004736Y026347D01*
X005289Y027825D02*
X013182Y027825D01*
X013281Y027923D02*
X007248Y027923D01*
X007346Y028022D02*
X013379Y028022D01*
X013478Y028120D02*
X007395Y028120D01*
X007434Y028219D02*
X013576Y028219D01*
X013675Y028317D02*
X007434Y028317D01*
X007428Y028416D02*
X013773Y028416D01*
X013872Y028514D02*
X007388Y028514D01*
X007328Y028613D02*
X013970Y028613D01*
X014069Y028711D02*
X007229Y028711D01*
X007198Y027726D02*
X013084Y027726D01*
X012985Y027628D02*
X007313Y027628D01*
X007381Y027529D02*
X012887Y027529D01*
X012788Y027431D02*
X007422Y027431D01*
X007434Y027332D02*
X012690Y027332D01*
X012591Y027234D02*
X007434Y027234D01*
X007402Y027135D02*
X012493Y027135D01*
X012394Y027037D02*
X007361Y027037D01*
X007263Y026938D02*
X012296Y026938D01*
X012197Y026840D02*
X007077Y026840D01*
X007162Y026741D02*
X012099Y026741D01*
X012000Y026643D02*
X007298Y026643D01*
X007375Y026544D02*
X011902Y026544D01*
X011803Y026446D02*
X007416Y026446D01*
X007434Y026347D02*
X011705Y026347D01*
X011606Y026249D02*
X007434Y026249D01*
X007408Y026150D02*
X011508Y026150D01*
X011409Y026052D02*
X007367Y026052D01*
X007278Y025953D02*
X011311Y025953D01*
X011212Y025855D02*
X007114Y025855D01*
X007126Y025756D02*
X011114Y025756D01*
X011015Y025658D02*
X007283Y025658D01*
X007369Y025559D02*
X010917Y025559D01*
X010818Y025461D02*
X007410Y025461D01*
X007434Y025362D02*
X010720Y025362D01*
X010621Y025264D02*
X007434Y025264D01*
X007414Y025165D02*
X010523Y025165D01*
X010424Y025067D02*
X007373Y025067D01*
X007293Y024968D02*
X010326Y024968D01*
X010227Y024870D02*
X007150Y024870D01*
X007089Y024771D02*
X010129Y024771D01*
X010030Y024673D02*
X007268Y024673D01*
X007363Y024574D02*
X009932Y024574D01*
X009833Y024476D02*
X007404Y024476D01*
X007434Y024377D02*
X009735Y024377D01*
X009639Y024279D02*
X007434Y024279D01*
X007420Y024180D02*
X009598Y024180D01*
X009887Y023804D02*
X009524Y023461D01*
X009194Y023491D02*
X008699Y023491D01*
X008689Y023392D02*
X009196Y023392D01*
X009237Y023294D02*
X008648Y023294D01*
X008557Y023195D02*
X009324Y023195D01*
X009545Y022900D02*
X007222Y022900D01*
X007323Y022998D02*
X009643Y022998D01*
X009742Y023097D02*
X007386Y023097D01*
X007426Y023195D02*
X008106Y023195D01*
X008015Y023294D02*
X007434Y023294D01*
X007434Y023392D02*
X007974Y023392D01*
X007964Y023491D02*
X007397Y023491D01*
X007351Y023589D02*
X007975Y023589D01*
X008016Y023688D02*
X007253Y023688D01*
X007186Y023885D02*
X008258Y023885D01*
X008356Y023983D02*
X007308Y023983D01*
X007379Y024082D02*
X008500Y024082D01*
X008109Y023786D02*
X007053Y023786D01*
X007238Y022703D02*
X008119Y022703D01*
X008021Y022604D02*
X007336Y022604D01*
X007391Y022506D02*
X007922Y022506D01*
X007824Y022407D02*
X007432Y022407D01*
X007434Y022309D02*
X007725Y022309D01*
X007627Y022210D02*
X007433Y022210D01*
X007392Y022112D02*
X007528Y022112D01*
X007430Y022013D02*
X007338Y022013D01*
X007331Y021915D02*
X007239Y021915D01*
X007416Y019945D02*
X002910Y019945D01*
X002811Y019846D02*
X007519Y019846D01*
X007621Y019748D02*
X002713Y019748D01*
X002664Y019649D02*
X006709Y019649D01*
X006603Y019551D02*
X002572Y019551D01*
X002385Y020240D02*
X001751Y020240D01*
X001751Y020142D02*
X002284Y020142D01*
X002132Y020043D02*
X001751Y020043D01*
X001751Y019945D02*
X002072Y019945D01*
X002049Y019846D02*
X001751Y019846D01*
X001751Y019748D02*
X002053Y019748D01*
X002094Y019649D02*
X001751Y019649D01*
X001751Y019551D02*
X002185Y019551D01*
X001751Y019452D02*
X006541Y019452D01*
X006505Y019354D02*
X001751Y019354D01*
X001751Y019255D02*
X006964Y019255D01*
X007022Y019255D02*
X007513Y019255D01*
X007513Y019157D02*
X007486Y019157D01*
X007461Y019058D02*
X007547Y019058D01*
X007591Y018960D02*
X007409Y018960D01*
X007324Y018861D02*
X007690Y018861D01*
X007866Y018566D02*
X004778Y018566D01*
X004595Y018284D02*
X007879Y018324D01*
X008879Y019324D01*
X008993Y019237D01*
X009358Y019551D02*
X009628Y019551D01*
X009562Y019452D02*
X009423Y019452D01*
X009464Y019354D02*
X009522Y019354D01*
X009513Y019255D02*
X009473Y019255D01*
X009473Y019157D02*
X009513Y019157D01*
X009547Y019058D02*
X009438Y019058D01*
X009394Y018960D02*
X009591Y018960D01*
X009690Y018861D02*
X009296Y018861D01*
X009102Y018763D02*
X009884Y018763D01*
X010102Y018763D02*
X010185Y018763D01*
X009993Y019237D02*
X009879Y019324D01*
X010879Y018324D01*
X011162Y018073D02*
X004851Y018073D01*
X004412Y018566D02*
X004162Y018566D01*
X004206Y018467D02*
X004314Y018467D01*
X004273Y018369D02*
X004264Y018369D01*
X003962Y018172D02*
X001751Y018172D01*
X001751Y018270D02*
X003904Y018270D01*
X003791Y018369D02*
X001751Y018369D01*
X001751Y018467D02*
X003623Y018467D01*
X004021Y018073D02*
X001751Y018073D01*
X001751Y017975D02*
X004080Y017975D01*
X004138Y017876D02*
X001751Y017876D01*
X001751Y017778D02*
X004197Y017778D01*
X004255Y017679D02*
X001835Y017679D01*
X001507Y017187D02*
X000644Y017187D01*
X000644Y017285D02*
X001409Y017285D01*
X001310Y017384D02*
X000644Y017384D01*
X000644Y017482D02*
X001214Y017482D01*
X001173Y017581D02*
X000644Y017581D01*
X000644Y017679D02*
X001171Y017679D01*
X001171Y017778D02*
X000644Y017778D01*
X000644Y017876D02*
X001171Y017876D01*
X001171Y017975D02*
X000644Y017975D01*
X000644Y018073D02*
X001171Y018073D01*
X001171Y018172D02*
X000644Y018172D01*
X000644Y018270D02*
X001171Y018270D01*
X001171Y018369D02*
X000644Y018369D01*
X000644Y018467D02*
X001171Y018467D01*
X001171Y018566D02*
X000644Y018566D01*
X000644Y018664D02*
X001171Y018664D01*
X001171Y018763D02*
X000644Y018763D01*
X000644Y018861D02*
X001171Y018861D01*
X001171Y018960D02*
X000644Y018960D01*
X000644Y019058D02*
X001171Y019058D01*
X001171Y019157D02*
X000644Y019157D01*
X000644Y019255D02*
X001171Y019255D01*
X001171Y019354D02*
X000644Y019354D01*
X000644Y019452D02*
X001171Y019452D01*
X001171Y019551D02*
X000644Y019551D01*
X000644Y019649D02*
X001171Y019649D01*
X001171Y019748D02*
X000644Y019748D01*
X000644Y019846D02*
X001171Y019846D01*
X001171Y019945D02*
X000644Y019945D01*
X000644Y020043D02*
X001171Y020043D01*
X001171Y020142D02*
X000644Y020142D01*
X000644Y020240D02*
X001171Y020240D01*
X001171Y020339D02*
X000644Y020339D01*
X000644Y020437D02*
X001171Y020437D01*
X001171Y020536D02*
X000644Y020536D01*
X000644Y020634D02*
X001171Y020634D01*
X001171Y020733D02*
X000644Y020733D01*
X000644Y020831D02*
X001171Y020831D01*
X001171Y020930D02*
X000644Y020930D01*
X000644Y021028D02*
X001196Y021028D01*
X001268Y021127D02*
X000644Y021127D01*
X000644Y021225D02*
X001366Y021225D01*
X001465Y021324D02*
X000644Y021324D01*
X000644Y021422D02*
X001563Y021422D01*
X001681Y021521D02*
X000644Y021521D01*
X000644Y021619D02*
X001780Y021619D01*
X001878Y021718D02*
X000644Y021718D01*
X000644Y021816D02*
X001977Y021816D01*
X002075Y021915D02*
X000644Y021915D01*
X000644Y022013D02*
X002174Y022013D01*
X002272Y022112D02*
X000644Y022112D01*
X000644Y022210D02*
X002371Y022210D01*
X002469Y022309D02*
X000644Y022309D01*
X000644Y022407D02*
X002568Y022407D01*
X002666Y022506D02*
X000644Y022506D01*
X000644Y022604D02*
X002765Y022604D01*
X002863Y022703D02*
X000644Y022703D01*
X000644Y022801D02*
X002962Y022801D01*
X003060Y022900D02*
X000644Y022900D01*
X000644Y022998D02*
X003159Y022998D01*
X003487Y022506D02*
X004200Y022506D01*
X004299Y022407D02*
X003388Y022407D01*
X003290Y022309D02*
X004397Y022309D01*
X004496Y022210D02*
X003191Y022210D01*
X003093Y022112D02*
X004594Y022112D01*
X004693Y022013D02*
X002994Y022013D01*
X002896Y021915D02*
X004791Y021915D01*
X004890Y021816D02*
X002797Y021816D01*
X002699Y021718D02*
X004988Y021718D01*
X005087Y021619D02*
X002600Y021619D01*
X002502Y021521D02*
X005185Y021521D01*
X005284Y021422D02*
X002403Y021422D01*
X002305Y021324D02*
X005382Y021324D01*
X005495Y021225D02*
X002206Y021225D01*
X002108Y021127D02*
X008333Y021127D01*
X008374Y021028D02*
X002009Y021028D01*
X001896Y020930D02*
X008440Y020930D01*
X008549Y020831D02*
X001792Y020831D01*
X001751Y020536D02*
X002694Y020536D01*
X002582Y020437D02*
X001751Y020437D01*
X001751Y020339D02*
X002484Y020339D01*
X001751Y019157D02*
X006499Y019157D01*
X006964Y019354D02*
X007022Y019354D01*
X007022Y019452D02*
X006964Y019452D01*
X006964Y019551D02*
X007022Y019551D01*
X007022Y019649D02*
X006964Y019649D01*
X007276Y019649D02*
X007687Y019649D01*
X007628Y019551D02*
X007383Y019551D01*
X007444Y019452D02*
X007562Y019452D01*
X007522Y019354D02*
X007481Y019354D01*
X007879Y019324D02*
X007993Y019237D01*
X007977Y019324D02*
X007879Y019324D01*
X009059Y020831D02*
X009533Y020831D01*
X009425Y020930D02*
X009167Y020930D01*
X009234Y021028D02*
X009358Y021028D01*
X009318Y021127D02*
X009274Y021127D01*
X009284Y021225D02*
X009308Y021225D01*
X009308Y021324D02*
X009284Y021324D01*
X009250Y021422D02*
X009342Y021422D01*
X009385Y021521D02*
X009207Y021521D01*
X009109Y021619D02*
X009484Y021619D01*
X009634Y022210D02*
X014569Y022210D01*
X014549Y022309D02*
X009774Y022309D01*
X009872Y022407D02*
X014556Y022407D01*
X014597Y022506D02*
X009971Y022506D01*
X010069Y022604D02*
X014694Y022604D01*
X014699Y022703D02*
X010168Y022703D01*
X010266Y022801D02*
X014699Y022801D01*
X014699Y022900D02*
X010365Y022900D01*
X010463Y022998D02*
X014699Y022998D01*
X014699Y023097D02*
X010562Y023097D01*
X010660Y023195D02*
X014699Y023195D01*
X014699Y023294D02*
X010759Y023294D01*
X010857Y023392D02*
X014699Y023392D01*
X014699Y023491D02*
X010956Y023491D01*
X011054Y023589D02*
X014699Y023589D01*
X014699Y023688D02*
X011153Y023688D01*
X011251Y023786D02*
X014699Y023786D01*
X014699Y023885D02*
X011350Y023885D01*
X011448Y023983D02*
X014699Y023983D01*
X014699Y024082D02*
X011547Y024082D01*
X011645Y024180D02*
X014699Y024180D01*
X014699Y024279D02*
X011744Y024279D01*
X011842Y024377D02*
X014699Y024377D01*
X014699Y024476D02*
X011941Y024476D01*
X012039Y024574D02*
X014699Y024574D01*
X014699Y024673D02*
X012138Y024673D01*
X012236Y024771D02*
X014699Y024771D01*
X014699Y024870D02*
X012335Y024870D01*
X012433Y024968D02*
X014699Y024968D01*
X014699Y025067D02*
X012532Y025067D01*
X012630Y025165D02*
X014699Y025165D01*
X014699Y025264D02*
X012729Y025264D01*
X012827Y025362D02*
X014699Y025362D01*
X014699Y025461D02*
X012926Y025461D01*
X013024Y025559D02*
X014699Y025559D01*
X014699Y025658D02*
X013123Y025658D01*
X013221Y025756D02*
X014699Y025756D01*
X014699Y025855D02*
X013320Y025855D01*
X013418Y025953D02*
X014699Y025953D01*
X014699Y026052D02*
X013517Y026052D01*
X013615Y026150D02*
X014699Y026150D01*
X014699Y026249D02*
X013714Y026249D01*
X013812Y026347D02*
X014699Y026347D01*
X014699Y026446D02*
X013911Y026446D01*
X014009Y026544D02*
X014699Y026544D01*
X014699Y026643D02*
X014108Y026643D01*
X014206Y026741D02*
X014699Y026741D01*
X014699Y026840D02*
X014305Y026840D01*
X014403Y026938D02*
X014699Y026938D01*
X014699Y027037D02*
X014502Y027037D01*
X014600Y027135D02*
X014699Y027135D01*
X014879Y027324D02*
X016879Y029324D01*
X016879Y032824D01*
X016379Y032824D01*
X016627Y032553D02*
X016699Y032553D01*
X016699Y032454D02*
X015780Y032454D01*
X015682Y032553D02*
X016130Y032553D01*
X016052Y032651D02*
X015583Y032651D01*
X015485Y032750D02*
X016012Y032750D01*
X016011Y032848D02*
X015386Y032848D01*
X015288Y032947D02*
X016032Y032947D01*
X016081Y033045D02*
X015275Y033045D01*
X015275Y033144D02*
X016152Y033144D01*
X016152Y033242D02*
X015275Y033242D01*
X015275Y033341D02*
X016152Y033341D01*
X016152Y033439D02*
X015275Y033439D01*
X015275Y033538D02*
X016152Y033538D01*
X016152Y033636D02*
X015275Y033636D01*
X015275Y033735D02*
X016152Y033735D01*
X016152Y033833D02*
X015275Y033833D01*
X015275Y033932D02*
X016152Y033932D01*
X016152Y034030D02*
X015275Y034030D01*
X015799Y034129D02*
X016152Y034129D01*
X016152Y034227D02*
X015897Y034227D01*
X015996Y034326D02*
X016152Y034326D01*
X016152Y034424D02*
X016094Y034424D01*
X016732Y034424D02*
X019760Y034424D01*
X019766Y034326D02*
X016732Y034326D01*
X016732Y034227D02*
X019772Y034227D01*
X019778Y034129D02*
X016732Y034129D01*
X016732Y034030D02*
X019784Y034030D01*
X019790Y033932D02*
X016732Y033932D01*
X016732Y033833D02*
X019797Y033833D01*
X019803Y033735D02*
X016732Y033735D01*
X016732Y033636D02*
X019809Y033636D01*
X019815Y033538D02*
X016732Y033538D01*
X016732Y033439D02*
X019821Y033439D01*
X019827Y033341D02*
X016732Y033341D01*
X016732Y033242D02*
X019833Y033242D01*
X019839Y033144D02*
X016732Y033144D01*
X016732Y033045D02*
X019845Y033045D01*
X019851Y032947D02*
X017010Y032947D01*
X017059Y032848D02*
X019857Y032848D01*
X019863Y032750D02*
X017059Y032750D01*
X017059Y032651D02*
X019869Y032651D01*
X019875Y032553D02*
X017059Y032553D01*
X017059Y032454D02*
X019881Y032454D01*
X019887Y032356D02*
X017059Y032356D01*
X017059Y032257D02*
X019894Y032257D01*
X019900Y032159D02*
X017059Y032159D01*
X017059Y032060D02*
X019906Y032060D01*
X019912Y031962D02*
X017059Y031962D01*
X017059Y031863D02*
X019918Y031863D01*
X019924Y031765D02*
X017059Y031765D01*
X017059Y031666D02*
X019930Y031666D01*
X019936Y031568D02*
X017059Y031568D01*
X017059Y031469D02*
X019942Y031469D01*
X019948Y031371D02*
X017059Y031371D01*
X017059Y031272D02*
X019954Y031272D01*
X019960Y031174D02*
X017059Y031174D01*
X017059Y031075D02*
X019966Y031075D01*
X019972Y030977D02*
X017059Y030977D01*
X017059Y030878D02*
X019978Y030878D01*
X019984Y030780D02*
X017059Y030780D01*
X017059Y030681D02*
X019991Y030681D01*
X019997Y030583D02*
X017059Y030583D01*
X017059Y030484D02*
X020003Y030484D01*
X020009Y030386D02*
X017059Y030386D01*
X017059Y030287D02*
X020015Y030287D01*
X020021Y030189D02*
X017059Y030189D01*
X017059Y030090D02*
X020027Y030090D01*
X020033Y029992D02*
X017059Y029992D01*
X017059Y029893D02*
X020039Y029893D01*
X020045Y029795D02*
X017059Y029795D01*
X017059Y029696D02*
X020051Y029696D01*
X020057Y029598D02*
X017059Y029598D01*
X017059Y029499D02*
X020063Y029499D01*
X020069Y029401D02*
X017059Y029401D01*
X017059Y029302D02*
X020075Y029302D01*
X020081Y029204D02*
X017013Y029204D01*
X016915Y029105D02*
X020088Y029105D01*
X020094Y029007D02*
X016816Y029007D01*
X016718Y028908D02*
X020100Y028908D01*
X020106Y028810D02*
X016619Y028810D01*
X016521Y028711D02*
X020109Y028711D01*
X020114Y028613D02*
X016422Y028613D01*
X016324Y028514D02*
X020114Y028514D01*
X020114Y028416D02*
X016225Y028416D01*
X016710Y028317D02*
X020114Y028317D01*
X020114Y028219D02*
X016920Y028219D01*
X017062Y028120D02*
X020114Y028120D01*
X020114Y028022D02*
X017160Y028022D01*
X017240Y027923D02*
X020114Y027923D01*
X020114Y027825D02*
X017297Y027825D01*
X017353Y027726D02*
X020114Y027726D01*
X020114Y027628D02*
X017380Y027628D01*
X017406Y027529D02*
X020114Y027529D01*
X020114Y027431D02*
X017423Y027431D01*
X017423Y027332D02*
X020114Y027332D01*
X020114Y027234D02*
X017423Y027234D01*
X017408Y027135D02*
X020114Y027135D01*
X020114Y027037D02*
X017382Y027037D01*
X017356Y026938D02*
X020114Y026938D01*
X020114Y026840D02*
X017302Y026840D01*
X017246Y026741D02*
X020114Y026741D01*
X020114Y026643D02*
X017169Y026643D01*
X017071Y026544D02*
X020114Y026544D01*
X020114Y026446D02*
X018216Y026446D01*
X018069Y026446D02*
X016936Y026446D01*
X016744Y026347D02*
X017904Y026347D01*
X017839Y026249D02*
X015059Y026249D01*
X015059Y026347D02*
X016021Y026347D01*
X015829Y026446D02*
X015059Y026446D01*
X015059Y026544D02*
X015695Y026544D01*
X015596Y026643D02*
X015059Y026643D01*
X015059Y026741D02*
X015520Y026741D01*
X015463Y026840D02*
X015059Y026840D01*
X015059Y026938D02*
X015410Y026938D01*
X015383Y027037D02*
X015059Y027037D01*
X015059Y027135D02*
X015357Y027135D01*
X015342Y027234D02*
X015059Y027234D01*
X015142Y027332D02*
X015342Y027332D01*
X015342Y027431D02*
X015240Y027431D01*
X015339Y027529D02*
X015359Y027529D01*
X014879Y027324D02*
X014879Y022324D01*
X015133Y022112D02*
X017652Y022112D01*
X017750Y022210D02*
X015189Y022210D01*
X015209Y022309D02*
X017847Y022309D01*
X017945Y022407D02*
X015201Y022407D01*
X015161Y022506D02*
X017963Y022506D01*
X017963Y022604D02*
X015064Y022604D01*
X015059Y022703D02*
X017963Y022703D01*
X017963Y022801D02*
X015059Y022801D01*
X015059Y022900D02*
X017963Y022900D01*
X017963Y022998D02*
X015059Y022998D01*
X015059Y023097D02*
X017963Y023097D01*
X017963Y023195D02*
X015059Y023195D01*
X015059Y023294D02*
X017963Y023294D01*
X017963Y023392D02*
X015059Y023392D01*
X015059Y023491D02*
X017963Y023491D01*
X017963Y023589D02*
X015059Y023589D01*
X015059Y023688D02*
X017963Y023688D01*
X017963Y023786D02*
X015059Y023786D01*
X015059Y023885D02*
X017963Y023885D01*
X017963Y023983D02*
X015059Y023983D01*
X015059Y024082D02*
X017963Y024082D01*
X017963Y024180D02*
X015059Y024180D01*
X015059Y024279D02*
X017963Y024279D01*
X017963Y024377D02*
X015059Y024377D01*
X015059Y024476D02*
X017963Y024476D01*
X017963Y024574D02*
X015059Y024574D01*
X015059Y024673D02*
X017963Y024673D01*
X017963Y024771D02*
X015059Y024771D01*
X015059Y024870D02*
X017963Y024870D01*
X017963Y024968D02*
X015059Y024968D01*
X015059Y025067D02*
X017963Y025067D01*
X017963Y025165D02*
X015059Y025165D01*
X015059Y025264D02*
X017963Y025264D01*
X017963Y025362D02*
X015059Y025362D01*
X015059Y025461D02*
X017963Y025461D01*
X017963Y025559D02*
X015059Y025559D01*
X015059Y025658D02*
X017963Y025658D01*
X017963Y025756D02*
X015059Y025756D01*
X015059Y025855D02*
X017940Y025855D01*
X017854Y025953D02*
X015059Y025953D01*
X015059Y026052D02*
X017813Y026052D01*
X017813Y026150D02*
X015059Y026150D01*
X014371Y027726D02*
X013904Y027726D01*
X013805Y027628D02*
X014273Y027628D01*
X014174Y027529D02*
X013707Y027529D01*
X013608Y027431D02*
X014076Y027431D01*
X013977Y027332D02*
X013510Y027332D01*
X013411Y027234D02*
X013879Y027234D01*
X013780Y027135D02*
X013313Y027135D01*
X013214Y027037D02*
X013682Y027037D01*
X013583Y026938D02*
X013116Y026938D01*
X013017Y026840D02*
X013485Y026840D01*
X013386Y026741D02*
X012919Y026741D01*
X012820Y026643D02*
X013288Y026643D01*
X013189Y026544D02*
X012722Y026544D01*
X012623Y026446D02*
X013091Y026446D01*
X012992Y026347D02*
X012525Y026347D01*
X012426Y026249D02*
X012894Y026249D01*
X012795Y026150D02*
X012328Y026150D01*
X012229Y026052D02*
X012697Y026052D01*
X012598Y025953D02*
X012131Y025953D01*
X012032Y025855D02*
X012500Y025855D01*
X012401Y025756D02*
X011934Y025756D01*
X011835Y025658D02*
X012303Y025658D01*
X012204Y025559D02*
X011737Y025559D01*
X011638Y025461D02*
X012106Y025461D01*
X012007Y025362D02*
X011540Y025362D01*
X011441Y025264D02*
X011909Y025264D01*
X011810Y025165D02*
X011343Y025165D01*
X011244Y025067D02*
X011712Y025067D01*
X011613Y024968D02*
X011146Y024968D01*
X011047Y024870D02*
X011515Y024870D01*
X011416Y024771D02*
X010949Y024771D01*
X010850Y024673D02*
X011318Y024673D01*
X011219Y024574D02*
X010752Y024574D01*
X010653Y024476D02*
X011121Y024476D01*
X011022Y024377D02*
X010555Y024377D01*
X010456Y024279D02*
X010924Y024279D01*
X010825Y024180D02*
X010358Y024180D01*
X010259Y024082D02*
X010727Y024082D01*
X010628Y023983D02*
X010177Y023983D01*
X010177Y023885D02*
X010530Y023885D01*
X010431Y023786D02*
X010177Y023786D01*
X010152Y023688D02*
X010333Y023688D01*
X010234Y023589D02*
X010082Y023589D01*
X010136Y023491D02*
X009854Y023491D01*
X009853Y023392D02*
X010037Y023392D01*
X009939Y023294D02*
X009812Y023294D01*
X009840Y023195D02*
X009725Y023195D01*
X009446Y022801D02*
X004725Y022801D01*
X001606Y017088D02*
X000644Y017088D01*
X004736Y016300D02*
X009421Y016300D01*
X009520Y016202D02*
X004928Y016202D01*
X005063Y016103D02*
X009618Y016103D01*
X009717Y016005D02*
X005161Y016005D01*
X005238Y015906D02*
X009815Y015906D01*
X009914Y015808D02*
X005295Y015808D01*
X005348Y015709D02*
X009969Y015709D01*
X010013Y015611D02*
X005374Y015611D01*
X005401Y015512D02*
X010112Y015512D01*
X010379Y014324D02*
X011379Y015324D01*
X012379Y015324D01*
X011369Y013221D02*
X011248Y013272D01*
X011369Y013221D02*
X011462Y013129D01*
X011512Y013007D01*
X011512Y012945D01*
X013596Y012945D01*
X013599Y012951D01*
X011512Y012951D01*
X011494Y013050D02*
X013705Y013050D01*
X013692Y013044D02*
X013599Y012951D01*
X013692Y013044D02*
X013813Y013095D01*
X013944Y013095D01*
X014066Y013044D01*
X014158Y012951D01*
X014053Y013050D02*
X014361Y013050D01*
X014361Y013148D02*
X011442Y013148D01*
X011120Y009602D02*
X013264Y009602D01*
X011969Y006253D02*
X015333Y006253D01*
X015323Y006263D02*
X015416Y006170D01*
X015538Y006120D01*
X015669Y006120D01*
X015790Y006170D01*
X015883Y006263D01*
X015933Y006384D01*
X015873Y006253D02*
X016124Y006253D01*
X015809Y006155D02*
X015753Y006155D01*
X015638Y006056D02*
X008924Y006056D01*
X008862Y005967D02*
X009059Y006250D01*
X011198Y006250D01*
X011199Y006250D01*
X011273Y006250D01*
X011347Y006250D01*
X011347Y006250D01*
X015321Y006268D01*
X015323Y006263D01*
X015453Y006155D02*
X008993Y006155D01*
X008862Y005967D02*
X008886Y005909D01*
X008886Y005778D01*
X008836Y005656D01*
X008743Y005564D01*
X015244Y005564D01*
X015298Y005662D02*
X008838Y005662D01*
X008879Y005761D02*
X015354Y005761D01*
X015425Y005859D02*
X008886Y005859D01*
X008866Y005958D02*
X015524Y005958D01*
X015603Y006450D02*
X011272Y006430D01*
X008965Y006430D01*
X008556Y005843D01*
X008490Y005513D02*
X008622Y005513D01*
X008743Y005564D01*
X008490Y005513D02*
X008369Y005564D01*
X007490Y004382D02*
X013285Y004382D01*
X013228Y004283D02*
X007547Y004283D01*
X007601Y004185D02*
X013182Y004185D01*
X013148Y004086D02*
X007627Y004086D01*
X007654Y003988D02*
X013124Y003988D01*
X013110Y003889D02*
X007674Y003889D01*
X007674Y003791D02*
X013121Y003791D01*
X013104Y003692D02*
X007674Y003692D01*
X007668Y003594D02*
X013115Y003594D01*
X013135Y003495D02*
X007641Y003495D01*
X007615Y003397D02*
X013164Y003397D01*
X013203Y003298D02*
X007577Y003298D01*
X007520Y003200D02*
X013252Y003200D01*
X013315Y003101D02*
X007463Y003101D01*
X007374Y003003D02*
X013395Y003003D01*
X013497Y002904D02*
X010627Y002904D01*
X010721Y002806D02*
X013631Y002806D01*
X013685Y002412D02*
X010689Y002412D01*
X010543Y002313D02*
X013558Y002313D01*
X013460Y002215D02*
X007298Y002215D01*
X007361Y002116D02*
X013388Y002116D01*
X013331Y002018D02*
X007418Y002018D01*
X007462Y001919D02*
X013281Y001919D01*
X013255Y001821D02*
X007488Y001821D01*
X007515Y001722D02*
X013228Y001722D01*
X013216Y001624D02*
X007522Y001624D01*
X007522Y001525D02*
X013216Y001525D01*
X013216Y001427D02*
X007522Y001427D01*
X007496Y001328D02*
X013236Y001328D01*
X013263Y001230D02*
X007470Y001230D01*
X007435Y001131D02*
X013291Y001131D01*
X013348Y001033D02*
X007378Y001033D01*
X007321Y000934D02*
X013405Y000934D01*
X013490Y000836D02*
X007228Y000836D01*
X007130Y000737D02*
X013588Y000737D01*
X014218Y002707D02*
X014256Y002707D01*
X014256Y002806D02*
X014218Y002806D01*
X014218Y002904D02*
X014256Y002904D01*
X014256Y003003D02*
X014218Y003003D01*
X014218Y003055D02*
X014218Y003424D01*
X014199Y003424D01*
X014187Y003422D01*
X014187Y003715D01*
X013894Y003715D01*
X013896Y003726D01*
X013896Y003746D01*
X013528Y003746D01*
X013528Y003783D01*
X013896Y003783D01*
X013896Y003803D01*
X013894Y003815D01*
X014187Y003815D01*
X014187Y004107D01*
X014199Y004105D01*
X014218Y004105D01*
X014218Y004474D01*
X014256Y004474D01*
X014256Y004105D01*
X014275Y004105D01*
X014287Y004107D01*
X014287Y003815D01*
X014187Y003815D01*
X014187Y003715D01*
X014287Y003715D01*
X014287Y003815D01*
X014580Y003815D01*
X014578Y003803D01*
X014578Y003783D01*
X014946Y003783D01*
X014946Y003746D01*
X014578Y003746D01*
X014578Y003726D01*
X014580Y003715D01*
X014287Y003715D01*
X014287Y003422D01*
X014275Y003424D01*
X014256Y003424D01*
X014256Y003055D01*
X014218Y003055D01*
X014218Y003101D02*
X014256Y003101D01*
X014256Y003200D02*
X014218Y003200D01*
X014218Y003298D02*
X014256Y003298D01*
X014256Y003397D02*
X014218Y003397D01*
X014187Y003495D02*
X014287Y003495D01*
X014287Y003594D02*
X014187Y003594D01*
X014187Y003692D02*
X014287Y003692D01*
X014287Y003791D02*
X014578Y003791D01*
X014287Y003889D02*
X014187Y003889D01*
X014187Y003791D02*
X013896Y003791D01*
X014187Y003988D02*
X014287Y003988D01*
X014287Y004086D02*
X014187Y004086D01*
X014218Y004185D02*
X014256Y004185D01*
X014256Y004283D02*
X014218Y004283D01*
X014218Y004382D02*
X014256Y004382D01*
X014256Y004579D02*
X014218Y004579D01*
X014218Y004677D02*
X014256Y004677D01*
X014256Y004776D02*
X014218Y004776D01*
X014218Y004874D02*
X014256Y004874D01*
X014473Y004874D02*
X015203Y004874D01*
X015229Y004776D02*
X014752Y004776D01*
X014912Y004677D02*
X015266Y004677D01*
X015323Y004579D02*
X015027Y004579D01*
X015117Y004480D02*
X015380Y004480D01*
X015469Y004382D02*
X015189Y004382D01*
X015246Y004283D02*
X015568Y004283D01*
X015715Y004185D02*
X015292Y004185D01*
X015326Y004086D02*
X015922Y004086D01*
X016284Y005143D02*
X016379Y005824D01*
X015589Y009011D02*
X018525Y009011D01*
X018527Y009010D02*
X018527Y009010D01*
X018389Y009110D02*
X016695Y009110D01*
X016913Y009208D02*
X018254Y009208D01*
X018119Y009307D02*
X017058Y009307D01*
X017156Y009405D02*
X017983Y009405D01*
X017870Y009504D02*
X017238Y009504D01*
X017295Y009602D02*
X017777Y009602D01*
X017685Y009701D02*
X017352Y009701D01*
X017378Y009799D02*
X017592Y009799D01*
X017500Y009898D02*
X017405Y009898D01*
X016070Y009110D02*
X015589Y009110D01*
X015589Y009208D02*
X015852Y009208D01*
X015708Y009307D02*
X015589Y009307D01*
X015589Y009405D02*
X015609Y009405D01*
X014001Y004874D02*
X006724Y004874D01*
X007037Y004776D02*
X013722Y004776D01*
X013562Y004677D02*
X007208Y004677D01*
X007322Y004579D02*
X013447Y004579D01*
X013357Y004480D02*
X007420Y004480D01*
X007275Y002904D02*
X010248Y002904D01*
X010155Y002806D02*
X009840Y002806D01*
X009847Y002412D02*
X010186Y002412D01*
X010333Y002313D02*
X007199Y002313D01*
X007087Y002412D02*
X009813Y002412D01*
X007884Y002806D02*
X007127Y002806D01*
X007507Y002802D02*
X007507Y002802D01*
X007656Y002804D02*
X007656Y002804D01*
X013379Y003824D02*
X013509Y003765D01*
X013884Y018763D02*
X013102Y018763D01*
X013296Y018861D02*
X013690Y018861D01*
X013591Y018960D02*
X013394Y018960D01*
X013438Y019058D02*
X013547Y019058D01*
X013513Y019157D02*
X013473Y019157D01*
X013473Y019255D02*
X013513Y019255D01*
X013522Y019354D02*
X013464Y019354D01*
X013423Y019452D02*
X013562Y019452D01*
X013628Y019551D02*
X013358Y019551D01*
X012809Y020831D02*
X012752Y020831D01*
X012752Y020930D02*
X012809Y020930D01*
X012809Y021028D02*
X012752Y021028D01*
X012752Y021127D02*
X012809Y021127D01*
X012499Y020831D02*
X012051Y020831D01*
X012160Y020930D02*
X012391Y020930D01*
X012330Y021028D02*
X012226Y021028D01*
X012267Y021127D02*
X012293Y021127D01*
X012617Y021718D02*
X011909Y021718D01*
X010507Y021619D02*
X010093Y021619D01*
X010191Y021521D02*
X010409Y021521D01*
X010366Y021422D02*
X010234Y021422D01*
X010268Y021324D02*
X010332Y021324D01*
X010332Y021225D02*
X010268Y021225D01*
X010259Y021127D02*
X010341Y021127D01*
X010382Y021028D02*
X010218Y021028D01*
X010152Y020930D02*
X010448Y020930D01*
X010556Y020831D02*
X010044Y020831D01*
X009734Y019649D02*
X009252Y019649D01*
X014109Y021619D02*
X017164Y021619D01*
X017067Y021521D02*
X014207Y021521D01*
X014250Y021422D02*
X016969Y021422D01*
X016872Y021324D02*
X014284Y021324D01*
X014284Y021225D02*
X016774Y021225D01*
X016677Y021127D02*
X014274Y021127D01*
X014234Y021028D02*
X016579Y021028D01*
X016482Y020930D02*
X014167Y020930D01*
X014002Y027825D02*
X014470Y027825D01*
X014568Y027923D02*
X014101Y027923D01*
X014199Y028022D02*
X014667Y028022D01*
X014765Y028120D02*
X014298Y028120D01*
X014396Y028219D02*
X014864Y028219D01*
X014962Y028317D02*
X014495Y028317D01*
X014593Y028416D02*
X015061Y028416D01*
X015159Y028514D02*
X014692Y028514D01*
X014790Y028613D02*
X015258Y028613D01*
X015356Y028711D02*
X014889Y028711D01*
X014987Y028810D02*
X015455Y028810D01*
X015553Y028908D02*
X015086Y028908D01*
X015184Y029007D02*
X015652Y029007D01*
X015750Y029105D02*
X015283Y029105D01*
X015381Y029204D02*
X015849Y029204D01*
X015947Y029302D02*
X015480Y029302D01*
X015578Y029401D02*
X016046Y029401D01*
X016094Y029499D02*
X015677Y029499D01*
X015775Y029598D02*
X016186Y029598D01*
X015972Y029795D02*
X016699Y029795D01*
X016699Y029893D02*
X016071Y029893D01*
X016169Y029992D02*
X016699Y029992D01*
X016699Y030090D02*
X016268Y030090D01*
X016324Y030189D02*
X016699Y030189D01*
X016699Y030287D02*
X016338Y030287D01*
X016338Y030386D02*
X016699Y030386D01*
X016699Y030484D02*
X016338Y030484D01*
X016338Y030583D02*
X016699Y030583D01*
X016699Y030681D02*
X016338Y030681D01*
X016338Y030780D02*
X016699Y030780D01*
X016699Y030878D02*
X016338Y030878D01*
X016338Y030977D02*
X016699Y030977D01*
X016699Y031075D02*
X016338Y031075D01*
X016338Y031174D02*
X016699Y031174D01*
X016699Y031272D02*
X016338Y031272D01*
X016338Y031371D02*
X016699Y031371D01*
X016699Y031469D02*
X016338Y031469D01*
X016338Y031568D02*
X016699Y031568D01*
X016699Y031666D02*
X016338Y031666D01*
X016338Y031765D02*
X016699Y031765D01*
X016699Y031863D02*
X016326Y031863D01*
X016273Y031962D02*
X016699Y031962D01*
X016699Y032060D02*
X016174Y032060D01*
X016076Y032159D02*
X016699Y032159D01*
X016699Y032257D02*
X015977Y032257D01*
X015879Y032356D02*
X016699Y032356D01*
X015748Y031666D02*
X004671Y031666D01*
X004709Y031765D02*
X015650Y031765D01*
X015551Y031863D02*
X004709Y031863D01*
X004771Y031962D02*
X015453Y031962D01*
X015354Y032060D02*
X004870Y032060D01*
X004968Y032159D02*
X015256Y032159D01*
X015157Y032257D02*
X005067Y032257D01*
X005165Y032356D02*
X015059Y032356D01*
X014960Y032454D02*
X005264Y032454D01*
X005362Y032553D02*
X014862Y032553D01*
X014763Y032651D02*
X005461Y032651D01*
X005559Y032750D02*
X014708Y032750D01*
X014695Y032848D02*
X005658Y032848D01*
X005756Y032947D02*
X014695Y032947D01*
X014695Y033045D02*
X006120Y033045D01*
X006202Y033144D02*
X014695Y033144D01*
X014695Y033242D02*
X006243Y033242D01*
X006306Y033341D02*
X014695Y033341D01*
X014695Y033439D02*
X006404Y033439D01*
X006503Y033538D02*
X014695Y033538D01*
X014695Y033636D02*
X006601Y033636D01*
X006700Y033735D02*
X014695Y033735D01*
X014695Y033833D02*
X006798Y033833D01*
X006897Y033932D02*
X014695Y033932D01*
X014695Y034030D02*
X006995Y034030D01*
X007639Y035311D02*
X009187Y035311D01*
X009183Y035409D02*
X007539Y035409D01*
X007438Y035508D02*
X009178Y035508D01*
X009130Y035606D02*
X007338Y035606D01*
X007237Y035705D02*
X009090Y035705D01*
X009090Y035803D02*
X007137Y035803D01*
X007037Y035902D02*
X009112Y035902D01*
X009162Y036000D02*
X006936Y036000D01*
X006836Y036099D02*
X009275Y036099D01*
X009640Y036099D02*
X011325Y036099D01*
X011301Y036000D02*
X009753Y036000D01*
X009803Y035902D02*
X011767Y035902D01*
X011825Y035902D02*
X012340Y035902D01*
X012340Y036000D02*
X012291Y036000D01*
X012267Y036099D02*
X012370Y036099D01*
X012411Y036197D02*
X012220Y036197D01*
X012137Y036296D02*
X012507Y036296D01*
X012686Y036394D02*
X011985Y036394D01*
X012067Y036493D02*
X012583Y036493D01*
X012548Y036507D02*
X012724Y036434D01*
X012915Y036434D01*
X013092Y036507D01*
X013227Y036642D01*
X013300Y036819D01*
X013300Y037010D01*
X013227Y037186D01*
X013092Y037321D01*
X012915Y037394D01*
X012724Y037394D01*
X012548Y037321D01*
X012413Y037186D01*
X012340Y037010D01*
X012340Y036819D01*
X012413Y036642D01*
X012548Y036507D01*
X012464Y036591D02*
X012179Y036591D01*
X012243Y036690D02*
X012393Y036690D01*
X012352Y036788D02*
X012281Y036788D01*
X012340Y036887D02*
X011825Y036887D01*
X011796Y036914D02*
X011879Y036824D01*
X011825Y036788D02*
X011767Y036788D01*
X011767Y036690D02*
X011825Y036690D01*
X011825Y036591D02*
X011767Y036591D01*
X011767Y036493D02*
X011825Y036493D01*
X011825Y036394D02*
X011767Y036394D01*
X011767Y036296D02*
X011825Y036296D01*
X011825Y036197D02*
X011767Y036197D01*
X011767Y036099D02*
X011825Y036099D01*
X011825Y036000D02*
X011767Y036000D01*
X011607Y036394D02*
X006534Y036394D01*
X006434Y036493D02*
X011526Y036493D01*
X011413Y036591D02*
X006333Y036591D01*
X006233Y036690D02*
X011349Y036690D01*
X011311Y036788D02*
X006169Y036788D01*
X006169Y036887D02*
X011767Y036887D01*
X011767Y036985D02*
X011825Y036985D01*
X011825Y037084D02*
X011767Y037084D01*
X011767Y037182D02*
X011825Y037182D01*
X011825Y037281D02*
X011767Y037281D01*
X011767Y037379D02*
X011825Y037379D01*
X011983Y037379D02*
X012688Y037379D01*
X012507Y037281D02*
X012137Y037281D01*
X012219Y037182D02*
X012411Y037182D01*
X012370Y037084D02*
X012267Y037084D01*
X012291Y036985D02*
X012340Y036985D01*
X011847Y037946D02*
X011869Y038014D01*
X011878Y038069D01*
X011480Y038069D01*
X011480Y038169D01*
X011380Y038169D01*
X011380Y038567D01*
X011325Y038558D01*
X011257Y038536D01*
X011194Y038504D01*
X011137Y038462D01*
X011087Y038412D01*
X011045Y038355D01*
X011013Y038292D01*
X010991Y038224D01*
X010982Y038169D01*
X011380Y038169D01*
X011380Y038069D01*
X010982Y038069D01*
X010991Y038014D01*
X011013Y037946D01*
X011045Y037883D01*
X011087Y037826D01*
X011137Y037776D01*
X011194Y037734D01*
X011257Y037702D01*
X011325Y037680D01*
X011380Y037671D01*
X011380Y038069D01*
X011480Y038069D01*
X011480Y037671D01*
X011535Y037680D01*
X011603Y037702D01*
X011666Y037734D01*
X011723Y037776D01*
X011773Y037826D01*
X011815Y037883D01*
X011847Y037946D01*
X011855Y037970D02*
X014045Y037970D01*
X014045Y038069D02*
X011878Y038069D01*
X011878Y038169D02*
X011869Y038224D01*
X011847Y038292D01*
X011815Y038355D01*
X011773Y038412D01*
X011723Y038462D01*
X011666Y038504D01*
X011603Y038536D01*
X011535Y038558D01*
X011480Y038567D01*
X011480Y038169D01*
X011878Y038169D01*
X011855Y038266D02*
X014045Y038266D01*
X014045Y038364D02*
X011808Y038364D01*
X011722Y038463D02*
X014045Y038463D01*
X014045Y038561D02*
X011514Y038561D01*
X011480Y038561D02*
X011380Y038561D01*
X011346Y038561D02*
X010624Y038561D01*
X010616Y038569D02*
X010480Y038569D01*
X010480Y038169D01*
X010380Y038169D01*
X010380Y038569D01*
X010244Y038569D01*
X009980Y038305D01*
X009980Y038169D01*
X010380Y038169D01*
X010380Y038069D01*
X009980Y038069D01*
X009980Y037933D01*
X010244Y037669D01*
X010380Y037669D01*
X010380Y038069D01*
X010480Y038069D01*
X010480Y038169D01*
X010880Y038169D01*
X010880Y038305D01*
X010616Y038569D01*
X010608Y038689D02*
X010860Y038941D01*
X010860Y039297D01*
X010608Y039549D01*
X010252Y039549D01*
X010112Y039409D01*
X009927Y039409D01*
X009821Y039365D01*
X008722Y038266D01*
X008672Y038266D01*
X008537Y038210D01*
X008433Y038107D01*
X008377Y037972D01*
X008377Y037825D01*
X008433Y037690D01*
X008537Y037587D01*
X008672Y037531D01*
X008818Y037531D01*
X008953Y037587D01*
X009056Y037690D01*
X009112Y037825D01*
X009112Y037836D01*
X010105Y038829D01*
X010112Y038829D01*
X010252Y038689D01*
X010608Y038689D01*
X010677Y038758D02*
X011183Y038758D01*
X011252Y038689D02*
X011000Y038941D01*
X011000Y039297D01*
X011252Y039549D01*
X011608Y039549D01*
X011860Y039297D01*
X011860Y038941D01*
X011608Y038689D01*
X011252Y038689D01*
X011084Y038857D02*
X010776Y038857D01*
X010860Y038955D02*
X011000Y038955D01*
X011000Y039054D02*
X010860Y039054D01*
X010860Y039152D02*
X011000Y039152D01*
X011000Y039251D02*
X010860Y039251D01*
X010808Y039349D02*
X011052Y039349D01*
X011151Y039448D02*
X010709Y039448D01*
X010611Y039546D02*
X011249Y039546D01*
X011252Y039689D02*
X011608Y039689D01*
X011860Y039941D01*
X011860Y040297D01*
X011608Y040549D01*
X011252Y040549D01*
X011000Y040297D01*
X011000Y039941D01*
X011252Y039689D01*
X011198Y039743D02*
X010662Y039743D01*
X010608Y039689D02*
X010860Y039941D01*
X010860Y040297D01*
X010608Y040549D01*
X010252Y040549D01*
X010000Y040297D01*
X010000Y039941D01*
X010252Y039689D01*
X010608Y039689D01*
X010761Y039842D02*
X011099Y039842D01*
X011001Y039940D02*
X010859Y039940D01*
X010860Y040039D02*
X011000Y040039D01*
X011000Y040137D02*
X010860Y040137D01*
X010860Y040236D02*
X011000Y040236D01*
X011037Y040334D02*
X010823Y040334D01*
X010724Y040433D02*
X011136Y040433D01*
X011234Y040531D02*
X010626Y040531D01*
X010234Y040531D02*
X001737Y040531D01*
X001598Y040433D02*
X010136Y040433D01*
X010037Y040334D02*
X001499Y040334D01*
X001439Y040236D02*
X010000Y040236D01*
X010000Y040137D02*
X001389Y040137D01*
X001359Y040039D02*
X001423Y040039D01*
X002011Y040039D02*
X010000Y040039D01*
X010001Y039940D02*
X002240Y039940D01*
X002387Y039842D02*
X010099Y039842D01*
X010198Y039743D02*
X002486Y039743D01*
X002570Y039645D02*
X014089Y039645D01*
X014089Y039743D02*
X011662Y039743D01*
X011761Y039842D02*
X013730Y039842D01*
X013597Y039940D02*
X011859Y039940D01*
X011860Y040039D02*
X013539Y040039D01*
X013511Y040137D02*
X011860Y040137D01*
X011860Y040236D02*
X013511Y040236D01*
X013546Y040334D02*
X011823Y040334D01*
X011724Y040433D02*
X013614Y040433D01*
X013771Y040531D02*
X011626Y040531D01*
X011611Y039546D02*
X014089Y039546D01*
X014089Y039448D02*
X011709Y039448D01*
X011808Y039349D02*
X014089Y039349D01*
X014089Y039251D02*
X011860Y039251D01*
X011860Y039152D02*
X014089Y039152D01*
X014089Y039054D02*
X011860Y039054D01*
X011860Y038955D02*
X014089Y038955D01*
X014053Y038857D02*
X011776Y038857D01*
X011677Y038758D02*
X014045Y038758D01*
X014045Y038660D02*
X009936Y038660D01*
X010034Y038758D02*
X010183Y038758D01*
X010236Y038561D02*
X009837Y038561D01*
X009739Y038463D02*
X010137Y038463D01*
X010039Y038364D02*
X009640Y038364D01*
X009542Y038266D02*
X009980Y038266D01*
X009980Y038069D02*
X009345Y038069D01*
X009443Y038167D02*
X010380Y038167D01*
X010380Y038069D02*
X010480Y038069D01*
X010880Y038069D01*
X010880Y037933D01*
X010616Y037669D01*
X010480Y037669D01*
X010480Y038069D01*
X010480Y038167D02*
X011380Y038167D01*
X011380Y038069D02*
X011480Y038069D01*
X011480Y038167D02*
X014045Y038167D01*
X014082Y037872D02*
X011807Y037872D01*
X011720Y037773D02*
X014169Y037773D01*
X014267Y037675D02*
X011502Y037675D01*
X011480Y037675D02*
X011380Y037675D01*
X011358Y037675D02*
X010622Y037675D01*
X010721Y037773D02*
X011140Y037773D01*
X011053Y037872D02*
X010819Y037872D01*
X010880Y037970D02*
X011005Y037970D01*
X010982Y038069D02*
X010880Y038069D01*
X010880Y038266D02*
X011004Y038266D01*
X011052Y038364D02*
X010821Y038364D01*
X010723Y038463D02*
X011137Y038463D01*
X011380Y038463D02*
X011480Y038463D01*
X011480Y038364D02*
X011380Y038364D01*
X011380Y038266D02*
X011480Y038266D01*
X011480Y037970D02*
X011380Y037970D01*
X011380Y037872D02*
X011480Y037872D01*
X011480Y037773D02*
X011380Y037773D01*
X011609Y037379D02*
X005781Y037379D01*
X005683Y037281D02*
X011455Y037281D01*
X011373Y037182D02*
X005584Y037182D01*
X005633Y037084D02*
X005531Y037084D01*
X005531Y036985D02*
X005549Y036985D01*
X005839Y036824D02*
X007879Y034824D01*
X015379Y034824D01*
X014400Y035803D02*
X014271Y035803D01*
X014284Y035902D02*
X014400Y035902D01*
X014400Y036000D02*
X014284Y036000D01*
X014254Y036099D02*
X014400Y036099D01*
X014400Y036197D02*
X014213Y036197D01*
X014117Y036296D02*
X014400Y036296D01*
X014400Y036394D02*
X013937Y036394D01*
X013899Y036434D02*
X014076Y036507D01*
X014211Y036642D01*
X014284Y036819D01*
X014284Y037010D01*
X014211Y037186D01*
X014076Y037321D01*
X013899Y037394D01*
X013708Y037394D01*
X013532Y037321D01*
X013397Y037186D01*
X013324Y037010D01*
X013324Y036819D01*
X013397Y036642D01*
X013532Y036507D01*
X013708Y036434D01*
X013899Y036434D01*
X014041Y036493D02*
X014400Y036493D01*
X014400Y036591D02*
X014160Y036591D01*
X014230Y036690D02*
X014400Y036690D01*
X014400Y036788D02*
X014271Y036788D01*
X014284Y036887D02*
X014400Y036887D01*
X014400Y036985D02*
X014284Y036985D01*
X014253Y037084D02*
X014400Y037084D01*
X014400Y037182D02*
X014212Y037182D01*
X014116Y037281D02*
X014400Y037281D01*
X014400Y037379D02*
X013936Y037379D01*
X013672Y037379D02*
X012951Y037379D01*
X013132Y037281D02*
X013492Y037281D01*
X013395Y037182D02*
X013228Y037182D01*
X013269Y037084D02*
X013355Y037084D01*
X013324Y036985D02*
X013300Y036985D01*
X013300Y036887D02*
X013324Y036887D01*
X013337Y036788D02*
X013287Y036788D01*
X013246Y036690D02*
X013377Y036690D01*
X013448Y036591D02*
X013175Y036591D01*
X013056Y036493D02*
X013567Y036493D01*
X013670Y036394D02*
X012953Y036394D01*
X013133Y036296D02*
X013491Y036296D01*
X013395Y036197D02*
X013229Y036197D01*
X013269Y036099D02*
X013354Y036099D01*
X013324Y036000D02*
X013300Y036000D01*
X013300Y035902D02*
X013324Y035902D01*
X013337Y035803D02*
X013287Y035803D01*
X013246Y035705D02*
X013378Y035705D01*
X013449Y035606D02*
X013175Y035606D01*
X012465Y035606D02*
X012179Y035606D01*
X012242Y035705D02*
X012393Y035705D01*
X012353Y035803D02*
X012281Y035803D01*
X011455Y036296D02*
X006635Y036296D01*
X006735Y036197D02*
X011372Y036197D01*
X011312Y035803D02*
X009825Y035803D01*
X009825Y035705D02*
X011350Y035705D01*
X011413Y035606D02*
X011139Y035606D01*
X010962Y035015D02*
X009577Y035015D01*
X009418Y035015D02*
X007941Y035015D01*
X007840Y035114D02*
X009256Y035114D01*
X009200Y035212D02*
X007740Y035212D01*
X007004Y037478D02*
X014400Y037478D01*
X014366Y037576D02*
X008927Y037576D01*
X009041Y037675D02*
X010238Y037675D01*
X010139Y037773D02*
X009091Y037773D01*
X009148Y037872D02*
X010041Y037872D01*
X009980Y037970D02*
X009246Y037970D01*
X008820Y038364D02*
X002513Y038364D01*
X002585Y038463D02*
X008919Y038463D01*
X009017Y038561D02*
X002642Y038561D01*
X002693Y038660D02*
X009116Y038660D01*
X009214Y038758D02*
X002719Y038758D01*
X002745Y038857D02*
X009313Y038857D01*
X009411Y038955D02*
X002758Y038955D01*
X002758Y039054D02*
X009510Y039054D01*
X009608Y039152D02*
X002758Y039152D01*
X002738Y039251D02*
X009707Y039251D01*
X009805Y039349D02*
X002712Y039349D01*
X002684Y039448D02*
X010151Y039448D01*
X010249Y039546D02*
X002627Y039546D01*
X002010Y040630D02*
X018738Y040630D01*
X019031Y040531D02*
X013986Y040531D01*
X014027Y039842D02*
X014089Y039842D01*
X014522Y040433D02*
X019169Y040433D01*
X019266Y040334D02*
X014628Y040334D01*
X014669Y040039D02*
X018746Y040039D01*
X018518Y039940D02*
X014669Y039940D01*
X014669Y039842D02*
X018370Y039842D01*
X018272Y039743D02*
X014669Y039743D01*
X014669Y039645D02*
X018188Y039645D01*
X018131Y039546D02*
X016233Y039546D01*
X016366Y039448D02*
X018074Y039448D01*
X018046Y039349D02*
X016464Y039349D01*
X016563Y039251D02*
X018019Y039251D01*
X018000Y039152D02*
X016661Y039152D01*
X016717Y039054D02*
X018000Y039054D01*
X018000Y038955D02*
X016732Y038955D01*
X016732Y038857D02*
X018012Y038857D01*
X018038Y038758D02*
X016732Y038758D01*
X016732Y038660D02*
X018065Y038660D01*
X018115Y038561D02*
X016732Y038561D01*
X016732Y038463D02*
X018172Y038463D01*
X018245Y038364D02*
X016732Y038364D01*
X016732Y038266D02*
X018343Y038266D01*
X018471Y038167D02*
X016732Y038167D01*
X016732Y038069D02*
X018645Y038069D01*
X019435Y038069D02*
X019536Y038069D01*
X019542Y037970D02*
X016732Y037970D01*
X016732Y037872D02*
X019548Y037872D01*
X019554Y037773D02*
X016732Y037773D01*
X016732Y037675D02*
X019560Y037675D01*
X019566Y037576D02*
X016732Y037576D01*
X016732Y037478D02*
X019572Y037478D01*
X019578Y037379D02*
X016732Y037379D01*
X016732Y037281D02*
X019584Y037281D01*
X019590Y037182D02*
X016732Y037182D01*
X016732Y037084D02*
X019596Y037084D01*
X019603Y036985D02*
X016732Y036985D01*
X016732Y036887D02*
X019609Y036887D01*
X019615Y036788D02*
X016732Y036788D01*
X016732Y036690D02*
X019621Y036690D01*
X019627Y036591D02*
X016732Y036591D01*
X016732Y036493D02*
X019633Y036493D01*
X019639Y036394D02*
X016732Y036394D01*
X016732Y036296D02*
X019645Y036296D01*
X019651Y036197D02*
X016732Y036197D01*
X016732Y036099D02*
X019657Y036099D01*
X019663Y036000D02*
X016732Y036000D01*
X016732Y035902D02*
X019669Y035902D01*
X019675Y035803D02*
X016732Y035803D01*
X016732Y035705D02*
X019681Y035705D01*
X019687Y035606D02*
X016732Y035606D01*
X016732Y035508D02*
X019693Y035508D01*
X019700Y035409D02*
X016732Y035409D01*
X016732Y035311D02*
X019706Y035311D01*
X019712Y035212D02*
X016732Y035212D01*
X016732Y035114D02*
X019718Y035114D01*
X019724Y035015D02*
X016732Y035015D01*
X016732Y034917D02*
X019730Y034917D01*
X019736Y034818D02*
X016732Y034818D01*
X016732Y034720D02*
X019742Y034720D01*
X019748Y034621D02*
X016732Y034621D01*
X016732Y034523D02*
X019754Y034523D01*
X019400Y040039D02*
X019334Y040039D01*
X015758Y031568D02*
X004589Y031568D01*
X004379Y031824D02*
X005879Y033324D01*
X005511Y033341D02*
X004059Y033341D01*
X004059Y033439D02*
X005529Y033439D01*
X005573Y033538D02*
X004059Y033538D01*
X004158Y033636D02*
X005589Y033636D01*
X005589Y033735D02*
X004199Y033735D01*
X004209Y033833D02*
X005589Y033833D01*
X005589Y033932D02*
X004191Y033932D01*
X004139Y034030D02*
X005589Y034030D01*
X005589Y034129D02*
X004005Y034129D01*
X003753Y034129D02*
X000979Y034129D01*
X000985Y034227D02*
X005589Y034227D01*
X005589Y034326D02*
X000991Y034326D01*
X000997Y034424D02*
X005589Y034424D01*
X005589Y034523D02*
X001003Y034523D01*
X001009Y034621D02*
X005589Y034621D01*
X005589Y034720D02*
X001016Y034720D01*
X001022Y034818D02*
X005589Y034818D01*
X005589Y034917D02*
X001028Y034917D01*
X001034Y035015D02*
X005589Y035015D01*
X005589Y035114D02*
X001040Y035114D01*
X001046Y035212D02*
X005589Y035212D01*
X005509Y035311D02*
X001052Y035311D01*
X001058Y035409D02*
X005411Y035409D01*
X005312Y035508D02*
X001064Y035508D01*
X001070Y035606D02*
X005214Y035606D01*
X005115Y035705D02*
X001076Y035705D01*
X001082Y035803D02*
X005017Y035803D01*
X004963Y035902D02*
X001088Y035902D01*
X001094Y036000D02*
X004951Y036000D01*
X004951Y036099D02*
X001100Y036099D01*
X001106Y036197D02*
X004951Y036197D01*
X004951Y036296D02*
X001113Y036296D01*
X001119Y036394D02*
X004951Y036394D01*
X004951Y036493D02*
X001125Y036493D01*
X001131Y036591D02*
X004951Y036591D01*
X004951Y036690D02*
X001137Y036690D01*
X001143Y036788D02*
X004951Y036788D01*
X004951Y036887D02*
X001149Y036887D01*
X001155Y036985D02*
X004951Y036985D01*
X004951Y037084D02*
X001161Y037084D01*
X001167Y037182D02*
X004951Y037182D01*
X004951Y037281D02*
X001173Y037281D01*
X001179Y037379D02*
X004981Y037379D01*
X005060Y037478D02*
X001185Y037478D01*
X001191Y037576D02*
X005158Y037576D01*
X005257Y037675D02*
X001197Y037675D01*
X001203Y037773D02*
X005355Y037773D01*
X005454Y037872D02*
X001210Y037872D01*
X001216Y037970D02*
X005552Y037970D01*
X006046Y037084D02*
X011325Y037084D01*
X011301Y036985D02*
X006130Y036985D01*
X006604Y038069D02*
X002112Y038069D01*
X002286Y038167D02*
X006748Y038167D01*
X007010Y038167D02*
X008494Y038167D01*
X008418Y038069D02*
X007153Y038069D01*
X007216Y037970D02*
X008377Y037970D01*
X008377Y037872D02*
X007246Y037872D01*
X007246Y037773D02*
X008399Y037773D01*
X008449Y037675D02*
X007215Y037675D01*
X007151Y037576D02*
X008563Y037576D01*
X008671Y038266D02*
X002414Y038266D01*
X001323Y038069D02*
X001222Y038069D01*
X000973Y034030D02*
X003619Y034030D01*
X003566Y033932D02*
X000967Y033932D01*
X000961Y033833D02*
X003549Y033833D01*
X003558Y033735D02*
X000955Y033735D01*
X000949Y033636D02*
X003600Y033636D01*
X003699Y033538D02*
X000943Y033538D01*
X000937Y033439D02*
X003699Y033439D01*
X003699Y033341D02*
X000931Y033341D01*
X000925Y033242D02*
X003699Y033242D01*
X003699Y033144D02*
X000919Y033144D01*
X000912Y033045D02*
X003699Y033045D01*
X003699Y032947D02*
X000906Y032947D01*
X000900Y032848D02*
X003699Y032848D01*
X003699Y032750D02*
X000894Y032750D01*
X000888Y032651D02*
X003699Y032651D01*
X003699Y032553D02*
X000882Y032553D01*
X000876Y032454D02*
X003699Y032454D01*
X003699Y032356D02*
X000870Y032356D01*
X000864Y032257D02*
X003699Y032257D01*
X003699Y032159D02*
X000858Y032159D01*
X000852Y032060D02*
X003699Y032060D01*
X003699Y031962D02*
X000846Y031962D01*
X000840Y031863D02*
X003699Y031863D01*
X003699Y031765D02*
X000834Y031765D01*
X000828Y031666D02*
X003699Y031666D01*
X003699Y031568D02*
X000822Y031568D01*
X000815Y031469D02*
X003699Y031469D01*
X003699Y031371D02*
X000809Y031371D01*
X000803Y031272D02*
X003699Y031272D01*
X003699Y031174D02*
X000797Y031174D01*
X000791Y031075D02*
X003664Y031075D01*
X003585Y030977D02*
X000785Y030977D01*
X000779Y030878D02*
X003549Y030878D01*
X003549Y030780D02*
X000773Y030780D01*
X000767Y030681D02*
X003581Y030681D01*
X003653Y030583D02*
X000761Y030583D01*
X000755Y030484D02*
X014464Y030484D01*
X014549Y030386D02*
X000749Y030386D01*
X000743Y030287D02*
X014549Y030287D01*
X014577Y030189D02*
X000737Y030189D01*
X000731Y030090D02*
X014646Y030090D01*
X014879Y030324D02*
X014379Y030824D01*
X003879Y030824D01*
X003879Y033824D01*
X004059Y033242D02*
X005515Y033242D01*
X005444Y033144D02*
X004059Y033144D01*
X004059Y033045D02*
X005346Y033045D01*
X005247Y032947D02*
X004059Y032947D01*
X004059Y032848D02*
X005149Y032848D01*
X005050Y032750D02*
X004059Y032750D01*
X004059Y032651D02*
X004952Y032651D01*
X004853Y032553D02*
X004059Y032553D01*
X004059Y032454D02*
X004755Y032454D01*
X004656Y032356D02*
X004059Y032356D01*
X004059Y032257D02*
X004558Y032257D01*
X004459Y032159D02*
X004059Y032159D01*
X004059Y032060D02*
X004149Y032060D01*
X004079Y031962D02*
X004059Y031962D01*
X004059Y031666D02*
X004087Y031666D01*
X004059Y031568D02*
X004168Y031568D01*
X004059Y031469D02*
X015758Y031469D01*
X015758Y031371D02*
X004059Y031371D01*
X004059Y031272D02*
X015758Y031272D01*
X015758Y031174D02*
X004059Y031174D01*
X004094Y031075D02*
X015758Y031075D01*
X015758Y030977D02*
X014480Y030977D01*
X014579Y030878D02*
X015758Y030878D01*
X015758Y030780D02*
X014677Y030780D01*
X014776Y030681D02*
X015758Y030681D01*
X015758Y030583D02*
X015086Y030583D01*
X015169Y030484D02*
X015758Y030484D01*
X015743Y030386D02*
X015209Y030386D01*
X015209Y030287D02*
X015645Y030287D01*
X015546Y030189D02*
X015180Y030189D01*
X015112Y030090D02*
X015448Y030090D01*
X015349Y029992D02*
X000724Y029992D01*
X000718Y029893D02*
X015251Y029893D01*
X015152Y029795D02*
X000712Y029795D01*
X004104Y030583D02*
X014365Y030583D01*
X015874Y029696D02*
X016699Y029696D01*
X016699Y029598D02*
X016571Y029598D01*
X016696Y029499D02*
X016699Y029499D01*
X018381Y026347D02*
X020114Y026347D01*
X020114Y026249D02*
X019611Y026249D01*
X019698Y026150D02*
X020114Y026150D01*
X020114Y026052D02*
X019739Y026052D01*
X019746Y025953D02*
X020114Y025953D01*
X020114Y025855D02*
X019732Y025855D01*
X019691Y025756D02*
X020114Y025756D01*
X020114Y025658D02*
X019629Y025658D01*
X019629Y025559D02*
X020114Y025559D01*
X020114Y025461D02*
X019629Y025461D01*
X019629Y025362D02*
X020114Y025362D01*
X020114Y025264D02*
X019629Y025264D01*
X019629Y025165D02*
X020114Y025165D01*
X020114Y025067D02*
X019629Y025067D01*
X019629Y024968D02*
X020114Y024968D01*
X020114Y024870D02*
X019629Y024870D01*
X019629Y024771D02*
X020114Y024771D01*
X020114Y024673D02*
X019629Y024673D01*
X019629Y024574D02*
X020114Y024574D01*
X020114Y024476D02*
X019629Y024476D01*
X019629Y024377D02*
X020114Y024377D01*
X020114Y024279D02*
X019629Y024279D01*
X019629Y024180D02*
X020114Y024180D01*
X020114Y024082D02*
X019629Y024082D01*
X019629Y023983D02*
X020114Y023983D01*
X020114Y023885D02*
X019629Y023885D01*
X019629Y023786D02*
X020114Y023786D01*
X020114Y023688D02*
X019629Y023688D01*
X019629Y023589D02*
X020114Y023589D01*
X020114Y023491D02*
X019629Y023491D01*
X019629Y023392D02*
X020114Y023392D01*
X020114Y023294D02*
X019629Y023294D01*
X019629Y023195D02*
X020114Y023195D01*
X020114Y023097D02*
X019629Y023097D01*
X019629Y022998D02*
X020114Y022998D01*
X020114Y022900D02*
X019629Y022900D01*
X019629Y022801D02*
X020114Y022801D01*
X020114Y022703D02*
X019629Y022703D01*
X019629Y022604D02*
X020114Y022604D01*
X020114Y022506D02*
X019629Y022506D01*
X019629Y022407D02*
X020114Y022407D01*
X020114Y022309D02*
X019629Y022309D01*
X019629Y022210D02*
X020114Y022210D01*
X020114Y022112D02*
X019629Y022112D01*
X019629Y022013D02*
X020114Y022013D01*
X020114Y021915D02*
X019629Y021915D01*
X019629Y021816D02*
X020114Y021816D01*
X020114Y021718D02*
X019629Y021718D01*
X019629Y021619D02*
X020114Y021619D01*
X020114Y021521D02*
X019629Y021521D01*
X019615Y021422D02*
X020114Y021422D01*
X020114Y021324D02*
X019551Y021324D01*
X019453Y021225D02*
X020114Y021225D01*
X020114Y021127D02*
X019354Y021127D01*
X014212Y035606D02*
X014159Y035606D01*
X014230Y035705D02*
X014310Y035705D01*
X010460Y035606D02*
X009785Y035606D01*
X010380Y037675D02*
X010480Y037675D01*
X010480Y037773D02*
X010380Y037773D01*
X010380Y037872D02*
X010480Y037872D01*
X010480Y037970D02*
X010380Y037970D01*
X010380Y038266D02*
X010480Y038266D01*
X010480Y038364D02*
X010380Y038364D01*
X010380Y038463D02*
X010480Y038463D01*
X010480Y038561D02*
X010380Y038561D01*
D18*
X010430Y038119D02*
X011398Y038119D01*
X011422Y038095D01*
X011422Y037288D01*
X011796Y036914D01*
X011879Y036824D02*
X011879Y036013D01*
X011796Y035930D01*
X011816Y035910D01*
X011796Y035930D02*
X011343Y036383D01*
X008450Y036383D01*
X007702Y037131D01*
X007702Y037997D01*
X007091Y038607D01*
X005635Y038607D01*
X005048Y038434D01*
X003143Y038434D01*
X005241Y037249D02*
X005241Y035989D01*
X005879Y035351D01*
X005879Y033324D01*
X006879Y034324D01*
X015024Y034324D01*
X015024Y034296D01*
X014985Y034257D01*
X014985Y032839D01*
X016048Y031776D01*
X016048Y030280D01*
X009887Y024119D01*
X009887Y023804D01*
X008587Y023804D01*
X008331Y023548D01*
X008331Y023489D01*
X008312Y022485D02*
X009540Y022485D01*
X016379Y029324D01*
X016379Y029320D01*
X016383Y029316D01*
X016391Y029324D01*
X016461Y029324D01*
X016454Y029316D01*
X016383Y029316D01*
X016379Y032824D02*
X016379Y032835D01*
X016442Y032898D01*
X016442Y038961D01*
X016127Y039276D01*
X014729Y039276D01*
X014379Y038926D01*
X014379Y038824D01*
X014335Y038780D01*
X014335Y038017D01*
X014690Y037662D01*
X014690Y035674D01*
X014257Y035241D01*
X011146Y035241D01*
X011064Y035324D01*
X009477Y035304D01*
X009457Y035776D01*
X008765Y037898D02*
X008745Y037898D01*
X008765Y037898D02*
X009985Y039119D01*
X010430Y039119D01*
X013879Y040178D02*
X014379Y040178D01*
X014379Y038926D01*
X014879Y038324D02*
X014879Y038320D01*
X014887Y038312D01*
X014926Y038351D01*
X015654Y038351D01*
X015891Y038115D01*
X015891Y034631D01*
X015583Y034324D01*
X015024Y034324D01*
X008312Y022485D02*
X007308Y021481D01*
X005635Y021481D01*
X004316Y022800D01*
X003371Y022800D01*
X001757Y021186D01*
X001737Y021186D01*
X001461Y020910D01*
X001461Y017643D01*
X001780Y017324D01*
X005379Y017324D01*
X008808Y017324D01*
X010308Y015824D01*
X010320Y015824D01*
X007977Y019245D02*
X007977Y019324D01*
X007977Y019808D01*
X007485Y020280D01*
X002835Y020280D01*
X002379Y019824D01*
X002383Y019824D01*
X002387Y019828D01*
X006643Y005812D02*
X007111Y005812D01*
X008056Y004867D01*
X008056Y003509D01*
X008194Y003371D01*
X008194Y003572D01*
X008194Y004001D02*
X008213Y004001D01*
X009020Y004808D01*
X013135Y004808D01*
X013706Y004237D01*
X013706Y004257D01*
X013725Y004276D01*
X016383Y008017D02*
X015733Y008666D01*
X015339Y008666D01*
X016383Y008017D02*
X017761Y008017D01*
X018292Y008548D01*
X006643Y005812D02*
X006154Y005324D01*
X005379Y005324D01*
X005241Y037249D02*
X005733Y037741D01*
X006796Y037741D01*
X006879Y037824D01*
D19*
X005839Y036824D03*
X003879Y033824D03*
X004379Y031824D03*
X003879Y030824D03*
X009524Y023461D03*
X011379Y017824D03*
X010879Y017107D03*
X012379Y017824D03*
X012379Y015324D03*
X011182Y012942D03*
X010379Y014324D03*
X007576Y011824D03*
X004879Y012824D03*
X004595Y018284D03*
X003859Y018698D03*
X002379Y019824D03*
X003351Y006343D03*
X005379Y002824D03*
X005879Y005824D03*
X006643Y005812D03*
X008556Y005843D03*
X010438Y002627D03*
X011312Y007154D03*
X010859Y007674D03*
X013879Y012765D03*
X014879Y017824D03*
X015379Y020324D03*
X014879Y022324D03*
X016379Y019324D03*
X017524Y020005D03*
X018143Y026119D03*
X016379Y029324D03*
X014879Y030324D03*
X015379Y034824D03*
X014879Y038324D03*
X015603Y006450D03*
D20*
X008194Y003572D03*
D21*
X005379Y005324D02*
X005064Y004670D01*
X004572Y004434D01*
X004532Y004434D01*
X004552Y004454D01*
X004532Y004434D02*
X004040Y004670D01*
X003824Y005182D01*
X004040Y005694D01*
X004552Y005910D01*
X004119Y005694D02*
X004552Y005182D01*
X004119Y005694D02*
X002583Y005713D01*
X002170Y005910D01*
X002170Y008587D01*
X005064Y005694D02*
X005103Y005674D01*
X005280Y005182D01*
X013509Y003765D02*
X013725Y003253D01*
X014237Y003056D01*
X014749Y003253D01*
X014965Y003765D01*
X015576Y003765D01*
X016954Y002485D01*
X017406Y002485D01*
X019335Y003548D01*
X019355Y003961D01*
X014965Y003765D02*
X014749Y004276D01*
X014237Y004493D01*
X013725Y004276D01*
X014237Y003765D02*
X014237Y003056D01*
X014237Y003036D01*
X002820Y025733D02*
X002800Y025792D01*
D22*
X013725Y004296D02*
X013725Y004276D01*
X008194Y004001D02*
X008194Y003572D01*
M02*
