G75*
G70*
%OFA0B0*%
%FSLAX24Y24*%
%IPPOS*%
%LPD*%
%AMOC8*
5,1,8,0,0,1.08239X$1,22.5*
%
%ADD10C,0.1182*%
%ADD11C,0.1261*%
%ADD12R,0.2442X0.1458*%
%ADD13R,0.1580X0.1580*%
%ADD14R,0.1261X0.1261*%
%ADD15C,0.2049*%
%ADD16C,0.0556*%
%ADD17R,0.0980X0.0500*%
%ADD18R,0.3580X0.4280*%
%ADD19R,0.1230X0.1178*%
%ADD20R,0.1182X0.1576*%
%ADD21R,0.0789X0.0710*%
%ADD22R,0.1261X0.0710*%
%ADD23C,0.0780*%
%ADD24R,0.0930X0.0501*%
%ADD25R,0.4178X0.4332*%
%ADD26R,0.0710X0.0789*%
%ADD27R,0.1576X0.1182*%
%ADD28C,0.0680*%
%ADD29OC8,0.0680*%
%ADD30R,0.0867X0.0867*%
%ADD31R,0.0592X0.0671*%
%ADD32R,0.0671X0.0592*%
%ADD33C,0.0555*%
%ADD34C,0.0480*%
%ADD35C,0.0671*%
D10*
X002898Y003942D03*
D11*
X004375Y010103D03*
X004375Y015320D03*
X004375Y027328D03*
X001717Y039040D03*
X016383Y027328D03*
X019040Y039040D03*
X016383Y015320D03*
X016383Y010103D03*
X017898Y003804D03*
X014257Y001540D03*
X006481Y001560D03*
D12*
X008883Y001560D03*
X011954Y001560D03*
D13*
X001520Y005300D03*
X001520Y007229D03*
X001560Y022150D03*
X001560Y024355D03*
X002111Y035103D03*
X002111Y037111D03*
X018646Y037111D03*
X018666Y035083D03*
X019276Y024355D03*
X019276Y022150D03*
X019276Y007229D03*
X019276Y005300D03*
D14*
X017190Y007387D03*
X011363Y004828D03*
X011363Y003253D03*
X010418Y006402D03*
X009473Y004828D03*
X009473Y003253D03*
X003607Y007387D03*
X003607Y022308D03*
X003607Y024198D03*
X004985Y029237D03*
X004040Y034946D03*
X004040Y036954D03*
X016678Y036954D03*
X016678Y034946D03*
X017190Y024198D03*
X017190Y022308D03*
D15*
X016284Y005143D03*
X014237Y003765D03*
X006560Y003765D03*
X004552Y005182D03*
D16*
X004040Y005694D03*
X003824Y005182D03*
X004040Y004670D03*
X004552Y004454D03*
X005064Y004670D03*
X005280Y005182D03*
X005064Y005694D03*
X004552Y005910D03*
X005831Y003765D03*
X006048Y004276D03*
X006560Y004493D03*
X007072Y004276D03*
X007288Y003765D03*
X007072Y003253D03*
X006560Y003036D03*
X006048Y003253D03*
X013509Y003765D03*
X013725Y004276D03*
X014237Y004493D03*
X014749Y004276D03*
X014965Y003765D03*
X014749Y003253D03*
X014237Y003036D03*
X013725Y003253D03*
X015556Y005143D03*
X015772Y005654D03*
X015772Y004631D03*
X016284Y004414D03*
X016796Y004631D03*
X017013Y005143D03*
X016796Y005654D03*
X016284Y005871D03*
D17*
X009828Y008724D03*
X009828Y009394D03*
X009828Y010064D03*
X009828Y010734D03*
X009828Y011404D03*
D18*
X013328Y010064D03*
D19*
X015387Y018922D03*
X019544Y018922D03*
X005568Y019040D03*
X001410Y019040D03*
D20*
X005654Y007465D03*
X008568Y007465D03*
D21*
X006166Y009670D03*
X006166Y010772D03*
X005064Y032190D03*
X005064Y033292D03*
D22*
X003331Y031717D03*
X001599Y031717D03*
X012938Y016639D03*
X014670Y016639D03*
X014552Y006481D03*
X012820Y006481D03*
D23*
X012993Y019237D03*
X013993Y019237D03*
X013804Y021245D03*
X012780Y021245D03*
X012009Y020221D03*
X011993Y019237D03*
X010993Y019237D03*
X011009Y020221D03*
X010812Y021245D03*
X009788Y021245D03*
X008804Y021245D03*
X008993Y019237D03*
X009993Y019237D03*
X011796Y021245D03*
X007993Y019237D03*
X006993Y019237D03*
X006954Y022308D03*
X006954Y023308D03*
X006954Y024308D03*
X006954Y025308D03*
X006954Y026308D03*
X006954Y027308D03*
X006954Y028308D03*
X006954Y029308D03*
X011796Y035930D03*
X011796Y036914D03*
X012820Y036914D03*
X012820Y035930D03*
X013804Y035930D03*
X013804Y036914D03*
D24*
X011087Y016402D03*
X011087Y015733D03*
X011087Y015064D03*
X011087Y014394D03*
X011087Y013725D03*
D25*
X007859Y015103D03*
D26*
X014631Y013410D03*
X015733Y013410D03*
D27*
X017505Y029788D03*
X017505Y032702D03*
D28*
X011430Y038119D03*
D29*
X011430Y039119D03*
X011430Y040119D03*
X010430Y040119D03*
X010430Y039119D03*
X010430Y038119D03*
D30*
X008725Y039080D03*
X008725Y040198D03*
X007607Y039080D03*
X013056Y039080D03*
X013056Y040198D03*
X014174Y039080D03*
D31*
X014178Y014513D03*
X014847Y014513D03*
X013233Y014513D03*
X012564Y014513D03*
X012524Y013371D03*
X013194Y013371D03*
X005792Y011875D03*
X005123Y011875D03*
D32*
X007308Y010359D03*
X007308Y009690D03*
X008410Y010950D03*
X008410Y011619D03*
D33*
X010320Y015824D03*
X010879Y009324D03*
X005379Y017324D03*
X008331Y023489D03*
X005879Y033324D03*
X006879Y037824D03*
X008745Y037898D03*
X009457Y035776D03*
X013879Y040178D03*
X016379Y032824D03*
X018883Y033528D03*
X019379Y025961D03*
X019906Y020635D03*
X017430Y016682D03*
X018292Y008548D03*
X019355Y003961D03*
X002820Y025733D03*
X003143Y038434D03*
X002170Y008587D03*
D34*
X003351Y006343D03*
X005379Y002824D03*
X005879Y005824D03*
X006643Y005812D03*
X008556Y005843D03*
X010438Y002627D03*
X011312Y007154D03*
X010859Y007674D03*
X011182Y012942D03*
X010379Y014324D03*
X010879Y017107D03*
X011379Y017824D03*
X012379Y017824D03*
X012379Y015324D03*
X013879Y012765D03*
X014879Y017824D03*
X015379Y020324D03*
X014879Y022324D03*
X016379Y019324D03*
X017524Y020005D03*
X018143Y026119D03*
X016379Y029324D03*
X014879Y030324D03*
X015379Y034824D03*
X014879Y038324D03*
X009524Y023461D03*
X004595Y018284D03*
X003859Y018698D03*
X002379Y019824D03*
X004879Y012824D03*
X007576Y011824D03*
X015603Y006450D03*
X003879Y030824D03*
X004379Y031824D03*
X003879Y033824D03*
X005839Y036824D03*
D35*
X008194Y003572D03*
M02*
