G75*
G70*
%OFA0B0*%
%FSLAX24Y24*%
%IPPOS*%
%LPD*%
%AMOC8*
5,1,8,0,0,1.08239X$1,22.5*
%
%ADD10R,0.2362X0.1378*%
%ADD11R,0.1500X0.1500*%
%ADD12R,0.1181X0.1181*%
%ADD13C,0.1969*%
%ADD14C,0.0476*%
%ADD15R,0.0900X0.0420*%
%ADD16R,0.3500X0.4200*%
%ADD17R,0.1150X0.1098*%
%ADD18R,0.1102X0.1496*%
%ADD19R,0.0709X0.0630*%
%ADD20R,0.1181X0.0630*%
%ADD21C,0.0700*%
%ADD22R,0.0850X0.0421*%
%ADD23R,0.4098X0.4252*%
%ADD24R,0.0630X0.0709*%
%ADD25R,0.1496X0.1102*%
%ADD26C,0.0600*%
%ADD27OC8,0.0600*%
%ADD28R,0.0787X0.0787*%
%ADD29R,0.0512X0.0591*%
%ADD30R,0.0591X0.0512*%
%ADD31C,0.0100*%
%ADD32C,0.0240*%
%ADD33C,0.0475*%
%ADD34C,0.0320*%
%ADD35C,0.0400*%
%ADD36C,0.0160*%
%ADD37C,0.0400*%
%ADD38C,0.0660*%
%ADD39C,0.0560*%
%ADD40C,0.0591*%
D10*
X008883Y001560D03*
X011954Y001560D03*
D11*
X019276Y005300D03*
X019276Y007229D03*
X019276Y022150D03*
X019276Y024355D03*
X018666Y035083D03*
X018646Y037111D03*
X002111Y037111D03*
X002111Y035103D03*
X001560Y024355D03*
X001560Y022150D03*
X001520Y007229D03*
X001520Y005300D03*
D12*
X003607Y007387D03*
X009473Y004828D03*
X009473Y003253D03*
X010418Y006402D03*
X011363Y004828D03*
X011363Y003253D03*
X017190Y007387D03*
X017190Y022308D03*
X017190Y024198D03*
X016678Y034946D03*
X016678Y036954D03*
X004985Y029237D03*
X003607Y024198D03*
X003607Y022308D03*
X004040Y034946D03*
X004040Y036954D03*
D13*
X004552Y005182D03*
X006560Y003765D03*
X014237Y003765D03*
X016284Y005143D03*
D14*
X016796Y005654D03*
X017013Y005143D03*
X016796Y004631D03*
X016284Y004414D03*
X015772Y004631D03*
X015556Y005143D03*
X015772Y005654D03*
X016284Y005871D03*
X014965Y003765D03*
X014749Y004276D03*
X014237Y004493D03*
X013725Y004276D03*
X013509Y003765D03*
X013725Y003253D03*
X014237Y003036D03*
X014749Y003253D03*
X007288Y003765D03*
X007072Y004276D03*
X006560Y004493D03*
X006048Y004276D03*
X005831Y003765D03*
X006048Y003253D03*
X006560Y003036D03*
X007072Y003253D03*
X005280Y005182D03*
X005064Y005694D03*
X005064Y004670D03*
X004552Y004454D03*
X004040Y004670D03*
X003824Y005182D03*
X004040Y005694D03*
X004552Y005910D03*
D15*
X009828Y008724D03*
X009828Y009394D03*
X009828Y010064D03*
X009828Y010734D03*
X009828Y011404D03*
D16*
X013328Y010064D03*
D17*
X015387Y018922D03*
X019544Y018922D03*
X005568Y019040D03*
X001410Y019040D03*
D18*
X005654Y007465D03*
X008568Y007465D03*
D19*
X006166Y009670D03*
X006166Y010772D03*
X005064Y032190D03*
X005064Y033292D03*
D20*
X003331Y031717D03*
X001599Y031717D03*
X012938Y016639D03*
X014670Y016639D03*
X014552Y006481D03*
X012820Y006481D03*
D21*
X012993Y019237D03*
X013993Y019237D03*
X013804Y021245D03*
X012780Y021245D03*
X012009Y020221D03*
X011993Y019237D03*
X010993Y019237D03*
X011009Y020221D03*
X010812Y021245D03*
X009788Y021245D03*
X008804Y021245D03*
X008993Y019237D03*
X009993Y019237D03*
X011796Y021245D03*
X007993Y019237D03*
X006993Y019237D03*
X006954Y022308D03*
X006954Y023308D03*
X006954Y024308D03*
X006954Y025308D03*
X006954Y026308D03*
X006954Y027308D03*
X006954Y028308D03*
X006954Y029308D03*
X011796Y035930D03*
X011796Y036914D03*
X012820Y036914D03*
X012820Y035930D03*
X013804Y035930D03*
X013804Y036914D03*
D22*
X011087Y016402D03*
X011087Y015733D03*
X011087Y015064D03*
X011087Y014394D03*
X011087Y013725D03*
D23*
X007859Y015103D03*
D24*
X014631Y013410D03*
X015733Y013410D03*
D25*
X017505Y029788D03*
X017505Y032702D03*
D26*
X011430Y038119D03*
D27*
X011430Y039119D03*
X011430Y040119D03*
X010430Y040119D03*
X010430Y039119D03*
X010430Y038119D03*
D28*
X008725Y039080D03*
X008725Y040198D03*
X007607Y039080D03*
X013056Y039080D03*
X013056Y040198D03*
X014174Y039080D03*
D29*
X014178Y014513D03*
X014847Y014513D03*
X013233Y014513D03*
X012564Y014513D03*
X012524Y013371D03*
X013194Y013371D03*
X005792Y011875D03*
X005123Y011875D03*
D30*
X007308Y010359D03*
X007308Y009690D03*
X008410Y010950D03*
X008410Y011619D03*
D31*
X002126Y003298D02*
X001837Y003298D01*
X001667Y003397D02*
X002041Y003397D01*
X002050Y003375D02*
X002331Y003093D01*
X002699Y002941D01*
X003098Y002941D01*
X003466Y003093D01*
X003747Y003375D01*
X003900Y003743D01*
X003900Y004141D01*
X003816Y004342D01*
X003868Y004290D01*
X004122Y004144D01*
X004405Y004068D01*
X004699Y004068D01*
X004982Y004144D01*
X005199Y004269D01*
X005199Y003106D01*
X005192Y003103D01*
X005099Y003011D01*
X005049Y002889D01*
X005049Y002758D01*
X005099Y002637D01*
X005192Y002544D01*
X005313Y002494D01*
X005444Y002494D01*
X005566Y002544D01*
X005658Y002637D01*
X005709Y002758D01*
X005709Y002889D01*
X005658Y003011D01*
X005566Y003103D01*
X005559Y003106D01*
X005559Y003229D01*
X005566Y003215D01*
X005633Y003107D01*
X005713Y003008D01*
X005803Y002917D01*
X005902Y002838D01*
X006010Y002770D01*
X006125Y002715D01*
X006245Y002673D01*
X006370Y002645D01*
X006496Y002630D01*
X006510Y002630D01*
X006510Y002651D01*
X006522Y002648D01*
X006541Y002648D01*
X006541Y003017D01*
X006579Y003017D01*
X006579Y002648D01*
X006598Y002648D01*
X006610Y002651D01*
X006610Y002630D01*
X006624Y002630D01*
X006750Y002645D01*
X006874Y002673D01*
X006995Y002715D01*
X007109Y002770D01*
X007217Y002838D01*
X007317Y002917D01*
X007407Y003008D01*
X007486Y003107D01*
X007554Y003215D01*
X007609Y003330D01*
X007651Y003450D01*
X007680Y003574D01*
X007694Y003701D01*
X007694Y003715D01*
X007674Y003715D01*
X007676Y003726D01*
X007676Y003746D01*
X007307Y003746D01*
X007307Y003783D01*
X007676Y003783D01*
X007676Y003803D01*
X007674Y003815D01*
X007694Y003815D01*
X007694Y003828D01*
X007680Y003955D01*
X007651Y004079D01*
X007609Y004199D01*
X007554Y004314D01*
X007486Y004422D01*
X007407Y004522D01*
X007317Y004612D01*
X007217Y004691D01*
X007109Y004759D01*
X006995Y004814D01*
X006874Y004856D01*
X006750Y004885D01*
X006624Y004899D01*
X006610Y004899D01*
X006610Y004878D01*
X006598Y004881D01*
X006579Y004881D01*
X006579Y004512D01*
X006541Y004512D01*
X006541Y004881D01*
X006522Y004881D01*
X006510Y004878D01*
X006510Y004899D01*
X006496Y004899D01*
X006370Y004885D01*
X006245Y004856D01*
X006125Y004814D01*
X006059Y004782D01*
X006059Y005541D01*
X006066Y005544D01*
X006158Y005637D01*
X006209Y005758D01*
X006209Y005889D01*
X006158Y006011D01*
X006066Y006103D01*
X005944Y006154D01*
X005813Y006154D01*
X005692Y006103D01*
X005599Y006011D01*
X005549Y005889D01*
X005549Y005758D01*
X005599Y005637D01*
X005692Y005544D01*
X005699Y005541D01*
X005699Y004898D01*
X005604Y004804D01*
X005666Y005035D01*
X005666Y005329D01*
X005590Y005612D01*
X005444Y005866D01*
X005236Y006074D01*
X004982Y006220D01*
X004699Y006296D01*
X004405Y006296D01*
X004122Y006220D01*
X003868Y006074D01*
X003660Y005866D01*
X003514Y005612D01*
X003438Y005329D01*
X003438Y005035D01*
X003514Y004752D01*
X003527Y004730D01*
X003466Y004790D01*
X003098Y004943D01*
X002699Y004943D01*
X002420Y004827D01*
X002420Y005250D01*
X001570Y005250D01*
X001570Y004400D01*
X002005Y004400D01*
X001897Y004141D01*
X001897Y003743D01*
X002050Y003375D01*
X002000Y003495D02*
X001496Y003495D01*
X001325Y003594D02*
X001959Y003594D01*
X001918Y003692D02*
X001155Y003692D01*
X000985Y003790D02*
X000927Y003829D01*
X000793Y003963D01*
X000699Y004126D01*
X000650Y004309D01*
X000644Y004404D01*
X000644Y004470D01*
X000650Y004458D01*
X000678Y004430D01*
X000713Y004410D01*
X000751Y004400D01*
X001470Y004400D01*
X001470Y005250D01*
X001570Y005250D01*
X001570Y005350D01*
X001470Y005350D01*
X001470Y006200D01*
X000751Y006200D01*
X000713Y006190D01*
X000678Y006170D01*
X000650Y006142D01*
X000644Y006130D01*
X000644Y006422D01*
X000717Y006349D01*
X002324Y006349D01*
X002400Y006425D01*
X002400Y008033D01*
X002324Y008109D01*
X001993Y008109D01*
X002190Y008220D01*
X002243Y008220D01*
X002378Y008276D01*
X002482Y008379D01*
X002538Y008514D01*
X002538Y008660D01*
X002482Y008796D01*
X002378Y008899D01*
X002243Y008955D01*
X002115Y008955D01*
X002231Y009010D01*
X002841Y009454D01*
X002841Y009454D01*
X003334Y009980D01*
X003334Y009966D01*
X003405Y009702D01*
X003542Y009464D01*
X003736Y009271D01*
X003973Y009134D01*
X004238Y009063D01*
X004512Y009063D01*
X004776Y009134D01*
X005014Y009271D01*
X005207Y009464D01*
X005344Y009702D01*
X005415Y009966D01*
X005415Y010240D01*
X005344Y010505D01*
X005207Y010742D01*
X005014Y010936D01*
X004776Y011073D01*
X004512Y011144D01*
X004238Y011144D01*
X003973Y011073D01*
X003920Y011042D01*
X004040Y011344D01*
X004040Y011344D01*
X004181Y012086D01*
X004181Y012841D01*
X004040Y013583D01*
X003762Y014285D01*
X003358Y014923D01*
X002841Y015473D01*
X002841Y015473D01*
X002231Y015918D01*
X002231Y015918D01*
X001548Y016240D01*
X001290Y016306D01*
X001273Y016319D01*
X001186Y016342D01*
X001095Y016372D01*
X000930Y016466D01*
X000795Y016600D01*
X000699Y016765D01*
X000650Y016949D01*
X000644Y017044D01*
X000644Y028679D01*
X000649Y028755D01*
X000648Y028756D01*
X001225Y038123D01*
X001316Y038071D01*
X001580Y038000D01*
X001854Y038000D01*
X002119Y038071D01*
X002356Y038208D01*
X002550Y038401D01*
X002687Y038639D01*
X002758Y038903D01*
X002758Y039177D01*
X002687Y039442D01*
X002550Y039679D01*
X002356Y039873D01*
X002119Y040010D01*
X001854Y040081D01*
X001580Y040081D01*
X001353Y040020D01*
X001399Y040171D01*
X001503Y040340D01*
X001645Y040478D01*
X001816Y040577D01*
X002007Y040629D01*
X002105Y040637D01*
X008201Y040637D01*
X008201Y039750D01*
X008278Y039674D01*
X009167Y039674D01*
X009167Y039603D01*
X008278Y039603D01*
X008201Y039527D01*
X008201Y038632D01*
X008278Y038556D01*
X008435Y038556D01*
X008435Y038108D01*
X008433Y038107D01*
X008377Y037972D01*
X008377Y037825D01*
X008433Y037690D01*
X008537Y037587D01*
X008672Y037531D01*
X008818Y037531D01*
X008953Y037587D01*
X009056Y037690D01*
X009112Y037825D01*
X009112Y037972D01*
X009056Y038107D01*
X009015Y038148D01*
X009015Y038556D01*
X009167Y038556D01*
X009167Y036006D01*
X009146Y035985D01*
X009090Y035849D01*
X009090Y035703D01*
X009146Y035568D01*
X009249Y035465D01*
X009384Y035409D01*
X005059Y035409D01*
X005059Y035311D02*
X010637Y035311D01*
X010539Y035409D02*
X009531Y035409D01*
X009666Y035465D01*
X009769Y035568D01*
X009825Y035703D01*
X009825Y035849D01*
X009769Y035985D01*
X009747Y036006D01*
X009747Y036200D01*
X011199Y034749D01*
X011304Y034644D01*
X014453Y034644D01*
X014559Y034749D01*
X014559Y036398D01*
X014241Y036716D01*
X014284Y036819D01*
X014284Y037010D01*
X014211Y037186D01*
X014076Y037321D01*
X013899Y037394D01*
X013708Y037394D01*
X013532Y037321D01*
X013397Y037186D01*
X013324Y037010D01*
X013324Y036819D01*
X013397Y036642D01*
X013532Y036507D01*
X013708Y036434D01*
X013899Y036434D01*
X013980Y036468D01*
X014199Y036249D01*
X014199Y036214D01*
X014076Y036337D01*
X013899Y036410D01*
X013708Y036410D01*
X013532Y036337D01*
X013397Y036202D01*
X013324Y036025D01*
X013324Y035834D01*
X013397Y035658D01*
X013532Y035523D01*
X013579Y035504D01*
X013045Y035504D01*
X013092Y035523D01*
X013227Y035658D01*
X013300Y035834D01*
X013300Y036025D01*
X013227Y036202D01*
X013092Y036337D01*
X012915Y036410D01*
X012724Y036410D01*
X012548Y036337D01*
X012413Y036202D01*
X012340Y036025D01*
X012340Y035834D01*
X012413Y035658D01*
X012548Y035523D01*
X012595Y035504D01*
X012021Y035504D01*
X012068Y035523D01*
X012203Y035658D01*
X012276Y035834D01*
X012276Y036025D01*
X012203Y036202D01*
X012068Y036337D01*
X011892Y036410D01*
X011701Y036410D01*
X011524Y036337D01*
X011389Y036202D01*
X011316Y036025D01*
X011316Y035834D01*
X011389Y035658D01*
X011524Y035523D01*
X011571Y035504D01*
X011453Y035504D01*
X011059Y035898D01*
X011059Y037891D01*
X011065Y037875D01*
X011186Y037754D01*
X011344Y037689D01*
X011515Y037689D01*
X011673Y037754D01*
X011794Y037875D01*
X011860Y038033D01*
X011860Y038204D01*
X011794Y038362D01*
X011673Y038483D01*
X011515Y038549D01*
X011344Y038549D01*
X011186Y038483D01*
X011065Y038362D01*
X011059Y038346D01*
X011059Y038882D01*
X011252Y038689D01*
X011608Y038689D01*
X011748Y038829D01*
X012532Y038829D01*
X012532Y038632D01*
X012608Y038556D01*
X013503Y038556D01*
X013580Y038632D01*
X013580Y039527D01*
X013503Y039603D01*
X012608Y039603D01*
X012532Y039527D01*
X012532Y039409D01*
X011748Y039409D01*
X011608Y039549D01*
X011359Y039549D01*
X011495Y039685D01*
X011500Y039689D01*
X011608Y039689D01*
X011860Y039941D01*
X011860Y040297D01*
X011608Y040549D01*
X011252Y040549D01*
X011000Y040297D01*
X011000Y039941D01*
X011121Y039820D01*
X010804Y039504D01*
X010729Y039428D01*
X010608Y039549D01*
X010359Y039549D01*
X010495Y039685D01*
X010500Y039689D01*
X010608Y039689D01*
X010860Y039941D01*
X010860Y040297D01*
X010608Y040549D01*
X010252Y040549D01*
X010000Y040297D01*
X010000Y039941D01*
X010121Y039820D01*
X009804Y039504D01*
X009747Y039447D01*
X009747Y039948D01*
X009749Y039953D01*
X009747Y040006D01*
X009747Y040058D01*
X009746Y040063D01*
X009745Y040068D01*
X009724Y040116D01*
X009703Y040165D01*
X009700Y040169D01*
X009698Y040173D01*
X009659Y040209D01*
X009622Y040247D01*
X009617Y040249D01*
X009613Y040252D01*
X009564Y040271D01*
X009515Y040291D01*
X009510Y040291D01*
X009505Y040293D01*
X009453Y040291D01*
X009400Y040291D01*
X009395Y040289D01*
X009249Y040284D01*
X009249Y040637D01*
X012532Y040637D01*
X012532Y039750D01*
X012608Y039674D01*
X013503Y039674D01*
X013580Y039750D01*
X013580Y039903D01*
X013637Y039900D01*
X013671Y039866D01*
X013806Y039810D01*
X013952Y039810D01*
X014087Y039866D01*
X014190Y039970D01*
X014246Y040105D01*
X014246Y040251D01*
X014190Y040386D01*
X014087Y040489D01*
X013952Y040545D01*
X013806Y040545D01*
X013671Y040489D01*
X013661Y040480D01*
X013580Y040484D01*
X013580Y040637D01*
X018615Y040637D01*
X018683Y040635D01*
X018779Y040626D01*
X018964Y040572D01*
X019129Y040473D01*
X019264Y040337D01*
X019362Y040171D01*
X019406Y040020D01*
X019177Y040081D01*
X018903Y040081D01*
X018639Y040010D01*
X018401Y039873D01*
X018208Y039679D01*
X018071Y039442D01*
X018000Y039177D01*
X018000Y038903D01*
X018071Y038639D01*
X018208Y038401D01*
X018401Y038208D01*
X018639Y038071D01*
X018861Y038011D01*
X018696Y038011D01*
X018696Y037161D01*
X018596Y037161D01*
X018596Y037061D01*
X017746Y037061D01*
X017746Y036341D01*
X017757Y036303D01*
X017776Y036269D01*
X017804Y036241D01*
X017839Y036221D01*
X017877Y036211D01*
X018596Y036211D01*
X018596Y037061D01*
X018696Y037061D01*
X018696Y036211D01*
X019416Y036211D01*
X019454Y036221D01*
X019489Y036241D01*
X019516Y036269D01*
X019536Y036303D01*
X019546Y036341D01*
X019546Y037061D01*
X018696Y037061D01*
X018696Y037161D01*
X019546Y037161D01*
X019546Y037881D01*
X019536Y037919D01*
X019516Y037953D01*
X019489Y037981D01*
X019454Y038001D01*
X019416Y038011D01*
X019220Y038011D01*
X019442Y038071D01*
X019532Y038123D01*
X020109Y028761D01*
X020106Y028753D01*
X020112Y028663D01*
X020113Y028638D01*
X020114Y028614D01*
X020114Y025228D01*
X020084Y025245D01*
X020046Y025255D01*
X019326Y025255D01*
X019326Y024405D01*
X019226Y024405D01*
X019226Y024305D01*
X018376Y024305D01*
X018376Y023585D01*
X018387Y023547D01*
X018406Y023513D01*
X018434Y023485D01*
X018468Y023465D01*
X018507Y023455D01*
X019226Y023455D01*
X019226Y024305D01*
X019326Y024305D01*
X019326Y023455D01*
X020046Y023455D01*
X020084Y023465D01*
X020114Y023482D01*
X020114Y022997D01*
X020080Y023030D01*
X018473Y023030D01*
X018396Y022954D01*
X018396Y021347D01*
X018473Y021270D01*
X019326Y021270D01*
X019576Y020890D01*
X019576Y020798D01*
X019550Y020736D01*
X018040Y020736D01*
X017935Y020630D01*
X017625Y020320D01*
X017590Y020335D01*
X017459Y020335D01*
X017337Y020284D01*
X017245Y020192D01*
X017194Y020070D01*
X017194Y019939D01*
X017245Y019818D01*
X017337Y019725D01*
X017459Y019675D01*
X017590Y019675D01*
X017711Y019725D01*
X017804Y019818D01*
X017854Y019939D01*
X017854Y020041D01*
X018190Y020376D01*
X019645Y020376D01*
X019698Y020323D01*
X019824Y020271D01*
X019717Y020164D01*
X019648Y019997D01*
X019648Y019816D01*
X019717Y019649D01*
X016455Y019649D01*
X016444Y019654D02*
X016313Y019654D01*
X016306Y019651D01*
X016059Y019898D01*
X015953Y020004D01*
X015469Y020004D01*
X015566Y020044D01*
X015658Y020137D01*
X015709Y020258D01*
X015709Y020389D01*
X015706Y020396D01*
X016897Y021587D01*
X017834Y021587D01*
X017910Y021663D01*
X017910Y022952D01*
X017834Y023028D01*
X016545Y023028D01*
X016469Y022952D01*
X016469Y022488D01*
X015493Y022488D01*
X015059Y022922D01*
X015059Y030041D01*
X015066Y030044D01*
X015158Y030137D01*
X015198Y030232D01*
X015187Y025563D01*
X015179Y025553D01*
X015187Y025490D01*
X015187Y025427D01*
X015196Y025417D01*
X015198Y025405D01*
X015247Y025366D01*
X015292Y025321D01*
X015305Y025321D01*
X016469Y024414D01*
X016469Y023553D01*
X016545Y023477D01*
X017834Y023477D01*
X017910Y023553D01*
X017910Y024842D01*
X017834Y024918D01*
X017559Y024918D01*
X017559Y025281D01*
X018070Y025792D01*
X018077Y025789D01*
X018208Y025789D01*
X018329Y025839D01*
X018422Y025932D01*
X018473Y026053D01*
X018473Y026185D01*
X018422Y026306D01*
X018329Y026399D01*
X018208Y026449D01*
X018077Y026449D01*
X017956Y026399D01*
X017863Y026306D01*
X017813Y026185D01*
X017813Y026053D01*
X017815Y026046D01*
X017199Y025430D01*
X017199Y024918D01*
X016545Y024918D01*
X016485Y024858D01*
X015547Y025589D01*
X015550Y026689D01*
X015550Y026689D01*
X015744Y026495D01*
X015981Y026358D01*
X016246Y026287D01*
X016520Y026287D01*
X016784Y026358D01*
X017022Y026495D01*
X017215Y026689D01*
X017352Y026926D01*
X017423Y027191D01*
X017423Y027465D01*
X017352Y027729D01*
X017215Y027966D01*
X017022Y028160D01*
X016784Y028297D01*
X016520Y028368D01*
X016246Y028368D01*
X015981Y028297D01*
X015744Y028160D01*
X015553Y027969D01*
X015566Y033813D01*
X016020Y034239D01*
X016034Y034225D01*
X017322Y034225D01*
X017399Y034301D01*
X017399Y035590D01*
X017322Y035666D01*
X016034Y035666D01*
X015957Y035590D01*
X015957Y034674D01*
X015315Y034071D01*
X015312Y034071D01*
X015261Y034020D01*
X015209Y033971D01*
X015209Y033968D01*
X015207Y033966D01*
X015207Y033894D01*
X015204Y033822D01*
X015206Y033819D01*
X015198Y030414D01*
X015158Y030511D01*
X015066Y030603D01*
X014944Y030654D01*
X014813Y030654D01*
X014692Y030603D01*
X014599Y030511D01*
X014559Y030413D01*
X014559Y033749D01*
X015306Y034496D01*
X015313Y034494D01*
X015444Y034494D01*
X015566Y034544D01*
X015658Y034637D01*
X015709Y034758D01*
X015709Y034872D01*
X015749Y034907D01*
X015756Y034907D01*
X015805Y034956D01*
X015856Y035001D01*
X015857Y035008D01*
X015862Y035013D01*
X015862Y035081D01*
X015867Y035149D01*
X015862Y035155D01*
X015862Y036196D01*
X015980Y036287D01*
X016034Y036233D01*
X017322Y036233D01*
X017399Y036309D01*
X017399Y037598D01*
X017322Y037674D01*
X016034Y037674D01*
X015957Y037598D01*
X015957Y036725D01*
X015620Y036464D01*
X015607Y036464D01*
X015563Y036420D01*
X015513Y036381D01*
X015511Y036368D01*
X015502Y036359D01*
X015502Y036296D01*
X015494Y036233D01*
X015502Y036223D01*
X015502Y035169D01*
X015471Y035143D01*
X015444Y035154D01*
X015313Y035154D01*
X015192Y035103D01*
X015099Y035011D01*
X015049Y034889D01*
X015049Y034758D01*
X015052Y034751D01*
X014304Y034004D01*
X014199Y033898D01*
X014199Y021529D01*
X014076Y021652D01*
X013899Y021725D01*
X013708Y021725D01*
X013532Y021652D01*
X013397Y021517D01*
X013324Y021340D01*
X013324Y021149D01*
X013397Y020973D01*
X013532Y020838D01*
X013708Y020765D01*
X013899Y020765D01*
X014076Y020838D01*
X014199Y020961D01*
X014199Y019898D01*
X014018Y019717D01*
X013897Y019717D01*
X013721Y019644D01*
X013586Y019509D01*
X013513Y019332D01*
X013513Y019212D01*
X013473Y019172D01*
X013473Y019332D01*
X013400Y019509D01*
X013265Y019644D01*
X013088Y019717D01*
X012897Y019717D01*
X012721Y019644D01*
X012586Y019509D01*
X012513Y019332D01*
X012513Y019212D01*
X012473Y019172D01*
X012473Y019332D01*
X012400Y019509D01*
X012265Y019644D01*
X012088Y019717D01*
X011897Y019717D01*
X011721Y019644D01*
X011586Y019509D01*
X011513Y019332D01*
X011513Y019142D01*
X011586Y018965D01*
X011721Y018830D01*
X011897Y018757D01*
X012058Y018757D01*
X011451Y018151D01*
X011444Y018154D01*
X011313Y018154D01*
X011192Y018103D01*
X011099Y018011D01*
X011059Y017913D01*
X011059Y018757D01*
X011088Y018757D01*
X011265Y018830D01*
X011400Y018965D01*
X011473Y019142D01*
X011473Y019332D01*
X011400Y019509D01*
X011265Y019644D01*
X011088Y019717D01*
X010897Y019717D01*
X010721Y019644D01*
X010586Y019509D01*
X010513Y019332D01*
X010513Y019142D01*
X010586Y018965D01*
X010699Y018852D01*
X010699Y017390D01*
X010692Y017387D01*
X010669Y017364D01*
X010669Y017759D01*
X010625Y017866D01*
X010211Y018279D01*
X010130Y018361D01*
X010023Y018405D01*
X008373Y018405D01*
X008188Y018589D01*
X008188Y018798D01*
X008265Y018830D01*
X008400Y018965D01*
X008473Y019142D01*
X008473Y019332D01*
X008400Y019509D01*
X008267Y019642D01*
X008267Y019866D01*
X008223Y019972D01*
X008141Y020054D01*
X007972Y020223D01*
X007972Y021361D01*
X008617Y022006D01*
X008661Y022112D01*
X008661Y023324D01*
X008699Y023416D01*
X008699Y023562D01*
X008643Y023697D01*
X008540Y023801D01*
X008405Y023856D01*
X008258Y023856D01*
X008123Y023801D01*
X008020Y023697D01*
X007964Y023562D01*
X007964Y023416D01*
X008020Y023281D01*
X008081Y023220D01*
X008081Y022290D01*
X007518Y021727D01*
X007436Y021645D01*
X007392Y021539D01*
X007392Y020045D01*
X007436Y019939D01*
X007687Y019688D01*
X007687Y019610D01*
X007586Y019509D01*
X007513Y019332D01*
X007513Y019142D01*
X007586Y018965D01*
X007608Y018943D01*
X007608Y018412D01*
X007653Y018305D01*
X007734Y018223D01*
X008088Y017869D01*
X008195Y017825D01*
X009845Y017825D01*
X010089Y017581D01*
X007559Y017581D01*
X007559Y017679D02*
X009991Y017679D01*
X010089Y017581D02*
X010089Y016522D01*
X010133Y016415D01*
X010214Y016334D01*
X010357Y016191D01*
X010247Y016191D01*
X010112Y016135D01*
X010038Y016062D01*
X010038Y017283D01*
X009962Y017359D01*
X007559Y017359D01*
X007559Y018898D01*
X007453Y019004D01*
X007427Y019030D01*
X007473Y019142D01*
X007473Y019332D01*
X007400Y019509D01*
X007265Y019644D01*
X007088Y019717D01*
X006897Y019717D01*
X006786Y019671D01*
X006559Y019898D01*
X006559Y022024D01*
X006682Y021901D01*
X006858Y021828D01*
X007049Y021828D01*
X007225Y021901D01*
X007360Y022036D01*
X007434Y022212D01*
X007434Y022403D01*
X007360Y022580D01*
X007225Y022715D01*
X007049Y022788D01*
X006858Y022788D01*
X006682Y022715D01*
X006559Y022592D01*
X006559Y023024D01*
X006682Y022901D01*
X006858Y022828D01*
X007049Y022828D01*
X007225Y022901D01*
X007360Y023036D01*
X007434Y023212D01*
X007434Y023403D01*
X007360Y023580D01*
X007225Y023715D01*
X007049Y023788D01*
X006858Y023788D01*
X006682Y023715D01*
X006547Y023580D01*
X006497Y023460D01*
X006453Y023504D01*
X004278Y023504D01*
X004328Y023553D01*
X004328Y024842D01*
X004251Y024918D01*
X004059Y024918D01*
X004059Y025930D01*
X003275Y026713D01*
X003275Y029950D01*
X003819Y030494D01*
X003944Y030494D01*
X004066Y030544D01*
X004158Y030637D01*
X004209Y030758D01*
X004209Y030889D01*
X004158Y031011D01*
X004066Y031103D01*
X003944Y031154D01*
X003813Y031154D01*
X003692Y031103D01*
X003599Y031011D01*
X003549Y030889D01*
X003549Y030758D01*
X003556Y030740D01*
X002915Y030099D01*
X002915Y026564D01*
X003021Y026459D01*
X003699Y025781D01*
X003699Y024918D01*
X002963Y024918D01*
X002887Y024842D01*
X002887Y023570D01*
X002440Y024017D01*
X002440Y025103D01*
X002856Y025366D01*
X002893Y025366D01*
X003028Y025422D01*
X003131Y025525D01*
X003187Y025660D01*
X003187Y025806D01*
X003131Y025941D01*
X003028Y026045D01*
X002893Y026101D01*
X002747Y026101D01*
X002612Y026045D01*
X002508Y025941D01*
X002500Y025922D01*
X002487Y025913D01*
X001779Y025913D01*
X001779Y031272D01*
X014199Y031272D01*
X014199Y031174D02*
X001779Y031174D01*
X001779Y031272D02*
X002244Y031272D01*
X002320Y031349D01*
X002320Y032086D01*
X002262Y032144D01*
X002668Y032144D01*
X002611Y032086D01*
X002611Y031349D01*
X002687Y031272D01*
X003976Y031272D01*
X004052Y031349D01*
X004052Y031644D01*
X004096Y031644D01*
X004099Y031637D01*
X004192Y031544D01*
X004313Y031494D01*
X004444Y031494D01*
X004566Y031544D01*
X004658Y031637D01*
X004703Y031745D01*
X005472Y031745D01*
X005548Y031821D01*
X005548Y032559D01*
X005472Y032635D01*
X004656Y032635D01*
X004579Y032559D01*
X004579Y032504D01*
X004559Y032504D01*
X004559Y033749D01*
X005059Y034249D01*
X005059Y035898D01*
X004953Y036004D01*
X003453Y036004D01*
X002991Y036466D01*
X002991Y037041D01*
X003597Y038319D01*
X003607Y038502D01*
X003545Y038675D01*
X003422Y038810D01*
X003257Y038889D01*
X003074Y038898D01*
X002902Y038836D01*
X002766Y038714D01*
X002423Y037991D01*
X001307Y037991D01*
X001231Y037915D01*
X001231Y036307D01*
X001307Y036231D01*
X002717Y036231D01*
X003199Y035749D01*
X003304Y035644D01*
X003373Y035644D01*
X003320Y035590D01*
X003320Y034301D01*
X003396Y034225D01*
X003699Y034225D01*
X003699Y034106D01*
X003692Y034103D01*
X003599Y034011D01*
X003549Y033889D01*
X003549Y033758D01*
X003599Y033637D01*
X003692Y033544D01*
X003813Y033494D01*
X003944Y033494D01*
X004066Y033544D01*
X004158Y033637D01*
X004199Y033734D01*
X004199Y032504D01*
X001804Y032504D01*
X001699Y032398D01*
X001699Y032162D01*
X000955Y032162D01*
X000879Y032086D01*
X000879Y031349D01*
X000955Y031272D01*
X001419Y031272D01*
X000803Y031272D01*
X000797Y031174D02*
X001419Y031174D01*
X001419Y031272D02*
X001419Y025659D01*
X001525Y025553D01*
X001916Y025553D01*
X001412Y025235D01*
X000756Y025235D01*
X000680Y025159D01*
X000680Y023551D01*
X000756Y023475D01*
X002364Y023475D01*
X002418Y023530D01*
X002699Y023249D01*
X002804Y023144D01*
X006199Y023144D01*
X006199Y019749D01*
X006543Y019405D01*
X006513Y019332D01*
X006513Y019142D01*
X006586Y018965D01*
X006721Y018830D01*
X006897Y018757D01*
X007088Y018757D01*
X007161Y018787D01*
X007199Y018749D01*
X007199Y017359D01*
X005756Y017359D01*
X005746Y017349D01*
X005746Y017397D01*
X005690Y017532D01*
X005629Y017593D01*
X005629Y018361D01*
X006196Y018361D01*
X006273Y018437D01*
X006273Y019643D01*
X006196Y019719D01*
X004939Y019719D01*
X004863Y019643D01*
X004863Y018483D01*
X004782Y018564D01*
X004661Y018614D01*
X004530Y018614D01*
X004408Y018564D01*
X004316Y018471D01*
X004265Y018350D01*
X004265Y018219D01*
X004316Y018097D01*
X004408Y018004D01*
X004530Y017954D01*
X004587Y017954D01*
X004699Y017773D01*
X004699Y016513D01*
X005199Y016013D01*
X005199Y015967D01*
X005014Y016152D01*
X004776Y016289D01*
X004512Y016360D01*
X004238Y016360D01*
X003973Y016289D01*
X003736Y016152D01*
X003542Y015959D01*
X003405Y015721D01*
X003334Y015457D01*
X003334Y015183D01*
X003405Y014918D01*
X003542Y014681D01*
X003736Y014487D01*
X003973Y014350D01*
X004238Y014279D01*
X004512Y014279D01*
X004776Y014350D01*
X005014Y014487D01*
X005199Y014672D01*
X005199Y013398D01*
X004951Y013151D01*
X004944Y013154D01*
X004813Y013154D01*
X004692Y013103D01*
X004599Y013011D01*
X004549Y012889D01*
X004549Y012758D01*
X004599Y012637D01*
X004692Y012544D01*
X004813Y012494D01*
X004944Y012494D01*
X005066Y012544D01*
X005158Y012637D01*
X005209Y012758D01*
X005209Y012889D01*
X005206Y012896D01*
X005559Y013249D01*
X005559Y016162D01*
X005453Y016267D01*
X005059Y016662D01*
X005059Y017136D01*
X005067Y017115D01*
X005171Y017012D01*
X005306Y016956D01*
X005452Y016956D01*
X005587Y017012D01*
X005680Y017105D01*
X005680Y012923D01*
X005756Y012847D01*
X009962Y012847D01*
X010038Y012923D01*
X010038Y014707D01*
X010145Y014813D01*
X010532Y014813D01*
X010532Y014799D01*
X010602Y014729D01*
X010532Y014659D01*
X010532Y014617D01*
X010444Y014654D01*
X010313Y014654D01*
X010192Y014603D01*
X010099Y014511D01*
X010049Y014389D01*
X010049Y014258D01*
X010099Y014137D01*
X010192Y014044D01*
X010313Y013994D01*
X010444Y013994D01*
X010566Y014044D01*
X010592Y014070D01*
X010602Y014060D01*
X010532Y013990D01*
X010532Y013461D01*
X010608Y013385D01*
X011096Y013385D01*
X011067Y013251D01*
X010995Y013221D01*
X010902Y013129D01*
X010852Y013007D01*
X010852Y012876D01*
X010902Y012755D01*
X010995Y012662D01*
X011104Y012617D01*
X011058Y012571D01*
X010861Y012374D01*
X010817Y012267D01*
X010817Y010479D01*
X010692Y010354D01*
X010381Y010354D01*
X010336Y010399D01*
X010408Y010470D01*
X010408Y010644D01*
X010453Y010644D01*
X010559Y010749D01*
X010559Y010757D01*
X010650Y010848D01*
X010756Y010954D01*
X010756Y012087D01*
X010401Y012441D01*
X010296Y012547D01*
X007251Y012547D01*
X007204Y012587D01*
X007055Y012576D01*
X006993Y012505D01*
X006987Y012497D01*
X006939Y012449D01*
X006939Y012442D01*
X006560Y012004D01*
X006178Y012004D01*
X006178Y012224D01*
X006102Y012300D01*
X005482Y012300D01*
X005457Y012275D01*
X005433Y012300D01*
X004813Y012300D01*
X004737Y012224D01*
X004737Y011936D01*
X004699Y011898D01*
X004699Y011877D01*
X004687Y011860D01*
X004699Y011805D01*
X004699Y011749D01*
X004714Y011734D01*
X004718Y011714D01*
X004737Y011701D01*
X004737Y011526D01*
X004813Y011450D01*
X004998Y011450D01*
X005682Y010766D01*
X005682Y010404D01*
X005758Y010327D01*
X006574Y010327D01*
X006650Y010404D01*
X006650Y011141D01*
X006574Y011217D01*
X005758Y011217D01*
X005749Y011208D01*
X005507Y011450D01*
X006102Y011450D01*
X006178Y011526D01*
X006178Y011644D01*
X006576Y011644D01*
X006581Y011639D01*
X006649Y011644D01*
X006717Y011644D01*
X006722Y011649D01*
X006730Y011650D01*
X006774Y011701D01*
X006823Y011749D01*
X006823Y011757D01*
X007194Y012187D01*
X010147Y012187D01*
X010396Y011938D01*
X010396Y011680D01*
X010331Y011744D01*
X009324Y011744D01*
X009248Y011668D01*
X009248Y011450D01*
X009240Y011440D01*
X008836Y011035D01*
X008836Y011259D01*
X008811Y011284D01*
X008836Y011309D01*
X008836Y011929D01*
X008759Y012005D01*
X008436Y012005D01*
X008425Y012013D01*
X008373Y012005D01*
X008061Y012005D01*
X008060Y012004D01*
X007858Y012004D01*
X007855Y012011D01*
X007763Y012103D01*
X007641Y012154D01*
X007510Y012154D01*
X007389Y012103D01*
X007296Y012011D01*
X007246Y011889D01*
X007246Y011758D01*
X007296Y011637D01*
X007389Y011544D01*
X007510Y011494D01*
X007641Y011494D01*
X007763Y011544D01*
X007855Y011637D01*
X007858Y011644D01*
X007985Y011644D01*
X007985Y011309D01*
X008010Y011284D01*
X007985Y011259D01*
X007985Y010640D01*
X008061Y010564D01*
X008199Y010564D01*
X008199Y010504D01*
X007733Y010504D01*
X007733Y010669D01*
X007657Y010745D01*
X006959Y010745D01*
X006883Y010669D01*
X006883Y010049D01*
X006907Y010024D01*
X006887Y010004D01*
X006650Y010004D01*
X006650Y010039D01*
X006574Y010115D01*
X005758Y010115D01*
X005682Y010039D01*
X005682Y009301D01*
X005699Y009284D01*
X005699Y008343D01*
X005049Y008343D01*
X004973Y008267D01*
X004973Y006663D01*
X005049Y006587D01*
X006259Y006587D01*
X006336Y006663D01*
X006336Y008267D01*
X006259Y008343D01*
X006059Y008343D01*
X006059Y009225D01*
X006574Y009225D01*
X006650Y009301D01*
X006650Y009644D01*
X006883Y009644D01*
X006883Y009380D01*
X006959Y009304D01*
X007020Y009304D01*
X007013Y009299D01*
X006997Y009299D01*
X006954Y009256D01*
X006584Y008988D01*
X006568Y008988D01*
X006525Y008945D01*
X006477Y008910D01*
X006474Y008894D01*
X006463Y008882D01*
X006463Y008822D01*
X006453Y008763D01*
X006463Y008750D01*
X006463Y006094D01*
X006456Y006092D01*
X006363Y005999D01*
X006313Y005877D01*
X006313Y005746D01*
X006363Y005625D01*
X006456Y005532D01*
X006577Y005482D01*
X006708Y005482D01*
X006829Y005532D01*
X006922Y005625D01*
X006973Y005746D01*
X006973Y005877D01*
X006922Y005999D01*
X006829Y006092D01*
X006823Y006094D01*
X006823Y008716D01*
X007130Y008939D01*
X008249Y008939D01*
X008953Y009644D01*
X009193Y009884D01*
X009248Y009884D01*
X009248Y009800D01*
X009319Y009729D01*
X009248Y009658D01*
X009248Y009130D01*
X009310Y009068D01*
X009285Y009054D01*
X009258Y009026D01*
X009238Y008992D01*
X009228Y008954D01*
X009228Y008774D01*
X009778Y008774D01*
X009778Y008674D01*
X009878Y008674D01*
X009878Y008774D01*
X010428Y008774D01*
X010428Y008954D01*
X010417Y008992D01*
X010398Y009026D01*
X010370Y009054D01*
X010345Y009068D01*
X010351Y009074D01*
X010609Y009074D01*
X010671Y009012D01*
X010699Y009000D01*
X010699Y008898D01*
X010428Y008627D01*
X010428Y008674D01*
X009878Y008674D01*
X009878Y008364D01*
X010164Y008364D01*
X009804Y008004D01*
X009249Y008004D01*
X009249Y008267D01*
X009173Y008343D01*
X007963Y008343D01*
X007887Y008267D01*
X007887Y006663D01*
X007963Y006587D01*
X009144Y006587D01*
X009144Y005558D01*
X009134Y005548D01*
X008829Y005548D01*
X008753Y005472D01*
X008753Y004204D01*
X008736Y004221D01*
X008736Y005561D01*
X008743Y005564D01*
X009144Y005564D01*
X009144Y005662D02*
X008838Y005662D01*
X008836Y005656D02*
X008886Y005778D01*
X008886Y005909D01*
X008836Y006030D01*
X008743Y006123D01*
X008622Y006173D01*
X008490Y006173D01*
X008369Y006123D01*
X008276Y006030D01*
X008226Y005909D01*
X008226Y005778D01*
X008276Y005656D01*
X008369Y005564D01*
X006861Y005564D01*
X006938Y005662D02*
X008274Y005662D01*
X008233Y005761D02*
X006973Y005761D01*
X006973Y005859D02*
X008226Y005859D01*
X008246Y005958D02*
X006939Y005958D01*
X006865Y006056D02*
X008302Y006056D01*
X008445Y006155D02*
X006823Y006155D01*
X006823Y006253D02*
X009144Y006253D01*
X009144Y006155D02*
X008667Y006155D01*
X008810Y006056D02*
X009144Y006056D01*
X009144Y005958D02*
X008866Y005958D01*
X008886Y005859D02*
X009144Y005859D01*
X009144Y005761D02*
X008879Y005761D01*
X008836Y005656D02*
X008743Y005564D01*
X008736Y005465D02*
X008753Y005465D01*
X008753Y005367D02*
X008736Y005367D01*
X008736Y005268D02*
X008753Y005268D01*
X008753Y005170D02*
X008736Y005170D01*
X008736Y005071D02*
X008753Y005071D01*
X008753Y004973D02*
X008736Y004973D01*
X008736Y004874D02*
X008753Y004874D01*
X008753Y004776D02*
X008736Y004776D01*
X008736Y004677D02*
X008753Y004677D01*
X008753Y004579D02*
X008736Y004579D01*
X008736Y004480D02*
X008753Y004480D01*
X008753Y004382D02*
X008736Y004382D01*
X008736Y004283D02*
X008753Y004283D01*
X008850Y004107D02*
X010118Y004107D01*
X010194Y004183D01*
X010194Y005472D01*
X010118Y005548D01*
X009724Y005548D01*
X009724Y005732D01*
X009774Y005682D01*
X011063Y005682D01*
X011139Y005758D01*
X011139Y006796D01*
X011201Y006843D01*
X011246Y006824D01*
X011377Y006824D01*
X011499Y006875D01*
X011592Y006967D01*
X011642Y007089D01*
X011642Y007111D01*
X011711Y007042D01*
X011817Y006998D01*
X015259Y006998D01*
X015366Y007042D01*
X015740Y007416D01*
X015821Y007498D01*
X015866Y007605D01*
X015866Y009196D01*
X015863Y009201D01*
X015981Y009134D01*
X016246Y009063D01*
X016520Y009063D01*
X016784Y009134D01*
X017022Y009271D01*
X017215Y009464D01*
X017352Y009702D01*
X017423Y009966D01*
X017423Y009980D01*
X017916Y009454D01*
X017916Y009454D01*
X017916Y009454D01*
X018527Y009010D01*
X019210Y008687D01*
X019575Y008593D01*
X019589Y008589D01*
X019663Y008565D01*
X019828Y008470D01*
X019963Y008336D01*
X020058Y008172D01*
X020072Y008122D01*
X020046Y008129D01*
X019326Y008129D01*
X019326Y007279D01*
X019226Y007279D01*
X019226Y007179D01*
X018376Y007179D01*
X018376Y006459D01*
X018387Y006421D01*
X018406Y006387D01*
X018434Y006359D01*
X018468Y006339D01*
X018507Y006329D01*
X019226Y006329D01*
X019226Y007179D01*
X019326Y007179D01*
X019326Y006329D01*
X020046Y006329D01*
X020084Y006339D01*
X020114Y006356D01*
X020114Y006146D01*
X020080Y006180D01*
X018473Y006180D01*
X018396Y006104D01*
X018396Y004718D01*
X018300Y004774D01*
X018035Y004844D01*
X017761Y004844D01*
X017497Y004774D01*
X017315Y004669D01*
X017334Y004708D01*
X017376Y004828D01*
X017404Y004952D01*
X017419Y005079D01*
X017419Y005093D01*
X017398Y005093D01*
X017400Y005104D01*
X017400Y005124D01*
X017032Y005124D01*
X017032Y005161D01*
X017400Y005161D01*
X017400Y005181D01*
X017398Y005193D01*
X017419Y005193D01*
X017419Y005206D01*
X017404Y005333D01*
X017376Y005457D01*
X017334Y005577D01*
X017279Y005692D01*
X017211Y005800D01*
X017131Y005900D01*
X017041Y005990D01*
X016942Y006069D01*
X016834Y006137D01*
X016719Y006192D01*
X016599Y006234D01*
X016475Y006263D01*
X016348Y006277D01*
X016334Y006277D01*
X016334Y006256D01*
X016322Y006259D01*
X016303Y006259D01*
X016303Y005890D01*
X016265Y005890D01*
X016265Y006259D01*
X016246Y006259D01*
X016234Y006256D01*
X016234Y006277D01*
X016221Y006277D01*
X016094Y006263D01*
X015970Y006234D01*
X015850Y006192D01*
X015735Y006137D01*
X015627Y006069D01*
X015527Y005990D01*
X015437Y005900D01*
X015358Y005800D01*
X015290Y005692D01*
X015235Y005577D01*
X015193Y005457D01*
X015164Y005333D01*
X015150Y005206D01*
X015150Y005193D01*
X015170Y005193D01*
X015168Y005181D01*
X015168Y005161D01*
X015537Y005161D01*
X015537Y005124D01*
X015168Y005124D01*
X015168Y005104D01*
X015170Y005093D01*
X015150Y005093D01*
X015150Y005079D01*
X015164Y004952D01*
X015193Y004828D01*
X015235Y004708D01*
X015290Y004593D01*
X015358Y004485D01*
X015437Y004386D01*
X015527Y004295D01*
X015627Y004216D01*
X015735Y004148D01*
X015850Y004093D01*
X015970Y004051D01*
X016094Y004023D01*
X016221Y004008D01*
X016234Y004008D01*
X016234Y004029D01*
X016246Y004026D01*
X016265Y004026D01*
X016265Y004395D01*
X016303Y004395D01*
X016303Y004026D01*
X016322Y004026D01*
X016334Y004029D01*
X016334Y004008D01*
X016348Y004008D01*
X016475Y004023D01*
X016599Y004051D01*
X016719Y004093D01*
X016834Y004148D01*
X016931Y004209D01*
X016929Y004206D01*
X016858Y003941D01*
X016858Y003667D01*
X016929Y003402D01*
X017066Y003165D01*
X017260Y002971D01*
X017497Y002834D01*
X017761Y002763D01*
X017993Y002763D01*
X015235Y001172D01*
X015297Y001403D01*
X015297Y001677D01*
X015226Y001942D01*
X015089Y002179D01*
X014896Y002373D01*
X014658Y002510D01*
X014394Y002581D01*
X014120Y002581D01*
X013855Y002510D01*
X013618Y002373D01*
X013424Y002179D01*
X013287Y001942D01*
X013285Y001933D01*
X013285Y002269D01*
X013274Y002307D01*
X013255Y002341D01*
X013227Y002369D01*
X013193Y002389D01*
X013154Y002399D01*
X012004Y002399D01*
X012004Y001610D01*
X011904Y001610D01*
X011904Y002399D01*
X010753Y002399D01*
X010715Y002389D01*
X010680Y002369D01*
X010652Y002341D01*
X010633Y002307D01*
X010622Y002269D01*
X010622Y001610D01*
X011904Y001610D01*
X011904Y001510D01*
X012004Y001510D01*
X012004Y000721D01*
X013154Y000721D01*
X013193Y000731D01*
X013227Y000751D01*
X013255Y000779D01*
X013274Y000813D01*
X013285Y000851D01*
X013285Y001148D01*
X013287Y001139D01*
X013424Y000901D01*
X013607Y000719D01*
X007105Y000719D01*
X007120Y000727D01*
X007314Y000921D01*
X007451Y001158D01*
X007522Y001423D01*
X007522Y001697D01*
X007451Y001961D01*
X007314Y002199D01*
X007120Y002392D01*
X006883Y002529D01*
X006618Y002600D01*
X006344Y002600D01*
X006079Y002529D01*
X005842Y002392D01*
X005648Y002199D01*
X005511Y001961D01*
X005441Y001697D01*
X005441Y001423D01*
X005505Y001182D01*
X000985Y003790D01*
X000984Y003791D02*
X001897Y003791D01*
X001897Y003889D02*
X000867Y003889D01*
X000779Y003988D02*
X001897Y003988D01*
X001897Y004086D02*
X000722Y004086D01*
X000683Y004185D02*
X001915Y004185D01*
X001956Y004283D02*
X000657Y004283D01*
X000645Y004382D02*
X001997Y004382D01*
X001570Y004480D02*
X001470Y004480D01*
X001470Y004579D02*
X001570Y004579D01*
X001570Y004677D02*
X001470Y004677D01*
X001470Y004776D02*
X001570Y004776D01*
X001570Y004874D02*
X001470Y004874D01*
X001470Y004973D02*
X001570Y004973D01*
X001570Y005071D02*
X001470Y005071D01*
X001470Y005170D02*
X001570Y005170D01*
X001570Y005268D02*
X003438Y005268D01*
X003438Y005170D02*
X002420Y005170D01*
X002420Y005071D02*
X003438Y005071D01*
X003454Y004973D02*
X002420Y004973D01*
X002420Y004874D02*
X002533Y004874D01*
X002643Y005300D02*
X001520Y005300D01*
X001570Y005350D02*
X001570Y006200D01*
X002290Y006200D01*
X002328Y006190D01*
X002363Y006170D01*
X002391Y006142D01*
X002410Y006108D01*
X002420Y006070D01*
X002420Y005350D01*
X001570Y005350D01*
X001570Y005367D02*
X001470Y005367D01*
X001470Y005465D02*
X001570Y005465D01*
X001570Y005564D02*
X001470Y005564D01*
X001470Y005662D02*
X001570Y005662D01*
X001570Y005761D02*
X001470Y005761D01*
X001470Y005859D02*
X001570Y005859D01*
X001570Y005958D02*
X001470Y005958D01*
X001470Y006056D02*
X001570Y006056D01*
X001570Y006155D02*
X001470Y006155D01*
X000714Y006352D02*
X000644Y006352D01*
X000644Y006253D02*
X003031Y006253D01*
X003021Y006278D02*
X003071Y006156D01*
X003164Y006064D01*
X003286Y006013D01*
X003417Y006013D01*
X003538Y006064D01*
X003631Y006156D01*
X003681Y006278D01*
X003681Y006409D01*
X003631Y006530D01*
X003547Y006614D01*
X003550Y006666D01*
X004251Y006666D01*
X004328Y006742D01*
X004328Y008031D01*
X004251Y008107D01*
X002963Y008107D01*
X002887Y008031D01*
X002887Y006742D01*
X002963Y006666D01*
X003189Y006666D01*
X003187Y006633D01*
X003164Y006623D01*
X003071Y006530D01*
X003021Y006409D01*
X003021Y006278D01*
X003021Y006352D02*
X002327Y006352D01*
X002400Y006450D02*
X003038Y006450D01*
X003090Y006549D02*
X002400Y006549D01*
X002400Y006647D02*
X003188Y006647D01*
X003379Y006824D02*
X003351Y006343D01*
X003681Y006352D02*
X006463Y006352D01*
X006463Y006450D02*
X003664Y006450D01*
X003613Y006549D02*
X006463Y006549D01*
X006463Y006647D02*
X006319Y006647D01*
X006336Y006746D02*
X006463Y006746D01*
X006463Y006844D02*
X006336Y006844D01*
X006336Y006943D02*
X006463Y006943D01*
X006463Y007041D02*
X006336Y007041D01*
X006336Y007140D02*
X006463Y007140D01*
X006463Y007238D02*
X006336Y007238D01*
X006336Y007337D02*
X006463Y007337D01*
X006463Y007435D02*
X006336Y007435D01*
X006336Y007534D02*
X006463Y007534D01*
X006463Y007632D02*
X006336Y007632D01*
X006336Y007731D02*
X006463Y007731D01*
X006463Y007829D02*
X006336Y007829D01*
X006336Y007928D02*
X006463Y007928D01*
X006463Y008026D02*
X006336Y008026D01*
X006336Y008125D02*
X006463Y008125D01*
X006463Y008223D02*
X006336Y008223D01*
X006281Y008322D02*
X006463Y008322D01*
X006463Y008420D02*
X006059Y008420D01*
X006059Y008519D02*
X006463Y008519D01*
X006463Y008617D02*
X006059Y008617D01*
X006059Y008716D02*
X006463Y008716D01*
X006461Y008814D02*
X006059Y008814D01*
X006059Y008913D02*
X006480Y008913D01*
X006616Y009011D02*
X006059Y009011D01*
X006059Y009110D02*
X006752Y009110D01*
X006888Y009208D02*
X006059Y009208D01*
X006166Y009670D02*
X005879Y009824D01*
X005879Y007824D01*
X005654Y007465D01*
X005699Y008420D02*
X002499Y008420D01*
X002538Y008519D02*
X005699Y008519D01*
X005699Y008617D02*
X002538Y008617D01*
X002515Y008716D02*
X005699Y008716D01*
X005699Y008814D02*
X002463Y008814D01*
X002345Y008913D02*
X005699Y008913D01*
X005699Y009011D02*
X002233Y009011D01*
X002231Y009010D02*
X002231Y009010D01*
X002368Y009110D02*
X004062Y009110D01*
X003844Y009208D02*
X002504Y009208D01*
X002639Y009307D02*
X003700Y009307D01*
X003601Y009405D02*
X002774Y009405D01*
X002888Y009504D02*
X003519Y009504D01*
X003463Y009602D02*
X002980Y009602D01*
X003073Y009701D02*
X003406Y009701D01*
X003379Y009799D02*
X003165Y009799D01*
X003257Y009898D02*
X003353Y009898D01*
X003056Y008627D02*
X002643Y008213D01*
X002643Y005300D01*
X002420Y005367D02*
X003448Y005367D01*
X003474Y005465D02*
X002420Y005465D01*
X002420Y005564D02*
X003501Y005564D01*
X003543Y005662D02*
X002420Y005662D01*
X002420Y005761D02*
X003599Y005761D01*
X003656Y005859D02*
X002420Y005859D01*
X002420Y005958D02*
X003752Y005958D01*
X003850Y006056D02*
X003520Y006056D01*
X003629Y006155D02*
X004008Y006155D01*
X004245Y006253D02*
X003671Y006253D01*
X003549Y006647D02*
X004990Y006647D01*
X004973Y006746D02*
X004328Y006746D01*
X004328Y006844D02*
X004973Y006844D01*
X004973Y006943D02*
X004328Y006943D01*
X004328Y007041D02*
X004973Y007041D01*
X004973Y007140D02*
X004328Y007140D01*
X004328Y007238D02*
X004973Y007238D01*
X004973Y007337D02*
X004328Y007337D01*
X004328Y007435D02*
X004973Y007435D01*
X004973Y007534D02*
X004328Y007534D01*
X004328Y007632D02*
X004973Y007632D01*
X004973Y007731D02*
X004328Y007731D01*
X004328Y007829D02*
X004973Y007829D01*
X004973Y007928D02*
X004328Y007928D01*
X004328Y008026D02*
X004973Y008026D01*
X004973Y008125D02*
X002020Y008125D01*
X002251Y008223D02*
X004973Y008223D01*
X005028Y008322D02*
X002424Y008322D01*
X002400Y008026D02*
X002887Y008026D01*
X002887Y007928D02*
X002400Y007928D01*
X002400Y007829D02*
X002887Y007829D01*
X002887Y007731D02*
X002400Y007731D01*
X002400Y007632D02*
X002887Y007632D01*
X002887Y007534D02*
X002400Y007534D01*
X002400Y007435D02*
X002887Y007435D01*
X002887Y007337D02*
X002400Y007337D01*
X002400Y007238D02*
X002887Y007238D01*
X002887Y007140D02*
X002400Y007140D01*
X002400Y007041D02*
X002887Y007041D01*
X002887Y006943D02*
X002400Y006943D01*
X002400Y006844D02*
X002887Y006844D01*
X002887Y006746D02*
X002400Y006746D01*
X002378Y006155D02*
X003073Y006155D01*
X003182Y006056D02*
X002420Y006056D01*
X003264Y004874D02*
X003481Y004874D01*
X003480Y004776D02*
X003507Y004776D01*
X003841Y004283D02*
X003880Y004283D01*
X003882Y004185D02*
X004051Y004185D01*
X003900Y004086D02*
X004336Y004086D01*
X004767Y004086D02*
X005199Y004086D01*
X005199Y003988D02*
X003900Y003988D01*
X003900Y003889D02*
X005199Y003889D01*
X005199Y003791D02*
X003900Y003791D01*
X003879Y003692D02*
X005199Y003692D01*
X005199Y003594D02*
X003838Y003594D01*
X003797Y003495D02*
X005199Y003495D01*
X005199Y003397D02*
X003756Y003397D01*
X003671Y003298D02*
X005199Y003298D01*
X005199Y003200D02*
X003572Y003200D01*
X003474Y003101D02*
X005190Y003101D01*
X005096Y003003D02*
X003247Y003003D01*
X003032Y002609D02*
X005127Y002609D01*
X005070Y002707D02*
X002862Y002707D01*
X002691Y002806D02*
X005049Y002806D01*
X005055Y002904D02*
X002520Y002904D01*
X002550Y003003D02*
X002350Y003003D01*
X002323Y003101D02*
X002179Y003101D01*
X002225Y003200D02*
X002008Y003200D01*
X003203Y002510D02*
X005273Y002510D01*
X005484Y002510D02*
X006046Y002510D01*
X005875Y002412D02*
X003374Y002412D01*
X003545Y002313D02*
X005763Y002313D01*
X005664Y002215D02*
X003715Y002215D01*
X003886Y002116D02*
X005601Y002116D01*
X005544Y002018D02*
X004057Y002018D01*
X004227Y001919D02*
X005500Y001919D01*
X005474Y001821D02*
X004398Y001821D01*
X004569Y001722D02*
X005447Y001722D01*
X005441Y001624D02*
X004740Y001624D01*
X004910Y001525D02*
X005441Y001525D01*
X005441Y001427D02*
X005081Y001427D01*
X005252Y001328D02*
X005466Y001328D01*
X005492Y001230D02*
X005422Y001230D01*
X005630Y002609D02*
X007784Y002609D01*
X007784Y002567D02*
X007783Y002565D01*
X007784Y002486D01*
X007784Y002407D01*
X007785Y002405D01*
X007785Y002401D01*
X007795Y002379D01*
X007648Y002379D01*
X007572Y002303D01*
X007572Y000817D01*
X007648Y000741D01*
X010118Y000741D01*
X010194Y000817D01*
X010194Y002303D01*
X010118Y002379D01*
X008896Y002379D01*
X008604Y002662D01*
X008604Y003450D01*
X008619Y003487D01*
X008619Y003656D01*
X008554Y003813D01*
X008435Y003932D01*
X008278Y003997D01*
X008109Y003997D01*
X007953Y003932D01*
X007833Y003813D01*
X007768Y003656D01*
X007768Y003487D01*
X007784Y003450D01*
X007784Y002567D01*
X007783Y002510D02*
X006916Y002510D01*
X007087Y002412D02*
X007784Y002412D01*
X007582Y002313D02*
X007199Y002313D01*
X007298Y002215D02*
X007572Y002215D01*
X007572Y002116D02*
X007361Y002116D01*
X007418Y002018D02*
X007572Y002018D01*
X007572Y001919D02*
X007462Y001919D01*
X007488Y001821D02*
X007572Y001821D01*
X007572Y001722D02*
X007515Y001722D01*
X007522Y001624D02*
X007572Y001624D01*
X007572Y001525D02*
X007522Y001525D01*
X007522Y001427D02*
X007572Y001427D01*
X007572Y001328D02*
X007496Y001328D01*
X007470Y001230D02*
X007572Y001230D01*
X007572Y001131D02*
X007435Y001131D01*
X007378Y001033D02*
X007572Y001033D01*
X007572Y000934D02*
X007321Y000934D01*
X007228Y000836D02*
X007572Y000836D01*
X007130Y000737D02*
X010704Y000737D01*
X010715Y000731D02*
X010753Y000721D01*
X011904Y000721D01*
X011904Y001510D01*
X010622Y001510D01*
X010622Y000851D01*
X010633Y000813D01*
X010652Y000779D01*
X010680Y000751D01*
X010715Y000731D01*
X010627Y000836D02*
X010194Y000836D01*
X010194Y000934D02*
X010622Y000934D01*
X010622Y001033D02*
X010194Y001033D01*
X010194Y001131D02*
X010622Y001131D01*
X010622Y001230D02*
X010194Y001230D01*
X010194Y001328D02*
X010622Y001328D01*
X010622Y001427D02*
X010194Y001427D01*
X010194Y001525D02*
X011904Y001525D01*
X011904Y001427D02*
X012004Y001427D01*
X012004Y001328D02*
X011904Y001328D01*
X011904Y001230D02*
X012004Y001230D01*
X012004Y001131D02*
X011904Y001131D01*
X011904Y001033D02*
X012004Y001033D01*
X012004Y000934D02*
X011904Y000934D01*
X011904Y000836D02*
X012004Y000836D01*
X012004Y000737D02*
X011904Y000737D01*
X011904Y001624D02*
X012004Y001624D01*
X012004Y001722D02*
X011904Y001722D01*
X011904Y001821D02*
X012004Y001821D01*
X012004Y001919D02*
X011904Y001919D01*
X011904Y002018D02*
X012004Y002018D01*
X012004Y002116D02*
X011904Y002116D01*
X011904Y002215D02*
X012004Y002215D01*
X012004Y002313D02*
X011904Y002313D01*
X012007Y002532D02*
X012084Y002608D01*
X012084Y003897D01*
X012007Y003973D01*
X010719Y003973D01*
X010642Y003897D01*
X010642Y002915D01*
X010624Y002907D01*
X010503Y002957D01*
X010372Y002957D01*
X010251Y002907D01*
X010194Y002849D01*
X010194Y003897D01*
X010118Y003973D01*
X008984Y003973D01*
X008850Y004107D01*
X008871Y004086D02*
X013170Y004086D01*
X013196Y004185D02*
X012084Y004185D01*
X012084Y004183D02*
X012084Y005412D01*
X012708Y006036D01*
X012912Y006036D01*
X013699Y005249D01*
X013699Y004740D01*
X013553Y004656D01*
X013345Y004449D01*
X013199Y004195D01*
X013123Y003911D01*
X013123Y003618D01*
X013199Y003334D01*
X013345Y003080D01*
X013553Y002873D01*
X013807Y002726D01*
X014090Y002650D01*
X014384Y002650D01*
X014667Y002726D01*
X014921Y002873D01*
X015129Y003080D01*
X015275Y003334D01*
X015351Y003618D01*
X015351Y003911D01*
X015275Y004195D01*
X015129Y004449D01*
X014921Y004656D01*
X014667Y004803D01*
X014384Y004879D01*
X014090Y004879D01*
X014059Y004870D01*
X014059Y005398D01*
X013953Y005504D01*
X013421Y006036D01*
X013464Y006036D01*
X013540Y006112D01*
X013540Y006850D01*
X013464Y006926D01*
X012175Y006926D01*
X012099Y006850D01*
X012099Y006112D01*
X012175Y006036D01*
X012199Y006036D01*
X011711Y005548D01*
X010719Y005548D01*
X010642Y005472D01*
X010642Y004183D01*
X010719Y004107D01*
X012007Y004107D01*
X012084Y004183D01*
X012084Y004283D02*
X013250Y004283D01*
X013307Y004382D02*
X012084Y004382D01*
X012084Y004480D02*
X013377Y004480D01*
X013475Y004579D02*
X012084Y004579D01*
X012084Y004677D02*
X013589Y004677D01*
X013699Y004776D02*
X012084Y004776D01*
X012084Y004874D02*
X013699Y004874D01*
X013699Y004973D02*
X012084Y004973D01*
X012084Y005071D02*
X013699Y005071D01*
X013699Y005170D02*
X012084Y005170D01*
X012084Y005268D02*
X013680Y005268D01*
X013581Y005367D02*
X012084Y005367D01*
X012137Y005465D02*
X013483Y005465D01*
X013384Y005564D02*
X012235Y005564D01*
X012334Y005662D02*
X013286Y005662D01*
X013187Y005761D02*
X012432Y005761D01*
X012531Y005859D02*
X013089Y005859D01*
X012990Y005958D02*
X012629Y005958D01*
X012879Y006324D02*
X012820Y006481D01*
X012859Y006442D01*
X011363Y004946D01*
X011363Y004828D01*
X011726Y005564D02*
X009724Y005564D01*
X009724Y005662D02*
X011825Y005662D01*
X011923Y005761D02*
X011139Y005761D01*
X011139Y005859D02*
X012022Y005859D01*
X012120Y005958D02*
X011139Y005958D01*
X011139Y006056D02*
X012155Y006056D01*
X012099Y006155D02*
X011139Y006155D01*
X011139Y006253D02*
X012099Y006253D01*
X012099Y006352D02*
X011139Y006352D01*
X011139Y006450D02*
X012099Y006450D01*
X012099Y006549D02*
X011139Y006549D01*
X011139Y006647D02*
X012099Y006647D01*
X012099Y006746D02*
X011139Y006746D01*
X010879Y006824D02*
X011312Y007154D01*
X011425Y006844D02*
X012099Y006844D01*
X011714Y007041D02*
X011622Y007041D01*
X011567Y006943D02*
X013929Y006943D01*
X013942Y006946D02*
X013904Y006936D01*
X013869Y006916D01*
X013841Y006888D01*
X013822Y006854D01*
X013811Y006816D01*
X013811Y006531D01*
X014502Y006531D01*
X014502Y006431D01*
X014602Y006431D01*
X014602Y006016D01*
X015162Y006016D01*
X015200Y006026D01*
X015235Y006046D01*
X015263Y006074D01*
X015282Y006108D01*
X015293Y006146D01*
X015293Y006337D01*
X015323Y006263D01*
X015416Y006170D01*
X015538Y006120D01*
X015669Y006120D01*
X015790Y006170D01*
X015883Y006263D01*
X015933Y006384D01*
X015933Y006515D01*
X015926Y006533D01*
X016469Y007118D01*
X016469Y006742D01*
X016545Y006666D01*
X017834Y006666D01*
X017910Y006742D01*
X017910Y008031D01*
X017834Y008107D01*
X016545Y008107D01*
X016469Y008031D01*
X016469Y007647D01*
X015664Y006780D01*
X015538Y006780D01*
X015416Y006729D01*
X015323Y006637D01*
X015293Y006562D01*
X015293Y006816D01*
X015282Y006854D01*
X015263Y006888D01*
X015235Y006916D01*
X015200Y006936D01*
X015162Y006946D01*
X014602Y006946D01*
X014602Y006531D01*
X014502Y006531D01*
X014502Y006946D01*
X013942Y006946D01*
X013819Y006844D02*
X013540Y006844D01*
X013540Y006746D02*
X013811Y006746D01*
X013811Y006647D02*
X013540Y006647D01*
X013540Y006549D02*
X013811Y006549D01*
X013811Y006431D02*
X013811Y006146D01*
X013822Y006108D01*
X013841Y006074D01*
X013869Y006046D01*
X013904Y006026D01*
X013942Y006016D01*
X014502Y006016D01*
X014502Y006431D01*
X013811Y006431D01*
X013811Y006352D02*
X013540Y006352D01*
X013540Y006450D02*
X014502Y006450D01*
X014552Y006481D02*
X014879Y006324D01*
X015879Y005324D01*
X015941Y005193D02*
X016234Y005193D01*
X016234Y005485D01*
X016246Y005483D01*
X016265Y005483D01*
X016265Y005852D01*
X016303Y005852D01*
X016303Y005483D01*
X016322Y005483D01*
X016334Y005485D01*
X016334Y005193D01*
X016234Y005193D01*
X016234Y005093D01*
X015941Y005093D01*
X015944Y005104D01*
X015944Y005124D01*
X015575Y005124D01*
X015575Y005161D01*
X015944Y005161D01*
X015944Y005181D01*
X015941Y005193D01*
X015944Y005170D02*
X016234Y005170D01*
X016284Y005143D02*
X016379Y005824D01*
X016284Y005871D01*
X016265Y005958D02*
X016303Y005958D01*
X016303Y006056D02*
X016265Y006056D01*
X016265Y006155D02*
X016303Y006155D01*
X016303Y006253D02*
X016265Y006253D01*
X016053Y006253D02*
X015873Y006253D01*
X015920Y006352D02*
X018447Y006352D01*
X018379Y006450D02*
X015933Y006450D01*
X015941Y006549D02*
X018376Y006549D01*
X018376Y006647D02*
X016032Y006647D01*
X016124Y006746D02*
X016469Y006746D01*
X016469Y006844D02*
X016215Y006844D01*
X016306Y006943D02*
X016469Y006943D01*
X016469Y007041D02*
X016398Y007041D01*
X016090Y007238D02*
X015562Y007238D01*
X015660Y007337D02*
X016181Y007337D01*
X016272Y007435D02*
X015759Y007435D01*
X015836Y007534D02*
X016364Y007534D01*
X016455Y007632D02*
X015866Y007632D01*
X015866Y007731D02*
X016469Y007731D01*
X016469Y007829D02*
X015866Y007829D01*
X015866Y007928D02*
X016469Y007928D01*
X016469Y008026D02*
X015866Y008026D01*
X015866Y008125D02*
X018490Y008125D01*
X018507Y008129D02*
X018468Y008119D01*
X018434Y008099D01*
X018406Y008071D01*
X018387Y008037D01*
X018376Y007999D01*
X018376Y007279D01*
X019226Y007279D01*
X019226Y008129D01*
X018507Y008129D01*
X018384Y008026D02*
X017910Y008026D01*
X017910Y007928D02*
X018376Y007928D01*
X018376Y007829D02*
X017910Y007829D01*
X017910Y007731D02*
X018376Y007731D01*
X018376Y007632D02*
X017910Y007632D01*
X017910Y007534D02*
X018376Y007534D01*
X018376Y007435D02*
X017910Y007435D01*
X017910Y007337D02*
X018376Y007337D01*
X018376Y007140D02*
X017910Y007140D01*
X017910Y007238D02*
X019226Y007238D01*
X019276Y007229D02*
X018879Y006824D01*
X019226Y006844D02*
X019326Y006844D01*
X019326Y006746D02*
X019226Y006746D01*
X019226Y006647D02*
X019326Y006647D01*
X019326Y006549D02*
X019226Y006549D01*
X019226Y006450D02*
X019326Y006450D01*
X019326Y006352D02*
X019226Y006352D01*
X019226Y006943D02*
X019326Y006943D01*
X019326Y007041D02*
X019226Y007041D01*
X019226Y007140D02*
X019326Y007140D01*
X019326Y007337D02*
X019226Y007337D01*
X019226Y007435D02*
X019326Y007435D01*
X019326Y007534D02*
X019226Y007534D01*
X019226Y007632D02*
X019326Y007632D01*
X019326Y007731D02*
X019226Y007731D01*
X019226Y007829D02*
X019326Y007829D01*
X019326Y007928D02*
X019226Y007928D01*
X019226Y008026D02*
X019326Y008026D01*
X019326Y008125D02*
X019226Y008125D01*
X019482Y008617D02*
X015866Y008617D01*
X015866Y008519D02*
X019744Y008519D01*
X019879Y008420D02*
X015866Y008420D01*
X015866Y008322D02*
X019971Y008322D01*
X020029Y008223D02*
X015866Y008223D01*
X015866Y008716D02*
X019150Y008716D01*
X019210Y008687D02*
X019210Y008687D01*
X018941Y008814D02*
X015866Y008814D01*
X015866Y008913D02*
X018732Y008913D01*
X018527Y009010D02*
X018527Y009010D01*
X018525Y009011D02*
X015866Y009011D01*
X015866Y009110D02*
X016070Y009110D01*
X016695Y009110D02*
X018389Y009110D01*
X018254Y009208D02*
X016913Y009208D01*
X017058Y009307D02*
X018119Y009307D01*
X017983Y009405D02*
X017156Y009405D01*
X017238Y009504D02*
X017870Y009504D01*
X017777Y009602D02*
X017295Y009602D01*
X017352Y009701D02*
X017685Y009701D01*
X017592Y009799D02*
X017378Y009799D01*
X017405Y009898D02*
X017500Y009898D01*
X016879Y007824D02*
X017190Y007387D01*
X016879Y007824D02*
X015603Y006450D01*
X015455Y006746D02*
X015293Y006746D01*
X015285Y006844D02*
X015724Y006844D01*
X015815Y006943D02*
X015175Y006943D01*
X015363Y007041D02*
X015907Y007041D01*
X015998Y007140D02*
X015463Y007140D01*
X015334Y006647D02*
X015293Y006647D01*
X015293Y006253D02*
X015333Y006253D01*
X015293Y006155D02*
X015453Y006155D01*
X015611Y006056D02*
X015245Y006056D01*
X015405Y005859D02*
X013598Y005859D01*
X013696Y005761D02*
X015333Y005761D01*
X015276Y005662D02*
X013795Y005662D01*
X013893Y005564D02*
X015230Y005564D01*
X015195Y005465D02*
X013992Y005465D01*
X014059Y005367D02*
X015172Y005367D01*
X015157Y005268D02*
X014059Y005268D01*
X014059Y005170D02*
X015168Y005170D01*
X015151Y005071D02*
X014059Y005071D01*
X014059Y004973D02*
X015162Y004973D01*
X015182Y004874D02*
X014401Y004874D01*
X014714Y004776D02*
X015211Y004776D01*
X015249Y004677D02*
X014885Y004677D01*
X014999Y004579D02*
X015299Y004579D01*
X015362Y004480D02*
X015097Y004480D01*
X015167Y004382D02*
X015441Y004382D01*
X015543Y004283D02*
X015224Y004283D01*
X015278Y004185D02*
X015677Y004185D01*
X015869Y004086D02*
X015304Y004086D01*
X015331Y003988D02*
X016870Y003988D01*
X016858Y003889D02*
X015351Y003889D01*
X015351Y003791D02*
X016858Y003791D01*
X016858Y003692D02*
X015351Y003692D01*
X015345Y003594D02*
X016878Y003594D01*
X016904Y003495D02*
X015318Y003495D01*
X015292Y003397D02*
X016932Y003397D01*
X016989Y003298D02*
X015254Y003298D01*
X015197Y003200D02*
X017046Y003200D01*
X017130Y003101D02*
X015141Y003101D01*
X015051Y003003D02*
X017228Y003003D01*
X017376Y002904D02*
X014952Y002904D01*
X014804Y002806D02*
X017604Y002806D01*
X017725Y002609D02*
X012084Y002609D01*
X012084Y002707D02*
X013878Y002707D01*
X013856Y002510D02*
X010747Y002510D01*
X010756Y002532D02*
X012007Y002532D01*
X012084Y002806D02*
X013670Y002806D01*
X013522Y002904D02*
X012084Y002904D01*
X012084Y003003D02*
X013423Y003003D01*
X013333Y003101D02*
X012084Y003101D01*
X012084Y003200D02*
X013277Y003200D01*
X013220Y003298D02*
X012084Y003298D01*
X012084Y003397D02*
X013182Y003397D01*
X013156Y003495D02*
X012084Y003495D01*
X012084Y003594D02*
X013129Y003594D01*
X013123Y003692D02*
X012084Y003692D01*
X012084Y003791D02*
X013123Y003791D01*
X013123Y003889D02*
X012084Y003889D01*
X011363Y003253D02*
X010879Y002824D01*
X010438Y002627D01*
X010543Y002313D02*
X010636Y002313D01*
X010625Y002347D02*
X010718Y002440D01*
X010756Y002532D01*
X010689Y002412D02*
X013685Y002412D01*
X013558Y002313D02*
X013271Y002313D01*
X013285Y002215D02*
X013460Y002215D01*
X013388Y002116D02*
X013285Y002116D01*
X013285Y002018D02*
X013331Y002018D01*
X013291Y001131D02*
X013285Y001131D01*
X013285Y001033D02*
X013348Y001033D01*
X013405Y000934D02*
X013285Y000934D01*
X013280Y000836D02*
X013490Y000836D01*
X013588Y000737D02*
X013203Y000737D01*
X014657Y002510D02*
X017554Y002510D01*
X017384Y002412D02*
X014828Y002412D01*
X014955Y002313D02*
X017213Y002313D01*
X017042Y002215D02*
X015054Y002215D01*
X015126Y002116D02*
X016872Y002116D01*
X016701Y002018D02*
X015183Y002018D01*
X015232Y001919D02*
X016530Y001919D01*
X016359Y001821D02*
X015259Y001821D01*
X015285Y001722D02*
X016189Y001722D01*
X016018Y001624D02*
X015297Y001624D01*
X015297Y001525D02*
X015847Y001525D01*
X015677Y001427D02*
X015297Y001427D01*
X015277Y001328D02*
X015506Y001328D01*
X015335Y001230D02*
X015251Y001230D01*
X014596Y002707D02*
X017896Y002707D01*
X016897Y004086D02*
X016699Y004086D01*
X016892Y004185D02*
X016923Y004185D01*
X016796Y004631D02*
X016879Y004824D01*
X016379Y004824D01*
X016284Y005143D01*
X015879Y004824D01*
X015772Y004631D01*
X015772Y005654D02*
X015879Y005824D01*
X016379Y005824D01*
X016879Y005824D01*
X016796Y005654D01*
X016879Y005324D02*
X017013Y005143D01*
X016994Y005161D02*
X016994Y005124D01*
X016625Y005124D01*
X016625Y005104D01*
X016627Y005093D01*
X016334Y005093D01*
X016334Y005193D01*
X016627Y005193D01*
X016625Y005181D01*
X016625Y005161D01*
X016994Y005161D01*
X016994Y005124D02*
X017031Y005124D01*
X017031Y005093D01*
X016994Y005093D01*
X016994Y005124D01*
X017235Y005761D02*
X018396Y005761D01*
X018396Y005859D02*
X017164Y005859D01*
X017073Y005958D02*
X018396Y005958D01*
X018396Y006056D02*
X016958Y006056D01*
X016797Y006155D02*
X018447Y006155D01*
X018396Y005662D02*
X017293Y005662D01*
X017339Y005564D02*
X018396Y005564D01*
X018396Y005465D02*
X017373Y005465D01*
X017397Y005367D02*
X018396Y005367D01*
X018396Y005268D02*
X017412Y005268D01*
X017400Y005170D02*
X018396Y005170D01*
X018396Y005071D02*
X017418Y005071D01*
X017407Y004973D02*
X018396Y004973D01*
X018396Y004874D02*
X017386Y004874D01*
X017358Y004776D02*
X017504Y004776D01*
X017330Y004677D02*
X017319Y004677D01*
X016625Y005170D02*
X016334Y005170D01*
X016334Y005093D02*
X016334Y004800D01*
X016322Y004802D01*
X016303Y004802D01*
X016303Y004433D01*
X016265Y004433D01*
X016265Y004802D01*
X016246Y004802D01*
X016234Y004800D01*
X016234Y005093D01*
X016334Y005093D01*
X016334Y005071D02*
X016234Y005071D01*
X016234Y004973D02*
X016334Y004973D01*
X016334Y004874D02*
X016234Y004874D01*
X016265Y004776D02*
X016303Y004776D01*
X016379Y004824D02*
X016379Y004324D01*
X016284Y004414D01*
X016265Y004382D02*
X016303Y004382D01*
X016303Y004480D02*
X016265Y004480D01*
X016265Y004579D02*
X016303Y004579D01*
X016303Y004677D02*
X016265Y004677D01*
X016265Y004283D02*
X016303Y004283D01*
X016303Y004185D02*
X016265Y004185D01*
X016265Y004086D02*
X016303Y004086D01*
X016334Y005268D02*
X016234Y005268D01*
X016234Y005367D02*
X016334Y005367D01*
X016334Y005465D02*
X016234Y005465D01*
X016265Y005564D02*
X016303Y005564D01*
X016303Y005662D02*
X016265Y005662D01*
X016265Y005761D02*
X016303Y005761D01*
X016516Y006253D02*
X020114Y006253D01*
X020106Y006155D02*
X020114Y006155D01*
X020105Y006352D02*
X020114Y006352D01*
X019379Y005324D02*
X019276Y005300D01*
X019076Y005060D01*
X018879Y004824D01*
X018396Y004776D02*
X018293Y004776D01*
X018376Y006746D02*
X017910Y006746D01*
X017910Y006844D02*
X018376Y006844D01*
X018376Y006943D02*
X017910Y006943D01*
X017910Y007041D02*
X018376Y007041D01*
X020063Y008125D02*
X020071Y008125D01*
X016718Y013583D02*
X016995Y014285D01*
X016995Y014285D01*
X017400Y014923D01*
X017400Y014923D01*
X017916Y015473D01*
X017916Y015473D01*
X018527Y015918D01*
X018527Y015918D01*
X019210Y016240D01*
X019210Y016240D01*
X019573Y016334D01*
X019665Y016364D01*
X019831Y016459D01*
X019967Y016595D01*
X020062Y016761D01*
X020111Y016946D01*
X020114Y016983D01*
X020114Y018243D01*
X018915Y018243D01*
X018839Y018319D01*
X018839Y018534D01*
X018459Y018534D01*
X018023Y018097D01*
X018010Y018092D01*
X017854Y017936D01*
X017854Y016738D01*
X017810Y016632D01*
X017797Y016620D01*
X017797Y016609D01*
X017741Y016474D01*
X017638Y016370D01*
X017503Y016314D01*
X017357Y016314D01*
X017222Y016370D01*
X017118Y016474D01*
X017062Y016609D01*
X017062Y016755D01*
X017118Y016890D01*
X017222Y016993D01*
X017274Y017015D01*
X017274Y018114D01*
X017318Y018220D01*
X017400Y018302D01*
X017691Y018593D01*
X017704Y018599D01*
X018080Y018974D01*
X018086Y018988D01*
X018167Y019069D01*
X018274Y019114D01*
X018839Y019114D01*
X018839Y019525D01*
X018915Y019601D01*
X019765Y019601D01*
X019717Y019649D01*
X019676Y019748D02*
X017734Y019748D01*
X017816Y019846D02*
X019648Y019846D01*
X019648Y019945D02*
X017854Y019945D01*
X017857Y020043D02*
X019667Y020043D01*
X019708Y020142D02*
X017955Y020142D01*
X018054Y020240D02*
X019794Y020240D01*
X019683Y020339D02*
X018152Y020339D01*
X018115Y020556D02*
X019690Y020556D01*
X019749Y020615D01*
X019887Y020615D01*
X019906Y020635D01*
X019906Y020615D02*
X019887Y020615D01*
X019576Y020831D02*
X016141Y020831D01*
X016239Y020930D02*
X019550Y020930D01*
X019485Y021028D02*
X016338Y021028D01*
X016436Y021127D02*
X019420Y021127D01*
X019355Y021225D02*
X016535Y021225D01*
X016633Y021324D02*
X018419Y021324D01*
X018396Y021422D02*
X016732Y021422D01*
X016830Y021521D02*
X018396Y021521D01*
X018396Y021619D02*
X017866Y021619D01*
X017910Y021718D02*
X018396Y021718D01*
X018396Y021816D02*
X017910Y021816D01*
X017910Y021915D02*
X018396Y021915D01*
X018396Y022013D02*
X017910Y022013D01*
X017910Y022112D02*
X018396Y022112D01*
X018396Y022210D02*
X017910Y022210D01*
X017910Y022309D02*
X018396Y022309D01*
X018396Y022407D02*
X017910Y022407D01*
X017910Y022506D02*
X018396Y022506D01*
X018396Y022604D02*
X017910Y022604D01*
X017910Y022703D02*
X018396Y022703D01*
X018396Y022801D02*
X017910Y022801D01*
X017910Y022900D02*
X018396Y022900D01*
X018440Y022998D02*
X017864Y022998D01*
X017848Y023491D02*
X018429Y023491D01*
X018376Y023589D02*
X017910Y023589D01*
X017910Y023688D02*
X018376Y023688D01*
X018376Y023786D02*
X017910Y023786D01*
X017910Y023885D02*
X018376Y023885D01*
X018376Y023983D02*
X017910Y023983D01*
X017910Y024082D02*
X018376Y024082D01*
X018376Y024180D02*
X017910Y024180D01*
X017910Y024279D02*
X018376Y024279D01*
X018376Y024405D02*
X019226Y024405D01*
X019226Y025255D01*
X018507Y025255D01*
X018468Y025245D01*
X018434Y025225D01*
X018406Y025197D01*
X018387Y025163D01*
X018376Y025125D01*
X018376Y024405D01*
X018376Y024476D02*
X017910Y024476D01*
X017910Y024574D02*
X018376Y024574D01*
X018376Y024673D02*
X017910Y024673D01*
X017910Y024771D02*
X018376Y024771D01*
X018376Y024870D02*
X017883Y024870D01*
X017559Y024968D02*
X018376Y024968D01*
X018376Y025067D02*
X017559Y025067D01*
X017559Y025165D02*
X018388Y025165D01*
X017936Y025658D02*
X020114Y025658D01*
X020114Y025756D02*
X018034Y025756D01*
X017837Y025559D02*
X020114Y025559D01*
X020114Y025461D02*
X017739Y025461D01*
X017640Y025362D02*
X020114Y025362D01*
X020114Y025264D02*
X017559Y025264D01*
X017379Y025355D02*
X018143Y026119D01*
X018446Y026249D02*
X020114Y026249D01*
X020114Y026347D02*
X018381Y026347D01*
X018216Y026446D02*
X020114Y026446D01*
X020114Y026544D02*
X017071Y026544D01*
X017169Y026643D02*
X020114Y026643D01*
X020114Y026741D02*
X017246Y026741D01*
X017302Y026840D02*
X020114Y026840D01*
X020114Y026938D02*
X017356Y026938D01*
X017382Y027037D02*
X020114Y027037D01*
X020114Y027135D02*
X017408Y027135D01*
X017423Y027234D02*
X020114Y027234D01*
X020114Y027332D02*
X017423Y027332D01*
X017423Y027431D02*
X020114Y027431D01*
X020114Y027529D02*
X017406Y027529D01*
X017380Y027628D02*
X020114Y027628D01*
X020114Y027726D02*
X017353Y027726D01*
X017297Y027825D02*
X020114Y027825D01*
X020114Y027923D02*
X017240Y027923D01*
X017160Y028022D02*
X020114Y028022D01*
X020114Y028120D02*
X017062Y028120D01*
X016920Y028219D02*
X020114Y028219D01*
X020114Y028317D02*
X016710Y028317D01*
X016444Y028994D02*
X016313Y028994D01*
X016192Y029044D01*
X016099Y029137D01*
X016049Y029258D01*
X016049Y029389D01*
X016099Y029511D01*
X016192Y029603D01*
X016313Y029654D01*
X016444Y029654D01*
X016541Y029614D01*
X016627Y029614D01*
X016627Y030393D01*
X016703Y030469D01*
X018307Y030469D01*
X018383Y030393D01*
X018383Y029183D01*
X018307Y029107D01*
X017572Y029107D01*
X017543Y029078D01*
X017436Y029034D01*
X016541Y029034D01*
X016444Y028994D01*
X016476Y029007D02*
X020094Y029007D01*
X020088Y029105D02*
X017570Y029105D01*
X017379Y029324D02*
X017505Y029788D01*
X018383Y029795D02*
X020045Y029795D01*
X020039Y029893D02*
X018383Y029893D01*
X018383Y029992D02*
X020033Y029992D01*
X020027Y030090D02*
X018383Y030090D01*
X018383Y030189D02*
X020021Y030189D01*
X020015Y030287D02*
X018383Y030287D01*
X018383Y030386D02*
X020009Y030386D01*
X020003Y030484D02*
X015559Y030484D01*
X015558Y030386D02*
X016627Y030386D01*
X016627Y030287D02*
X015558Y030287D01*
X015558Y030189D02*
X016627Y030189D01*
X016627Y030090D02*
X015558Y030090D01*
X015557Y029992D02*
X016627Y029992D01*
X016627Y029893D02*
X015557Y029893D01*
X015557Y029795D02*
X016627Y029795D01*
X016627Y029696D02*
X015557Y029696D01*
X015557Y029598D02*
X016186Y029598D01*
X016094Y029499D02*
X015556Y029499D01*
X015556Y029401D02*
X016053Y029401D01*
X016049Y029302D02*
X015556Y029302D01*
X015556Y029204D02*
X016071Y029204D01*
X016131Y029105D02*
X015555Y029105D01*
X015555Y029007D02*
X016282Y029007D01*
X016385Y029318D02*
X016379Y029324D01*
X016055Y028317D02*
X015554Y028317D01*
X015553Y028219D02*
X015845Y028219D01*
X015704Y028120D02*
X015553Y028120D01*
X015553Y028022D02*
X015605Y028022D01*
X015554Y028416D02*
X020114Y028416D01*
X020114Y028514D02*
X015554Y028514D01*
X015554Y028613D02*
X020114Y028613D01*
X020109Y028711D02*
X015554Y028711D01*
X015555Y028810D02*
X020106Y028810D01*
X020100Y028908D02*
X015555Y028908D01*
X015195Y028908D02*
X015059Y028908D01*
X015059Y028810D02*
X015195Y028810D01*
X015194Y028711D02*
X015059Y028711D01*
X015059Y028613D02*
X015194Y028613D01*
X015194Y028514D02*
X015059Y028514D01*
X015059Y028416D02*
X015194Y028416D01*
X015194Y028317D02*
X015059Y028317D01*
X015059Y028219D02*
X015193Y028219D01*
X015193Y028120D02*
X015059Y028120D01*
X015059Y028022D02*
X015193Y028022D01*
X015193Y027923D02*
X015059Y027923D01*
X015059Y027825D02*
X015192Y027825D01*
X015192Y027726D02*
X015059Y027726D01*
X015059Y027628D02*
X015192Y027628D01*
X015192Y027529D02*
X015059Y027529D01*
X015059Y027431D02*
X015191Y027431D01*
X015191Y027332D02*
X015059Y027332D01*
X015059Y027234D02*
X015191Y027234D01*
X015191Y027135D02*
X015059Y027135D01*
X015059Y027037D02*
X015191Y027037D01*
X015190Y026938D02*
X015059Y026938D01*
X015059Y026840D02*
X015190Y026840D01*
X015190Y026741D02*
X015059Y026741D01*
X015059Y026643D02*
X015190Y026643D01*
X015189Y026544D02*
X015059Y026544D01*
X015059Y026446D02*
X015189Y026446D01*
X015189Y026347D02*
X015059Y026347D01*
X015059Y026249D02*
X015189Y026249D01*
X015188Y026150D02*
X015059Y026150D01*
X015059Y026052D02*
X015188Y026052D01*
X015188Y025953D02*
X015059Y025953D01*
X015059Y025855D02*
X015188Y025855D01*
X015188Y025756D02*
X015059Y025756D01*
X015059Y025658D02*
X015187Y025658D01*
X015184Y025559D02*
X015059Y025559D01*
X015059Y025461D02*
X015187Y025461D01*
X015251Y025362D02*
X015059Y025362D01*
X015059Y025264D02*
X015379Y025264D01*
X015505Y025165D02*
X015059Y025165D01*
X015059Y025067D02*
X015632Y025067D01*
X015758Y024968D02*
X015059Y024968D01*
X015059Y024870D02*
X015885Y024870D01*
X016011Y024771D02*
X015059Y024771D01*
X015059Y024673D02*
X016138Y024673D01*
X016264Y024574D02*
X015059Y024574D01*
X015059Y024476D02*
X016391Y024476D01*
X016469Y024377D02*
X015059Y024377D01*
X015059Y024279D02*
X016469Y024279D01*
X016469Y024180D02*
X015059Y024180D01*
X015059Y024082D02*
X016469Y024082D01*
X016469Y023983D02*
X015059Y023983D01*
X015059Y023885D02*
X016469Y023885D01*
X016469Y023786D02*
X015059Y023786D01*
X015059Y023688D02*
X016469Y023688D01*
X016469Y023589D02*
X015059Y023589D01*
X015059Y023491D02*
X016532Y023491D01*
X016515Y022998D02*
X015059Y022998D01*
X015059Y023097D02*
X020114Y023097D01*
X020114Y023195D02*
X015059Y023195D01*
X015059Y023294D02*
X020114Y023294D01*
X020114Y023392D02*
X015059Y023392D01*
X015081Y022900D02*
X016469Y022900D01*
X016469Y022801D02*
X015179Y022801D01*
X015278Y022703D02*
X016469Y022703D01*
X016469Y022604D02*
X015376Y022604D01*
X015475Y022506D02*
X016469Y022506D01*
X016835Y022308D02*
X016875Y022347D01*
X016879Y022343D01*
X016879Y022324D01*
X017190Y022308D01*
X016879Y021824D01*
X015379Y020324D01*
X015564Y020043D02*
X017194Y020043D01*
X017194Y019945D02*
X016012Y019945D01*
X016111Y019846D02*
X017233Y019846D01*
X017315Y019748D02*
X016209Y019748D01*
X015879Y019824D02*
X016379Y019324D01*
X016618Y019551D02*
X018865Y019551D01*
X018839Y019452D02*
X016683Y019452D01*
X016658Y019511D02*
X016566Y019603D01*
X016444Y019654D01*
X016658Y019511D02*
X016709Y019389D01*
X016709Y019258D01*
X016658Y019137D01*
X016566Y019044D01*
X016444Y018994D01*
X016313Y018994D01*
X016192Y019044D01*
X016099Y019137D01*
X016091Y019155D01*
X016091Y018836D01*
X017042Y017886D01*
X017086Y017779D01*
X017086Y017664D01*
X017046Y017567D01*
X017046Y016943D01*
X017008Y016851D01*
X016791Y016635D01*
X016721Y016564D01*
X016629Y016526D01*
X016309Y016526D01*
X016105Y016323D01*
X016246Y016360D01*
X016520Y016360D01*
X016784Y016289D01*
X017022Y016152D01*
X017215Y015959D01*
X017352Y015721D01*
X017423Y015457D01*
X017423Y015183D01*
X017352Y014918D01*
X017215Y014681D01*
X017022Y014487D01*
X016784Y014350D01*
X016549Y014287D01*
X016614Y014221D01*
X016652Y014129D01*
X016652Y013240D01*
X016718Y013583D01*
X016718Y013583D01*
X016710Y013542D02*
X016652Y013542D01*
X016652Y013444D02*
X016691Y013444D01*
X016672Y013345D02*
X016652Y013345D01*
X016652Y013247D02*
X016654Y013247D01*
X016652Y013641D02*
X016741Y013641D01*
X016780Y013739D02*
X016652Y013739D01*
X016652Y013838D02*
X016819Y013838D01*
X016857Y013936D02*
X016652Y013936D01*
X016652Y014035D02*
X016896Y014035D01*
X016935Y014133D02*
X016651Y014133D01*
X016604Y014232D02*
X016974Y014232D01*
X017024Y014330D02*
X016710Y014330D01*
X016920Y014429D02*
X017087Y014429D01*
X017062Y014527D02*
X017149Y014527D01*
X017160Y014626D02*
X017211Y014626D01*
X017240Y014724D02*
X017274Y014724D01*
X017297Y014823D02*
X017336Y014823D01*
X017353Y014921D02*
X017399Y014921D01*
X017380Y015020D02*
X017491Y015020D01*
X017406Y015118D02*
X017583Y015118D01*
X017675Y015217D02*
X017423Y015217D01*
X017423Y015315D02*
X017768Y015315D01*
X017860Y015414D02*
X017423Y015414D01*
X017408Y015512D02*
X017969Y015512D01*
X018105Y015611D02*
X017382Y015611D01*
X017356Y015709D02*
X018240Y015709D01*
X018375Y015808D02*
X017302Y015808D01*
X017246Y015906D02*
X018511Y015906D01*
X018711Y016005D02*
X017169Y016005D01*
X017071Y016103D02*
X018920Y016103D01*
X019128Y016202D02*
X016936Y016202D01*
X016744Y016300D02*
X019443Y016300D01*
X019725Y016399D02*
X017666Y016399D01*
X017751Y016497D02*
X019869Y016497D01*
X019967Y016596D02*
X017792Y016596D01*
X017835Y016694D02*
X020024Y016694D01*
X020071Y016793D02*
X017854Y016793D01*
X017854Y016891D02*
X020097Y016891D01*
X020114Y016990D02*
X017854Y016990D01*
X017854Y017088D02*
X020114Y017088D01*
X020114Y017187D02*
X017854Y017187D01*
X017854Y017285D02*
X020114Y017285D01*
X020114Y017384D02*
X017854Y017384D01*
X017854Y017482D02*
X020114Y017482D01*
X020114Y017581D02*
X017854Y017581D01*
X017854Y017679D02*
X020114Y017679D01*
X020114Y017778D02*
X017854Y017778D01*
X017854Y017876D02*
X020114Y017876D01*
X020114Y017975D02*
X017893Y017975D01*
X017991Y018073D02*
X020114Y018073D01*
X020114Y018172D02*
X018097Y018172D01*
X018196Y018270D02*
X018888Y018270D01*
X018839Y018369D02*
X018294Y018369D01*
X018393Y018467D02*
X018839Y018467D01*
X018839Y019157D02*
X016667Y019157D01*
X016708Y019255D02*
X018839Y019255D01*
X018839Y019354D02*
X016709Y019354D01*
X016580Y019058D02*
X018156Y019058D01*
X018065Y018960D02*
X016091Y018960D01*
X016091Y019058D02*
X016178Y019058D01*
X016091Y018861D02*
X017967Y018861D01*
X017868Y018763D02*
X016165Y018763D01*
X016263Y018664D02*
X017770Y018664D01*
X017663Y018566D02*
X016362Y018566D01*
X016460Y018467D02*
X017565Y018467D01*
X017466Y018369D02*
X016559Y018369D01*
X016657Y018270D02*
X017368Y018270D01*
X017298Y018172D02*
X016756Y018172D01*
X016854Y018073D02*
X017274Y018073D01*
X017274Y017975D02*
X016953Y017975D01*
X017046Y017876D02*
X017274Y017876D01*
X017274Y017778D02*
X017086Y017778D01*
X017086Y017679D02*
X017274Y017679D01*
X017274Y017581D02*
X017052Y017581D01*
X017046Y017482D02*
X017274Y017482D01*
X017274Y017384D02*
X017046Y017384D01*
X017046Y017285D02*
X017274Y017285D01*
X017274Y017187D02*
X017046Y017187D01*
X017046Y017088D02*
X017274Y017088D01*
X017218Y016990D02*
X017046Y016990D01*
X017024Y016891D02*
X017119Y016891D01*
X017078Y016793D02*
X016949Y016793D01*
X016851Y016694D02*
X017062Y016694D01*
X017068Y016596D02*
X016752Y016596D01*
X017109Y016497D02*
X016280Y016497D01*
X016181Y016399D02*
X017194Y016399D01*
X017430Y016678D02*
X017430Y016682D01*
X017379Y016824D01*
X017859Y018343D02*
X017855Y018347D01*
X017564Y020005D02*
X018115Y020556D01*
X017939Y020634D02*
X015944Y020634D01*
X016042Y020733D02*
X018037Y020733D01*
X017840Y020536D02*
X015845Y020536D01*
X015747Y020437D02*
X017742Y020437D01*
X017643Y020339D02*
X015709Y020339D01*
X015701Y020240D02*
X017293Y020240D01*
X017224Y020142D02*
X015661Y020142D01*
X015879Y019824D02*
X015379Y019824D01*
X014879Y020324D01*
X014879Y022324D01*
X014879Y022847D02*
X015418Y022308D01*
X016835Y022308D01*
X017190Y024198D02*
X016879Y024324D01*
X015367Y025501D01*
X015387Y033891D01*
X016379Y034824D01*
X016678Y034946D01*
X017399Y034917D02*
X017786Y034917D01*
X017786Y035015D02*
X017399Y035015D01*
X017399Y035114D02*
X017786Y035114D01*
X017786Y035212D02*
X017399Y035212D01*
X017399Y035311D02*
X017786Y035311D01*
X017786Y035409D02*
X017399Y035409D01*
X017399Y035508D02*
X017786Y035508D01*
X017786Y035606D02*
X017382Y035606D01*
X017385Y036296D02*
X017761Y036296D01*
X017746Y036394D02*
X017399Y036394D01*
X017399Y036493D02*
X017746Y036493D01*
X017746Y036591D02*
X017399Y036591D01*
X017399Y036690D02*
X017746Y036690D01*
X017746Y036788D02*
X017399Y036788D01*
X017399Y036887D02*
X017746Y036887D01*
X017746Y036985D02*
X017399Y036985D01*
X017399Y037084D02*
X018596Y037084D01*
X018627Y037091D02*
X018646Y037111D01*
X018627Y037091D02*
X019532Y037091D01*
X019650Y036973D01*
X019650Y034591D01*
X019670Y034355D01*
X019670Y033017D01*
X019394Y032524D01*
X019394Y025977D01*
X019379Y025961D01*
X019379Y024324D01*
X019276Y024355D01*
X019226Y024377D02*
X017910Y024377D01*
X017379Y024324D02*
X017379Y025355D01*
X017199Y025362D02*
X015838Y025362D01*
X015964Y025264D02*
X017199Y025264D01*
X017199Y025165D02*
X016091Y025165D01*
X016217Y025067D02*
X017199Y025067D01*
X017199Y024968D02*
X016344Y024968D01*
X016470Y024870D02*
X016497Y024870D01*
X017230Y025461D02*
X015711Y025461D01*
X015585Y025559D02*
X017328Y025559D01*
X017427Y025658D02*
X015547Y025658D01*
X015548Y025756D02*
X017525Y025756D01*
X017624Y025855D02*
X015548Y025855D01*
X015548Y025953D02*
X017722Y025953D01*
X017813Y026052D02*
X015548Y026052D01*
X015548Y026150D02*
X017813Y026150D01*
X017839Y026249D02*
X015549Y026249D01*
X015549Y026347D02*
X016021Y026347D01*
X015829Y026446D02*
X015549Y026446D01*
X015549Y026544D02*
X015695Y026544D01*
X015596Y026643D02*
X015550Y026643D01*
X016744Y026347D02*
X017904Y026347D01*
X018069Y026446D02*
X016936Y026446D01*
X017379Y024324D02*
X017190Y024198D01*
X018345Y025855D02*
X020114Y025855D01*
X020114Y025953D02*
X018431Y025953D01*
X018472Y026052D02*
X020114Y026052D01*
X020114Y026150D02*
X018473Y026150D01*
X019226Y025165D02*
X019326Y025165D01*
X019326Y025067D02*
X019226Y025067D01*
X019226Y024968D02*
X019326Y024968D01*
X019326Y024870D02*
X019226Y024870D01*
X019226Y024771D02*
X019326Y024771D01*
X019326Y024673D02*
X019226Y024673D01*
X019226Y024574D02*
X019326Y024574D01*
X019326Y024476D02*
X019226Y024476D01*
X019326Y024405D02*
X020114Y024405D01*
X020114Y024305D01*
X019326Y024305D01*
X019326Y024405D01*
X019326Y024377D02*
X020114Y024377D01*
X020112Y022998D02*
X020114Y022998D01*
X019326Y023491D02*
X019226Y023491D01*
X019226Y023589D02*
X019326Y023589D01*
X019326Y023688D02*
X019226Y023688D01*
X019226Y023786D02*
X019326Y023786D01*
X019326Y023885D02*
X019226Y023885D01*
X019226Y023983D02*
X019326Y023983D01*
X019326Y024082D02*
X019226Y024082D01*
X019226Y024180D02*
X019326Y024180D01*
X019326Y024279D02*
X019226Y024279D01*
X018879Y022548D02*
X018879Y022324D01*
X019276Y022150D01*
X019276Y022131D01*
X019001Y021855D01*
X017564Y020005D02*
X017524Y020005D01*
X015812Y018517D02*
X015499Y018739D01*
X015379Y018824D01*
X015387Y018922D01*
X014879Y017824D02*
X014879Y016824D01*
X014670Y016639D01*
X014879Y016824D02*
X014879Y014824D01*
X014847Y014513D01*
X014379Y014824D02*
X014178Y014513D01*
X014379Y014824D02*
X013851Y013942D01*
X012682Y013942D01*
X012379Y014324D01*
X012564Y014513D01*
X012379Y014324D02*
X012379Y015324D01*
X011879Y015166D02*
X011776Y015064D01*
X011879Y015166D02*
X011879Y015824D01*
X012879Y016824D01*
X012938Y016639D01*
X013379Y016824D01*
X013379Y014324D01*
X013233Y014513D01*
X013233Y013410D02*
X013194Y013371D01*
X013233Y013410D02*
X014631Y013410D01*
X015316Y012324D02*
X015733Y012741D01*
X015733Y013410D01*
X015733Y013253D01*
X015316Y012324D02*
X011879Y012324D01*
X011379Y012324D01*
X011379Y012406D01*
X011045Y012557D02*
X007239Y012557D01*
X007143Y012402D02*
X007119Y012375D01*
X007126Y012367D01*
X010221Y012367D01*
X010576Y012013D01*
X010576Y011028D01*
X010379Y010831D01*
X010379Y010824D01*
X009879Y010824D01*
X009828Y010734D01*
X009828Y010064D02*
X009119Y010064D01*
X008879Y009824D01*
X007379Y009824D01*
X007308Y009690D01*
X007379Y009824D02*
X006379Y009824D01*
X006166Y009670D01*
X005682Y009701D02*
X005344Y009701D01*
X005371Y009799D02*
X005682Y009799D01*
X005682Y009898D02*
X005397Y009898D01*
X005415Y009996D02*
X005682Y009996D01*
X005738Y010095D02*
X005415Y010095D01*
X005415Y010193D02*
X006883Y010193D01*
X006883Y010095D02*
X006595Y010095D01*
X006637Y010390D02*
X006883Y010390D01*
X006883Y010292D02*
X005402Y010292D01*
X005375Y010390D02*
X005695Y010390D01*
X005682Y010489D02*
X005349Y010489D01*
X005297Y010587D02*
X005682Y010587D01*
X005682Y010686D02*
X005240Y010686D01*
X005165Y010784D02*
X005664Y010784D01*
X005565Y010883D02*
X005067Y010883D01*
X004935Y010981D02*
X005467Y010981D01*
X005368Y011080D02*
X004751Y011080D01*
X004552Y011127D02*
X005005Y011127D01*
X005418Y010713D01*
X005418Y009335D01*
X004709Y008627D01*
X003056Y008627D01*
X003379Y007324D02*
X003607Y007387D01*
X003379Y007324D02*
X003379Y006824D01*
X004687Y009110D02*
X005699Y009110D01*
X005699Y009208D02*
X004906Y009208D01*
X005050Y009307D02*
X005682Y009307D01*
X005682Y009405D02*
X005148Y009405D01*
X005230Y009504D02*
X005682Y009504D01*
X005682Y009602D02*
X005287Y009602D01*
X005879Y010824D02*
X006166Y010772D01*
X005879Y010824D02*
X004879Y011824D01*
X005123Y011875D01*
X005073Y011375D02*
X004046Y011375D01*
X004064Y011474D02*
X004789Y011474D01*
X004737Y011572D02*
X004083Y011572D01*
X004102Y011671D02*
X004737Y011671D01*
X004699Y011769D02*
X004121Y011769D01*
X004139Y011868D02*
X004692Y011868D01*
X004737Y011966D02*
X004158Y011966D01*
X004177Y012065D02*
X004737Y012065D01*
X004737Y012163D02*
X004181Y012163D01*
X004181Y012262D02*
X004775Y012262D01*
X004679Y012557D02*
X004181Y012557D01*
X004181Y012459D02*
X006948Y012459D01*
X006868Y012360D02*
X004181Y012360D01*
X004181Y012656D02*
X004591Y012656D01*
X004550Y012754D02*
X004181Y012754D01*
X004179Y012853D02*
X004549Y012853D01*
X004574Y012951D02*
X004160Y012951D01*
X004141Y013050D02*
X004638Y013050D01*
X004800Y013148D02*
X004123Y013148D01*
X004104Y013247D02*
X005047Y013247D01*
X005146Y013345D02*
X004085Y013345D01*
X004066Y013444D02*
X005199Y013444D01*
X005199Y013542D02*
X004047Y013542D01*
X004017Y013641D02*
X005199Y013641D01*
X005199Y013739D02*
X003978Y013739D01*
X003939Y013838D02*
X005199Y013838D01*
X005199Y013936D02*
X003900Y013936D01*
X003861Y014035D02*
X005199Y014035D01*
X005199Y014133D02*
X003822Y014133D01*
X003783Y014232D02*
X005199Y014232D01*
X005199Y014330D02*
X004702Y014330D01*
X004913Y014429D02*
X005199Y014429D01*
X005199Y014527D02*
X005054Y014527D01*
X005152Y014626D02*
X005199Y014626D01*
X005559Y014626D02*
X005680Y014626D01*
X005680Y014724D02*
X005559Y014724D01*
X005559Y014823D02*
X005680Y014823D01*
X005680Y014921D02*
X005559Y014921D01*
X005559Y015020D02*
X005680Y015020D01*
X005680Y015118D02*
X005559Y015118D01*
X005559Y015217D02*
X005680Y015217D01*
X005680Y015315D02*
X005559Y015315D01*
X005559Y015414D02*
X005680Y015414D01*
X005680Y015512D02*
X005559Y015512D01*
X005559Y015611D02*
X005680Y015611D01*
X005680Y015709D02*
X005559Y015709D01*
X005559Y015808D02*
X005680Y015808D01*
X005680Y015906D02*
X005559Y015906D01*
X005559Y016005D02*
X005680Y016005D01*
X005680Y016103D02*
X005559Y016103D01*
X005519Y016202D02*
X005680Y016202D01*
X005680Y016300D02*
X005421Y016300D01*
X005322Y016399D02*
X005680Y016399D01*
X005680Y016497D02*
X005224Y016497D01*
X005125Y016596D02*
X005680Y016596D01*
X005680Y016694D02*
X005059Y016694D01*
X005059Y016793D02*
X005680Y016793D01*
X005680Y016891D02*
X005059Y016891D01*
X005059Y016990D02*
X005225Y016990D01*
X005095Y017088D02*
X005059Y017088D01*
X004879Y016587D02*
X005379Y016087D01*
X005379Y013324D01*
X004879Y012824D01*
X005166Y012656D02*
X011010Y012656D01*
X010903Y012754D02*
X005207Y012754D01*
X005209Y012853D02*
X005751Y012853D01*
X005680Y012951D02*
X005261Y012951D01*
X005359Y013050D02*
X005680Y013050D01*
X005680Y013148D02*
X005458Y013148D01*
X005556Y013247D02*
X005680Y013247D01*
X005680Y013345D02*
X005559Y013345D01*
X005559Y013444D02*
X005680Y013444D01*
X005680Y013542D02*
X005559Y013542D01*
X005559Y013641D02*
X005680Y013641D01*
X005680Y013739D02*
X005559Y013739D01*
X005559Y013838D02*
X005680Y013838D01*
X005680Y013936D02*
X005559Y013936D01*
X005559Y014035D02*
X005680Y014035D01*
X005680Y014133D02*
X005559Y014133D01*
X005559Y014232D02*
X005680Y014232D01*
X005680Y014330D02*
X005559Y014330D01*
X005559Y014429D02*
X005680Y014429D01*
X005680Y014527D02*
X005559Y014527D01*
X005199Y016005D02*
X005161Y016005D01*
X005108Y016103D02*
X005063Y016103D01*
X005010Y016202D02*
X004928Y016202D01*
X004911Y016300D02*
X004736Y016300D01*
X004813Y016399D02*
X001049Y016399D01*
X000899Y016497D02*
X004714Y016497D01*
X004699Y016596D02*
X000800Y016596D01*
X000741Y016694D02*
X004699Y016694D01*
X004699Y016793D02*
X000692Y016793D01*
X000665Y016891D02*
X004699Y016891D01*
X004699Y016990D02*
X000647Y016990D01*
X000644Y017088D02*
X004699Y017088D01*
X004699Y017187D02*
X000644Y017187D01*
X000644Y017285D02*
X004699Y017285D01*
X004699Y017384D02*
X000644Y017384D01*
X000644Y017482D02*
X004699Y017482D01*
X004699Y017581D02*
X000644Y017581D01*
X000644Y017679D02*
X004699Y017679D01*
X004696Y017778D02*
X000644Y017778D01*
X000615Y017820D02*
X003076Y015359D01*
X003076Y015202D01*
X004217Y014060D01*
X004217Y011461D01*
X004552Y011127D01*
X003999Y011080D02*
X003935Y011080D01*
X003974Y011178D02*
X005270Y011178D01*
X005171Y011277D02*
X004013Y011277D01*
X005079Y012557D02*
X007038Y012557D01*
X007119Y012375D02*
X006643Y011824D01*
X005879Y011824D01*
X005792Y011875D01*
X005582Y011375D02*
X007985Y011375D01*
X007985Y011474D02*
X006126Y011474D01*
X006178Y011572D02*
X007360Y011572D01*
X007282Y011671D02*
X006748Y011671D01*
X006833Y011769D02*
X007246Y011769D01*
X007246Y011868D02*
X006918Y011868D01*
X007003Y011966D02*
X007277Y011966D01*
X007350Y012065D02*
X007089Y012065D01*
X007174Y012163D02*
X010171Y012163D01*
X010269Y012065D02*
X007801Y012065D01*
X007576Y011824D02*
X008379Y011824D01*
X008410Y011619D01*
X007985Y011572D02*
X007791Y011572D01*
X008002Y011277D02*
X005680Y011277D01*
X006178Y012065D02*
X006613Y012065D01*
X006698Y012163D02*
X006178Y012163D01*
X006140Y012262D02*
X006783Y012262D01*
X006614Y011178D02*
X007985Y011178D01*
X007985Y011080D02*
X006650Y011080D01*
X006650Y010981D02*
X007985Y010981D01*
X007985Y010883D02*
X006650Y010883D01*
X006650Y010784D02*
X007985Y010784D01*
X007985Y010686D02*
X007716Y010686D01*
X007733Y010587D02*
X008038Y010587D01*
X008379Y010824D02*
X008379Y010324D01*
X009379Y011324D01*
X009828Y011404D01*
X010396Y011769D02*
X008836Y011769D01*
X008836Y011671D02*
X009251Y011671D01*
X009248Y011572D02*
X008836Y011572D01*
X008836Y011474D02*
X009248Y011474D01*
X009176Y011375D02*
X008836Y011375D01*
X008818Y011277D02*
X009077Y011277D01*
X008979Y011178D02*
X008836Y011178D01*
X008836Y011080D02*
X008880Y011080D01*
X008410Y010950D02*
X008379Y010824D01*
X008379Y010324D02*
X007379Y010324D01*
X007308Y010359D01*
X006883Y010489D02*
X006650Y010489D01*
X006650Y010587D02*
X006883Y010587D01*
X006899Y010686D02*
X006650Y010686D01*
X006650Y009602D02*
X006883Y009602D01*
X006883Y009504D02*
X006650Y009504D01*
X006650Y009405D02*
X006883Y009405D01*
X006956Y009307D02*
X006650Y009307D01*
X007072Y009119D02*
X006643Y008808D01*
X006643Y005812D01*
X006420Y006056D02*
X006113Y006056D01*
X006180Y005958D02*
X006346Y005958D01*
X006313Y005859D02*
X006209Y005859D01*
X006209Y005761D02*
X006313Y005761D01*
X006347Y005662D02*
X006169Y005662D01*
X006085Y005564D02*
X006424Y005564D01*
X006059Y005465D02*
X008376Y005465D01*
X008376Y005561D02*
X008376Y004072D01*
X008481Y003966D01*
X008753Y003695D01*
X008753Y002608D01*
X008829Y002532D01*
X010118Y002532D01*
X010119Y002534D01*
X010158Y002440D01*
X010251Y002347D01*
X010372Y002297D01*
X010503Y002297D01*
X010625Y002347D01*
X010622Y002215D02*
X010194Y002215D01*
X010183Y002313D02*
X010333Y002313D01*
X010186Y002412D02*
X008862Y002412D01*
X008760Y002510D02*
X010129Y002510D01*
X010194Y002116D02*
X010622Y002116D01*
X010622Y002018D02*
X010194Y002018D01*
X010194Y001919D02*
X010622Y001919D01*
X010622Y001821D02*
X010194Y001821D01*
X010194Y001722D02*
X010622Y001722D01*
X010622Y001624D02*
X010194Y001624D01*
X010194Y002904D02*
X010248Y002904D01*
X010194Y003003D02*
X010642Y003003D01*
X010642Y003101D02*
X010194Y003101D01*
X010194Y003200D02*
X010642Y003200D01*
X010642Y003298D02*
X010194Y003298D01*
X010194Y003397D02*
X010642Y003397D01*
X010642Y003495D02*
X010194Y003495D01*
X010194Y003594D02*
X010642Y003594D01*
X010642Y003692D02*
X010194Y003692D01*
X010194Y003791D02*
X010642Y003791D01*
X010642Y003889D02*
X010194Y003889D01*
X010194Y004185D02*
X010642Y004185D01*
X010642Y004283D02*
X010194Y004283D01*
X010194Y004382D02*
X010642Y004382D01*
X010642Y004480D02*
X010194Y004480D01*
X010194Y004579D02*
X010642Y004579D01*
X010642Y004677D02*
X010194Y004677D01*
X010194Y004776D02*
X010642Y004776D01*
X010642Y004874D02*
X010194Y004874D01*
X010194Y004973D02*
X010642Y004973D01*
X010642Y005071D02*
X010194Y005071D01*
X010194Y005170D02*
X010642Y005170D01*
X010642Y005268D02*
X010194Y005268D01*
X010194Y005367D02*
X010642Y005367D01*
X010642Y005465D02*
X010194Y005465D01*
X010418Y006402D02*
X010879Y006824D01*
X010024Y008223D02*
X009249Y008223D01*
X009249Y008125D02*
X009925Y008125D01*
X009827Y008026D02*
X009249Y008026D01*
X009195Y008322D02*
X010122Y008322D01*
X009878Y008420D02*
X009778Y008420D01*
X009778Y008364D02*
X009778Y008674D01*
X009228Y008674D01*
X009228Y008494D01*
X009238Y008456D01*
X009258Y008422D01*
X009285Y008394D01*
X009320Y008374D01*
X009358Y008364D01*
X009778Y008364D01*
X009778Y008519D02*
X009878Y008519D01*
X009878Y008617D02*
X009778Y008617D01*
X009778Y008716D02*
X006823Y008716D01*
X006823Y008617D02*
X009228Y008617D01*
X009228Y008519D02*
X006823Y008519D01*
X006823Y008420D02*
X009259Y008420D01*
X009228Y008814D02*
X006958Y008814D01*
X007094Y008913D02*
X009228Y008913D01*
X009249Y009011D02*
X008321Y009011D01*
X008419Y009110D02*
X009268Y009110D01*
X009248Y009208D02*
X008518Y009208D01*
X008616Y009307D02*
X009248Y009307D01*
X009248Y009405D02*
X008715Y009405D01*
X008813Y009504D02*
X009248Y009504D01*
X009248Y009602D02*
X008912Y009602D01*
X009010Y009701D02*
X009291Y009701D01*
X009248Y009799D02*
X009109Y009799D01*
X008879Y009824D02*
X008174Y009119D01*
X007072Y009119D01*
X006823Y008322D02*
X007941Y008322D01*
X007887Y008223D02*
X006823Y008223D01*
X006823Y008125D02*
X007887Y008125D01*
X007887Y008026D02*
X006823Y008026D01*
X006823Y007928D02*
X007887Y007928D01*
X007887Y007829D02*
X006823Y007829D01*
X006823Y007731D02*
X007887Y007731D01*
X007887Y007632D02*
X006823Y007632D01*
X006823Y007534D02*
X007887Y007534D01*
X007887Y007435D02*
X006823Y007435D01*
X006823Y007337D02*
X007887Y007337D01*
X007887Y007238D02*
X006823Y007238D01*
X006823Y007140D02*
X007887Y007140D01*
X007887Y007041D02*
X006823Y007041D01*
X006823Y006943D02*
X007887Y006943D01*
X007887Y006844D02*
X006823Y006844D01*
X006823Y006746D02*
X007887Y006746D01*
X007903Y006647D02*
X006823Y006647D01*
X006823Y006549D02*
X009144Y006549D01*
X009144Y006450D02*
X006823Y006450D01*
X006823Y006352D02*
X009144Y006352D01*
X008556Y005843D02*
X008556Y004146D01*
X009379Y003324D01*
X009473Y003253D01*
X008969Y003988D02*
X013143Y003988D01*
X013879Y004324D02*
X013879Y005324D01*
X012879Y006324D01*
X013484Y006056D02*
X013859Y006056D01*
X013811Y006155D02*
X013540Y006155D01*
X013540Y006253D02*
X013811Y006253D01*
X013499Y005958D02*
X015495Y005958D01*
X015753Y006155D02*
X015772Y006155D01*
X015576Y007662D02*
X015572Y007666D01*
X014602Y006943D02*
X014502Y006943D01*
X014502Y006844D02*
X014602Y006844D01*
X014602Y006746D02*
X014502Y006746D01*
X014502Y006647D02*
X014602Y006647D01*
X014602Y006549D02*
X014502Y006549D01*
X014502Y006352D02*
X014602Y006352D01*
X014602Y006253D02*
X014502Y006253D01*
X014502Y006155D02*
X014602Y006155D01*
X014602Y006056D02*
X014502Y006056D01*
X014073Y004874D02*
X014059Y004874D01*
X013879Y004324D02*
X014237Y003765D01*
X009879Y007824D02*
X010879Y008824D01*
X010879Y009324D01*
X010673Y009011D02*
X010406Y009011D01*
X010428Y008913D02*
X010699Y008913D01*
X010615Y008814D02*
X010428Y008814D01*
X010516Y008716D02*
X009878Y008716D01*
X009879Y009324D02*
X009828Y009394D01*
X010345Y010390D02*
X010728Y010390D01*
X010817Y010489D02*
X010408Y010489D01*
X010408Y010587D02*
X010817Y010587D01*
X010817Y010686D02*
X010495Y010686D01*
X010586Y010784D02*
X010817Y010784D01*
X010817Y010883D02*
X010684Y010883D01*
X010756Y010981D02*
X010817Y010981D01*
X010817Y011080D02*
X010756Y011080D01*
X010756Y011178D02*
X010817Y011178D01*
X010817Y011277D02*
X010756Y011277D01*
X010756Y011375D02*
X010817Y011375D01*
X010817Y011474D02*
X010756Y011474D01*
X010756Y011572D02*
X010817Y011572D01*
X010817Y011671D02*
X010756Y011671D01*
X010756Y011769D02*
X010817Y011769D01*
X010817Y011868D02*
X010756Y011868D01*
X010756Y011966D02*
X010817Y011966D01*
X010817Y012065D02*
X010756Y012065D01*
X010817Y012163D02*
X010680Y012163D01*
X010581Y012262D02*
X010817Y012262D01*
X010856Y012360D02*
X010483Y012360D01*
X010384Y012459D02*
X010946Y012459D01*
X010862Y012853D02*
X009968Y012853D01*
X010038Y012951D02*
X010852Y012951D01*
X010869Y013050D02*
X010038Y013050D01*
X010038Y013148D02*
X010922Y013148D01*
X011056Y013247D02*
X010038Y013247D01*
X010038Y013345D02*
X011087Y013345D01*
X011087Y013725D02*
X011379Y013824D01*
X011182Y012942D01*
X010549Y013444D02*
X010038Y013444D01*
X010038Y013542D02*
X010532Y013542D01*
X010532Y013641D02*
X010038Y013641D01*
X010038Y013739D02*
X010532Y013739D01*
X010532Y013838D02*
X010038Y013838D01*
X010038Y013936D02*
X010532Y013936D01*
X010543Y014035D02*
X010577Y014035D01*
X010379Y014324D02*
X010879Y014324D01*
X011087Y014394D01*
X011087Y015064D02*
X010733Y015064D01*
X010694Y015103D01*
X011087Y015103D01*
X011127Y015064D01*
X011087Y015064D01*
X011087Y015733D02*
X010879Y015824D01*
X010879Y016324D02*
X011087Y016402D01*
X010879Y017107D02*
X010879Y019324D01*
X010993Y019237D01*
X010628Y019551D02*
X010358Y019551D01*
X010400Y019509D02*
X010265Y019644D01*
X010088Y019717D01*
X009897Y019717D01*
X009721Y019644D01*
X009586Y019509D01*
X009513Y019332D01*
X009513Y019142D01*
X009586Y018965D01*
X009721Y018830D01*
X009897Y018757D01*
X010088Y018757D01*
X010265Y018830D01*
X010400Y018965D01*
X010473Y019142D01*
X010473Y019332D01*
X010400Y019509D01*
X010423Y019452D02*
X010562Y019452D01*
X010522Y019354D02*
X010464Y019354D01*
X010473Y019255D02*
X010513Y019255D01*
X010513Y019157D02*
X010473Y019157D01*
X010438Y019058D02*
X010547Y019058D01*
X010591Y018960D02*
X010394Y018960D01*
X010296Y018861D02*
X010690Y018861D01*
X010699Y018763D02*
X010102Y018763D01*
X009884Y018763D02*
X009102Y018763D01*
X009088Y018757D02*
X009265Y018830D01*
X009400Y018965D01*
X009473Y019142D01*
X009473Y019332D01*
X009400Y019509D01*
X009265Y019644D01*
X009088Y019717D01*
X008897Y019717D01*
X008721Y019644D01*
X008586Y019509D01*
X008513Y019332D01*
X008513Y019142D01*
X008586Y018965D01*
X008721Y018830D01*
X008897Y018757D01*
X009088Y018757D01*
X008884Y018763D02*
X008188Y018763D01*
X008188Y018664D02*
X010699Y018664D01*
X010699Y018566D02*
X008212Y018566D01*
X008311Y018467D02*
X010699Y018467D01*
X010699Y018369D02*
X010111Y018369D01*
X010220Y018270D02*
X010699Y018270D01*
X010699Y018172D02*
X010319Y018172D01*
X010417Y018073D02*
X010699Y018073D01*
X010699Y017975D02*
X010516Y017975D01*
X010614Y017876D02*
X010699Y017876D01*
X010699Y017778D02*
X010661Y017778D01*
X010669Y017679D02*
X010699Y017679D01*
X010699Y017581D02*
X010669Y017581D01*
X010669Y017482D02*
X010699Y017482D01*
X010689Y017384D02*
X010669Y017384D01*
X011059Y017975D02*
X011084Y017975D01*
X011059Y018073D02*
X011162Y018073D01*
X011059Y018172D02*
X011472Y018172D01*
X011571Y018270D02*
X011059Y018270D01*
X011059Y018369D02*
X011669Y018369D01*
X011768Y018467D02*
X011059Y018467D01*
X011059Y018566D02*
X011866Y018566D01*
X011965Y018664D02*
X011059Y018664D01*
X011102Y018763D02*
X011884Y018763D01*
X011690Y018861D02*
X011296Y018861D01*
X011394Y018960D02*
X011591Y018960D01*
X011547Y019058D02*
X011438Y019058D01*
X011473Y019157D02*
X011513Y019157D01*
X011513Y019255D02*
X011473Y019255D01*
X011464Y019354D02*
X011522Y019354D01*
X011562Y019452D02*
X011423Y019452D01*
X011358Y019551D02*
X011628Y019551D01*
X011734Y019649D02*
X011252Y019649D01*
X011119Y019748D02*
X011898Y019748D01*
X011913Y019741D02*
X012104Y019741D01*
X012281Y019814D01*
X012416Y019949D01*
X012489Y020126D01*
X012489Y020317D01*
X012416Y020493D01*
X012281Y020628D01*
X012104Y020701D01*
X011913Y020701D01*
X011821Y020663D01*
X011808Y020677D01*
X011772Y020677D01*
X011673Y020776D01*
X011701Y020765D01*
X011892Y020765D01*
X012068Y020838D01*
X012203Y020973D01*
X012276Y021149D01*
X012276Y021340D01*
X012203Y021517D01*
X012068Y021652D01*
X011892Y021725D01*
X011705Y021725D01*
X009854Y023405D01*
X009854Y023527D01*
X009804Y023648D01*
X009711Y023741D01*
X009590Y023791D01*
X009459Y023791D01*
X009337Y023741D01*
X009245Y023648D01*
X009194Y023527D01*
X009194Y023396D01*
X009245Y023274D01*
X009337Y023182D01*
X009459Y023131D01*
X009590Y023131D01*
X009611Y023140D01*
X011393Y021521D01*
X011215Y021521D01*
X011219Y021517D02*
X011084Y021652D01*
X010907Y021725D01*
X010716Y021725D01*
X010540Y021652D01*
X010405Y021517D01*
X010332Y021340D01*
X010332Y021149D01*
X010405Y020973D01*
X010540Y020838D01*
X010716Y020765D01*
X010907Y020765D01*
X011084Y020838D01*
X011093Y020847D01*
X011518Y020422D01*
X011556Y020384D01*
X011529Y020317D01*
X011529Y020126D01*
X011602Y019949D01*
X011737Y019814D01*
X011913Y019741D01*
X012119Y019748D02*
X014048Y019748D01*
X014147Y019846D02*
X012312Y019846D01*
X012411Y019945D02*
X014199Y019945D01*
X014199Y020043D02*
X012454Y020043D01*
X012489Y020142D02*
X014199Y020142D01*
X014199Y020240D02*
X012489Y020240D01*
X012480Y020339D02*
X014199Y020339D01*
X014199Y020437D02*
X012439Y020437D01*
X012373Y020536D02*
X014199Y020536D01*
X014199Y020634D02*
X012266Y020634D01*
X012051Y020831D02*
X012525Y020831D01*
X012508Y020838D02*
X012685Y020765D01*
X012876Y020765D01*
X013052Y020838D01*
X013187Y020973D01*
X013260Y021149D01*
X013260Y021340D01*
X013187Y021517D01*
X013052Y021652D01*
X012876Y021725D01*
X012685Y021725D01*
X012508Y021652D01*
X012373Y021517D01*
X012300Y021340D01*
X012300Y021149D01*
X012373Y020973D01*
X012508Y020838D01*
X012417Y020930D02*
X012160Y020930D01*
X012226Y021028D02*
X012351Y021028D01*
X012310Y021127D02*
X012267Y021127D01*
X012276Y021225D02*
X012300Y021225D01*
X012300Y021324D02*
X012276Y021324D01*
X012242Y021422D02*
X012334Y021422D01*
X012377Y021521D02*
X012199Y021521D01*
X012101Y021619D02*
X012476Y021619D01*
X012667Y021718D02*
X011909Y021718D01*
X011879Y021324D02*
X011796Y021245D01*
X011879Y021324D02*
X009524Y023461D01*
X009220Y023589D02*
X008688Y023589D01*
X008699Y023491D02*
X009194Y023491D01*
X009196Y023392D02*
X008689Y023392D01*
X008661Y023294D02*
X009237Y023294D01*
X009324Y023195D02*
X008661Y023195D01*
X008661Y023097D02*
X009658Y023097D01*
X009767Y022998D02*
X008661Y022998D01*
X008661Y022900D02*
X009875Y022900D01*
X009984Y022801D02*
X008661Y022801D01*
X008661Y022703D02*
X010092Y022703D01*
X010201Y022604D02*
X008661Y022604D01*
X008661Y022506D02*
X010309Y022506D01*
X010418Y022407D02*
X008661Y022407D01*
X008661Y022309D02*
X010526Y022309D01*
X010635Y022210D02*
X008661Y022210D01*
X008661Y022112D02*
X010743Y022112D01*
X010852Y022013D02*
X008620Y022013D01*
X008526Y021915D02*
X010960Y021915D01*
X011069Y021816D02*
X008427Y021816D01*
X008329Y021718D02*
X008691Y021718D01*
X008708Y021725D02*
X008532Y021652D01*
X008397Y021517D01*
X008324Y021340D01*
X008324Y021149D01*
X008397Y020973D01*
X008532Y020838D01*
X008708Y020765D01*
X008899Y020765D01*
X009076Y020838D01*
X009211Y020973D01*
X009284Y021149D01*
X009284Y021340D01*
X009211Y021517D01*
X009076Y021652D01*
X008899Y021725D01*
X008708Y021725D01*
X008917Y021718D02*
X009675Y021718D01*
X009693Y021725D02*
X009516Y021652D01*
X009381Y021517D01*
X009308Y021340D01*
X009308Y021149D01*
X009381Y020973D01*
X009516Y020838D01*
X009608Y020800D01*
X009608Y020304D01*
X009844Y020068D01*
X009950Y019963D01*
X010596Y019963D01*
X010602Y019949D01*
X010737Y019814D01*
X010913Y019741D01*
X011104Y019741D01*
X011281Y019814D01*
X011416Y019949D01*
X011489Y020126D01*
X011489Y020317D01*
X011416Y020493D01*
X011281Y020628D01*
X011104Y020701D01*
X010913Y020701D01*
X010737Y020628D01*
X010602Y020493D01*
X010531Y020323D01*
X010099Y020323D01*
X009968Y020453D01*
X009968Y020800D01*
X010060Y020838D01*
X010195Y020973D01*
X010268Y021149D01*
X010268Y021340D01*
X010195Y021517D01*
X010060Y021652D01*
X009884Y021725D01*
X009693Y021725D01*
X009901Y021718D02*
X010699Y021718D01*
X010507Y021619D02*
X010093Y021619D01*
X010191Y021521D02*
X010409Y021521D01*
X010366Y021422D02*
X010234Y021422D01*
X010268Y021324D02*
X010332Y021324D01*
X010332Y021225D02*
X010268Y021225D01*
X010259Y021127D02*
X010341Y021127D01*
X010382Y021028D02*
X010218Y021028D01*
X010152Y020930D02*
X010448Y020930D01*
X010556Y020831D02*
X010044Y020831D01*
X009968Y020733D02*
X011207Y020733D01*
X011266Y020634D02*
X011306Y020634D01*
X011373Y020536D02*
X011404Y020536D01*
X011439Y020437D02*
X011503Y020437D01*
X011480Y020339D02*
X011538Y020339D01*
X011529Y020240D02*
X011489Y020240D01*
X011489Y020142D02*
X011529Y020142D01*
X011563Y020043D02*
X011454Y020043D01*
X011411Y019945D02*
X011606Y019945D01*
X011705Y019846D02*
X011312Y019846D01*
X010898Y019748D02*
X008267Y019748D01*
X008267Y019846D02*
X010705Y019846D01*
X010606Y019945D02*
X008234Y019945D01*
X008152Y020043D02*
X009869Y020043D01*
X009844Y020068D02*
X009844Y020068D01*
X009771Y020142D02*
X008054Y020142D01*
X007972Y020240D02*
X009672Y020240D01*
X009608Y020339D02*
X007972Y020339D01*
X007972Y020437D02*
X009608Y020437D01*
X009608Y020536D02*
X007972Y020536D01*
X007972Y020634D02*
X009608Y020634D01*
X009608Y020733D02*
X007972Y020733D01*
X007972Y020831D02*
X008549Y020831D01*
X008440Y020930D02*
X007972Y020930D01*
X007972Y021028D02*
X008374Y021028D01*
X008333Y021127D02*
X007972Y021127D01*
X007972Y021225D02*
X008324Y021225D01*
X008324Y021324D02*
X007972Y021324D01*
X008033Y021422D02*
X008358Y021422D01*
X008401Y021521D02*
X008132Y021521D01*
X008230Y021619D02*
X008499Y021619D01*
X008001Y022210D02*
X007433Y022210D01*
X007434Y022309D02*
X008081Y022309D01*
X008081Y022407D02*
X007432Y022407D01*
X007391Y022506D02*
X008081Y022506D01*
X008081Y022604D02*
X007336Y022604D01*
X007238Y022703D02*
X008081Y022703D01*
X008081Y022801D02*
X006559Y022801D01*
X006559Y022703D02*
X006669Y022703D01*
X006571Y022604D02*
X006559Y022604D01*
X006559Y022900D02*
X006685Y022900D01*
X006584Y022998D02*
X006559Y022998D01*
X006379Y023324D02*
X006379Y019824D01*
X006879Y019324D01*
X006993Y019237D01*
X006879Y019324D02*
X007379Y018824D01*
X007379Y015324D01*
X007859Y015103D01*
X007879Y014824D01*
X009745Y014824D01*
X010055Y014724D02*
X010597Y014724D01*
X010532Y014626D02*
X010512Y014626D01*
X010245Y014626D02*
X010038Y014626D01*
X010038Y014527D02*
X010116Y014527D01*
X010065Y014429D02*
X010038Y014429D01*
X010038Y014330D02*
X010049Y014330D01*
X010038Y014232D02*
X010060Y014232D01*
X010038Y014133D02*
X010103Y014133D01*
X010038Y014035D02*
X010214Y014035D01*
X010079Y016103D02*
X010038Y016103D01*
X010038Y016202D02*
X010347Y016202D01*
X010248Y016300D02*
X010038Y016300D01*
X010038Y016399D02*
X010150Y016399D01*
X010099Y016497D02*
X010038Y016497D01*
X010038Y016596D02*
X010089Y016596D01*
X010089Y016694D02*
X010038Y016694D01*
X010038Y016793D02*
X010089Y016793D01*
X010089Y016891D02*
X010038Y016891D01*
X010038Y016990D02*
X010089Y016990D01*
X010089Y017088D02*
X010038Y017088D01*
X010038Y017187D02*
X010089Y017187D01*
X010089Y017285D02*
X010036Y017285D01*
X010089Y017384D02*
X007559Y017384D01*
X007559Y017482D02*
X010089Y017482D01*
X009893Y017778D02*
X007559Y017778D01*
X007559Y017876D02*
X008081Y017876D01*
X007983Y017975D02*
X007559Y017975D01*
X007559Y018073D02*
X007884Y018073D01*
X007786Y018172D02*
X007559Y018172D01*
X007559Y018270D02*
X007687Y018270D01*
X007626Y018369D02*
X007559Y018369D01*
X007559Y018467D02*
X007608Y018467D01*
X007608Y018566D02*
X007559Y018566D01*
X007559Y018664D02*
X007608Y018664D01*
X007608Y018763D02*
X007559Y018763D01*
X007559Y018861D02*
X007608Y018861D01*
X007591Y018960D02*
X007497Y018960D01*
X007547Y019058D02*
X007438Y019058D01*
X007473Y019157D02*
X007513Y019157D01*
X007513Y019255D02*
X007473Y019255D01*
X007464Y019354D02*
X007522Y019354D01*
X007562Y019452D02*
X007423Y019452D01*
X007358Y019551D02*
X007628Y019551D01*
X007687Y019649D02*
X007252Y019649D01*
X007434Y019945D02*
X006559Y019945D01*
X006559Y020043D02*
X007393Y020043D01*
X007392Y020142D02*
X006559Y020142D01*
X006559Y020240D02*
X007392Y020240D01*
X007392Y020339D02*
X006559Y020339D01*
X006559Y020437D02*
X007392Y020437D01*
X007392Y020536D02*
X006559Y020536D01*
X006559Y020634D02*
X007392Y020634D01*
X007392Y020733D02*
X006559Y020733D01*
X006559Y020831D02*
X007392Y020831D01*
X007392Y020930D02*
X006559Y020930D01*
X006559Y021028D02*
X007392Y021028D01*
X007392Y021127D02*
X006559Y021127D01*
X006559Y021225D02*
X007392Y021225D01*
X007392Y021324D02*
X006559Y021324D01*
X006559Y021422D02*
X007392Y021422D01*
X007392Y021521D02*
X006559Y021521D01*
X006559Y021619D02*
X007425Y021619D01*
X007508Y021718D02*
X006559Y021718D01*
X006559Y021816D02*
X007607Y021816D01*
X007705Y021915D02*
X007239Y021915D01*
X007338Y022013D02*
X007804Y022013D01*
X007902Y022112D02*
X007392Y022112D01*
X007222Y022900D02*
X008081Y022900D01*
X008081Y022998D02*
X007323Y022998D01*
X007386Y023097D02*
X008081Y023097D01*
X008081Y023195D02*
X007426Y023195D01*
X007434Y023294D02*
X008015Y023294D01*
X007974Y023392D02*
X007434Y023392D01*
X007397Y023491D02*
X007964Y023491D01*
X007975Y023589D02*
X007351Y023589D01*
X007253Y023688D02*
X008016Y023688D01*
X008109Y023786D02*
X007053Y023786D01*
X007049Y023828D02*
X007225Y023901D01*
X007360Y024036D01*
X007434Y024212D01*
X007434Y024403D01*
X007360Y024580D01*
X007225Y024715D01*
X007049Y024788D01*
X006858Y024788D01*
X006682Y024715D01*
X006547Y024580D01*
X006474Y024403D01*
X006474Y024212D01*
X006547Y024036D01*
X006682Y023901D01*
X006858Y023828D01*
X007049Y023828D01*
X007186Y023885D02*
X014199Y023885D01*
X014199Y023983D02*
X007308Y023983D01*
X007379Y024082D02*
X014199Y024082D01*
X014199Y024180D02*
X007420Y024180D01*
X007434Y024279D02*
X014199Y024279D01*
X014199Y024377D02*
X007434Y024377D01*
X007404Y024476D02*
X014199Y024476D01*
X014199Y024574D02*
X007363Y024574D01*
X007268Y024673D02*
X014199Y024673D01*
X014199Y024771D02*
X007089Y024771D01*
X007049Y024828D02*
X007225Y024901D01*
X007360Y025036D01*
X007434Y025212D01*
X007434Y025403D01*
X007360Y025580D01*
X007225Y025715D01*
X007049Y025788D01*
X006858Y025788D01*
X006682Y025715D01*
X006547Y025580D01*
X006474Y025403D01*
X006474Y025212D01*
X006547Y025036D01*
X006682Y024901D01*
X006858Y024828D01*
X007049Y024828D01*
X007150Y024870D02*
X014199Y024870D01*
X014199Y024968D02*
X007293Y024968D01*
X007373Y025067D02*
X014199Y025067D01*
X014199Y025165D02*
X007414Y025165D01*
X007434Y025264D02*
X014199Y025264D01*
X014199Y025362D02*
X007434Y025362D01*
X007410Y025461D02*
X014199Y025461D01*
X014199Y025559D02*
X007369Y025559D01*
X007283Y025658D02*
X014199Y025658D01*
X014199Y025756D02*
X007126Y025756D01*
X007114Y025855D02*
X014199Y025855D01*
X014199Y025953D02*
X007278Y025953D01*
X007225Y025901D02*
X007360Y026036D01*
X007434Y026212D01*
X007434Y026403D01*
X007360Y026580D01*
X007225Y026715D01*
X007049Y026788D01*
X006858Y026788D01*
X006724Y026733D01*
X006559Y026898D01*
X006559Y027024D01*
X006682Y026901D01*
X006858Y026828D01*
X007049Y026828D01*
X007225Y026901D01*
X007360Y027036D01*
X007434Y027212D01*
X007434Y027403D01*
X007360Y027580D01*
X007225Y027715D01*
X007049Y027788D01*
X006858Y027788D01*
X006682Y027715D01*
X006559Y027592D01*
X006559Y027898D01*
X006453Y028004D01*
X005706Y028751D01*
X005706Y029881D01*
X005629Y029958D01*
X004341Y029958D01*
X004264Y029881D01*
X004264Y028593D01*
X004341Y028516D01*
X005431Y028516D01*
X006199Y027749D01*
X006199Y026749D01*
X006494Y026453D01*
X006474Y026403D01*
X006474Y026212D01*
X006547Y026036D01*
X006682Y025901D01*
X006858Y025828D01*
X007049Y025828D01*
X007225Y025901D01*
X007367Y026052D02*
X014199Y026052D01*
X014199Y026150D02*
X007408Y026150D01*
X007434Y026249D02*
X014199Y026249D01*
X014199Y026347D02*
X007434Y026347D01*
X007416Y026446D02*
X014199Y026446D01*
X014199Y026544D02*
X007375Y026544D01*
X007298Y026643D02*
X014199Y026643D01*
X014199Y026741D02*
X007162Y026741D01*
X007077Y026840D02*
X014199Y026840D01*
X014199Y026938D02*
X007263Y026938D01*
X007361Y027037D02*
X014199Y027037D01*
X014199Y027135D02*
X007402Y027135D01*
X007434Y027234D02*
X014199Y027234D01*
X014199Y027332D02*
X007434Y027332D01*
X007422Y027431D02*
X014199Y027431D01*
X014199Y027529D02*
X007381Y027529D01*
X007313Y027628D02*
X014199Y027628D01*
X014199Y027726D02*
X007198Y027726D01*
X007225Y027901D02*
X007049Y027828D01*
X006858Y027828D01*
X006682Y027901D01*
X006547Y028036D01*
X006474Y028212D01*
X006474Y028403D01*
X006547Y028580D01*
X006682Y028715D01*
X006858Y028788D01*
X007049Y028788D01*
X007225Y028715D01*
X007360Y028580D01*
X007434Y028403D01*
X007434Y028212D01*
X007360Y028036D01*
X007225Y027901D01*
X007248Y027923D02*
X014199Y027923D01*
X014199Y027825D02*
X006559Y027825D01*
X006559Y027726D02*
X006709Y027726D01*
X006594Y027628D02*
X006559Y027628D01*
X006379Y027824D02*
X006379Y026824D01*
X006879Y026324D01*
X006954Y026308D01*
X006745Y026741D02*
X006716Y026741D01*
X006617Y026840D02*
X006830Y026840D01*
X006644Y026938D02*
X006559Y026938D01*
X006305Y026643D02*
X005161Y026643D01*
X005207Y026689D02*
X005014Y026495D01*
X004776Y026358D01*
X004512Y026287D01*
X004238Y026287D01*
X003973Y026358D01*
X003736Y026495D01*
X003542Y026689D01*
X003405Y026926D01*
X003334Y027191D01*
X003334Y027465D01*
X003405Y027729D01*
X003542Y027966D01*
X003736Y028160D01*
X003973Y028297D01*
X004238Y028368D01*
X004512Y028368D01*
X004776Y028297D01*
X005014Y028160D01*
X005207Y027966D01*
X005344Y027729D01*
X005415Y027465D01*
X005415Y027191D01*
X005344Y026926D01*
X005207Y026689D01*
X005238Y026741D02*
X006207Y026741D01*
X006199Y026840D02*
X005295Y026840D01*
X005348Y026938D02*
X006199Y026938D01*
X006199Y027037D02*
X005374Y027037D01*
X005400Y027135D02*
X006199Y027135D01*
X006199Y027234D02*
X005415Y027234D01*
X005415Y027332D02*
X006199Y027332D01*
X006199Y027431D02*
X005415Y027431D01*
X005398Y027529D02*
X006199Y027529D01*
X006199Y027628D02*
X005372Y027628D01*
X005345Y027726D02*
X006199Y027726D01*
X006123Y027825D02*
X005289Y027825D01*
X005232Y027923D02*
X006025Y027923D01*
X005926Y028022D02*
X005152Y028022D01*
X005054Y028120D02*
X005828Y028120D01*
X005729Y028219D02*
X004913Y028219D01*
X004702Y028317D02*
X005631Y028317D01*
X005532Y028416D02*
X003275Y028416D01*
X003275Y028514D02*
X005434Y028514D01*
X005379Y028824D02*
X004985Y029237D01*
X005379Y028824D02*
X006379Y027824D01*
X006534Y027923D02*
X006659Y027923D01*
X006561Y028022D02*
X006435Y028022D01*
X006512Y028120D02*
X006337Y028120D01*
X006238Y028219D02*
X006474Y028219D01*
X006474Y028317D02*
X006140Y028317D01*
X006041Y028416D02*
X006479Y028416D01*
X006519Y028514D02*
X005943Y028514D01*
X005844Y028613D02*
X006579Y028613D01*
X006678Y028711D02*
X005746Y028711D01*
X005706Y028810D02*
X014199Y028810D01*
X014199Y028908D02*
X007233Y028908D01*
X007225Y028901D02*
X007360Y029036D01*
X007434Y029212D01*
X007434Y029403D01*
X007360Y029580D01*
X007225Y029715D01*
X007049Y029788D01*
X006858Y029788D01*
X006682Y029715D01*
X006547Y029580D01*
X006474Y029403D01*
X006474Y029212D01*
X006547Y029036D01*
X006682Y028901D01*
X006858Y028828D01*
X007049Y028828D01*
X007225Y028901D01*
X007331Y029007D02*
X014199Y029007D01*
X014199Y029105D02*
X007389Y029105D01*
X007430Y029204D02*
X014199Y029204D01*
X014199Y029302D02*
X007434Y029302D01*
X007434Y029401D02*
X014199Y029401D01*
X014199Y029499D02*
X007394Y029499D01*
X007343Y029598D02*
X014199Y029598D01*
X014199Y029696D02*
X007244Y029696D01*
X006663Y029696D02*
X005706Y029696D01*
X005706Y029598D02*
X006564Y029598D01*
X006513Y029499D02*
X005706Y029499D01*
X005706Y029401D02*
X006474Y029401D01*
X006474Y029302D02*
X005706Y029302D01*
X005706Y029204D02*
X006477Y029204D01*
X006518Y029105D02*
X005706Y029105D01*
X005706Y029007D02*
X006576Y029007D01*
X006674Y028908D02*
X005706Y028908D01*
X005706Y029795D02*
X014199Y029795D01*
X014199Y029893D02*
X005694Y029893D01*
X005492Y031765D02*
X014199Y031765D01*
X014199Y031863D02*
X005548Y031863D01*
X005548Y031962D02*
X014199Y031962D01*
X014199Y032060D02*
X005548Y032060D01*
X005548Y032159D02*
X014199Y032159D01*
X014199Y032257D02*
X005548Y032257D01*
X005548Y032356D02*
X014199Y032356D01*
X014199Y032454D02*
X005548Y032454D01*
X005548Y032553D02*
X014199Y032553D01*
X014199Y032651D02*
X004559Y032651D01*
X004559Y032553D02*
X004579Y032553D01*
X004559Y032750D02*
X014199Y032750D01*
X014199Y032848D02*
X005473Y032848D01*
X005472Y032847D02*
X005548Y032923D01*
X005548Y033034D01*
X005649Y033034D01*
X005671Y033012D01*
X005806Y032956D01*
X005952Y032956D01*
X006087Y033012D01*
X006190Y033115D01*
X006246Y033251D01*
X006246Y033397D01*
X006190Y033532D01*
X006087Y033635D01*
X005952Y033691D01*
X005806Y033691D01*
X005671Y033635D01*
X005649Y033614D01*
X005548Y033614D01*
X005548Y033661D01*
X005472Y033737D01*
X004656Y033737D01*
X004579Y033661D01*
X004579Y032923D01*
X004656Y032847D01*
X005472Y032847D01*
X005548Y032947D02*
X014199Y032947D01*
X014199Y033045D02*
X006120Y033045D01*
X006202Y033144D02*
X014199Y033144D01*
X014199Y033242D02*
X006243Y033242D01*
X006246Y033341D02*
X014199Y033341D01*
X014199Y033439D02*
X006229Y033439D01*
X006184Y033538D02*
X014199Y033538D01*
X014199Y033636D02*
X006084Y033636D01*
X005673Y033636D02*
X005548Y033636D01*
X005474Y033735D02*
X014199Y033735D01*
X014199Y033833D02*
X004643Y033833D01*
X004653Y033735D02*
X004559Y033735D01*
X004559Y033636D02*
X004579Y033636D01*
X004579Y033538D02*
X004559Y033538D01*
X004559Y033439D02*
X004579Y033439D01*
X004579Y033341D02*
X004559Y033341D01*
X004559Y033242D02*
X004579Y033242D01*
X004579Y033144D02*
X004559Y033144D01*
X004559Y033045D02*
X004579Y033045D01*
X004579Y032947D02*
X004559Y032947D01*
X004559Y032848D02*
X004655Y032848D01*
X004879Y032324D02*
X004379Y032324D01*
X004379Y033824D01*
X004879Y034324D01*
X004879Y035824D01*
X003379Y035824D01*
X002379Y036824D01*
X002111Y037111D01*
X002112Y038069D02*
X002460Y038069D01*
X002507Y038167D02*
X002286Y038167D01*
X002414Y038266D02*
X002554Y038266D01*
X002513Y038364D02*
X002600Y038364D01*
X002585Y038463D02*
X002647Y038463D01*
X002642Y038561D02*
X002694Y038561D01*
X002693Y038660D02*
X002741Y038660D01*
X002719Y038758D02*
X002815Y038758D01*
X002745Y038857D02*
X002959Y038857D01*
X002758Y038955D02*
X007083Y038955D01*
X007083Y038857D02*
X003324Y038857D01*
X003469Y038758D02*
X007083Y038758D01*
X007083Y038660D02*
X003550Y038660D01*
X003585Y038561D02*
X007089Y038561D01*
X007089Y038627D02*
X007089Y038463D01*
X006816Y038191D01*
X006806Y038191D01*
X006671Y038135D01*
X006567Y038032D01*
X006511Y037897D01*
X006511Y037751D01*
X006567Y037615D01*
X006671Y037512D01*
X006806Y037456D01*
X006952Y037456D01*
X007087Y037512D01*
X007190Y037615D01*
X007246Y037751D01*
X007246Y037801D01*
X007625Y038179D01*
X007669Y038286D01*
X007669Y038556D01*
X008055Y038556D01*
X008131Y038632D01*
X008131Y039527D01*
X008055Y039603D01*
X007160Y039603D01*
X007083Y039527D01*
X007083Y038632D01*
X007089Y038627D01*
X007088Y038463D02*
X003605Y038463D01*
X003600Y038364D02*
X006989Y038364D01*
X006891Y038266D02*
X003572Y038266D01*
X003525Y038167D02*
X006748Y038167D01*
X006604Y038069D02*
X003478Y038069D01*
X003432Y037970D02*
X006542Y037970D01*
X006511Y037872D02*
X003385Y037872D01*
X003338Y037773D02*
X006511Y037773D01*
X006543Y037675D02*
X003292Y037675D01*
X003320Y037598D02*
X003320Y036309D01*
X003396Y036233D01*
X004685Y036233D01*
X004761Y036309D01*
X004761Y036644D01*
X005557Y036644D01*
X005560Y036637D01*
X005652Y036544D01*
X005774Y036494D01*
X005905Y036494D01*
X006026Y036544D01*
X006119Y036637D01*
X006169Y036758D01*
X006169Y036889D01*
X006119Y037011D01*
X006026Y037103D01*
X005905Y037154D01*
X005774Y037154D01*
X005652Y037103D01*
X005560Y037011D01*
X005557Y037004D01*
X004761Y037004D01*
X004761Y037598D01*
X004685Y037674D01*
X003396Y037674D01*
X003320Y037598D01*
X003320Y037576D02*
X003245Y037576D01*
X003198Y037478D02*
X003320Y037478D01*
X003320Y037379D02*
X003151Y037379D01*
X003105Y037281D02*
X003320Y037281D01*
X003320Y037182D02*
X003058Y037182D01*
X003011Y037084D02*
X003320Y037084D01*
X003320Y036985D02*
X002991Y036985D01*
X002991Y036887D02*
X003320Y036887D01*
X003320Y036788D02*
X002991Y036788D01*
X002991Y036690D02*
X003320Y036690D01*
X003320Y036591D02*
X002991Y036591D01*
X002991Y036493D02*
X003320Y036493D01*
X003320Y036394D02*
X003063Y036394D01*
X003161Y036296D02*
X003333Y036296D01*
X003260Y036197D02*
X009167Y036197D01*
X009167Y036099D02*
X003358Y036099D01*
X003145Y035803D02*
X003011Y035803D01*
X003011Y035873D02*
X003001Y035911D01*
X002981Y035945D01*
X002953Y035973D01*
X002919Y035993D01*
X002881Y036003D01*
X002161Y036003D01*
X002161Y035153D01*
X003011Y035153D01*
X003011Y035873D01*
X003003Y035902D02*
X003046Y035902D01*
X002948Y036000D02*
X002892Y036000D01*
X002849Y036099D02*
X001100Y036099D01*
X001106Y036197D02*
X002751Y036197D01*
X003011Y035705D02*
X003243Y035705D01*
X003336Y035606D02*
X003011Y035606D01*
X003011Y035508D02*
X003320Y035508D01*
X003320Y035409D02*
X003011Y035409D01*
X003011Y035311D02*
X003320Y035311D01*
X003320Y035212D02*
X003011Y035212D01*
X003011Y035053D02*
X002161Y035053D01*
X002161Y034203D01*
X002881Y034203D01*
X002919Y034213D01*
X002953Y034233D01*
X002981Y034261D01*
X003001Y034295D01*
X003011Y034333D01*
X003011Y035053D01*
X003011Y035015D02*
X003320Y035015D01*
X003320Y034917D02*
X003011Y034917D01*
X003011Y034818D02*
X003320Y034818D01*
X003320Y034720D02*
X003011Y034720D01*
X003011Y034621D02*
X003320Y034621D01*
X003320Y034523D02*
X003011Y034523D01*
X003011Y034424D02*
X003320Y034424D01*
X003320Y034326D02*
X003009Y034326D01*
X002943Y034227D02*
X003394Y034227D01*
X003619Y034030D02*
X000973Y034030D01*
X000967Y033932D02*
X003566Y033932D01*
X003549Y033833D02*
X000961Y033833D01*
X000955Y033735D02*
X003558Y033735D01*
X003600Y033636D02*
X000949Y033636D01*
X000943Y033538D02*
X003707Y033538D01*
X003879Y033824D02*
X003879Y034824D01*
X004040Y034946D01*
X003699Y034129D02*
X000979Y034129D01*
X000985Y034227D02*
X001279Y034227D01*
X001269Y034233D02*
X001303Y034213D01*
X001341Y034203D01*
X002061Y034203D01*
X002061Y035053D01*
X002161Y035053D01*
X002161Y035153D01*
X002061Y035153D01*
X002061Y035053D01*
X001211Y035053D01*
X001211Y034333D01*
X001221Y034295D01*
X001241Y034261D01*
X001269Y034233D01*
X001213Y034326D02*
X000991Y034326D01*
X000997Y034424D02*
X001211Y034424D01*
X001211Y034523D02*
X001003Y034523D01*
X001009Y034621D02*
X001211Y034621D01*
X001211Y034720D02*
X001016Y034720D01*
X001022Y034818D02*
X001211Y034818D01*
X001211Y034917D02*
X001028Y034917D01*
X001034Y035015D02*
X001211Y035015D01*
X001211Y035153D02*
X002061Y035153D01*
X002061Y036003D01*
X001341Y036003D01*
X001303Y035993D01*
X001269Y035973D01*
X001241Y035945D01*
X001221Y035911D01*
X001211Y035873D01*
X001211Y035153D01*
X001211Y035212D02*
X001046Y035212D01*
X001040Y035114D02*
X002061Y035114D01*
X002111Y035103D02*
X000812Y032347D01*
X000812Y025576D01*
X000576Y025339D01*
X000576Y023509D01*
X000654Y023430D01*
X001560Y022269D01*
X001560Y022150D01*
X001678Y022032D01*
X000615Y020969D01*
X000615Y017820D01*
X000644Y017876D02*
X004635Y017876D01*
X004480Y017975D02*
X000644Y017975D01*
X000644Y018073D02*
X004340Y018073D01*
X004285Y018172D02*
X000644Y018172D01*
X000644Y018270D02*
X004265Y018270D01*
X004273Y018369D02*
X003927Y018369D01*
X003925Y018368D02*
X004046Y018418D01*
X004139Y018511D01*
X004189Y018632D01*
X004189Y018763D01*
X004139Y018885D01*
X004046Y018977D01*
X004041Y018980D01*
X004057Y021587D01*
X004251Y021587D01*
X004328Y021663D01*
X004328Y022952D01*
X004251Y023028D01*
X002963Y023028D01*
X002887Y022952D01*
X002887Y021663D01*
X002963Y021587D01*
X003697Y021587D01*
X003681Y018981D01*
X003672Y018977D01*
X003579Y018885D01*
X003529Y018763D01*
X003529Y018632D01*
X003579Y018511D01*
X003672Y018418D01*
X003793Y018368D01*
X003925Y018368D01*
X003791Y018369D02*
X002047Y018369D01*
X002039Y018361D02*
X002115Y018437D01*
X002115Y019146D01*
X002476Y019507D01*
X002566Y019544D01*
X002658Y019637D01*
X002709Y019758D01*
X002709Y019889D01*
X002658Y020011D01*
X002566Y020103D01*
X002444Y020154D01*
X002313Y020154D01*
X002192Y020103D01*
X002099Y020011D01*
X002056Y019907D01*
X001868Y019719D01*
X000782Y019719D01*
X000705Y019643D01*
X000705Y018437D01*
X000782Y018361D01*
X002039Y018361D01*
X002115Y018467D02*
X003623Y018467D01*
X003557Y018566D02*
X002115Y018566D01*
X002115Y018664D02*
X003529Y018664D01*
X003529Y018763D02*
X002115Y018763D01*
X002115Y018861D02*
X003570Y018861D01*
X003654Y018960D02*
X002115Y018960D01*
X002115Y019058D02*
X003681Y019058D01*
X003682Y019157D02*
X002126Y019157D01*
X002224Y019255D02*
X003683Y019255D01*
X003683Y019354D02*
X002323Y019354D01*
X002421Y019452D02*
X003684Y019452D01*
X003684Y019551D02*
X002572Y019551D01*
X002664Y019649D02*
X003685Y019649D01*
X003686Y019748D02*
X002704Y019748D01*
X002709Y019846D02*
X003686Y019846D01*
X003687Y019945D02*
X002686Y019945D01*
X002626Y020043D02*
X003688Y020043D01*
X003688Y020142D02*
X002473Y020142D01*
X002284Y020142D02*
X000644Y020142D01*
X000644Y020240D02*
X003689Y020240D01*
X003689Y020339D02*
X000644Y020339D01*
X000644Y020437D02*
X003690Y020437D01*
X003691Y020536D02*
X000644Y020536D01*
X000644Y020634D02*
X003691Y020634D01*
X003692Y020733D02*
X000644Y020733D01*
X000644Y020831D02*
X003692Y020831D01*
X003693Y020930D02*
X000644Y020930D01*
X000644Y021028D02*
X003694Y021028D01*
X003694Y021127D02*
X000644Y021127D01*
X000644Y021225D02*
X003695Y021225D01*
X003696Y021324D02*
X002439Y021324D01*
X002430Y021308D02*
X002450Y021342D01*
X002460Y021381D01*
X002460Y022100D01*
X001610Y022100D01*
X001610Y021250D01*
X002330Y021250D01*
X002368Y021261D01*
X002402Y021280D01*
X002430Y021308D01*
X002460Y021422D02*
X003696Y021422D01*
X003697Y021521D02*
X002460Y021521D01*
X002460Y021619D02*
X002931Y021619D01*
X002887Y021718D02*
X002460Y021718D01*
X002460Y021816D02*
X002887Y021816D01*
X002887Y021915D02*
X002460Y021915D01*
X002460Y022013D02*
X002887Y022013D01*
X002887Y022112D02*
X001610Y022112D01*
X001610Y022100D02*
X001610Y022200D01*
X002460Y022200D01*
X002460Y022920D01*
X002450Y022958D01*
X002430Y022992D01*
X002402Y023020D01*
X002368Y023040D01*
X002330Y023050D01*
X001610Y023050D01*
X001610Y022200D01*
X001510Y022200D01*
X001510Y022100D01*
X001610Y022100D01*
X001610Y022013D02*
X001510Y022013D01*
X001510Y022100D02*
X001510Y021250D01*
X000790Y021250D01*
X000752Y021261D01*
X000718Y021280D01*
X000690Y021308D01*
X000670Y021342D01*
X000660Y021381D01*
X000660Y022100D01*
X001510Y022100D01*
X001510Y022112D02*
X000644Y022112D01*
X000660Y022200D02*
X001510Y022200D01*
X001510Y023050D01*
X000790Y023050D01*
X000752Y023040D01*
X000718Y023020D01*
X000690Y022992D01*
X000670Y022958D01*
X000660Y022920D01*
X000660Y022200D01*
X000660Y022210D02*
X000644Y022210D01*
X000644Y022309D02*
X000660Y022309D01*
X000660Y022407D02*
X000644Y022407D01*
X000644Y022506D02*
X000660Y022506D01*
X000660Y022604D02*
X000644Y022604D01*
X000644Y022703D02*
X000660Y022703D01*
X000660Y022801D02*
X000644Y022801D01*
X000644Y022900D02*
X000660Y022900D01*
X000644Y022998D02*
X000695Y022998D01*
X000644Y023097D02*
X006199Y023097D01*
X006199Y022998D02*
X004282Y022998D01*
X004328Y022900D02*
X006199Y022900D01*
X006199Y022801D02*
X004328Y022801D01*
X004328Y022703D02*
X006199Y022703D01*
X006199Y022604D02*
X004328Y022604D01*
X004328Y022506D02*
X006199Y022506D01*
X006199Y022407D02*
X004328Y022407D01*
X004328Y022309D02*
X006199Y022309D01*
X006199Y022210D02*
X004328Y022210D01*
X004328Y022112D02*
X006199Y022112D01*
X006199Y022013D02*
X004328Y022013D01*
X004328Y021915D02*
X006199Y021915D01*
X006199Y021816D02*
X004328Y021816D01*
X004328Y021718D02*
X006199Y021718D01*
X006199Y021619D02*
X004283Y021619D01*
X004057Y021521D02*
X006199Y021521D01*
X006199Y021422D02*
X004056Y021422D01*
X004056Y021324D02*
X006199Y021324D01*
X006199Y021225D02*
X004055Y021225D01*
X004054Y021127D02*
X006199Y021127D01*
X006199Y021028D02*
X004054Y021028D01*
X004053Y020930D02*
X006199Y020930D01*
X006199Y020831D02*
X004052Y020831D01*
X004052Y020733D02*
X006199Y020733D01*
X006199Y020634D02*
X004051Y020634D01*
X004051Y020536D02*
X006199Y020536D01*
X006199Y020437D02*
X004050Y020437D01*
X004049Y020339D02*
X006199Y020339D01*
X006199Y020240D02*
X004049Y020240D01*
X004048Y020142D02*
X006199Y020142D01*
X006199Y020043D02*
X004048Y020043D01*
X004047Y019945D02*
X006199Y019945D01*
X006199Y019846D02*
X004046Y019846D01*
X004046Y019748D02*
X006200Y019748D01*
X006267Y019649D02*
X006299Y019649D01*
X006273Y019551D02*
X006397Y019551D01*
X006496Y019452D02*
X006273Y019452D01*
X006273Y019354D02*
X006522Y019354D01*
X006513Y019255D02*
X006273Y019255D01*
X006273Y019157D02*
X006513Y019157D01*
X006547Y019058D02*
X006273Y019058D01*
X006273Y018960D02*
X006591Y018960D01*
X006690Y018861D02*
X006273Y018861D01*
X006273Y018763D02*
X006884Y018763D01*
X007102Y018763D02*
X007185Y018763D01*
X007199Y018664D02*
X006273Y018664D01*
X006273Y018566D02*
X007199Y018566D01*
X007199Y018467D02*
X006273Y018467D01*
X006204Y018369D02*
X007199Y018369D01*
X007199Y018270D02*
X005629Y018270D01*
X005629Y018172D02*
X007199Y018172D01*
X007199Y018073D02*
X005629Y018073D01*
X005629Y017975D02*
X007199Y017975D01*
X007199Y017876D02*
X005629Y017876D01*
X005629Y017778D02*
X007199Y017778D01*
X007199Y017679D02*
X005629Y017679D01*
X005641Y017581D02*
X007199Y017581D01*
X007199Y017482D02*
X005711Y017482D01*
X005746Y017384D02*
X007199Y017384D01*
X008296Y018861D02*
X008690Y018861D01*
X008591Y018960D02*
X008394Y018960D01*
X008438Y019058D02*
X008547Y019058D01*
X008513Y019157D02*
X008473Y019157D01*
X008473Y019255D02*
X008513Y019255D01*
X008522Y019354D02*
X008464Y019354D01*
X008423Y019452D02*
X008562Y019452D01*
X008628Y019551D02*
X008358Y019551D01*
X008267Y019649D02*
X008734Y019649D01*
X009252Y019649D02*
X009734Y019649D01*
X009628Y019551D02*
X009358Y019551D01*
X009423Y019452D02*
X009562Y019452D01*
X009522Y019354D02*
X009464Y019354D01*
X009473Y019255D02*
X009513Y019255D01*
X009513Y019157D02*
X009473Y019157D01*
X009438Y019058D02*
X009547Y019058D01*
X009591Y018960D02*
X009394Y018960D01*
X009296Y018861D02*
X009690Y018861D01*
X010252Y019649D02*
X010734Y019649D01*
X010930Y020143D02*
X011009Y020221D01*
X010930Y020143D02*
X010024Y020143D01*
X009788Y020379D01*
X009788Y021245D01*
X009425Y020930D02*
X009167Y020930D01*
X009234Y021028D02*
X009358Y021028D01*
X009318Y021127D02*
X009274Y021127D01*
X009284Y021225D02*
X009308Y021225D01*
X009308Y021324D02*
X009284Y021324D01*
X009250Y021422D02*
X009342Y021422D01*
X009385Y021521D02*
X009207Y021521D01*
X009109Y021619D02*
X009484Y021619D01*
X009533Y020831D02*
X009059Y020831D01*
X009968Y020634D02*
X010751Y020634D01*
X010644Y020536D02*
X009968Y020536D01*
X009984Y020437D02*
X010579Y020437D01*
X010538Y020339D02*
X010083Y020339D01*
X010812Y021245D02*
X010950Y021245D01*
X011698Y020497D01*
X011733Y020497D01*
X012009Y020221D01*
X012252Y019649D02*
X012734Y019649D01*
X012628Y019551D02*
X012358Y019551D01*
X012423Y019452D02*
X012562Y019452D01*
X012522Y019354D02*
X012464Y019354D01*
X012473Y019255D02*
X012513Y019255D01*
X012879Y019324D02*
X012993Y019237D01*
X012879Y019324D02*
X011379Y017824D01*
X012379Y017824D02*
X013879Y019324D01*
X013993Y019237D01*
X013879Y019324D02*
X014379Y019824D01*
X014379Y033824D01*
X015379Y034824D01*
X015682Y035087D01*
X015682Y036284D01*
X016379Y036824D01*
X016678Y036954D01*
X017399Y037182D02*
X017746Y037182D01*
X017746Y037161D02*
X018596Y037161D01*
X018596Y038011D01*
X017877Y038011D01*
X017839Y038001D01*
X017804Y037981D01*
X017776Y037953D01*
X017757Y037919D01*
X017746Y037881D01*
X017746Y037161D01*
X017746Y037281D02*
X017399Y037281D01*
X017399Y037379D02*
X017746Y037379D01*
X017746Y037478D02*
X017399Y037478D01*
X017399Y037576D02*
X017746Y037576D01*
X017746Y037675D02*
X011059Y037675D01*
X011059Y037773D02*
X011168Y037773D01*
X011069Y037872D02*
X011059Y037872D01*
X011059Y037576D02*
X015957Y037576D01*
X015957Y037478D02*
X011059Y037478D01*
X011059Y037379D02*
X011664Y037379D01*
X011701Y037394D02*
X011524Y037321D01*
X011389Y037186D01*
X011316Y037010D01*
X011316Y036819D01*
X011389Y036642D01*
X011524Y036507D01*
X011701Y036434D01*
X011892Y036434D01*
X012068Y036507D01*
X012203Y036642D01*
X012276Y036819D01*
X012276Y037010D01*
X012203Y037186D01*
X012068Y037321D01*
X011892Y037394D01*
X011701Y037394D01*
X011928Y037379D02*
X012688Y037379D01*
X012724Y037394D02*
X012548Y037321D01*
X012413Y037186D01*
X012340Y037010D01*
X012340Y036819D01*
X012413Y036642D01*
X012548Y036507D01*
X012724Y036434D01*
X012915Y036434D01*
X013092Y036507D01*
X013227Y036642D01*
X013300Y036819D01*
X013300Y037010D01*
X013227Y037186D01*
X013092Y037321D01*
X012915Y037394D01*
X012724Y037394D01*
X012951Y037379D02*
X013672Y037379D01*
X013492Y037281D02*
X013132Y037281D01*
X013228Y037182D02*
X013395Y037182D01*
X013355Y037084D02*
X013269Y037084D01*
X013300Y036985D02*
X013324Y036985D01*
X013324Y036887D02*
X013300Y036887D01*
X013287Y036788D02*
X013337Y036788D01*
X013377Y036690D02*
X013246Y036690D01*
X013175Y036591D02*
X013448Y036591D01*
X013567Y036493D02*
X013056Y036493D01*
X012953Y036394D02*
X013670Y036394D01*
X013491Y036296D02*
X013133Y036296D01*
X013229Y036197D02*
X013395Y036197D01*
X013354Y036099D02*
X013269Y036099D01*
X013300Y036000D02*
X013324Y036000D01*
X013324Y035902D02*
X013300Y035902D01*
X013287Y035803D02*
X013337Y035803D01*
X013378Y035705D02*
X013246Y035705D01*
X013175Y035606D02*
X013449Y035606D01*
X013569Y035508D02*
X013055Y035508D01*
X012585Y035508D02*
X012031Y035508D01*
X012151Y035606D02*
X012465Y035606D01*
X012393Y035705D02*
X012222Y035705D01*
X012263Y035803D02*
X012353Y035803D01*
X012340Y035902D02*
X012276Y035902D01*
X012276Y036000D02*
X012340Y036000D01*
X012370Y036099D02*
X012246Y036099D01*
X012205Y036197D02*
X012411Y036197D01*
X012507Y036296D02*
X012109Y036296D01*
X011930Y036394D02*
X012686Y036394D01*
X012583Y036493D02*
X012033Y036493D01*
X012152Y036591D02*
X012464Y036591D01*
X012393Y036690D02*
X012223Y036690D01*
X012263Y036788D02*
X012352Y036788D01*
X012340Y036887D02*
X012276Y036887D01*
X012276Y036985D02*
X012340Y036985D01*
X012370Y037084D02*
X012245Y037084D01*
X012205Y037182D02*
X012411Y037182D01*
X012507Y037281D02*
X012108Y037281D01*
X011860Y038069D02*
X014667Y038069D01*
X014692Y038044D02*
X014813Y037994D01*
X014944Y037994D01*
X015066Y038044D01*
X015158Y038137D01*
X015209Y038258D01*
X015209Y038389D01*
X015158Y038511D01*
X015066Y038603D01*
X014996Y038632D01*
X014698Y038931D01*
X014698Y039527D01*
X014622Y039603D01*
X013726Y039603D01*
X013650Y039527D01*
X013650Y038632D01*
X013726Y038556D01*
X014252Y038556D01*
X014549Y038259D01*
X014549Y038258D01*
X014599Y038137D01*
X014692Y038044D01*
X014586Y038167D02*
X011860Y038167D01*
X011835Y038266D02*
X014542Y038266D01*
X014444Y038364D02*
X011793Y038364D01*
X011694Y038463D02*
X014345Y038463D01*
X014379Y038824D02*
X014174Y039080D01*
X014698Y039054D02*
X018000Y039054D01*
X018000Y039152D02*
X014698Y039152D01*
X014698Y039251D02*
X018019Y039251D01*
X018046Y039349D02*
X014698Y039349D01*
X014698Y039448D02*
X018074Y039448D01*
X018131Y039546D02*
X014679Y039546D01*
X014698Y038955D02*
X018000Y038955D01*
X018012Y038857D02*
X014772Y038857D01*
X014870Y038758D02*
X018038Y038758D01*
X018065Y038660D02*
X014969Y038660D01*
X015108Y038561D02*
X018115Y038561D01*
X018172Y038463D02*
X015178Y038463D01*
X015209Y038364D02*
X018245Y038364D01*
X018343Y038266D02*
X015209Y038266D01*
X015171Y038167D02*
X018471Y038167D01*
X018645Y038069D02*
X015090Y038069D01*
X015784Y036591D02*
X014366Y036591D01*
X014464Y036493D02*
X015657Y036493D01*
X015530Y036394D02*
X014559Y036394D01*
X014559Y036296D02*
X015502Y036296D01*
X015502Y036197D02*
X014559Y036197D01*
X014559Y036099D02*
X015502Y036099D01*
X015502Y036000D02*
X014559Y036000D01*
X014559Y035902D02*
X015502Y035902D01*
X015502Y035803D02*
X014559Y035803D01*
X014559Y035705D02*
X015502Y035705D01*
X015502Y035606D02*
X014559Y035606D01*
X014559Y035508D02*
X015502Y035508D01*
X015502Y035409D02*
X014559Y035409D01*
X014559Y035311D02*
X015502Y035311D01*
X015502Y035212D02*
X014559Y035212D01*
X014559Y035114D02*
X015217Y035114D01*
X015104Y035015D02*
X014559Y035015D01*
X014559Y034917D02*
X015060Y034917D01*
X015049Y034818D02*
X014559Y034818D01*
X014529Y034720D02*
X015020Y034720D01*
X014922Y034621D02*
X005059Y034621D01*
X005059Y034523D02*
X014823Y034523D01*
X014725Y034424D02*
X005059Y034424D01*
X005059Y034326D02*
X014626Y034326D01*
X014528Y034227D02*
X005037Y034227D01*
X004938Y034129D02*
X014429Y034129D01*
X014331Y034030D02*
X004840Y034030D01*
X004741Y033932D02*
X014232Y033932D01*
X014559Y033735D02*
X015206Y033735D01*
X015205Y033833D02*
X014643Y033833D01*
X014741Y033932D02*
X015207Y033932D01*
X015272Y034030D02*
X014840Y034030D01*
X014938Y034129D02*
X015377Y034129D01*
X015482Y034227D02*
X015037Y034227D01*
X015135Y034326D02*
X015587Y034326D01*
X015691Y034424D02*
X015234Y034424D01*
X015514Y034523D02*
X015796Y034523D01*
X015901Y034621D02*
X015643Y034621D01*
X015693Y034720D02*
X015957Y034720D01*
X015957Y034818D02*
X015709Y034818D01*
X015766Y034917D02*
X015957Y034917D01*
X015957Y035015D02*
X015862Y035015D01*
X015864Y035114D02*
X015957Y035114D01*
X015957Y035212D02*
X015862Y035212D01*
X015862Y035311D02*
X015957Y035311D01*
X015957Y035409D02*
X015862Y035409D01*
X015862Y035508D02*
X015957Y035508D01*
X015973Y035606D02*
X015862Y035606D01*
X015862Y035705D02*
X017786Y035705D01*
X017786Y035803D02*
X015862Y035803D01*
X015862Y035902D02*
X017800Y035902D01*
X017786Y035887D02*
X017862Y035963D01*
X019470Y035963D01*
X019546Y035887D01*
X019546Y034280D01*
X019470Y034203D01*
X019122Y034203D01*
X019186Y033745D01*
X019194Y033737D01*
X019250Y033601D01*
X019250Y033455D01*
X019194Y033320D01*
X019091Y033217D01*
X018956Y033161D01*
X018810Y033161D01*
X018675Y033217D01*
X018571Y033320D01*
X018515Y033455D01*
X018515Y033601D01*
X018533Y033645D01*
X018455Y034203D01*
X017862Y034203D01*
X017786Y034280D01*
X017786Y035887D01*
X017786Y034818D02*
X017399Y034818D01*
X017399Y034720D02*
X017786Y034720D01*
X017786Y034621D02*
X017399Y034621D01*
X017399Y034523D02*
X017786Y034523D01*
X017786Y034424D02*
X017399Y034424D01*
X017399Y034326D02*
X017786Y034326D01*
X017839Y034227D02*
X017324Y034227D01*
X016703Y033383D02*
X016627Y033307D01*
X016627Y033114D01*
X016608Y033114D01*
X016587Y033135D01*
X016452Y033191D01*
X016306Y033191D01*
X016171Y033135D01*
X016067Y033032D01*
X016011Y032897D01*
X016011Y032751D01*
X016067Y032615D01*
X016171Y032512D01*
X016306Y032456D01*
X016452Y032456D01*
X016587Y032512D01*
X016608Y032534D01*
X016627Y032534D01*
X016627Y032097D01*
X016703Y032020D01*
X018307Y032020D01*
X018383Y032097D01*
X018383Y033307D01*
X018307Y033383D01*
X016703Y033383D01*
X016661Y033341D02*
X015565Y033341D01*
X015566Y033439D02*
X018522Y033439D01*
X018515Y033538D02*
X015566Y033538D01*
X015566Y033636D02*
X018530Y033636D01*
X018521Y033735D02*
X015566Y033735D01*
X015588Y033833D02*
X018507Y033833D01*
X018493Y033932D02*
X015693Y033932D01*
X015798Y034030D02*
X018480Y034030D01*
X018466Y034129D02*
X015903Y034129D01*
X016007Y034227D02*
X016032Y034227D01*
X015565Y033242D02*
X016627Y033242D01*
X016627Y033144D02*
X016566Y033144D01*
X016191Y033144D02*
X015565Y033144D01*
X015565Y033045D02*
X016081Y033045D01*
X016032Y032947D02*
X015564Y032947D01*
X015564Y032848D02*
X016011Y032848D01*
X016012Y032750D02*
X015564Y032750D01*
X015564Y032651D02*
X016052Y032651D01*
X016130Y032553D02*
X015563Y032553D01*
X015563Y032454D02*
X016627Y032454D01*
X016627Y032356D02*
X015563Y032356D01*
X015563Y032257D02*
X016627Y032257D01*
X016627Y032159D02*
X015563Y032159D01*
X015562Y032060D02*
X016663Y032060D01*
X017379Y032824D02*
X017505Y032702D01*
X018383Y032750D02*
X019863Y032750D01*
X019857Y032848D02*
X018383Y032848D01*
X018383Y032947D02*
X019851Y032947D01*
X019845Y033045D02*
X018383Y033045D01*
X018383Y033144D02*
X019839Y033144D01*
X019833Y033242D02*
X019116Y033242D01*
X019203Y033341D02*
X019827Y033341D01*
X019821Y033439D02*
X019243Y033439D01*
X019250Y033538D02*
X019815Y033538D01*
X019809Y033636D02*
X019236Y033636D01*
X019195Y033735D02*
X019803Y033735D01*
X019797Y033833D02*
X019173Y033833D01*
X019160Y033932D02*
X019790Y033932D01*
X019784Y034030D02*
X019146Y034030D01*
X019132Y034129D02*
X019778Y034129D01*
X019772Y034227D02*
X019494Y034227D01*
X019546Y034326D02*
X019766Y034326D01*
X019760Y034424D02*
X019546Y034424D01*
X019546Y034523D02*
X019754Y034523D01*
X019748Y034621D02*
X019546Y034621D01*
X019546Y034720D02*
X019742Y034720D01*
X019736Y034818D02*
X019546Y034818D01*
X019546Y034917D02*
X019730Y034917D01*
X019724Y035015D02*
X019546Y035015D01*
X019546Y035114D02*
X019718Y035114D01*
X019712Y035212D02*
X019546Y035212D01*
X019546Y035311D02*
X019706Y035311D01*
X019700Y035409D02*
X019546Y035409D01*
X019546Y035508D02*
X019693Y035508D01*
X019687Y035606D02*
X019546Y035606D01*
X019546Y035705D02*
X019681Y035705D01*
X019675Y035803D02*
X019546Y035803D01*
X019532Y035902D02*
X019669Y035902D01*
X019663Y036000D02*
X015862Y036000D01*
X015862Y036099D02*
X019657Y036099D01*
X019651Y036197D02*
X015863Y036197D01*
X015912Y036690D02*
X014267Y036690D01*
X014271Y036788D02*
X015957Y036788D01*
X015957Y036887D02*
X014284Y036887D01*
X014284Y036985D02*
X015957Y036985D01*
X015957Y037084D02*
X014253Y037084D01*
X014212Y037182D02*
X015957Y037182D01*
X015957Y037281D02*
X014116Y037281D01*
X013936Y037379D02*
X015957Y037379D01*
X014379Y036324D02*
X014379Y034824D01*
X011379Y034824D01*
X009879Y036324D01*
X009879Y039324D01*
X010379Y039824D01*
X010430Y040119D01*
X010724Y040433D02*
X011136Y040433D01*
X011234Y040531D02*
X010626Y040531D01*
X010823Y040334D02*
X011037Y040334D01*
X011000Y040236D02*
X010860Y040236D01*
X010860Y040137D02*
X011000Y040137D01*
X011000Y040039D02*
X010860Y040039D01*
X010859Y039940D02*
X011001Y039940D01*
X011099Y039842D02*
X010761Y039842D01*
X010662Y039743D02*
X011044Y039743D01*
X010945Y039645D02*
X010454Y039645D01*
X010611Y039546D02*
X010847Y039546D01*
X010748Y039448D02*
X010709Y039448D01*
X010879Y039324D02*
X010879Y035824D01*
X011379Y035324D01*
X013879Y035324D01*
X013879Y035824D01*
X013804Y035930D01*
X014117Y036296D02*
X014152Y036296D01*
X014054Y036394D02*
X013937Y036394D01*
X013879Y036824D02*
X013804Y036914D01*
X013879Y036824D02*
X014379Y036324D01*
X013721Y038561D02*
X013509Y038561D01*
X013580Y038660D02*
X013650Y038660D01*
X013650Y038758D02*
X013580Y038758D01*
X013580Y038857D02*
X013650Y038857D01*
X013650Y038955D02*
X013580Y038955D01*
X013580Y039054D02*
X013650Y039054D01*
X013650Y039152D02*
X013580Y039152D01*
X013580Y039251D02*
X013650Y039251D01*
X013650Y039349D02*
X013580Y039349D01*
X013580Y039448D02*
X013650Y039448D01*
X013669Y039546D02*
X013561Y039546D01*
X013573Y039743D02*
X018272Y039743D01*
X018188Y039645D02*
X011454Y039645D01*
X011611Y039546D02*
X012551Y039546D01*
X012532Y039448D02*
X011709Y039448D01*
X011662Y039743D02*
X012539Y039743D01*
X012532Y039842D02*
X011761Y039842D01*
X011859Y039940D02*
X012532Y039940D01*
X012532Y040039D02*
X011860Y040039D01*
X011860Y040137D02*
X012532Y040137D01*
X012532Y040236D02*
X011860Y040236D01*
X011823Y040334D02*
X012532Y040334D01*
X012532Y040433D02*
X011724Y040433D01*
X011626Y040531D02*
X012532Y040531D01*
X012532Y040630D02*
X009249Y040630D01*
X009249Y040531D02*
X010234Y040531D01*
X010136Y040433D02*
X009249Y040433D01*
X009249Y040334D02*
X010037Y040334D01*
X010000Y040236D02*
X009633Y040236D01*
X009715Y040137D02*
X010000Y040137D01*
X010000Y040039D02*
X009747Y040039D01*
X009747Y039940D02*
X010001Y039940D01*
X010099Y039842D02*
X009747Y039842D01*
X009747Y039743D02*
X010044Y039743D01*
X009945Y039645D02*
X009747Y039645D01*
X009747Y039546D02*
X009847Y039546D01*
X009748Y039448D02*
X009747Y039448D01*
X009167Y039645D02*
X002570Y039645D01*
X002627Y039546D02*
X007102Y039546D01*
X007083Y039448D02*
X002684Y039448D01*
X002712Y039349D02*
X007083Y039349D01*
X007083Y039251D02*
X002738Y039251D01*
X002758Y039152D02*
X007083Y039152D01*
X007083Y039054D02*
X002758Y039054D01*
X002486Y039743D02*
X008208Y039743D01*
X008201Y039842D02*
X002387Y039842D01*
X002240Y039940D02*
X008201Y039940D01*
X008201Y040039D02*
X002011Y040039D01*
X001737Y040531D02*
X008201Y040531D01*
X008201Y040433D02*
X001598Y040433D01*
X001499Y040334D02*
X008201Y040334D01*
X008201Y040236D02*
X001439Y040236D01*
X001389Y040137D02*
X008201Y040137D01*
X008221Y039546D02*
X008112Y039546D01*
X008131Y039448D02*
X008201Y039448D01*
X008201Y039349D02*
X008131Y039349D01*
X008131Y039251D02*
X008201Y039251D01*
X008201Y039152D02*
X008131Y039152D01*
X008131Y039054D02*
X008201Y039054D01*
X008201Y038955D02*
X008131Y038955D01*
X008131Y038857D02*
X008201Y038857D01*
X008201Y038758D02*
X008131Y038758D01*
X008131Y038660D02*
X008201Y038660D01*
X008272Y038561D02*
X008060Y038561D01*
X008435Y038463D02*
X007669Y038463D01*
X007669Y038364D02*
X008435Y038364D01*
X008435Y038266D02*
X007660Y038266D01*
X007613Y038167D02*
X008435Y038167D01*
X008418Y038069D02*
X007514Y038069D01*
X007416Y037970D02*
X008377Y037970D01*
X008377Y037872D02*
X007317Y037872D01*
X007246Y037773D02*
X008399Y037773D01*
X008449Y037675D02*
X007215Y037675D01*
X007151Y037576D02*
X008563Y037576D01*
X008927Y037576D02*
X009167Y037576D01*
X009167Y037478D02*
X007004Y037478D01*
X006754Y037478D02*
X004761Y037478D01*
X004761Y037576D02*
X006607Y037576D01*
X006046Y037084D02*
X009167Y037084D01*
X009167Y037182D02*
X004761Y037182D01*
X004761Y037084D02*
X005633Y037084D01*
X005839Y036824D02*
X004379Y036824D01*
X004040Y036954D01*
X004761Y037281D02*
X009167Y037281D01*
X009167Y037379D02*
X004761Y037379D01*
X004761Y036591D02*
X005605Y036591D01*
X005055Y035902D02*
X009112Y035902D01*
X009090Y035803D02*
X005059Y035803D01*
X005059Y035705D02*
X009090Y035705D01*
X009130Y035606D02*
X005059Y035606D01*
X005059Y035508D02*
X009207Y035508D01*
X009384Y035409D02*
X009531Y035409D01*
X009708Y035508D02*
X010440Y035508D01*
X010342Y035606D02*
X009785Y035606D01*
X009825Y035705D02*
X010243Y035705D01*
X010145Y035803D02*
X009825Y035803D01*
X009803Y035902D02*
X010046Y035902D01*
X009948Y036000D02*
X009753Y036000D01*
X009747Y036099D02*
X009849Y036099D01*
X009751Y036197D02*
X009747Y036197D01*
X009167Y036296D02*
X004747Y036296D01*
X004761Y036394D02*
X009167Y036394D01*
X009167Y036493D02*
X004761Y036493D01*
X004957Y036000D02*
X009162Y036000D01*
X009167Y036591D02*
X006074Y036591D01*
X006141Y036690D02*
X009167Y036690D01*
X009167Y036788D02*
X006169Y036788D01*
X006169Y036887D02*
X009167Y036887D01*
X009167Y036985D02*
X006130Y036985D01*
X005059Y035212D02*
X010736Y035212D01*
X010834Y035114D02*
X005059Y035114D01*
X005059Y035015D02*
X010933Y035015D01*
X011031Y034917D02*
X005059Y034917D01*
X005059Y034818D02*
X011130Y034818D01*
X011228Y034720D02*
X005059Y034720D01*
X005064Y033292D02*
X005379Y033324D01*
X004879Y032324D02*
X005064Y032190D01*
X004671Y031666D02*
X014199Y031666D01*
X014199Y031568D02*
X004589Y031568D01*
X004379Y031824D02*
X003379Y031824D01*
X003331Y031717D01*
X003664Y031075D02*
X001779Y031075D01*
X001779Y030977D02*
X003585Y030977D01*
X003549Y030878D02*
X001779Y030878D01*
X001779Y030780D02*
X003549Y030780D01*
X003497Y030681D02*
X001779Y030681D01*
X001779Y030583D02*
X003399Y030583D01*
X003300Y030484D02*
X001779Y030484D01*
X001779Y030386D02*
X003202Y030386D01*
X003103Y030287D02*
X001779Y030287D01*
X001779Y030189D02*
X003005Y030189D01*
X002915Y030090D02*
X001779Y030090D01*
X001779Y029992D02*
X002915Y029992D01*
X002915Y029893D02*
X001779Y029893D01*
X001779Y029795D02*
X002915Y029795D01*
X002915Y029696D02*
X001779Y029696D01*
X001779Y029598D02*
X002915Y029598D01*
X002915Y029499D02*
X001779Y029499D01*
X001779Y029401D02*
X002915Y029401D01*
X002915Y029302D02*
X001779Y029302D01*
X001779Y029204D02*
X002915Y029204D01*
X002915Y029105D02*
X001779Y029105D01*
X001779Y029007D02*
X002915Y029007D01*
X002915Y028908D02*
X001779Y028908D01*
X001779Y028810D02*
X002915Y028810D01*
X002915Y028711D02*
X001779Y028711D01*
X001779Y028613D02*
X002915Y028613D01*
X002915Y028514D02*
X001779Y028514D01*
X001779Y028416D02*
X002915Y028416D01*
X002915Y028317D02*
X001779Y028317D01*
X001779Y028219D02*
X002915Y028219D01*
X002915Y028120D02*
X001779Y028120D01*
X001779Y028022D02*
X002915Y028022D01*
X002915Y027923D02*
X001779Y027923D01*
X001779Y027825D02*
X002915Y027825D01*
X002915Y027726D02*
X001779Y027726D01*
X001779Y027628D02*
X002915Y027628D01*
X002915Y027529D02*
X001779Y027529D01*
X001779Y027431D02*
X002915Y027431D01*
X002915Y027332D02*
X001779Y027332D01*
X001779Y027234D02*
X002915Y027234D01*
X002915Y027135D02*
X001779Y027135D01*
X001779Y027037D02*
X002915Y027037D01*
X002915Y026938D02*
X001779Y026938D01*
X001779Y026840D02*
X002915Y026840D01*
X002915Y026741D02*
X001779Y026741D01*
X001779Y026643D02*
X002915Y026643D01*
X002935Y026544D02*
X001779Y026544D01*
X001779Y026446D02*
X003034Y026446D01*
X003132Y026347D02*
X001779Y026347D01*
X001779Y026249D02*
X003231Y026249D01*
X003329Y026150D02*
X001779Y026150D01*
X001779Y026052D02*
X002628Y026052D01*
X002520Y025953D02*
X001779Y025953D01*
X001599Y025733D02*
X002820Y025733D01*
X003067Y025461D02*
X003699Y025461D01*
X003699Y025559D02*
X003145Y025559D01*
X003186Y025658D02*
X003699Y025658D01*
X003699Y025756D02*
X003187Y025756D01*
X003167Y025855D02*
X003625Y025855D01*
X003526Y025953D02*
X003119Y025953D01*
X003011Y026052D02*
X003428Y026052D01*
X003641Y026347D02*
X004013Y026347D01*
X003821Y026446D02*
X003543Y026446D01*
X003444Y026544D02*
X003687Y026544D01*
X003588Y026643D02*
X003346Y026643D01*
X003275Y026741D02*
X003512Y026741D01*
X003455Y026840D02*
X003275Y026840D01*
X003275Y026938D02*
X003402Y026938D01*
X003375Y027037D02*
X003275Y027037D01*
X003275Y027135D02*
X003349Y027135D01*
X003334Y027234D02*
X003275Y027234D01*
X003275Y027332D02*
X003334Y027332D01*
X003334Y027431D02*
X003275Y027431D01*
X003275Y027529D02*
X003352Y027529D01*
X003378Y027628D02*
X003275Y027628D01*
X003275Y027726D02*
X003404Y027726D01*
X003460Y027825D02*
X003275Y027825D01*
X003275Y027923D02*
X003517Y027923D01*
X003597Y028022D02*
X003275Y028022D01*
X003275Y028120D02*
X003696Y028120D01*
X003837Y028219D02*
X003275Y028219D01*
X003275Y028317D02*
X004048Y028317D01*
X004264Y028613D02*
X003275Y028613D01*
X003275Y028711D02*
X004264Y028711D01*
X004264Y028810D02*
X003275Y028810D01*
X003275Y028908D02*
X004264Y028908D01*
X004264Y029007D02*
X003275Y029007D01*
X003275Y029105D02*
X004264Y029105D01*
X004264Y029204D02*
X003275Y029204D01*
X003275Y029302D02*
X004264Y029302D01*
X004264Y029401D02*
X003275Y029401D01*
X003275Y029499D02*
X004264Y029499D01*
X004264Y029598D02*
X003275Y029598D01*
X003275Y029696D02*
X004264Y029696D01*
X004264Y029795D02*
X003275Y029795D01*
X003275Y029893D02*
X004276Y029893D01*
X004104Y030583D02*
X014199Y030583D01*
X014199Y030681D02*
X004177Y030681D01*
X004209Y030780D02*
X014199Y030780D01*
X014199Y030878D02*
X004209Y030878D01*
X004173Y030977D02*
X014199Y030977D01*
X014199Y031075D02*
X004094Y031075D01*
X004052Y031371D02*
X014199Y031371D01*
X014199Y031469D02*
X004052Y031469D01*
X004052Y031568D02*
X004168Y031568D01*
X004379Y032324D02*
X001879Y032324D01*
X001879Y031824D01*
X001599Y031717D01*
X001599Y025733D01*
X001419Y025756D02*
X000644Y025756D01*
X000644Y025658D02*
X001420Y025658D01*
X001519Y025559D02*
X000644Y025559D01*
X000644Y025461D02*
X001770Y025461D01*
X001614Y025362D02*
X000644Y025362D01*
X000644Y025264D02*
X001458Y025264D01*
X001419Y025855D02*
X000644Y025855D01*
X000644Y025953D02*
X001419Y025953D01*
X001419Y026052D02*
X000644Y026052D01*
X000644Y026150D02*
X001419Y026150D01*
X001419Y026249D02*
X000644Y026249D01*
X000644Y026347D02*
X001419Y026347D01*
X001419Y026446D02*
X000644Y026446D01*
X000644Y026544D02*
X001419Y026544D01*
X001419Y026643D02*
X000644Y026643D01*
X000644Y026741D02*
X001419Y026741D01*
X001419Y026840D02*
X000644Y026840D01*
X000644Y026938D02*
X001419Y026938D01*
X001419Y027037D02*
X000644Y027037D01*
X000644Y027135D02*
X001419Y027135D01*
X001419Y027234D02*
X000644Y027234D01*
X000644Y027332D02*
X001419Y027332D01*
X001419Y027431D02*
X000644Y027431D01*
X000644Y027529D02*
X001419Y027529D01*
X001419Y027628D02*
X000644Y027628D01*
X000644Y027726D02*
X001419Y027726D01*
X001419Y027825D02*
X000644Y027825D01*
X000644Y027923D02*
X001419Y027923D01*
X001419Y028022D02*
X000644Y028022D01*
X000644Y028120D02*
X001419Y028120D01*
X001419Y028219D02*
X000644Y028219D01*
X000644Y028317D02*
X001419Y028317D01*
X001419Y028416D02*
X000644Y028416D01*
X000644Y028514D02*
X001419Y028514D01*
X001419Y028613D02*
X000644Y028613D01*
X000646Y028711D02*
X001419Y028711D01*
X001419Y028810D02*
X000652Y028810D01*
X000658Y028908D02*
X001419Y028908D01*
X001419Y029007D02*
X000664Y029007D01*
X000670Y029105D02*
X001419Y029105D01*
X001419Y029204D02*
X000676Y029204D01*
X000682Y029302D02*
X001419Y029302D01*
X001419Y029401D02*
X000688Y029401D01*
X000694Y029499D02*
X001419Y029499D01*
X001419Y029598D02*
X000700Y029598D01*
X000706Y029696D02*
X001419Y029696D01*
X001419Y029795D02*
X000712Y029795D01*
X000718Y029893D02*
X001419Y029893D01*
X001419Y029992D02*
X000724Y029992D01*
X000731Y030090D02*
X001419Y030090D01*
X001419Y030189D02*
X000737Y030189D01*
X000743Y030287D02*
X001419Y030287D01*
X001419Y030386D02*
X000749Y030386D01*
X000755Y030484D02*
X001419Y030484D01*
X001419Y030583D02*
X000761Y030583D01*
X000767Y030681D02*
X001419Y030681D01*
X001419Y030780D02*
X000773Y030780D01*
X000779Y030878D02*
X001419Y030878D01*
X001419Y030977D02*
X000785Y030977D01*
X000791Y031075D02*
X001419Y031075D01*
X001599Y031717D02*
X001379Y031824D01*
X000879Y031863D02*
X000840Y031863D01*
X000834Y031765D02*
X000879Y031765D01*
X000879Y031666D02*
X000828Y031666D01*
X000822Y031568D02*
X000879Y031568D01*
X000879Y031469D02*
X000815Y031469D01*
X000809Y031371D02*
X000879Y031371D01*
X000846Y031962D02*
X000879Y031962D01*
X000879Y032060D02*
X000852Y032060D01*
X000858Y032159D02*
X000951Y032159D01*
X000864Y032257D02*
X001699Y032257D01*
X001699Y032356D02*
X000870Y032356D01*
X000876Y032454D02*
X001755Y032454D01*
X002320Y032060D02*
X002611Y032060D01*
X002611Y031962D02*
X002320Y031962D01*
X002320Y031863D02*
X002611Y031863D01*
X002611Y031765D02*
X002320Y031765D01*
X002320Y031666D02*
X002611Y031666D01*
X002611Y031568D02*
X002320Y031568D01*
X002320Y031469D02*
X002611Y031469D01*
X002611Y031371D02*
X002320Y031371D01*
X003095Y030024D02*
X003883Y030812D01*
X003883Y030820D01*
X003879Y030824D01*
X003810Y030484D02*
X014199Y030484D01*
X014199Y030386D02*
X003711Y030386D01*
X003613Y030287D02*
X014199Y030287D01*
X014199Y030189D02*
X003514Y030189D01*
X003416Y030090D02*
X014199Y030090D01*
X014199Y029992D02*
X003317Y029992D01*
X003095Y030024D02*
X003095Y026639D01*
X003879Y025855D01*
X003879Y024324D01*
X003607Y024198D01*
X003699Y024968D02*
X002440Y024968D01*
X002440Y024870D02*
X002914Y024870D01*
X002887Y024771D02*
X002440Y024771D01*
X002440Y024673D02*
X002887Y024673D01*
X002887Y024574D02*
X002440Y024574D01*
X002440Y024476D02*
X002887Y024476D01*
X002887Y024377D02*
X002440Y024377D01*
X002440Y024279D02*
X002887Y024279D01*
X002887Y024180D02*
X002440Y024180D01*
X002440Y024082D02*
X002887Y024082D01*
X002887Y023983D02*
X002474Y023983D01*
X002572Y023885D02*
X002887Y023885D01*
X002887Y023786D02*
X002671Y023786D01*
X002769Y023688D02*
X002887Y023688D01*
X002887Y023589D02*
X002868Y023589D01*
X002879Y023324D02*
X006379Y023324D01*
X006466Y023491D02*
X006510Y023491D01*
X006556Y023589D02*
X004328Y023589D01*
X004328Y023688D02*
X006654Y023688D01*
X006721Y023885D02*
X004328Y023885D01*
X004328Y023983D02*
X006599Y023983D01*
X006528Y024082D02*
X004328Y024082D01*
X004328Y024180D02*
X006487Y024180D01*
X006474Y024279D02*
X004328Y024279D01*
X004328Y024377D02*
X006474Y024377D01*
X006503Y024476D02*
X004328Y024476D01*
X004328Y024574D02*
X006544Y024574D01*
X006639Y024673D02*
X004328Y024673D01*
X004328Y024771D02*
X006818Y024771D01*
X006757Y024870D02*
X004300Y024870D01*
X004059Y024968D02*
X006614Y024968D01*
X006534Y025067D02*
X004059Y025067D01*
X004059Y025165D02*
X006493Y025165D01*
X006474Y025264D02*
X004059Y025264D01*
X004059Y025362D02*
X006474Y025362D01*
X006497Y025461D02*
X004059Y025461D01*
X004059Y025559D02*
X006538Y025559D01*
X006624Y025658D02*
X004059Y025658D01*
X004059Y025756D02*
X006781Y025756D01*
X006793Y025855D02*
X004059Y025855D01*
X004035Y025953D02*
X006629Y025953D01*
X006540Y026052D02*
X003937Y026052D01*
X003838Y026150D02*
X006499Y026150D01*
X006474Y026249D02*
X003740Y026249D01*
X003699Y025362D02*
X002850Y025362D01*
X002694Y025264D02*
X003699Y025264D01*
X003699Y025165D02*
X002538Y025165D01*
X002440Y025067D02*
X003699Y025067D01*
X004328Y023786D02*
X006854Y023786D01*
X006569Y022013D02*
X006559Y022013D01*
X006559Y021915D02*
X006668Y021915D01*
X006611Y019846D02*
X007529Y019846D01*
X007627Y019748D02*
X006709Y019748D01*
X005568Y019040D02*
X005379Y018824D01*
X004863Y018861D02*
X004149Y018861D01*
X004189Y018763D02*
X004863Y018763D01*
X004863Y018664D02*
X004189Y018664D01*
X004162Y018566D02*
X004412Y018566D01*
X004314Y018467D02*
X004095Y018467D01*
X003859Y018698D02*
X003879Y021824D01*
X003607Y022308D01*
X002932Y022998D02*
X002424Y022998D01*
X002460Y022900D02*
X002887Y022900D01*
X002887Y022801D02*
X002460Y022801D01*
X002460Y022703D02*
X002887Y022703D01*
X002887Y022604D02*
X002460Y022604D01*
X002460Y022506D02*
X002887Y022506D01*
X002887Y022407D02*
X002460Y022407D01*
X002460Y022309D02*
X002887Y022309D01*
X002887Y022210D02*
X002460Y022210D01*
X002753Y023195D02*
X000644Y023195D01*
X000644Y023294D02*
X002654Y023294D01*
X002556Y023392D02*
X000644Y023392D01*
X000644Y023491D02*
X000740Y023491D01*
X000680Y023589D02*
X000644Y023589D01*
X000644Y023688D02*
X000680Y023688D01*
X000680Y023786D02*
X000644Y023786D01*
X000644Y023885D02*
X000680Y023885D01*
X000680Y023983D02*
X000644Y023983D01*
X000644Y024082D02*
X000680Y024082D01*
X000680Y024180D02*
X000644Y024180D01*
X000644Y024279D02*
X000680Y024279D01*
X000680Y024377D02*
X000644Y024377D01*
X000644Y024476D02*
X000680Y024476D01*
X000680Y024574D02*
X000644Y024574D01*
X000644Y024673D02*
X000680Y024673D01*
X000680Y024771D02*
X000644Y024771D01*
X000644Y024870D02*
X000680Y024870D01*
X000680Y024968D02*
X000644Y024968D01*
X000644Y025067D02*
X000680Y025067D01*
X000686Y025165D02*
X000644Y025165D01*
X001379Y024824D02*
X001560Y024355D01*
X001879Y024324D01*
X002879Y023324D01*
X002457Y023491D02*
X002379Y023491D01*
X001610Y022998D02*
X001510Y022998D01*
X001510Y022900D02*
X001610Y022900D01*
X001610Y022801D02*
X001510Y022801D01*
X001510Y022703D02*
X001610Y022703D01*
X001610Y022604D02*
X001510Y022604D01*
X001510Y022506D02*
X001610Y022506D01*
X001610Y022407D02*
X001510Y022407D01*
X001510Y022309D02*
X001610Y022309D01*
X001610Y022210D02*
X001510Y022210D01*
X001510Y021915D02*
X001610Y021915D01*
X001610Y021816D02*
X001510Y021816D01*
X001510Y021718D02*
X001610Y021718D01*
X001610Y021619D02*
X001510Y021619D01*
X001510Y021521D02*
X001610Y021521D01*
X001610Y021422D02*
X001510Y021422D01*
X001510Y021324D02*
X001610Y021324D01*
X002132Y020043D02*
X000644Y020043D01*
X000644Y019945D02*
X002072Y019945D01*
X001995Y019846D02*
X000644Y019846D01*
X000644Y019748D02*
X001897Y019748D01*
X001879Y019324D02*
X001410Y019040D01*
X000705Y019058D02*
X000644Y019058D01*
X000644Y018960D02*
X000705Y018960D01*
X000705Y018861D02*
X000644Y018861D01*
X000644Y018763D02*
X000705Y018763D01*
X000705Y018664D02*
X000644Y018664D01*
X000644Y018566D02*
X000705Y018566D01*
X000705Y018467D02*
X000644Y018467D01*
X000644Y018369D02*
X000774Y018369D01*
X000705Y019157D02*
X000644Y019157D01*
X000644Y019255D02*
X000705Y019255D01*
X000705Y019354D02*
X000644Y019354D01*
X000644Y019452D02*
X000705Y019452D01*
X000705Y019551D02*
X000644Y019551D01*
X000644Y019649D02*
X000711Y019649D01*
X000681Y021324D02*
X000644Y021324D01*
X000644Y021422D02*
X000660Y021422D01*
X000660Y021521D02*
X000644Y021521D01*
X000644Y021619D02*
X000660Y021619D01*
X000660Y021718D02*
X000644Y021718D01*
X000644Y021816D02*
X000660Y021816D01*
X000660Y021915D02*
X000644Y021915D01*
X000644Y022013D02*
X000660Y022013D01*
X002379Y019824D02*
X002381Y019822D01*
X004045Y019649D02*
X004869Y019649D01*
X004863Y019551D02*
X004044Y019551D01*
X004044Y019452D02*
X004863Y019452D01*
X004863Y019354D02*
X004043Y019354D01*
X004043Y019255D02*
X004863Y019255D01*
X004863Y019157D02*
X004042Y019157D01*
X004041Y019058D02*
X004863Y019058D01*
X004863Y018960D02*
X004064Y018960D01*
X004778Y018566D02*
X004863Y018566D01*
X004595Y018284D02*
X004879Y017824D01*
X004879Y016587D01*
X005533Y016990D02*
X005680Y016990D01*
X005680Y017088D02*
X005663Y017088D01*
X004013Y016300D02*
X001315Y016300D01*
X001548Y016240D02*
X001548Y016240D01*
X001629Y016202D02*
X003821Y016202D01*
X003687Y016103D02*
X001838Y016103D01*
X002047Y016005D02*
X003588Y016005D01*
X003512Y015906D02*
X002247Y015906D01*
X002382Y015808D02*
X003455Y015808D01*
X003402Y015709D02*
X002517Y015709D01*
X002653Y015611D02*
X003375Y015611D01*
X003349Y015512D02*
X002788Y015512D01*
X002897Y015414D02*
X003334Y015414D01*
X003334Y015315D02*
X002990Y015315D01*
X003082Y015217D02*
X003334Y015217D01*
X003352Y015118D02*
X003174Y015118D01*
X003267Y015020D02*
X003378Y015020D01*
X003359Y014921D02*
X003404Y014921D01*
X003421Y014823D02*
X003460Y014823D01*
X003484Y014724D02*
X003517Y014724D01*
X003546Y014626D02*
X003597Y014626D01*
X003608Y014527D02*
X003696Y014527D01*
X003671Y014429D02*
X003837Y014429D01*
X003733Y014330D02*
X004048Y014330D01*
X004859Y006253D02*
X006463Y006253D01*
X006463Y006155D02*
X005096Y006155D01*
X005254Y006056D02*
X005645Y006056D01*
X005577Y005958D02*
X005352Y005958D01*
X005448Y005859D02*
X005549Y005859D01*
X005549Y005761D02*
X005504Y005761D01*
X005561Y005662D02*
X005588Y005662D01*
X005603Y005564D02*
X005672Y005564D01*
X005699Y005465D02*
X005630Y005465D01*
X005656Y005367D02*
X005699Y005367D01*
X005699Y005268D02*
X005666Y005268D01*
X005666Y005170D02*
X005699Y005170D01*
X005699Y005071D02*
X005666Y005071D01*
X005649Y004973D02*
X005699Y004973D01*
X005675Y004874D02*
X005623Y004874D01*
X005879Y004824D02*
X005879Y005824D01*
X006059Y005367D02*
X008376Y005367D01*
X008376Y005268D02*
X006059Y005268D01*
X006059Y005170D02*
X008376Y005170D01*
X008376Y005071D02*
X006059Y005071D01*
X006059Y004973D02*
X008376Y004973D01*
X008376Y004874D02*
X006796Y004874D01*
X006579Y004874D02*
X006541Y004874D01*
X006541Y004776D02*
X006579Y004776D01*
X006579Y004677D02*
X006541Y004677D01*
X006541Y004579D02*
X006579Y004579D01*
X006579Y004474D02*
X006579Y004105D01*
X006598Y004105D01*
X006610Y004107D01*
X006610Y003815D01*
X006510Y003815D01*
X006510Y004107D01*
X006522Y004105D01*
X006541Y004105D01*
X006541Y004474D01*
X006579Y004474D01*
X006579Y004382D02*
X006541Y004382D01*
X006541Y004283D02*
X006579Y004283D01*
X006579Y004185D02*
X006541Y004185D01*
X006510Y004086D02*
X006610Y004086D01*
X006610Y003988D02*
X006510Y003988D01*
X006510Y003889D02*
X006610Y003889D01*
X006610Y003815D02*
X006903Y003815D01*
X006900Y003803D01*
X006900Y003783D01*
X007269Y003783D01*
X007269Y003746D01*
X006900Y003746D01*
X006900Y003726D01*
X006903Y003715D01*
X006610Y003715D01*
X006610Y003815D01*
X006610Y003791D02*
X006900Y003791D01*
X006610Y003715D02*
X006610Y003422D01*
X006598Y003424D01*
X006579Y003424D01*
X006579Y003055D01*
X006541Y003055D01*
X006541Y003424D01*
X006522Y003424D01*
X006510Y003422D01*
X006510Y003715D01*
X006217Y003715D01*
X006219Y003726D01*
X006219Y003746D01*
X005850Y003746D01*
X005850Y003783D01*
X006219Y003783D01*
X006219Y003803D01*
X006217Y003815D01*
X006510Y003815D01*
X006510Y003715D01*
X006610Y003715D01*
X006610Y003692D02*
X006510Y003692D01*
X006510Y003594D02*
X006610Y003594D01*
X006610Y003495D02*
X006510Y003495D01*
X006541Y003397D02*
X006579Y003397D01*
X006579Y003298D02*
X006541Y003298D01*
X006541Y003200D02*
X006579Y003200D01*
X006579Y003101D02*
X006541Y003101D01*
X006541Y003003D02*
X006579Y003003D01*
X006579Y002904D02*
X006541Y002904D01*
X006541Y002806D02*
X006579Y002806D01*
X006579Y002707D02*
X006541Y002707D01*
X006148Y002707D02*
X005688Y002707D01*
X005709Y002806D02*
X005954Y002806D01*
X005820Y002904D02*
X005703Y002904D01*
X005718Y003003D02*
X005662Y003003D01*
X005638Y003101D02*
X005568Y003101D01*
X005559Y003200D02*
X005575Y003200D01*
X005379Y002824D02*
X005379Y004324D01*
X005879Y004824D01*
X006059Y004874D02*
X006324Y004874D01*
X006219Y003791D02*
X006510Y003791D01*
X007075Y004776D02*
X008376Y004776D01*
X008376Y004677D02*
X007235Y004677D01*
X007350Y004579D02*
X008376Y004579D01*
X008376Y004480D02*
X007440Y004480D01*
X007512Y004382D02*
X008376Y004382D01*
X008376Y004283D02*
X007569Y004283D01*
X007615Y004185D02*
X008376Y004185D01*
X008376Y004086D02*
X007649Y004086D01*
X007672Y003988D02*
X008087Y003988D01*
X007910Y003889D02*
X007687Y003889D01*
X007676Y003791D02*
X007824Y003791D01*
X007783Y003692D02*
X007693Y003692D01*
X007682Y003594D02*
X007768Y003594D01*
X007768Y003495D02*
X007662Y003495D01*
X007633Y003397D02*
X007784Y003397D01*
X007784Y003298D02*
X007594Y003298D01*
X007544Y003200D02*
X007784Y003200D01*
X007784Y003101D02*
X007481Y003101D01*
X007402Y003003D02*
X007784Y003003D01*
X007784Y002904D02*
X007300Y002904D01*
X007166Y002806D02*
X007784Y002806D01*
X007784Y002707D02*
X006972Y002707D01*
X005813Y003746D02*
X005559Y003746D01*
X005559Y003783D01*
X005813Y003783D01*
X005813Y003746D01*
X005199Y004185D02*
X005053Y004185D01*
X008301Y003988D02*
X008460Y003988D01*
X008478Y003889D02*
X008559Y003889D01*
X008563Y003791D02*
X008657Y003791D01*
X008604Y003692D02*
X008753Y003692D01*
X008753Y003594D02*
X008619Y003594D01*
X008619Y003495D02*
X008753Y003495D01*
X008753Y003397D02*
X008604Y003397D01*
X008604Y003298D02*
X008753Y003298D01*
X008753Y003200D02*
X008604Y003200D01*
X008604Y003101D02*
X008753Y003101D01*
X008753Y003003D02*
X008604Y003003D01*
X008604Y002904D02*
X008753Y002904D01*
X008753Y002806D02*
X008604Y002806D01*
X008604Y002707D02*
X008753Y002707D01*
X008753Y002609D02*
X008659Y002609D01*
X008879Y001824D02*
X008883Y001560D01*
X009473Y004828D02*
X009379Y005324D01*
X008376Y005561D02*
X008369Y005564D01*
X008568Y007465D02*
X008879Y007824D01*
X009879Y007824D01*
X010396Y011868D02*
X008836Y011868D01*
X008798Y011966D02*
X010368Y011966D01*
X011879Y012324D02*
X011879Y012351D01*
X012379Y013324D02*
X012524Y013371D01*
X012379Y013324D02*
X012879Y012824D01*
X013879Y012765D01*
X013513Y019255D02*
X013473Y019255D01*
X013464Y019354D02*
X013522Y019354D01*
X013562Y019452D02*
X013423Y019452D01*
X013358Y019551D02*
X013628Y019551D01*
X013734Y019649D02*
X013252Y019649D01*
X013036Y020831D02*
X013549Y020831D01*
X013440Y020930D02*
X013144Y020930D01*
X013210Y021028D02*
X013374Y021028D01*
X013333Y021127D02*
X013251Y021127D01*
X013260Y021225D02*
X013324Y021225D01*
X013324Y021324D02*
X013260Y021324D01*
X013226Y021422D02*
X013358Y021422D01*
X013401Y021521D02*
X013183Y021521D01*
X013085Y021619D02*
X013499Y021619D01*
X013691Y021718D02*
X012893Y021718D01*
X013917Y021718D02*
X014199Y021718D01*
X014199Y021816D02*
X011604Y021816D01*
X011496Y021915D02*
X014199Y021915D01*
X014199Y022013D02*
X011387Y022013D01*
X011279Y022112D02*
X014199Y022112D01*
X014199Y022210D02*
X011170Y022210D01*
X011062Y022309D02*
X014199Y022309D01*
X014199Y022407D02*
X010953Y022407D01*
X010845Y022506D02*
X014199Y022506D01*
X014199Y022604D02*
X010736Y022604D01*
X010628Y022703D02*
X014199Y022703D01*
X014199Y022801D02*
X010519Y022801D01*
X010411Y022900D02*
X014199Y022900D01*
X014199Y022998D02*
X010302Y022998D01*
X010194Y023097D02*
X014199Y023097D01*
X014199Y023195D02*
X010085Y023195D01*
X009977Y023294D02*
X014199Y023294D01*
X014199Y023392D02*
X009868Y023392D01*
X009854Y023491D02*
X014199Y023491D01*
X014199Y023589D02*
X009829Y023589D01*
X009765Y023688D02*
X014199Y023688D01*
X014199Y023786D02*
X009603Y023786D01*
X009446Y023786D02*
X008554Y023786D01*
X008647Y023688D02*
X009284Y023688D01*
X010925Y021718D02*
X011177Y021718D01*
X011116Y021619D02*
X011286Y021619D01*
X011219Y021517D02*
X011292Y021340D01*
X011292Y021157D01*
X011328Y021121D01*
X011316Y021149D01*
X011316Y021340D01*
X011389Y021517D01*
X011393Y021521D01*
X011350Y021422D02*
X011258Y021422D01*
X011292Y021324D02*
X011316Y021324D01*
X011316Y021225D02*
X011292Y021225D01*
X011322Y021127D02*
X011325Y021127D01*
X011109Y020831D02*
X011067Y020831D01*
X011716Y020733D02*
X014199Y020733D01*
X014199Y020831D02*
X014059Y020831D01*
X014167Y020930D02*
X014199Y020930D01*
X014199Y021619D02*
X014109Y021619D01*
X014879Y022847D02*
X014879Y030324D01*
X015180Y030189D02*
X015198Y030189D01*
X015198Y030090D02*
X015112Y030090D01*
X015059Y029992D02*
X015197Y029992D01*
X015197Y029893D02*
X015059Y029893D01*
X015059Y029795D02*
X015197Y029795D01*
X015197Y029696D02*
X015059Y029696D01*
X015059Y029598D02*
X015197Y029598D01*
X015196Y029499D02*
X015059Y029499D01*
X015059Y029401D02*
X015196Y029401D01*
X015196Y029302D02*
X015059Y029302D01*
X015059Y029204D02*
X015196Y029204D01*
X015195Y029105D02*
X015059Y029105D01*
X015059Y029007D02*
X015195Y029007D01*
X015169Y030484D02*
X015199Y030484D01*
X015199Y030583D02*
X015086Y030583D01*
X015199Y030681D02*
X014559Y030681D01*
X014559Y030583D02*
X014671Y030583D01*
X014588Y030484D02*
X014559Y030484D01*
X014559Y030780D02*
X015199Y030780D01*
X015200Y030878D02*
X014559Y030878D01*
X014559Y030977D02*
X015200Y030977D01*
X015200Y031075D02*
X014559Y031075D01*
X014559Y031174D02*
X015200Y031174D01*
X015200Y031272D02*
X014559Y031272D01*
X014559Y031371D02*
X015201Y031371D01*
X015201Y031469D02*
X014559Y031469D01*
X014559Y031568D02*
X015201Y031568D01*
X015201Y031666D02*
X014559Y031666D01*
X014559Y031765D02*
X015202Y031765D01*
X015202Y031863D02*
X014559Y031863D01*
X014559Y031962D02*
X015202Y031962D01*
X015202Y032060D02*
X014559Y032060D01*
X014559Y032159D02*
X015203Y032159D01*
X015203Y032257D02*
X014559Y032257D01*
X014559Y032356D02*
X015203Y032356D01*
X015203Y032454D02*
X014559Y032454D01*
X014559Y032553D02*
X015203Y032553D01*
X015204Y032651D02*
X014559Y032651D01*
X014559Y032750D02*
X015204Y032750D01*
X015204Y032848D02*
X014559Y032848D01*
X014559Y032947D02*
X015204Y032947D01*
X015205Y033045D02*
X014559Y033045D01*
X014559Y033144D02*
X015205Y033144D01*
X015205Y033242D02*
X014559Y033242D01*
X014559Y033341D02*
X015205Y033341D01*
X015206Y033439D02*
X014559Y033439D01*
X014559Y033538D02*
X015206Y033538D01*
X015206Y033636D02*
X014559Y033636D01*
X015562Y031962D02*
X019912Y031962D01*
X019906Y032060D02*
X018346Y032060D01*
X018383Y032159D02*
X019900Y032159D01*
X019894Y032257D02*
X018383Y032257D01*
X018383Y032356D02*
X019887Y032356D01*
X019881Y032454D02*
X018383Y032454D01*
X018383Y032553D02*
X019875Y032553D01*
X019869Y032651D02*
X018383Y032651D01*
X018383Y033242D02*
X018649Y033242D01*
X018563Y033341D02*
X018349Y033341D01*
X018961Y034788D02*
X018666Y035083D01*
X018696Y036296D02*
X018596Y036296D01*
X018596Y036394D02*
X018696Y036394D01*
X018696Y036493D02*
X018596Y036493D01*
X018596Y036591D02*
X018696Y036591D01*
X018696Y036690D02*
X018596Y036690D01*
X018596Y036788D02*
X018696Y036788D01*
X018696Y036887D02*
X018596Y036887D01*
X018596Y036985D02*
X018696Y036985D01*
X018696Y037084D02*
X019596Y037084D01*
X019590Y037182D02*
X019546Y037182D01*
X019546Y037281D02*
X019584Y037281D01*
X019578Y037379D02*
X019546Y037379D01*
X019546Y037478D02*
X019572Y037478D01*
X019566Y037576D02*
X019546Y037576D01*
X019546Y037675D02*
X019560Y037675D01*
X019546Y037773D02*
X019554Y037773D01*
X019546Y037872D02*
X019548Y037872D01*
X019542Y037970D02*
X019499Y037970D01*
X019536Y038069D02*
X019435Y038069D01*
X019546Y036985D02*
X019603Y036985D01*
X019609Y036887D02*
X019546Y036887D01*
X019546Y036788D02*
X019615Y036788D01*
X019621Y036690D02*
X019546Y036690D01*
X019546Y036591D02*
X019627Y036591D01*
X019633Y036493D02*
X019546Y036493D01*
X019546Y036394D02*
X019639Y036394D01*
X019645Y036296D02*
X019532Y036296D01*
X018696Y037182D02*
X018596Y037182D01*
X018596Y037281D02*
X018696Y037281D01*
X018696Y037379D02*
X018596Y037379D01*
X018596Y037478D02*
X018696Y037478D01*
X018696Y037576D02*
X018596Y037576D01*
X018596Y037675D02*
X018696Y037675D01*
X018696Y037773D02*
X018596Y037773D01*
X018596Y037872D02*
X018696Y037872D01*
X018696Y037970D02*
X018596Y037970D01*
X017793Y037970D02*
X011834Y037970D01*
X011791Y037872D02*
X017746Y037872D01*
X017746Y037773D02*
X011692Y037773D01*
X011484Y037281D02*
X011059Y037281D01*
X011059Y037182D02*
X011388Y037182D01*
X011347Y037084D02*
X011059Y037084D01*
X011059Y036985D02*
X011316Y036985D01*
X011316Y036887D02*
X011059Y036887D01*
X011059Y036788D02*
X011329Y036788D01*
X011370Y036690D02*
X011059Y036690D01*
X011059Y036591D02*
X011440Y036591D01*
X011559Y036493D02*
X011059Y036493D01*
X011059Y036394D02*
X011663Y036394D01*
X011483Y036296D02*
X011059Y036296D01*
X011059Y036197D02*
X011387Y036197D01*
X011346Y036099D02*
X011059Y036099D01*
X011059Y036000D02*
X011316Y036000D01*
X011316Y035902D02*
X011059Y035902D01*
X011154Y035803D02*
X011329Y035803D01*
X011370Y035705D02*
X011252Y035705D01*
X011351Y035606D02*
X011441Y035606D01*
X011449Y035508D02*
X011561Y035508D01*
X011067Y038364D02*
X011059Y038364D01*
X011059Y038463D02*
X011166Y038463D01*
X011059Y038561D02*
X012603Y038561D01*
X012532Y038660D02*
X011059Y038660D01*
X011059Y038758D02*
X011183Y038758D01*
X011084Y038857D02*
X011059Y038857D01*
X010879Y039324D02*
X011379Y039824D01*
X011430Y040119D01*
X011677Y038758D02*
X012532Y038758D01*
X013056Y039080D02*
X012879Y039324D01*
X013580Y039842D02*
X013730Y039842D01*
X014027Y039842D02*
X018370Y039842D01*
X018518Y039940D02*
X014161Y039940D01*
X014219Y040039D02*
X018746Y040039D01*
X019031Y040531D02*
X013986Y040531D01*
X014144Y040433D02*
X019169Y040433D01*
X019266Y040334D02*
X014212Y040334D01*
X014246Y040236D02*
X019324Y040236D01*
X019372Y040137D02*
X014246Y040137D01*
X013771Y040531D02*
X013580Y040531D01*
X013580Y040630D02*
X018738Y040630D01*
X019334Y040039D02*
X019400Y040039D01*
X019918Y031863D02*
X015562Y031863D01*
X015562Y031765D02*
X019924Y031765D01*
X019930Y031666D02*
X015561Y031666D01*
X015561Y031568D02*
X019936Y031568D01*
X019942Y031469D02*
X015561Y031469D01*
X015561Y031371D02*
X019948Y031371D01*
X019954Y031272D02*
X015560Y031272D01*
X015560Y031174D02*
X019960Y031174D01*
X019966Y031075D02*
X015560Y031075D01*
X015560Y030977D02*
X019972Y030977D01*
X019978Y030878D02*
X015560Y030878D01*
X015559Y030780D02*
X019984Y030780D01*
X019991Y030681D02*
X015559Y030681D01*
X015559Y030583D02*
X019997Y030583D01*
X020051Y029696D02*
X018383Y029696D01*
X018383Y029598D02*
X020057Y029598D01*
X020063Y029499D02*
X018383Y029499D01*
X018383Y029401D02*
X020069Y029401D01*
X020075Y029302D02*
X018383Y029302D01*
X018383Y029204D02*
X020081Y029204D01*
X019544Y018922D02*
X019379Y018824D01*
X014199Y028022D02*
X007346Y028022D01*
X007395Y028120D02*
X014199Y028120D01*
X014199Y028219D02*
X007434Y028219D01*
X007434Y028317D02*
X014199Y028317D01*
X014199Y028416D02*
X007428Y028416D01*
X007388Y028514D02*
X014199Y028514D01*
X014199Y028613D02*
X007328Y028613D01*
X007229Y028711D02*
X014199Y028711D01*
X009167Y037675D02*
X009041Y037675D01*
X009091Y037773D02*
X009167Y037773D01*
X009167Y037872D02*
X009112Y037872D01*
X009112Y037970D02*
X009167Y037970D01*
X009167Y038069D02*
X009072Y038069D01*
X009015Y038167D02*
X009167Y038167D01*
X009167Y038266D02*
X009015Y038266D01*
X009015Y038364D02*
X009167Y038364D01*
X009167Y038463D02*
X009015Y038463D01*
X008879Y039981D02*
X008725Y040198D01*
X008201Y040630D02*
X002010Y040630D01*
X001423Y040039D02*
X001359Y040039D01*
X001323Y038069D02*
X001222Y038069D01*
X001216Y037970D02*
X001286Y037970D01*
X001231Y037872D02*
X001210Y037872D01*
X001203Y037773D02*
X001231Y037773D01*
X001231Y037675D02*
X001197Y037675D01*
X001191Y037576D02*
X001231Y037576D01*
X001231Y037478D02*
X001185Y037478D01*
X001179Y037379D02*
X001231Y037379D01*
X001231Y037281D02*
X001173Y037281D01*
X001167Y037182D02*
X001231Y037182D01*
X001231Y037084D02*
X001161Y037084D01*
X001155Y036985D02*
X001231Y036985D01*
X001231Y036887D02*
X001149Y036887D01*
X001143Y036788D02*
X001231Y036788D01*
X001231Y036690D02*
X001137Y036690D01*
X001131Y036591D02*
X001231Y036591D01*
X001231Y036493D02*
X001125Y036493D01*
X001119Y036394D02*
X001231Y036394D01*
X001243Y036296D02*
X001113Y036296D01*
X001094Y036000D02*
X001330Y036000D01*
X001219Y035902D02*
X001088Y035902D01*
X001082Y035803D02*
X001211Y035803D01*
X001211Y035705D02*
X001076Y035705D01*
X001070Y035606D02*
X001211Y035606D01*
X001211Y035508D02*
X001064Y035508D01*
X001058Y035409D02*
X001211Y035409D01*
X001211Y035311D02*
X001052Y035311D01*
X002061Y035311D02*
X002161Y035311D01*
X002161Y035409D02*
X002061Y035409D01*
X002061Y035508D02*
X002161Y035508D01*
X002161Y035606D02*
X002061Y035606D01*
X002061Y035705D02*
X002161Y035705D01*
X002161Y035803D02*
X002061Y035803D01*
X002061Y035902D02*
X002161Y035902D01*
X002161Y036000D02*
X002061Y036000D01*
X002061Y035212D02*
X002161Y035212D01*
X002161Y035114D02*
X003320Y035114D01*
X004158Y033636D02*
X004199Y033636D01*
X004199Y033538D02*
X004051Y033538D01*
X004199Y033439D02*
X000937Y033439D01*
X000931Y033341D02*
X004199Y033341D01*
X004199Y033242D02*
X000925Y033242D01*
X000919Y033144D02*
X004199Y033144D01*
X004199Y033045D02*
X000912Y033045D01*
X000906Y032947D02*
X004199Y032947D01*
X004199Y032848D02*
X000900Y032848D01*
X000894Y032750D02*
X004199Y032750D01*
X004199Y032651D02*
X000888Y032651D01*
X000882Y032553D02*
X004199Y032553D01*
X002161Y034227D02*
X002061Y034227D01*
X002061Y034326D02*
X002161Y034326D01*
X002161Y034424D02*
X002061Y034424D01*
X002061Y034523D02*
X002161Y034523D01*
X002161Y034621D02*
X002061Y034621D01*
X002061Y034720D02*
X002161Y034720D01*
X002161Y034818D02*
X002061Y034818D01*
X002061Y034917D02*
X002161Y034917D01*
X002161Y035015D02*
X002061Y035015D01*
X005063Y026544D02*
X006404Y026544D01*
X006491Y026446D02*
X004928Y026446D01*
X004736Y026347D02*
X006474Y026347D01*
X007379Y038824D02*
X007607Y039080D01*
X000663Y006155D02*
X000644Y006155D01*
D32*
X006048Y004276D02*
X006245Y004473D01*
X006560Y004473D01*
X006757Y004276D01*
X007072Y004276D01*
X007072Y003253D02*
X006855Y003036D01*
X006560Y003036D01*
X009879Y009324D02*
X010879Y009324D01*
X015379Y011560D02*
X015398Y011560D01*
X015379Y011560D02*
X015379Y011737D01*
X016402Y012761D01*
X016402Y014080D01*
X016324Y014158D01*
X015851Y014158D01*
X015556Y014454D01*
X015556Y014985D01*
X015320Y015221D01*
X015320Y015891D01*
X016206Y016776D01*
X016580Y016776D01*
X016796Y016993D01*
X016796Y017721D01*
X017564Y016796D02*
X017446Y016678D01*
X018312Y018796D02*
X018331Y018824D01*
X018879Y006824D02*
X018615Y006560D01*
X018253Y006560D01*
X017013Y005320D01*
X017013Y005123D01*
X016796Y004906D01*
X016796Y004631D01*
X016717Y005162D02*
X016284Y005162D01*
X016284Y005143D01*
X016324Y005182D01*
X016324Y005320D01*
X016379Y005324D02*
X016284Y005418D01*
X016284Y005792D01*
X016284Y005930D01*
X016284Y005792D02*
X016304Y005772D01*
X016304Y005182D01*
X016284Y005162D02*
X016040Y005162D01*
X015879Y005324D01*
X016284Y005418D02*
X016284Y005162D01*
X016717Y005162D02*
X016879Y005324D01*
X005379Y017324D02*
X005379Y018824D01*
D33*
X005379Y017324D03*
X008331Y023489D03*
X010320Y015824D03*
X010879Y009324D03*
X017430Y016682D03*
X019906Y020635D03*
X019379Y025961D03*
X016379Y032824D03*
X018883Y033528D03*
X013879Y040178D03*
X009457Y035776D03*
X008745Y037898D03*
X006879Y037824D03*
X005879Y033324D03*
X003143Y038434D03*
X002820Y025733D03*
X002170Y008587D03*
X018292Y008548D03*
X019355Y003961D03*
D34*
X019276Y007229D02*
X018371Y008135D01*
X018371Y008548D01*
X018292Y008548D01*
X015576Y009139D02*
X015576Y007662D01*
X015202Y007288D01*
X011875Y007288D01*
X011481Y007682D01*
X010859Y007682D01*
X010859Y007674D01*
X010406Y007631D01*
X010123Y007387D01*
X009650Y007387D01*
X009434Y007170D01*
X009434Y005438D01*
X009379Y005383D01*
X009379Y005324D01*
X009828Y010064D02*
X010812Y010064D01*
X011107Y010359D01*
X011107Y012209D01*
X011304Y012406D01*
X011379Y012406D01*
X011717Y012406D01*
X011875Y012564D01*
X011875Y014946D01*
X011776Y015044D01*
X011776Y015064D01*
X011875Y014965D01*
X011875Y014946D01*
X011879Y014946D02*
X011879Y014961D01*
X011875Y014965D01*
X011776Y015064D02*
X011127Y015064D01*
X010694Y015103D02*
X010024Y015103D01*
X009745Y014824D01*
X009709Y014788D01*
X010320Y015824D02*
X010320Y015831D01*
X010328Y015824D01*
X010879Y015824D01*
X011087Y016402D02*
X011087Y016481D01*
X011934Y017328D01*
X013607Y017328D01*
X014139Y017859D01*
X014139Y018115D01*
X014906Y018883D01*
X015347Y018883D01*
X015387Y018922D01*
X015438Y018902D02*
X015438Y018883D01*
X015497Y018824D01*
X015499Y018739D02*
X015615Y018855D01*
X015615Y018902D01*
X016796Y017721D01*
X017430Y016682D02*
X017434Y016678D01*
X017446Y016678D01*
X017564Y016796D02*
X017564Y018056D01*
X017855Y018347D01*
X017859Y018343D02*
X018312Y018796D01*
X018331Y018824D02*
X019379Y018824D01*
X015812Y018528D02*
X015438Y018902D01*
X015812Y018528D02*
X015812Y018517D01*
X015812Y018489D01*
X015398Y011560D02*
X015398Y009316D01*
X015576Y009139D01*
X011087Y016402D02*
X010556Y016402D01*
X010379Y016580D01*
X010379Y017702D01*
X009965Y018115D01*
X008253Y018115D01*
X007898Y018469D01*
X007898Y019139D01*
X007938Y019296D01*
X007993Y019237D01*
X007985Y019245D01*
X007977Y019245D01*
X007977Y019217D01*
X007957Y019237D01*
X007957Y019276D01*
X007910Y019324D01*
X007906Y019324D01*
X007993Y019237D01*
X007977Y019253D01*
X007977Y019808D01*
X007682Y020103D01*
X007682Y021481D01*
X008371Y022170D01*
X008371Y023450D01*
X008331Y023489D01*
X007906Y019324D02*
X007879Y019324D01*
X007965Y019237D01*
X007993Y019237D01*
X002387Y019828D02*
X002381Y019822D01*
X001883Y019324D01*
X001879Y019324D01*
X005379Y033324D02*
X005879Y033324D01*
X006855Y037820D02*
X006875Y037820D01*
X006879Y037824D01*
X006855Y037820D02*
X007379Y038343D01*
X007379Y038824D01*
X008725Y039080D02*
X008725Y037918D01*
X008745Y037898D01*
X008879Y039981D02*
X009457Y040001D01*
X009457Y035776D01*
X011430Y039119D02*
X013036Y039119D01*
X013056Y039099D01*
X013056Y039080D01*
X013056Y040198D02*
X013505Y040198D01*
X013879Y040178D01*
X014379Y038824D02*
X014394Y038824D01*
X014887Y038331D01*
X014879Y038324D01*
X016379Y032824D02*
X017379Y032824D01*
X017379Y029324D02*
X016391Y029324D01*
X016385Y029318D01*
X016383Y029316D01*
D35*
X018883Y033528D02*
X018666Y035083D01*
X018879Y022548D02*
X019906Y020989D01*
X019906Y020635D01*
X019076Y005060D02*
X019296Y004828D01*
X019296Y003961D01*
X019355Y003961D01*
X016284Y004414D02*
X016284Y003154D01*
X016225Y003115D01*
X015477Y002465D01*
X013391Y002465D01*
X013331Y002446D01*
X011954Y001560D01*
X002170Y008587D02*
X001540Y008233D01*
X001520Y007229D01*
X001379Y024824D02*
X002820Y025733D01*
D36*
X001520Y005300D02*
X001520Y003784D01*
X002032Y003272D01*
X002957Y002662D01*
X002997Y002623D01*
X004532Y002623D01*
X005005Y002150D01*
X005005Y002131D01*
X005497Y002131D01*
X006048Y002682D01*
X006048Y003253D01*
D37*
X005379Y002824D03*
X005879Y005824D03*
X006643Y005812D03*
X008556Y005843D03*
X010438Y002627D03*
X011312Y007154D03*
X010859Y007674D03*
X011182Y012942D03*
X010379Y014324D03*
X010879Y017107D03*
X011379Y017824D03*
X012379Y017824D03*
X012379Y015324D03*
X013879Y012765D03*
X014879Y017824D03*
X015379Y020324D03*
X014879Y022324D03*
X016379Y019324D03*
X017524Y020005D03*
X018143Y026119D03*
X016379Y029324D03*
X014879Y030324D03*
X015379Y034824D03*
X014879Y038324D03*
X009524Y023461D03*
X004595Y018284D03*
X003859Y018698D03*
X002379Y019824D03*
X004879Y012824D03*
X007576Y011824D03*
X003351Y006343D03*
X015603Y006450D03*
X003879Y030824D03*
X004379Y031824D03*
X003879Y033824D03*
X005839Y036824D03*
D38*
X003143Y038434D02*
X002379Y036824D01*
D39*
X008194Y003572D02*
X008194Y002489D01*
X008879Y001824D01*
D40*
X008194Y003572D03*
M02*
