%
M48
M72
T01C0.0240
T02C0.0276
T03C0.0315
T04C0.0394
T05C0.0400
T06C0.0945
T07C0.1102
T08C0.1181
%
T01
X3351Y6343
X5379Y2824
X5879Y5824
X6643Y5812
X8556Y5843
X10438Y2627
X11312Y7154
X10859Y7674
X11182Y12942
X10379Y14324
X10879Y17107
X11379Y17824
X12379Y17824
X12379Y15324
X13879Y12765
X14879Y17824
X15379Y20324
X14879Y22324
X16379Y19324
X17524Y20005
X18143Y26119
X16379Y29324
X14879Y30324
X15379Y34824
X14879Y38324
X9524Y23461
X4595Y18284
X3859Y18698
X2379Y19824
X4879Y12824
X7576Y11824
X15603Y6450
X3879Y30824
X4379Y31824
X3879Y33824
X5839Y36824
T02
X4552Y5910
X4040Y5694
X3824Y5182
X4040Y4670
X4552Y4454
X5064Y4670
X5280Y5182
X5064Y5694
X5831Y3765
X6048Y4276
X6560Y4493
X7072Y4276
X7288Y3765
X7072Y3253
X6560Y3036
X6048Y3253
X13509Y3765
X13725Y4276
X14237Y4493
X14749Y4276
X14965Y3765
X14749Y3253
X14237Y3036
X13725Y3253
X15556Y5143
X15772Y5654
X15772Y4631
X16284Y4414
X16796Y4631
X17013Y5143
X16796Y5654
X16284Y5871
T03
X18292Y8548
X19355Y3961
X17430Y16682
X19906Y20635
X19379Y25961
X16379Y32824
X18883Y33528
X13804Y35930
X13804Y36914
X12820Y36914
X12820Y35930
X11796Y35930
X11796Y36914
X13879Y40178
X9457Y35776
X8745Y37898
X6879Y37824
X5879Y33324
X6954Y29308
X6954Y28308
X6954Y27308
X6954Y26308
X6954Y25308
X6954Y24308
X6954Y23308
X6954Y22308
X8331Y23489
X8804Y21245
X9788Y21245
X10812Y21245
X11009Y20221
X10993Y19237
X9993Y19237
X8993Y19237
X7993Y19237
X6993Y19237
X5379Y17324
X2820Y25733
X3143Y38434
X11796Y21245
X12009Y20221
X11993Y19237
X12993Y19237
X13993Y19237
X13804Y21245
X12780Y21245
X10320Y15824
X10879Y9324
X2170Y8587
T04
X8194Y3572
T05
X10430Y38119
X10430Y39119
X10430Y40119
X11430Y40119
X11430Y39119
X11430Y38119
T06
X16284Y5143
X14237Y3765
X6560Y3765
X4552Y5182
T07
X2898Y3942
T08
X4375Y10103
X4375Y15320
X4375Y27328
X1717Y39040
X16383Y27328
X19040Y39040
X16383Y15320
X16383Y10103
X17898Y3804
X14257Y1540
X6481Y1560
M30
