G75*
G70*
%OFA0B0*%
%FSLAX24Y24*%
%IPPOS*%
%LPD*%
%AMOC8*
5,1,8,0,0,1.08239X$1,22.5*
%
%ADD10C,0.0000*%
%ADD11C,0.0000*%
D10*
X000603Y001068D02*
X000605Y001116D01*
X000611Y001164D01*
X000621Y001211D01*
X000635Y001257D01*
X000652Y001302D01*
X000673Y001345D01*
X000698Y001387D01*
X000726Y001426D01*
X000757Y001463D01*
X000791Y001497D01*
X000828Y001528D01*
X000867Y001556D01*
X000909Y001581D01*
X000952Y001602D01*
X000997Y001619D01*
X001043Y001633D01*
X001090Y001643D01*
X001138Y001649D01*
X001186Y001651D01*
X001234Y001649D01*
X001282Y001643D01*
X001329Y001633D01*
X001375Y001619D01*
X001420Y001602D01*
X001463Y001581D01*
X001505Y001556D01*
X001544Y001528D01*
X001581Y001497D01*
X001615Y001463D01*
X001646Y001426D01*
X001674Y001387D01*
X001699Y001345D01*
X001720Y001302D01*
X001737Y001257D01*
X001751Y001211D01*
X001761Y001164D01*
X001767Y001116D01*
X001769Y001068D01*
X001767Y001020D01*
X001761Y000972D01*
X001751Y000925D01*
X001737Y000879D01*
X001720Y000834D01*
X001699Y000791D01*
X001674Y000749D01*
X001646Y000710D01*
X001615Y000673D01*
X001581Y000639D01*
X001544Y000608D01*
X001505Y000580D01*
X001463Y000555D01*
X001420Y000534D01*
X001375Y000517D01*
X001329Y000503D01*
X001282Y000493D01*
X001234Y000487D01*
X001186Y000485D01*
X001138Y000487D01*
X001090Y000493D01*
X001043Y000503D01*
X000997Y000517D01*
X000952Y000534D01*
X000909Y000555D01*
X000867Y000580D01*
X000828Y000608D01*
X000791Y000639D01*
X000757Y000673D01*
X000726Y000710D01*
X000698Y000749D01*
X000673Y000791D01*
X000652Y000834D01*
X000635Y000879D01*
X000621Y000925D01*
X000611Y000972D01*
X000605Y001020D01*
X000603Y001068D01*
X000603Y013076D02*
X000605Y013124D01*
X000611Y013172D01*
X000621Y013219D01*
X000635Y013265D01*
X000652Y013310D01*
X000673Y013353D01*
X000698Y013395D01*
X000726Y013434D01*
X000757Y013471D01*
X000791Y013505D01*
X000828Y013536D01*
X000867Y013564D01*
X000909Y013589D01*
X000952Y013610D01*
X000997Y013627D01*
X001043Y013641D01*
X001090Y013651D01*
X001138Y013657D01*
X001186Y013659D01*
X001234Y013657D01*
X001282Y013651D01*
X001329Y013641D01*
X001375Y013627D01*
X001420Y013610D01*
X001463Y013589D01*
X001505Y013564D01*
X001544Y013536D01*
X001581Y013505D01*
X001615Y013471D01*
X001646Y013434D01*
X001674Y013395D01*
X001699Y013353D01*
X001720Y013310D01*
X001737Y013265D01*
X001751Y013219D01*
X001761Y013172D01*
X001767Y013124D01*
X001769Y013076D01*
X001767Y013028D01*
X001761Y012980D01*
X001751Y012933D01*
X001737Y012887D01*
X001720Y012842D01*
X001699Y012799D01*
X001674Y012757D01*
X001646Y012718D01*
X001615Y012681D01*
X001581Y012647D01*
X001544Y012616D01*
X001505Y012588D01*
X001463Y012563D01*
X001420Y012542D01*
X001375Y012525D01*
X001329Y012511D01*
X001282Y012501D01*
X001234Y012495D01*
X001186Y012493D01*
X001138Y012495D01*
X001090Y012501D01*
X001043Y012511D01*
X000997Y012525D01*
X000952Y012542D01*
X000909Y012563D01*
X000867Y012588D01*
X000828Y012616D01*
X000791Y012647D01*
X000757Y012681D01*
X000726Y012718D01*
X000698Y012757D01*
X000673Y012799D01*
X000652Y012842D01*
X000635Y012887D01*
X000621Y012933D01*
X000611Y012980D01*
X000605Y013028D01*
X000603Y013076D01*
X012611Y013076D02*
X012613Y013124D01*
X012619Y013172D01*
X012629Y013219D01*
X012643Y013265D01*
X012660Y013310D01*
X012681Y013353D01*
X012706Y013395D01*
X012734Y013434D01*
X012765Y013471D01*
X012799Y013505D01*
X012836Y013536D01*
X012875Y013564D01*
X012917Y013589D01*
X012960Y013610D01*
X013005Y013627D01*
X013051Y013641D01*
X013098Y013651D01*
X013146Y013657D01*
X013194Y013659D01*
X013242Y013657D01*
X013290Y013651D01*
X013337Y013641D01*
X013383Y013627D01*
X013428Y013610D01*
X013471Y013589D01*
X013513Y013564D01*
X013552Y013536D01*
X013589Y013505D01*
X013623Y013471D01*
X013654Y013434D01*
X013682Y013395D01*
X013707Y013353D01*
X013728Y013310D01*
X013745Y013265D01*
X013759Y013219D01*
X013769Y013172D01*
X013775Y013124D01*
X013777Y013076D01*
X013775Y013028D01*
X013769Y012980D01*
X013759Y012933D01*
X013745Y012887D01*
X013728Y012842D01*
X013707Y012799D01*
X013682Y012757D01*
X013654Y012718D01*
X013623Y012681D01*
X013589Y012647D01*
X013552Y012616D01*
X013513Y012588D01*
X013471Y012563D01*
X013428Y012542D01*
X013383Y012525D01*
X013337Y012511D01*
X013290Y012501D01*
X013242Y012495D01*
X013194Y012493D01*
X013146Y012495D01*
X013098Y012501D01*
X013051Y012511D01*
X013005Y012525D01*
X012960Y012542D01*
X012917Y012563D01*
X012875Y012588D01*
X012836Y012616D01*
X012799Y012647D01*
X012765Y012681D01*
X012734Y012718D01*
X012706Y012757D01*
X012681Y012799D01*
X012660Y012842D01*
X012643Y012887D01*
X012629Y012933D01*
X012619Y012980D01*
X012613Y013028D01*
X012611Y013076D01*
X012611Y001068D02*
X012613Y001116D01*
X012619Y001164D01*
X012629Y001211D01*
X012643Y001257D01*
X012660Y001302D01*
X012681Y001345D01*
X012706Y001387D01*
X012734Y001426D01*
X012765Y001463D01*
X012799Y001497D01*
X012836Y001528D01*
X012875Y001556D01*
X012917Y001581D01*
X012960Y001602D01*
X013005Y001619D01*
X013051Y001633D01*
X013098Y001643D01*
X013146Y001649D01*
X013194Y001651D01*
X013242Y001649D01*
X013290Y001643D01*
X013337Y001633D01*
X013383Y001619D01*
X013428Y001602D01*
X013471Y001581D01*
X013513Y001556D01*
X013552Y001528D01*
X013589Y001497D01*
X013623Y001463D01*
X013654Y001426D01*
X013682Y001387D01*
X013707Y001345D01*
X013728Y001302D01*
X013745Y001257D01*
X013759Y001211D01*
X013769Y001164D01*
X013775Y001116D01*
X013777Y001068D01*
X013775Y001020D01*
X013769Y000972D01*
X013759Y000925D01*
X013745Y000879D01*
X013728Y000834D01*
X013707Y000791D01*
X013682Y000749D01*
X013654Y000710D01*
X013623Y000673D01*
X013589Y000639D01*
X013552Y000608D01*
X013513Y000580D01*
X013471Y000555D01*
X013428Y000534D01*
X013383Y000517D01*
X013337Y000503D01*
X013290Y000493D01*
X013242Y000487D01*
X013194Y000485D01*
X013146Y000487D01*
X013098Y000493D01*
X013051Y000503D01*
X013005Y000517D01*
X012960Y000534D01*
X012917Y000555D01*
X012875Y000580D01*
X012836Y000608D01*
X012799Y000639D01*
X012765Y000673D01*
X012734Y000710D01*
X012706Y000749D01*
X012681Y000791D01*
X012660Y000834D01*
X012643Y000879D01*
X012629Y000925D01*
X012619Y000972D01*
X012613Y001020D01*
X012611Y001068D01*
D11*
X000300Y000969D02*
X000300Y013174D01*
X000302Y013228D01*
X000307Y013281D01*
X000316Y013334D01*
X000329Y013386D01*
X000345Y013438D01*
X000365Y013488D01*
X000388Y013536D01*
X000415Y013583D01*
X000444Y013628D01*
X000477Y013671D01*
X000512Y013711D01*
X000550Y013749D01*
X000590Y013784D01*
X000633Y013817D01*
X000678Y013846D01*
X000725Y013873D01*
X000773Y013896D01*
X000823Y013916D01*
X000875Y013932D01*
X000927Y013945D01*
X000980Y013954D01*
X001033Y013959D01*
X001087Y013961D01*
X013292Y013961D01*
X013346Y013959D01*
X013399Y013954D01*
X013452Y013945D01*
X013504Y013932D01*
X013556Y013916D01*
X013606Y013896D01*
X013654Y013873D01*
X013701Y013846D01*
X013746Y013817D01*
X013789Y013784D01*
X013829Y013749D01*
X013867Y013711D01*
X013902Y013671D01*
X013935Y013628D01*
X013964Y013583D01*
X013991Y013536D01*
X014014Y013488D01*
X014034Y013438D01*
X014050Y013386D01*
X014063Y013334D01*
X014072Y013281D01*
X014077Y013228D01*
X014079Y013174D01*
X014080Y013174D02*
X014080Y000969D01*
X014079Y000969D02*
X014077Y000915D01*
X014072Y000862D01*
X014063Y000809D01*
X014050Y000757D01*
X014034Y000705D01*
X014014Y000655D01*
X013991Y000607D01*
X013964Y000560D01*
X013935Y000515D01*
X013902Y000472D01*
X013867Y000432D01*
X013829Y000394D01*
X013789Y000359D01*
X013746Y000326D01*
X013701Y000297D01*
X013654Y000270D01*
X013606Y000247D01*
X013556Y000227D01*
X013504Y000211D01*
X013452Y000198D01*
X013399Y000189D01*
X013346Y000184D01*
X013292Y000182D01*
X001087Y000182D01*
X001033Y000184D01*
X000980Y000189D01*
X000927Y000198D01*
X000875Y000211D01*
X000823Y000227D01*
X000773Y000247D01*
X000725Y000270D01*
X000678Y000297D01*
X000633Y000326D01*
X000590Y000359D01*
X000550Y000394D01*
X000512Y000432D01*
X000477Y000472D01*
X000444Y000515D01*
X000415Y000560D01*
X000388Y000607D01*
X000365Y000655D01*
X000345Y000705D01*
X000329Y000757D01*
X000316Y000809D01*
X000307Y000862D01*
X000302Y000915D01*
X000300Y000969D01*
M02*
