G75*
G70*
%OFA0B0*%
%FSLAX24Y24*%
%IPPOS*%
%LPD*%
%AMOC8*
5,1,8,0,0,1.08239X$1,22.5*
%
%ADD10C,0.1181*%
%ADD11C,0.0297*%
%ADD12C,0.0740*%
%ADD13OC8,0.0540*%
%ADD14C,0.0079*%
%ADD15C,0.0160*%
%ADD16C,0.0240*%
%ADD17C,0.0380*%
D10*
X001371Y002690D03*
X002820Y001245D03*
X004280Y001241D03*
X001371Y004166D03*
X001363Y009977D03*
X001367Y011442D03*
X002820Y012898D03*
X004284Y012894D03*
X010060Y012894D03*
X011532Y012894D03*
X012981Y011442D03*
X012977Y009977D03*
X012977Y004162D03*
X012981Y002702D03*
X011532Y001241D03*
X010064Y001241D03*
D11*
X009780Y001528D03*
X010064Y001646D03*
X010351Y001528D03*
X010469Y001241D03*
X010351Y000950D03*
X010064Y000843D03*
X009780Y000954D03*
X009662Y001241D03*
X011131Y001241D03*
X011249Y001528D03*
X011532Y001646D03*
X011820Y001528D03*
X011938Y001241D03*
X011820Y000950D03*
X011532Y000843D03*
X011249Y000954D03*
X012698Y002414D03*
X012981Y002304D03*
X013269Y002410D03*
X013387Y002702D03*
X013269Y002989D03*
X012981Y003107D03*
X012698Y002989D03*
X012580Y002702D03*
X012977Y003765D03*
X012694Y003875D03*
X012576Y004162D03*
X012694Y004450D03*
X012977Y004568D03*
X013265Y004450D03*
X013383Y004162D03*
X013265Y003871D03*
X012977Y009580D03*
X012694Y009690D03*
X012576Y009977D03*
X012694Y010265D03*
X012977Y010383D03*
X013265Y010265D03*
X013383Y009977D03*
X013265Y009686D03*
X012981Y011044D03*
X012698Y011154D03*
X012580Y011442D03*
X012698Y011729D03*
X012981Y011847D03*
X013269Y011729D03*
X013387Y011442D03*
X013269Y011150D03*
X011820Y012603D03*
X011532Y012497D03*
X011249Y012607D03*
X011131Y012894D03*
X011249Y013182D03*
X011532Y013300D03*
X011820Y013182D03*
X011938Y012894D03*
X010465Y012894D03*
X010347Y013182D03*
X010060Y013300D03*
X009776Y013182D03*
X009658Y012894D03*
X009776Y012607D03*
X010060Y012497D03*
X010347Y012603D03*
X004690Y012894D03*
X004572Y013182D03*
X004284Y013300D03*
X004001Y013182D03*
X003883Y012894D03*
X004001Y012607D03*
X004284Y012497D03*
X004572Y012603D03*
X003225Y012898D03*
X003107Y013186D03*
X002820Y013304D03*
X002536Y013186D03*
X002418Y012898D03*
X002536Y012611D03*
X002820Y012501D03*
X003107Y012607D03*
X001772Y011442D03*
X001654Y011729D03*
X001367Y011847D03*
X001083Y011729D03*
X000965Y011442D03*
X001083Y011154D03*
X001367Y011044D03*
X001654Y011150D03*
X001363Y010383D03*
X001080Y010265D03*
X000961Y009977D03*
X001080Y009690D03*
X001363Y009580D03*
X001650Y009686D03*
X001769Y009977D03*
X001650Y010265D03*
X001371Y004572D03*
X001087Y004454D03*
X000969Y004166D03*
X001087Y003879D03*
X001371Y003769D03*
X001658Y003875D03*
X001776Y004166D03*
X001658Y004454D03*
X001371Y003095D03*
X001087Y002977D03*
X000969Y002690D03*
X001087Y002402D03*
X001371Y002292D03*
X001658Y002398D03*
X001776Y002690D03*
X001658Y002977D03*
X002820Y001650D03*
X002536Y001532D03*
X002418Y001245D03*
X002536Y000957D03*
X002820Y000847D03*
X003107Y000954D03*
X003225Y001245D03*
X003107Y001532D03*
X003879Y001241D03*
X003997Y001528D03*
X004280Y001646D03*
X004568Y001528D03*
X004686Y001241D03*
X004568Y000950D03*
X004280Y000843D03*
X003997Y000954D03*
D12*
X006253Y001284D03*
X007253Y001284D03*
X008253Y001284D03*
X011209Y003410D03*
X011209Y004410D03*
X011209Y005410D03*
X008206Y012898D03*
X007206Y012898D03*
X006206Y012898D03*
X001977Y007576D03*
X000977Y007576D03*
X000973Y006576D03*
X001973Y006576D03*
D13*
X012245Y007457D03*
X013245Y007457D03*
X013245Y008457D03*
X012245Y008457D03*
D14*
X000489Y012783D02*
X000489Y001361D01*
X000561Y001522D01*
X000561Y001522D01*
X000800Y001736D01*
X000800Y001736D01*
X001105Y001836D01*
X001105Y001836D01*
X001424Y001802D01*
X001424Y001802D01*
X001703Y001642D01*
X001703Y001642D01*
X001703Y001642D01*
X001891Y001382D01*
X001891Y001382D01*
X001958Y001068D01*
X001958Y001068D01*
X001891Y000754D01*
X001703Y000494D01*
X001703Y000494D01*
X001490Y000371D01*
X012893Y000371D01*
X012808Y000399D01*
X012808Y000399D01*
X012569Y000614D01*
X012569Y000614D01*
X012438Y000907D01*
X012438Y001228D01*
X012569Y001522D01*
X012569Y001522D01*
X012808Y001736D01*
X012808Y001736D01*
X013113Y001836D01*
X013113Y001836D01*
X013432Y001802D01*
X013432Y001802D01*
X013710Y001642D01*
X013710Y001642D01*
X013710Y001642D01*
X013890Y001394D01*
X013890Y012749D01*
X013710Y012502D01*
X013710Y012502D01*
X013710Y012502D01*
X013432Y012341D01*
X013432Y012341D01*
X013113Y012308D01*
X013113Y012308D01*
X012808Y012407D01*
X012808Y012407D01*
X012569Y012622D01*
X012569Y012622D01*
X012438Y012915D01*
X012438Y013236D01*
X012569Y013530D01*
X012569Y013530D01*
X012808Y013744D01*
X012808Y013744D01*
X012893Y013772D01*
X001490Y013772D01*
X001703Y013649D01*
X001703Y013649D01*
X001891Y013390D01*
X001891Y013390D01*
X001958Y013076D01*
X001891Y012761D01*
X001703Y012502D01*
X001703Y012502D01*
X001703Y012502D01*
X001424Y012341D01*
X001424Y012341D01*
X001105Y012308D01*
X001105Y012308D01*
X000800Y012407D01*
X000800Y012407D01*
X000561Y012622D01*
X000561Y012622D01*
X000489Y012783D01*
X000489Y012710D02*
X000522Y012710D01*
X000489Y012633D02*
X000556Y012633D01*
X000489Y012556D02*
X000634Y012556D01*
X000720Y012478D02*
X000489Y012478D01*
X000489Y012401D02*
X000817Y012401D01*
X001055Y012324D02*
X000489Y012324D01*
X000489Y012247D02*
X002590Y012247D01*
X002682Y012209D02*
X002957Y012209D01*
X003210Y012314D01*
X003405Y012508D01*
X003510Y012761D01*
X003510Y013036D01*
X003405Y013289D01*
X003210Y013483D01*
X002957Y013588D01*
X002682Y013588D01*
X002429Y013483D01*
X002235Y013289D01*
X002130Y013036D01*
X002130Y012761D01*
X002235Y012508D01*
X002429Y012314D01*
X002682Y012209D01*
X002418Y012324D02*
X001261Y012324D01*
X001303Y012170D02*
X000489Y012170D01*
X000489Y012092D02*
X001034Y012092D01*
X001043Y012098D02*
X000961Y012050D01*
X000885Y011992D01*
X000817Y011924D01*
X000759Y011848D01*
X000711Y011765D01*
X000674Y011677D01*
X000649Y011584D01*
X000637Y011490D01*
X000637Y011481D01*
X001328Y011481D01*
X001328Y012172D01*
X001319Y012172D01*
X001224Y012159D01*
X001132Y012134D01*
X001043Y012098D01*
X000915Y012015D02*
X000489Y012015D01*
X000489Y011938D02*
X000831Y011938D01*
X000768Y011861D02*
X000489Y011861D01*
X000489Y011783D02*
X000721Y011783D01*
X000686Y011706D02*
X000489Y011706D01*
X000489Y011629D02*
X000661Y011629D01*
X000645Y011552D02*
X000489Y011552D01*
X000489Y011474D02*
X001328Y011474D01*
X001328Y011481D02*
X001328Y011402D01*
X001406Y011402D01*
X001406Y010712D01*
X001415Y010712D01*
X001510Y010724D01*
X001602Y010749D01*
X001690Y010786D01*
X001773Y010834D01*
X001849Y010892D01*
X001917Y010959D01*
X001975Y011035D01*
X002023Y011118D01*
X002060Y011207D01*
X002084Y011299D01*
X002097Y011394D01*
X002097Y011402D01*
X001406Y011402D01*
X001406Y011481D01*
X001328Y011481D01*
X001328Y011552D02*
X001406Y011552D01*
X001406Y011481D02*
X001406Y012172D01*
X001415Y012172D01*
X001510Y012159D01*
X001602Y012134D01*
X001690Y012098D01*
X001773Y012050D01*
X001849Y011992D01*
X001917Y011924D01*
X001975Y011848D01*
X002023Y011765D01*
X002060Y011677D01*
X002084Y011584D01*
X002097Y011490D01*
X002097Y011481D01*
X001406Y011481D01*
X001406Y011474D02*
X010978Y011474D01*
X011056Y011397D02*
X002097Y011397D01*
X002087Y011320D02*
X011133Y011320D01*
X011210Y011243D02*
X002069Y011243D01*
X002043Y011165D02*
X011287Y011165D01*
X011235Y011218D02*
X011340Y011113D01*
X012123Y011113D01*
X012100Y011090D01*
X011995Y010985D01*
X011995Y009608D01*
X012080Y009522D01*
X012070Y008805D01*
X011876Y008610D01*
X011876Y008304D01*
X012092Y008088D01*
X012398Y008088D01*
X012614Y008304D01*
X012614Y008610D01*
X012429Y008796D01*
X012438Y009484D01*
X012495Y009427D01*
X012571Y009369D01*
X012654Y009321D01*
X012742Y009284D01*
X012834Y009260D01*
X012929Y009247D01*
X012938Y009247D01*
X012938Y009938D01*
X013017Y009938D01*
X013017Y010017D01*
X012938Y010017D01*
X012938Y010707D01*
X012929Y010707D01*
X012834Y010695D01*
X012742Y010670D01*
X012654Y010633D01*
X012571Y010585D01*
X012495Y010527D01*
X012427Y010459D01*
X012369Y010384D01*
X012353Y010357D01*
X012353Y010836D01*
X012482Y010965D01*
X012590Y010857D01*
X012844Y010752D01*
X013118Y010752D01*
X013372Y010857D01*
X013566Y011051D01*
X013671Y011304D01*
X013671Y011579D01*
X013566Y011833D01*
X013372Y012027D01*
X013118Y012132D01*
X012844Y012132D01*
X012590Y012027D01*
X012396Y011833D01*
X012291Y011579D01*
X012291Y011471D01*
X011488Y011471D01*
X010551Y012409D01*
X010645Y012504D01*
X010750Y012757D01*
X010750Y013032D01*
X010645Y013285D01*
X010451Y013479D01*
X010197Y013584D01*
X009923Y013584D01*
X009669Y013479D01*
X009475Y013285D01*
X009370Y013032D01*
X009370Y012757D01*
X009475Y012504D01*
X009594Y012385D01*
X006764Y012385D01*
X006560Y012589D01*
X006603Y012633D01*
X006604Y012633D02*
X006807Y012633D01*
X006808Y012633D02*
X006940Y012501D01*
X007112Y012429D01*
X007299Y012429D01*
X007471Y012501D01*
X007603Y012633D01*
X007604Y012633D02*
X007807Y012633D01*
X007808Y012633D02*
X007940Y012501D01*
X008112Y012429D01*
X008299Y012429D01*
X008471Y012501D01*
X008603Y012633D01*
X008604Y012633D02*
X009421Y012633D01*
X009389Y012710D02*
X008636Y012710D01*
X008668Y012787D02*
X009370Y012787D01*
X009370Y012865D02*
X008675Y012865D01*
X008675Y012805D02*
X008603Y012633D01*
X008527Y012556D02*
X009453Y012556D01*
X009500Y012478D02*
X008418Y012478D01*
X008675Y012805D02*
X008675Y012992D01*
X008603Y013164D01*
X008471Y013296D01*
X008299Y013368D01*
X008112Y013368D01*
X007940Y013296D01*
X007808Y013164D01*
X007736Y012992D01*
X007736Y012805D01*
X007808Y012633D01*
X007775Y012710D02*
X007636Y012710D01*
X007668Y012787D02*
X007743Y012787D01*
X007675Y012805D02*
X007603Y012633D01*
X007527Y012556D02*
X007884Y012556D01*
X007993Y012478D02*
X007418Y012478D01*
X007675Y012805D02*
X007675Y012992D01*
X007603Y013164D01*
X007471Y013296D01*
X007299Y013368D01*
X007112Y013368D01*
X006940Y013296D01*
X006808Y013164D01*
X006736Y012992D01*
X006736Y012805D01*
X006808Y012633D01*
X006775Y012710D02*
X006636Y012710D01*
X006668Y012787D02*
X006743Y012787D01*
X006675Y012805D02*
X006603Y012633D01*
X006593Y012556D02*
X006884Y012556D01*
X006993Y012478D02*
X006670Y012478D01*
X006748Y012401D02*
X009577Y012401D01*
X009921Y012092D02*
X010360Y012092D01*
X010283Y012170D02*
X009998Y012170D01*
X010033Y012205D02*
X009855Y012026D01*
X006615Y012026D01*
X006510Y012131D01*
X006213Y012429D01*
X006112Y012429D01*
X005940Y012501D01*
X005808Y012633D01*
X005807Y012633D02*
X004966Y012633D01*
X004977Y012659D02*
X005002Y012752D01*
X005014Y012847D01*
X005014Y012855D01*
X004324Y012855D01*
X004324Y012934D01*
X005014Y012934D01*
X005014Y012942D01*
X005736Y012942D01*
X005736Y012992D02*
X005736Y012805D01*
X005808Y012633D01*
X005775Y012710D02*
X004991Y012710D01*
X004977Y012659D02*
X004940Y012571D01*
X004892Y012488D01*
X004834Y012412D01*
X004767Y012345D01*
X004691Y012286D01*
X004608Y012238D01*
X004519Y012202D01*
X004427Y012177D01*
X004332Y012165D01*
X004324Y012165D01*
X004324Y012855D01*
X004245Y012855D01*
X004245Y012165D01*
X004236Y012165D01*
X004142Y012177D01*
X004049Y012202D01*
X003961Y012238D01*
X003878Y012286D01*
X003802Y012345D01*
X003734Y012412D01*
X003676Y012488D01*
X003628Y012571D01*
X003592Y012659D01*
X003567Y012752D01*
X003554Y012847D01*
X003554Y012855D01*
X004245Y012855D01*
X004245Y012934D01*
X004245Y013624D01*
X004236Y013624D01*
X004142Y013612D01*
X004049Y013587D01*
X003961Y013551D01*
X003878Y013503D01*
X003802Y013444D01*
X003734Y013377D01*
X003676Y013301D01*
X003628Y013218D01*
X003592Y013130D01*
X003567Y013037D01*
X003554Y012942D01*
X003510Y012942D01*
X003554Y012942D02*
X003554Y012934D01*
X004245Y012934D01*
X004324Y012934D01*
X004324Y013624D01*
X004332Y013624D01*
X004427Y013612D01*
X004519Y013587D01*
X004608Y013551D01*
X004691Y013503D01*
X004767Y013444D01*
X004834Y013377D01*
X004892Y013301D01*
X004940Y013218D01*
X004977Y013130D01*
X005002Y013037D01*
X005014Y012942D01*
X005004Y013019D02*
X005747Y013019D01*
X005736Y012992D02*
X005808Y013164D01*
X005940Y013296D01*
X006112Y013368D01*
X006299Y013368D01*
X006471Y013296D01*
X006603Y013164D01*
X006675Y012992D01*
X006675Y012805D01*
X006675Y012865D02*
X006736Y012865D01*
X006736Y012942D02*
X006675Y012942D01*
X006664Y013019D02*
X006747Y013019D01*
X006779Y013096D02*
X006632Y013096D01*
X006594Y013174D02*
X006817Y013174D01*
X006894Y013251D02*
X006517Y013251D01*
X006395Y013328D02*
X007016Y013328D01*
X007395Y013328D02*
X008016Y013328D01*
X007894Y013251D02*
X007517Y013251D01*
X007594Y013174D02*
X007817Y013174D01*
X007779Y013096D02*
X007632Y013096D01*
X007664Y013019D02*
X007747Y013019D01*
X007736Y012942D02*
X007675Y012942D01*
X007675Y012865D02*
X007736Y012865D01*
X008395Y013328D02*
X009518Y013328D01*
X009461Y013251D02*
X008517Y013251D01*
X008594Y013174D02*
X009429Y013174D01*
X009397Y013096D02*
X008632Y013096D01*
X008664Y013019D02*
X009370Y013019D01*
X009370Y012942D02*
X008675Y012942D01*
X009595Y013405D02*
X004806Y013405D01*
X004872Y013328D02*
X006016Y013328D01*
X005894Y013251D02*
X004921Y013251D01*
X004959Y013174D02*
X005817Y013174D01*
X005779Y013096D02*
X004986Y013096D01*
X005006Y012787D02*
X005743Y012787D01*
X005736Y012865D02*
X004324Y012865D01*
X004324Y012942D02*
X004245Y012942D01*
X004245Y013019D02*
X004324Y013019D01*
X004324Y013096D02*
X004245Y013096D01*
X004245Y013174D02*
X004324Y013174D01*
X004324Y013251D02*
X004245Y013251D01*
X004245Y013328D02*
X004324Y013328D01*
X004324Y013405D02*
X004245Y013405D01*
X004245Y013483D02*
X004324Y013483D01*
X004324Y013560D02*
X004245Y013560D01*
X003983Y013560D02*
X003026Y013560D01*
X003211Y013483D02*
X003852Y013483D01*
X003763Y013405D02*
X003288Y013405D01*
X003366Y013328D02*
X003697Y013328D01*
X003647Y013251D02*
X003420Y013251D01*
X003452Y013174D02*
X003610Y013174D01*
X003583Y013096D02*
X003484Y013096D01*
X003510Y013019D02*
X003564Y013019D01*
X003510Y012865D02*
X004245Y012865D01*
X004245Y012787D02*
X004324Y012787D01*
X004324Y012710D02*
X004245Y012710D01*
X004245Y012633D02*
X004324Y012633D01*
X004324Y012556D02*
X004245Y012556D01*
X004245Y012478D02*
X004324Y012478D01*
X004324Y012401D02*
X004245Y012401D01*
X004245Y012324D02*
X004324Y012324D01*
X004324Y012247D02*
X004245Y012247D01*
X004245Y012170D02*
X004324Y012170D01*
X004370Y012170D02*
X006472Y012170D01*
X006395Y012247D02*
X004622Y012247D01*
X004740Y012324D02*
X006318Y012324D01*
X006240Y012401D02*
X004823Y012401D01*
X004885Y012478D02*
X005993Y012478D01*
X005884Y012556D02*
X004932Y012556D01*
X004199Y012170D02*
X001431Y012170D01*
X001406Y012170D02*
X001328Y012170D01*
X001328Y012092D02*
X001406Y012092D01*
X001406Y012015D02*
X001328Y012015D01*
X001328Y011938D02*
X001406Y011938D01*
X001406Y011861D02*
X001328Y011861D01*
X001328Y011783D02*
X001406Y011783D01*
X001406Y011706D02*
X001328Y011706D01*
X001328Y011629D02*
X001406Y011629D01*
X001406Y011397D02*
X001328Y011397D01*
X001328Y011402D02*
X001328Y010712D01*
X001319Y010712D01*
X001224Y010724D01*
X001132Y010749D01*
X001043Y010786D01*
X000961Y010834D01*
X000885Y010892D01*
X000817Y010959D01*
X000759Y011035D01*
X000711Y011118D01*
X000674Y011207D01*
X000649Y011299D01*
X000637Y011394D01*
X000637Y011402D01*
X001328Y011402D01*
X001328Y011320D02*
X001406Y011320D01*
X001406Y011243D02*
X001328Y011243D01*
X001328Y011165D02*
X001406Y011165D01*
X001406Y011088D02*
X001328Y011088D01*
X001328Y011011D02*
X001406Y011011D01*
X001406Y010934D02*
X001328Y010934D01*
X001328Y010856D02*
X001406Y010856D01*
X001406Y010779D02*
X001328Y010779D01*
X001226Y010667D02*
X000972Y010562D01*
X000778Y010368D01*
X000673Y010114D01*
X000673Y009840D01*
X000778Y009586D01*
X000972Y009392D01*
X001226Y009287D01*
X001500Y009287D01*
X001754Y009392D01*
X001948Y009586D01*
X002053Y009840D01*
X002053Y010114D01*
X001948Y010368D01*
X001754Y010562D01*
X001500Y010667D01*
X001226Y010667D01*
X001123Y010625D02*
X000489Y010625D01*
X000489Y010702D02*
X011995Y010702D01*
X011995Y010779D02*
X001675Y010779D01*
X001803Y010856D02*
X011995Y010856D01*
X011995Y010934D02*
X001891Y010934D01*
X001956Y011011D02*
X012021Y011011D01*
X012098Y011088D02*
X002006Y011088D01*
X002089Y011552D02*
X010901Y011552D01*
X010824Y011629D02*
X002072Y011629D01*
X002047Y011706D02*
X010747Y011706D01*
X010669Y011783D02*
X002013Y011783D01*
X001966Y011861D02*
X010592Y011861D01*
X010515Y011938D02*
X001903Y011938D01*
X001819Y012015D02*
X010438Y012015D01*
X010713Y012247D02*
X011194Y012247D01*
X011209Y012238D02*
X011297Y012202D01*
X011390Y012177D01*
X011484Y012165D01*
X011493Y012165D01*
X011493Y012855D01*
X011572Y012855D01*
X011572Y012934D01*
X012262Y012934D01*
X012262Y012942D01*
X012438Y012942D01*
X012438Y013019D02*
X012252Y013019D01*
X012250Y013037D02*
X012225Y013130D01*
X012188Y013218D01*
X012140Y013301D01*
X012082Y013377D01*
X012015Y013444D01*
X011939Y013503D01*
X011856Y013551D01*
X011767Y013587D01*
X011675Y013612D01*
X011580Y013624D01*
X011572Y013624D01*
X011572Y012934D01*
X011493Y012934D01*
X011493Y013624D01*
X011484Y013624D01*
X011390Y013612D01*
X011297Y013587D01*
X011209Y013551D01*
X011126Y013503D01*
X011050Y013444D01*
X010982Y013377D01*
X010924Y013301D01*
X010876Y013218D01*
X010840Y013130D01*
X010815Y013037D01*
X010802Y012942D01*
X010750Y012942D01*
X010802Y012942D02*
X010802Y012934D01*
X011493Y012934D01*
X011493Y012855D01*
X010802Y012855D01*
X010802Y012847D01*
X010815Y012752D01*
X010840Y012659D01*
X010876Y012571D01*
X010924Y012488D01*
X010982Y012412D01*
X011050Y012345D01*
X011126Y012286D01*
X011209Y012238D01*
X011077Y012324D02*
X010636Y012324D01*
X010559Y012401D02*
X010993Y012401D01*
X010931Y012478D02*
X010620Y012478D01*
X010666Y012556D02*
X010885Y012556D01*
X010851Y012633D02*
X010698Y012633D01*
X010730Y012710D02*
X010826Y012710D01*
X010810Y012787D02*
X010750Y012787D01*
X010750Y012865D02*
X011493Y012865D01*
X011493Y012942D02*
X011572Y012942D01*
X011572Y013019D02*
X011493Y013019D01*
X011493Y013096D02*
X011572Y013096D01*
X011572Y013174D02*
X011493Y013174D01*
X011493Y013251D02*
X011572Y013251D01*
X011572Y013328D02*
X011493Y013328D01*
X011493Y013405D02*
X011572Y013405D01*
X011572Y013483D02*
X011493Y013483D01*
X011493Y013560D02*
X011572Y013560D01*
X011833Y013560D02*
X012603Y013560D01*
X012548Y013483D02*
X011965Y013483D01*
X012054Y013405D02*
X012514Y013405D01*
X012479Y013328D02*
X012120Y013328D01*
X012169Y013251D02*
X012445Y013251D01*
X012438Y013174D02*
X012207Y013174D01*
X012234Y013096D02*
X012438Y013096D01*
X012461Y012865D02*
X011572Y012865D01*
X011572Y012855D02*
X012262Y012855D01*
X012262Y012847D01*
X012250Y012752D01*
X012225Y012659D01*
X012188Y012571D01*
X012140Y012488D01*
X012082Y012412D01*
X012015Y012345D01*
X011939Y012286D01*
X011856Y012238D01*
X011767Y012202D01*
X011675Y012177D01*
X011580Y012165D01*
X011572Y012165D01*
X011572Y012855D01*
X011572Y012787D02*
X011493Y012787D01*
X011493Y012710D02*
X011572Y012710D01*
X011572Y012633D02*
X011493Y012633D01*
X011493Y012556D02*
X011572Y012556D01*
X011572Y012478D02*
X011493Y012478D01*
X011493Y012401D02*
X011572Y012401D01*
X011572Y012324D02*
X011493Y012324D01*
X011493Y012247D02*
X011572Y012247D01*
X011572Y012170D02*
X011493Y012170D01*
X011447Y012170D02*
X010790Y012170D01*
X010868Y012092D02*
X012749Y012092D01*
X012579Y012015D02*
X010945Y012015D01*
X011022Y011938D02*
X012501Y011938D01*
X012424Y011861D02*
X011099Y011861D01*
X011177Y011783D02*
X012376Y011783D01*
X012344Y011706D02*
X011254Y011706D01*
X011331Y011629D02*
X012312Y011629D01*
X012291Y011552D02*
X011408Y011552D01*
X011486Y011474D02*
X012291Y011474D01*
X012100Y011090D02*
X012100Y011090D01*
X012374Y010856D02*
X012591Y010856D01*
X012513Y010934D02*
X012451Y010934D01*
X012353Y010779D02*
X012778Y010779D01*
X012890Y010702D02*
X012353Y010702D01*
X012353Y010625D02*
X012639Y010625D01*
X012521Y010547D02*
X012353Y010547D01*
X012353Y010470D02*
X012438Y010470D01*
X012376Y010393D02*
X012353Y010393D01*
X012353Y010017D02*
X012938Y010017D01*
X012938Y009938D01*
X012353Y009938D01*
X012353Y010017D01*
X012353Y010007D02*
X012938Y010007D01*
X012938Y010084D02*
X013017Y010084D01*
X013017Y010017D02*
X013017Y010707D01*
X013025Y010707D01*
X013120Y010695D01*
X013212Y010670D01*
X013301Y010633D01*
X013384Y010585D01*
X013459Y010527D01*
X013527Y010459D01*
X013585Y010384D01*
X013633Y010301D01*
X013670Y010212D01*
X013695Y010120D01*
X013707Y010025D01*
X013707Y010017D01*
X013017Y010017D01*
X013017Y010007D02*
X013890Y010007D01*
X013890Y010084D02*
X013699Y010084D01*
X013684Y010161D02*
X013890Y010161D01*
X013890Y010239D02*
X013659Y010239D01*
X013625Y010316D02*
X013890Y010316D01*
X013890Y010393D02*
X013578Y010393D01*
X013516Y010470D02*
X013890Y010470D01*
X013890Y010547D02*
X013433Y010547D01*
X013315Y010625D02*
X013890Y010625D01*
X013890Y010702D02*
X013064Y010702D01*
X013017Y010702D02*
X012938Y010702D01*
X012938Y010625D02*
X013017Y010625D01*
X013017Y010547D02*
X012938Y010547D01*
X012938Y010470D02*
X013017Y010470D01*
X013017Y010393D02*
X012938Y010393D01*
X012938Y010316D02*
X013017Y010316D01*
X013017Y010239D02*
X012938Y010239D01*
X012938Y010161D02*
X013017Y010161D01*
X013017Y009938D02*
X013707Y009938D01*
X013707Y009929D01*
X013695Y009834D01*
X013670Y009742D01*
X013633Y009654D01*
X013585Y009571D01*
X013527Y009495D01*
X013459Y009427D01*
X013384Y009369D01*
X013301Y009321D01*
X013212Y009284D01*
X013120Y009260D01*
X013025Y009247D01*
X013017Y009247D01*
X013017Y009938D01*
X013017Y009930D02*
X012938Y009930D01*
X012938Y009852D02*
X013017Y009852D01*
X013017Y009775D02*
X012938Y009775D01*
X012938Y009698D02*
X013017Y009698D01*
X013017Y009621D02*
X012938Y009621D01*
X012938Y009543D02*
X013017Y009543D01*
X013017Y009466D02*
X012938Y009466D01*
X012938Y009389D02*
X013017Y009389D01*
X013017Y009312D02*
X012938Y009312D01*
X012677Y009312D02*
X012436Y009312D01*
X012437Y009389D02*
X012545Y009389D01*
X012456Y009466D02*
X012438Y009466D01*
X012435Y009234D02*
X013890Y009234D01*
X013890Y009157D02*
X012434Y009157D01*
X012433Y009080D02*
X013890Y009080D01*
X013890Y009003D02*
X012432Y009003D01*
X012431Y008925D02*
X013890Y008925D01*
X013890Y008848D02*
X012430Y008848D01*
X012454Y008771D02*
X013036Y008771D01*
X013092Y008827D02*
X012876Y008610D01*
X012876Y008304D01*
X013092Y008088D01*
X013398Y008088D01*
X013614Y008304D01*
X013614Y008610D01*
X013398Y008827D01*
X013092Y008827D01*
X012959Y008694D02*
X012531Y008694D01*
X012608Y008616D02*
X012881Y008616D01*
X012876Y008539D02*
X012614Y008539D01*
X012614Y008462D02*
X012876Y008462D01*
X012876Y008385D02*
X012614Y008385D01*
X012614Y008308D02*
X012876Y008308D01*
X012950Y008230D02*
X012540Y008230D01*
X012463Y008153D02*
X013027Y008153D01*
X013092Y007827D02*
X012876Y007610D01*
X012876Y007304D01*
X013092Y007088D01*
X013398Y007088D01*
X013614Y007304D01*
X013614Y007610D01*
X013398Y007827D01*
X013092Y007827D01*
X013032Y007767D02*
X012458Y007767D01*
X012398Y007827D02*
X012614Y007610D01*
X012614Y007304D01*
X012398Y007088D01*
X012092Y007088D01*
X011876Y007304D01*
X011876Y007610D01*
X012092Y007827D01*
X012398Y007827D01*
X012535Y007690D02*
X012955Y007690D01*
X012877Y007612D02*
X012612Y007612D01*
X012614Y007535D02*
X012876Y007535D01*
X012876Y007458D02*
X012614Y007458D01*
X012614Y007381D02*
X012876Y007381D01*
X012877Y007303D02*
X012613Y007303D01*
X012536Y007226D02*
X012954Y007226D01*
X013031Y007149D02*
X012459Y007149D01*
X012031Y007149D02*
X011429Y007149D01*
X011429Y007226D02*
X011954Y007226D01*
X011877Y007303D02*
X011429Y007303D01*
X011429Y007381D02*
X011876Y007381D01*
X011876Y007458D02*
X011429Y007458D01*
X011429Y007535D02*
X011876Y007535D01*
X011877Y007612D02*
X011429Y007612D01*
X011429Y007690D02*
X011955Y007690D01*
X012032Y007767D02*
X011429Y007767D01*
X011429Y007844D02*
X013890Y007844D01*
X013890Y007767D02*
X013458Y007767D01*
X013535Y007690D02*
X013890Y007690D01*
X013890Y007612D02*
X013612Y007612D01*
X013614Y007535D02*
X013890Y007535D01*
X013890Y007458D02*
X013614Y007458D01*
X013614Y007381D02*
X013890Y007381D01*
X013890Y007303D02*
X013613Y007303D01*
X013536Y007226D02*
X013890Y007226D01*
X013890Y007149D02*
X013459Y007149D01*
X013890Y007072D02*
X011429Y007072D01*
X011429Y006994D02*
X013890Y006994D01*
X013890Y006917D02*
X011429Y006917D01*
X011429Y006840D02*
X013890Y006840D01*
X013890Y006763D02*
X011429Y006763D01*
X011429Y006685D02*
X013890Y006685D01*
X013890Y006608D02*
X011429Y006608D01*
X011429Y006531D02*
X013890Y006531D01*
X013890Y006454D02*
X011429Y006454D01*
X011429Y006376D02*
X013890Y006376D01*
X013890Y006299D02*
X011429Y006299D01*
X011429Y006222D02*
X013890Y006222D01*
X013890Y006145D02*
X011429Y006145D01*
X011429Y006068D02*
X013890Y006068D01*
X013890Y005990D02*
X011429Y005990D01*
X011429Y005913D02*
X013890Y005913D01*
X013890Y005836D02*
X011429Y005836D01*
X011429Y005827D02*
X011429Y008328D01*
X010303Y009454D01*
X010174Y009582D01*
X009573Y009582D01*
X009547Y009608D01*
X009440Y009652D01*
X009325Y009652D01*
X009219Y009608D01*
X009137Y009527D01*
X009093Y009421D01*
X009093Y009305D01*
X009137Y009199D01*
X009219Y009118D01*
X009325Y009074D01*
X009440Y009074D01*
X009547Y009118D01*
X009573Y009144D01*
X009993Y009144D01*
X010990Y008146D01*
X010990Y005827D01*
X010944Y005808D01*
X010812Y005676D01*
X010740Y005504D01*
X010740Y005317D01*
X010812Y005144D01*
X010944Y005012D01*
X011116Y004941D01*
X011303Y004941D01*
X011475Y005012D01*
X011607Y005144D01*
X011679Y005317D01*
X011679Y005504D01*
X011607Y005676D01*
X011475Y005808D01*
X011429Y005827D01*
X011525Y005759D02*
X013890Y005759D01*
X013890Y005681D02*
X011602Y005681D01*
X011637Y005604D02*
X013890Y005604D01*
X013890Y005527D02*
X011669Y005527D01*
X011679Y005450D02*
X013890Y005450D01*
X013890Y005372D02*
X011679Y005372D01*
X011670Y005295D02*
X013890Y005295D01*
X013890Y005218D02*
X011638Y005218D01*
X011604Y005141D02*
X013890Y005141D01*
X013890Y005063D02*
X011526Y005063D01*
X011412Y004986D02*
X013890Y004986D01*
X013890Y004909D02*
X003050Y004909D01*
X003057Y004916D02*
X003121Y004980D01*
X003121Y004981D01*
X004489Y006348D01*
X007256Y006348D01*
X007727Y005877D01*
X007791Y005813D01*
X007791Y005813D01*
X007792Y005813D01*
X007882Y005813D01*
X008940Y005809D01*
X008942Y005807D01*
X009030Y005809D01*
X009118Y005809D01*
X009121Y005811D01*
X009123Y005811D01*
X009185Y005874D01*
X009247Y005937D01*
X009247Y005940D01*
X009587Y006292D01*
X009650Y006356D01*
X009650Y006358D01*
X009651Y006359D01*
X009649Y006448D01*
X009645Y007293D01*
X009645Y007383D01*
X009645Y007383D01*
X009645Y007384D01*
X009605Y007423D01*
X009605Y007444D01*
X009561Y007551D01*
X009480Y007632D01*
X009378Y007674D01*
X009289Y007763D01*
X008619Y007763D01*
X008433Y007950D01*
X008433Y009045D01*
X008826Y009438D01*
X008826Y009832D01*
X008905Y009911D01*
X009416Y010423D01*
X009416Y010571D01*
X009311Y010676D01*
X009163Y010676D01*
X008651Y010164D01*
X008572Y010086D01*
X008467Y009981D01*
X008467Y009971D01*
X008459Y009991D01*
X008377Y010073D01*
X008343Y010087D01*
X008315Y010115D01*
X008290Y010164D01*
X008253Y010177D01*
X008118Y010312D01*
X008000Y010430D01*
X007871Y010559D01*
X006036Y010559D01*
X005319Y009841D01*
X005282Y009841D01*
X005175Y009797D01*
X005094Y009716D01*
X005050Y009610D01*
X005050Y009494D01*
X005094Y009388D01*
X005175Y009307D01*
X005282Y009263D01*
X005397Y009263D01*
X005503Y009307D01*
X005585Y009388D01*
X005629Y009494D01*
X005629Y009531D01*
X006218Y010120D01*
X007689Y010120D01*
X007808Y010002D01*
X007924Y009885D01*
X007924Y009797D01*
X007882Y009840D01*
X007753Y009968D01*
X007458Y009968D01*
X007432Y009994D01*
X007326Y010038D01*
X007211Y010038D01*
X007105Y009994D01*
X007023Y009913D01*
X006979Y009806D01*
X006979Y009691D01*
X007023Y009585D01*
X007105Y009504D01*
X007211Y009459D01*
X007326Y009459D01*
X007432Y009504D01*
X007458Y009529D01*
X007571Y009529D01*
X007994Y009107D01*
X007994Y007768D01*
X008437Y007325D01*
X009028Y007325D01*
X009070Y007223D01*
X009152Y007141D01*
X009207Y007118D01*
X009210Y006534D01*
X009207Y006531D01*
X009208Y006531D01*
X009207Y006531D02*
X009207Y006582D01*
X009163Y006688D01*
X009082Y006770D01*
X008976Y006814D01*
X008946Y006814D01*
X008944Y006816D01*
X008941Y006816D01*
X008938Y006819D01*
X008850Y006819D01*
X008762Y006821D01*
X008760Y006819D01*
X008580Y006819D01*
X007832Y007567D01*
X003659Y007567D01*
X003000Y008226D01*
X003000Y008712D01*
X003030Y008786D01*
X003030Y008901D01*
X002986Y009007D01*
X002905Y009089D01*
X002799Y009133D01*
X002683Y009133D01*
X002577Y009089D01*
X002496Y009007D01*
X002452Y008901D01*
X002452Y008786D01*
X002496Y008679D01*
X002561Y008614D01*
X002561Y008044D01*
X003348Y007256D01*
X003477Y007128D01*
X007650Y007128D01*
X008270Y006508D01*
X008398Y006380D01*
X008665Y006380D01*
X008673Y006360D01*
X008754Y006279D01*
X008828Y006248D01*
X007974Y006251D01*
X007571Y006655D01*
X007571Y006659D01*
X007442Y006787D01*
X007438Y006787D01*
X007430Y006795D01*
X007249Y006795D01*
X007241Y006787D01*
X004308Y006787D01*
X004179Y006659D01*
X002812Y005291D01*
X002344Y005293D01*
X002444Y005334D01*
X002481Y005371D01*
X002580Y005376D01*
X002667Y005378D01*
X002670Y005381D01*
X002674Y005381D01*
X002732Y005446D01*
X003012Y005737D01*
X003074Y005800D01*
X003074Y005802D01*
X003076Y005804D01*
X003074Y005893D01*
X003074Y007068D01*
X002946Y007197D01*
X002427Y007715D01*
X002375Y007841D01*
X002243Y007974D01*
X002071Y008045D01*
X001884Y008045D01*
X001711Y007974D01*
X001579Y007841D01*
X001560Y007795D01*
X001394Y007795D01*
X001375Y007841D01*
X001243Y007974D01*
X001071Y008045D01*
X000884Y008045D01*
X000711Y007974D01*
X000579Y007841D01*
X000508Y007669D01*
X000508Y007482D01*
X000579Y007310D01*
X000711Y007178D01*
X000884Y007106D01*
X001071Y007106D01*
X001243Y007178D01*
X001375Y007310D01*
X001394Y007356D01*
X001560Y007356D01*
X001579Y007310D01*
X001711Y007178D01*
X001884Y007106D01*
X002071Y007106D01*
X002243Y007178D01*
X002294Y007228D01*
X002636Y006886D01*
X002636Y005979D01*
X002473Y005810D01*
X002460Y005809D01*
X002444Y005825D01*
X002338Y005869D01*
X002223Y005869D01*
X002116Y005825D01*
X002035Y005743D01*
X001991Y005637D01*
X001991Y005522D01*
X002035Y005416D01*
X002116Y005334D01*
X002216Y005293D01*
X001706Y005295D01*
X001615Y005295D01*
X001525Y005295D01*
X001524Y005295D01*
X001509Y005295D01*
X001487Y005317D01*
X001487Y005361D01*
X001443Y005468D01*
X001362Y005549D01*
X001255Y005593D01*
X001140Y005593D01*
X001034Y005549D01*
X000952Y005468D01*
X000908Y005361D01*
X000908Y005246D01*
X000952Y005140D01*
X001034Y005059D01*
X001055Y005050D01*
X001107Y004998D01*
X001186Y004998D01*
X001292Y004892D01*
X001228Y004884D01*
X001136Y004859D01*
X001047Y004822D01*
X000964Y004774D01*
X000889Y004716D01*
X000821Y004648D01*
X000763Y004573D01*
X000715Y004490D01*
X000678Y004401D01*
X000653Y004309D01*
X000641Y004214D01*
X000641Y004206D01*
X001331Y004206D01*
X001331Y004856D01*
X001410Y004856D01*
X001410Y004206D01*
X001331Y004206D01*
X001331Y004127D01*
X000641Y004127D01*
X000641Y004118D01*
X000653Y004023D01*
X000678Y003931D01*
X000715Y003843D01*
X000763Y003760D01*
X000821Y003684D01*
X000889Y003616D01*
X000964Y003558D01*
X001047Y003510D01*
X001136Y003473D01*
X001228Y003449D01*
X001323Y003436D01*
X001331Y003436D01*
X001331Y004127D01*
X001410Y004127D01*
X001410Y003436D01*
X001419Y003436D01*
X001514Y003449D01*
X001606Y003473D01*
X001694Y003510D01*
X001777Y003558D01*
X001853Y003616D01*
X001921Y003684D01*
X001979Y003760D01*
X002027Y003843D01*
X002064Y003931D01*
X002088Y004023D01*
X002101Y004118D01*
X002101Y004127D01*
X001410Y004127D01*
X001410Y004206D01*
X002101Y004206D01*
X002101Y004214D01*
X002088Y004309D01*
X002064Y004401D01*
X002027Y004490D01*
X001979Y004573D01*
X001921Y004648D01*
X001853Y004716D01*
X001777Y004774D01*
X001694Y004822D01*
X001612Y004856D01*
X001615Y004856D01*
X002811Y004853D01*
X002811Y004852D01*
X002902Y004852D01*
X002993Y004852D01*
X002993Y004852D01*
X002993Y004852D01*
X003057Y004916D01*
X003127Y004986D02*
X011007Y004986D01*
X010892Y005063D02*
X003204Y005063D01*
X003282Y005141D02*
X010815Y005141D01*
X010781Y005218D02*
X003359Y005218D01*
X003436Y005295D02*
X010749Y005295D01*
X010740Y005372D02*
X003513Y005372D01*
X003591Y005450D02*
X010740Y005450D01*
X010750Y005527D02*
X003668Y005527D01*
X003745Y005604D02*
X010782Y005604D01*
X010817Y005681D02*
X003822Y005681D01*
X003900Y005759D02*
X010894Y005759D01*
X010990Y005836D02*
X009148Y005836D01*
X009224Y005913D02*
X010990Y005913D01*
X010990Y005990D02*
X009296Y005990D01*
X009370Y006068D02*
X010990Y006068D01*
X010990Y006145D02*
X009445Y006145D01*
X009519Y006222D02*
X010990Y006222D01*
X010990Y006299D02*
X009594Y006299D01*
X009651Y006376D02*
X010990Y006376D01*
X010990Y006454D02*
X009649Y006454D01*
X009649Y006531D02*
X010990Y006531D01*
X010990Y006608D02*
X009649Y006608D01*
X009648Y006685D02*
X010990Y006685D01*
X010990Y006763D02*
X009648Y006763D01*
X009647Y006840D02*
X010990Y006840D01*
X010990Y006917D02*
X009647Y006917D01*
X009647Y006994D02*
X010990Y006994D01*
X010990Y007072D02*
X009646Y007072D01*
X009646Y007149D02*
X010990Y007149D01*
X010990Y007226D02*
X009646Y007226D01*
X009645Y007303D02*
X010990Y007303D01*
X010990Y007381D02*
X009645Y007381D01*
X009599Y007458D02*
X010990Y007458D01*
X010990Y007535D02*
X009567Y007535D01*
X009499Y007612D02*
X010990Y007612D01*
X010990Y007690D02*
X009362Y007690D01*
X009198Y007544D02*
X008725Y007544D01*
X008616Y007767D02*
X010990Y007767D01*
X010990Y007844D02*
X008539Y007844D01*
X008461Y007921D02*
X010990Y007921D01*
X010990Y007999D02*
X008433Y007999D01*
X008433Y008076D02*
X010990Y008076D01*
X010983Y008153D02*
X008433Y008153D01*
X008433Y008230D02*
X010906Y008230D01*
X010829Y008308D02*
X008433Y008308D01*
X008433Y008385D02*
X010751Y008385D01*
X010674Y008462D02*
X008433Y008462D01*
X008433Y008539D02*
X010597Y008539D01*
X010520Y008616D02*
X008433Y008616D01*
X008433Y008694D02*
X010443Y008694D01*
X010365Y008771D02*
X008433Y008771D01*
X008433Y008848D02*
X010288Y008848D01*
X010211Y008925D02*
X008433Y008925D01*
X008433Y009003D02*
X010134Y009003D01*
X010056Y009080D02*
X009455Y009080D01*
X009310Y009080D02*
X008467Y009080D01*
X008545Y009157D02*
X009179Y009157D01*
X009123Y009234D02*
X008622Y009234D01*
X008699Y009312D02*
X009093Y009312D01*
X009093Y009389D02*
X008776Y009389D01*
X008826Y009466D02*
X009112Y009466D01*
X009154Y009543D02*
X008826Y009543D01*
X008826Y009621D02*
X009248Y009621D01*
X009517Y009621D02*
X011995Y009621D01*
X011995Y009698D02*
X008826Y009698D01*
X008826Y009775D02*
X011995Y009775D01*
X011995Y009852D02*
X008846Y009852D01*
X008923Y009930D02*
X011995Y009930D01*
X011995Y010007D02*
X009001Y010007D01*
X009078Y010084D02*
X011995Y010084D01*
X011995Y010161D02*
X009155Y010161D01*
X009232Y010239D02*
X011995Y010239D01*
X011995Y010316D02*
X009310Y010316D01*
X009387Y010393D02*
X011995Y010393D01*
X011995Y010470D02*
X009416Y010470D01*
X009416Y010547D02*
X011995Y010547D01*
X011995Y010625D02*
X009363Y010625D01*
X009111Y010625D02*
X001603Y010625D01*
X001768Y010547D02*
X006025Y010547D01*
X005947Y010470D02*
X001846Y010470D01*
X001923Y010393D02*
X005870Y010393D01*
X005793Y010316D02*
X001970Y010316D01*
X002002Y010239D02*
X005716Y010239D01*
X005638Y010161D02*
X002033Y010161D01*
X002053Y010084D02*
X005561Y010084D01*
X005484Y010007D02*
X002053Y010007D01*
X002053Y009930D02*
X005407Y009930D01*
X005329Y009852D02*
X002053Y009852D01*
X002026Y009775D02*
X005153Y009775D01*
X005087Y009698D02*
X001994Y009698D01*
X001962Y009621D02*
X005055Y009621D01*
X005050Y009543D02*
X003474Y009543D01*
X003456Y009561D02*
X003537Y009480D01*
X003581Y009373D01*
X003581Y009258D01*
X003537Y009152D01*
X003511Y009126D01*
X003511Y008698D01*
X004013Y008197D01*
X005071Y008197D01*
X005097Y008222D01*
X005203Y008267D01*
X005318Y008267D01*
X005425Y008222D01*
X005506Y008141D01*
X005550Y008035D01*
X005550Y007920D01*
X005506Y007813D01*
X005425Y007732D01*
X005318Y007688D01*
X005203Y007688D01*
X005097Y007732D01*
X005071Y007758D01*
X003831Y007758D01*
X003703Y007886D01*
X003073Y008516D01*
X003073Y009126D01*
X003047Y009152D01*
X003003Y009258D01*
X003003Y009373D01*
X003047Y009480D01*
X003128Y009561D01*
X003235Y009605D01*
X003350Y009605D01*
X003456Y009561D01*
X003543Y009466D02*
X005062Y009466D01*
X005094Y009389D02*
X003575Y009389D01*
X003581Y009312D02*
X005170Y009312D01*
X005508Y009312D02*
X007789Y009312D01*
X007712Y009389D02*
X005585Y009389D01*
X005617Y009466D02*
X007195Y009466D01*
X007342Y009466D02*
X007635Y009466D01*
X007866Y009234D02*
X003572Y009234D01*
X003540Y009157D02*
X007944Y009157D01*
X007994Y009080D02*
X003511Y009080D01*
X003511Y009003D02*
X007994Y009003D01*
X007994Y008925D02*
X003511Y008925D01*
X003511Y008848D02*
X007994Y008848D01*
X007994Y008771D02*
X003511Y008771D01*
X003516Y008694D02*
X007994Y008694D01*
X007994Y008616D02*
X003593Y008616D01*
X003670Y008539D02*
X007994Y008539D01*
X007994Y008462D02*
X003747Y008462D01*
X003825Y008385D02*
X007994Y008385D01*
X007994Y008308D02*
X003902Y008308D01*
X003979Y008230D02*
X005115Y008230D01*
X005406Y008230D02*
X007994Y008230D01*
X007994Y008153D02*
X005494Y008153D01*
X005533Y008076D02*
X007994Y008076D01*
X007994Y007999D02*
X005550Y007999D01*
X005550Y007921D02*
X007994Y007921D01*
X007994Y007844D02*
X005519Y007844D01*
X005460Y007767D02*
X007995Y007767D01*
X008073Y007690D02*
X005322Y007690D01*
X005199Y007690D02*
X003536Y007690D01*
X003458Y007767D02*
X003822Y007767D01*
X003745Y007844D02*
X003381Y007844D01*
X003304Y007921D02*
X003668Y007921D01*
X003590Y007999D02*
X003227Y007999D01*
X003149Y008076D02*
X003513Y008076D01*
X003436Y008153D02*
X003072Y008153D01*
X003000Y008230D02*
X003359Y008230D01*
X003281Y008308D02*
X003000Y008308D01*
X003000Y008385D02*
X003204Y008385D01*
X003127Y008462D02*
X003000Y008462D01*
X003000Y008539D02*
X003073Y008539D01*
X003073Y008616D02*
X003000Y008616D01*
X003000Y008694D02*
X003073Y008694D01*
X003073Y008771D02*
X003024Y008771D01*
X003030Y008848D02*
X003073Y008848D01*
X003073Y008925D02*
X003020Y008925D01*
X002988Y009003D02*
X003073Y009003D01*
X003073Y009080D02*
X002914Y009080D01*
X003045Y009157D02*
X000489Y009157D01*
X000489Y009080D02*
X002568Y009080D01*
X002494Y009003D02*
X000489Y009003D01*
X000489Y008925D02*
X002462Y008925D01*
X002452Y008848D02*
X000489Y008848D01*
X000489Y008771D02*
X002458Y008771D01*
X002490Y008694D02*
X000489Y008694D01*
X000489Y008616D02*
X002559Y008616D01*
X002561Y008539D02*
X000489Y008539D01*
X000489Y008462D02*
X002561Y008462D01*
X002561Y008385D02*
X000489Y008385D01*
X000489Y008308D02*
X002561Y008308D01*
X002561Y008230D02*
X000489Y008230D01*
X000489Y008153D02*
X002561Y008153D01*
X002561Y008076D02*
X000489Y008076D01*
X000489Y007999D02*
X000772Y007999D01*
X000659Y007921D02*
X000489Y007921D01*
X000489Y007844D02*
X000582Y007844D01*
X000548Y007767D02*
X000489Y007767D01*
X000489Y007690D02*
X000516Y007690D01*
X000508Y007612D02*
X000489Y007612D01*
X000489Y007535D02*
X000508Y007535D01*
X000518Y007458D02*
X000489Y007458D01*
X000489Y007381D02*
X000550Y007381D01*
X000586Y007303D02*
X000489Y007303D01*
X000489Y007226D02*
X000663Y007226D01*
X000781Y007149D02*
X000489Y007149D01*
X000489Y007072D02*
X002450Y007072D01*
X002373Y007149D02*
X002174Y007149D01*
X002291Y007226D02*
X002296Y007226D01*
X002189Y006994D02*
X002528Y006994D01*
X002605Y006917D02*
X002295Y006917D01*
X002239Y006974D02*
X002371Y006841D01*
X002443Y006669D01*
X002443Y006482D01*
X002371Y006310D01*
X002239Y006178D01*
X002067Y006106D01*
X001880Y006106D01*
X001707Y006178D01*
X001575Y006310D01*
X001556Y006356D01*
X001390Y006356D01*
X001371Y006310D01*
X001239Y006178D01*
X001067Y006106D01*
X000880Y006106D01*
X000707Y006178D01*
X000575Y006310D01*
X000504Y006482D01*
X000504Y006669D01*
X000575Y006841D01*
X000707Y006974D01*
X000880Y007045D01*
X001067Y007045D01*
X001239Y006974D01*
X001371Y006841D01*
X001390Y006795D01*
X001556Y006795D01*
X001575Y006841D01*
X001707Y006974D01*
X001880Y007045D01*
X002067Y007045D01*
X002239Y006974D01*
X002372Y006840D02*
X002636Y006840D01*
X002636Y006763D02*
X002404Y006763D01*
X002436Y006685D02*
X002636Y006685D01*
X002636Y006608D02*
X002443Y006608D01*
X002443Y006531D02*
X002636Y006531D01*
X002636Y006454D02*
X002431Y006454D01*
X002399Y006376D02*
X002636Y006376D01*
X002636Y006299D02*
X002361Y006299D01*
X002283Y006222D02*
X002636Y006222D01*
X002636Y006145D02*
X002160Y006145D01*
X002143Y005836D02*
X000489Y005836D01*
X000489Y005913D02*
X002573Y005913D01*
X002636Y005990D02*
X000489Y005990D01*
X000489Y006068D02*
X002636Y006068D01*
X002498Y005836D02*
X002418Y005836D01*
X002050Y005759D02*
X000489Y005759D01*
X000489Y005681D02*
X002009Y005681D01*
X001991Y005604D02*
X000489Y005604D01*
X000489Y005527D02*
X001011Y005527D01*
X000945Y005450D02*
X000489Y005450D01*
X000489Y005372D02*
X000913Y005372D01*
X000908Y005295D02*
X000489Y005295D01*
X000489Y005218D02*
X000920Y005218D01*
X000952Y005141D02*
X000489Y005141D01*
X000489Y005063D02*
X001029Y005063D01*
X001197Y004986D02*
X000489Y004986D01*
X000489Y004909D02*
X001275Y004909D01*
X001331Y004832D02*
X001410Y004832D01*
X001410Y004754D02*
X001331Y004754D01*
X001331Y004677D02*
X001410Y004677D01*
X001410Y004600D02*
X001331Y004600D01*
X001331Y004523D02*
X001410Y004523D01*
X001410Y004445D02*
X001331Y004445D01*
X001331Y004368D02*
X001410Y004368D01*
X001410Y004291D02*
X001331Y004291D01*
X001331Y004214D02*
X001410Y004214D01*
X001410Y004137D02*
X010819Y004137D01*
X010812Y004144D02*
X010944Y004012D01*
X011116Y003941D01*
X011303Y003941D01*
X011475Y004012D01*
X011607Y004144D01*
X011679Y004317D01*
X011679Y004504D01*
X011607Y004676D01*
X011475Y004808D01*
X011303Y004880D01*
X011116Y004880D01*
X010944Y004808D01*
X010812Y004676D01*
X010740Y004504D01*
X010740Y004317D01*
X010812Y004144D01*
X010783Y004214D02*
X002101Y004214D01*
X002091Y004291D02*
X010751Y004291D01*
X010740Y004368D02*
X002072Y004368D01*
X002045Y004445D02*
X010740Y004445D01*
X010748Y004523D02*
X002008Y004523D01*
X001958Y004600D02*
X010780Y004600D01*
X010813Y004677D02*
X001892Y004677D01*
X001803Y004754D02*
X010890Y004754D01*
X011000Y004832D02*
X001671Y004832D01*
X001706Y005295D02*
X001706Y005295D01*
X001561Y005295D02*
X002211Y005295D01*
X002350Y005295D02*
X002816Y005295D01*
X002893Y005372D02*
X002512Y005372D01*
X002736Y005450D02*
X002970Y005450D01*
X003047Y005527D02*
X002810Y005527D01*
X002884Y005604D02*
X003125Y005604D01*
X003202Y005681D02*
X002958Y005681D01*
X003033Y005759D02*
X003279Y005759D01*
X003356Y005836D02*
X003076Y005836D01*
X003074Y005913D02*
X003434Y005913D01*
X003511Y005990D02*
X003074Y005990D01*
X003074Y006068D02*
X003588Y006068D01*
X003665Y006145D02*
X003074Y006145D01*
X003074Y006222D02*
X003742Y006222D01*
X003820Y006299D02*
X003074Y006299D01*
X003074Y006376D02*
X003897Y006376D01*
X003974Y006454D02*
X003074Y006454D01*
X003074Y006531D02*
X004051Y006531D01*
X004129Y006608D02*
X003074Y006608D01*
X003074Y006685D02*
X004206Y006685D01*
X004283Y006763D02*
X003074Y006763D01*
X003074Y006840D02*
X007938Y006840D01*
X007861Y006917D02*
X003074Y006917D01*
X003074Y006994D02*
X007784Y006994D01*
X007706Y007072D02*
X003071Y007072D01*
X002994Y007149D02*
X003456Y007149D01*
X003379Y007226D02*
X002916Y007226D01*
X002839Y007303D02*
X003301Y007303D01*
X003224Y007381D02*
X002762Y007381D01*
X002685Y007458D02*
X003147Y007458D01*
X003070Y007535D02*
X002607Y007535D01*
X002530Y007612D02*
X002992Y007612D01*
X002915Y007690D02*
X002453Y007690D01*
X002406Y007767D02*
X002838Y007767D01*
X002761Y007844D02*
X002372Y007844D01*
X002295Y007921D02*
X002683Y007921D01*
X002606Y007999D02*
X002183Y007999D01*
X001772Y007999D02*
X001183Y007999D01*
X001295Y007921D02*
X001659Y007921D01*
X001582Y007844D02*
X001372Y007844D01*
X001369Y007303D02*
X001586Y007303D01*
X001663Y007226D02*
X001291Y007226D01*
X001174Y007149D02*
X001781Y007149D01*
X001758Y006994D02*
X001189Y006994D01*
X001295Y006917D02*
X001651Y006917D01*
X001575Y006840D02*
X001372Y006840D01*
X001361Y006299D02*
X001586Y006299D01*
X001663Y006222D02*
X001283Y006222D01*
X001160Y006145D02*
X001787Y006145D01*
X001991Y005527D02*
X001384Y005527D01*
X001451Y005450D02*
X002021Y005450D01*
X002078Y005372D02*
X001483Y005372D01*
X001509Y005295D02*
X001525Y005295D01*
X001070Y004832D02*
X000489Y004832D01*
X000489Y004754D02*
X000939Y004754D01*
X000850Y004677D02*
X000489Y004677D01*
X000489Y004600D02*
X000784Y004600D01*
X000734Y004523D02*
X000489Y004523D01*
X000489Y004445D02*
X000697Y004445D01*
X000669Y004368D02*
X000489Y004368D01*
X000489Y004291D02*
X000651Y004291D01*
X000641Y004214D02*
X000489Y004214D01*
X000489Y004137D02*
X001331Y004137D01*
X001331Y004059D02*
X001410Y004059D01*
X001410Y003982D02*
X001331Y003982D01*
X001331Y003905D02*
X001410Y003905D01*
X001410Y003828D02*
X001331Y003828D01*
X001331Y003750D02*
X001410Y003750D01*
X001410Y003673D02*
X001331Y003673D01*
X001331Y003596D02*
X001410Y003596D01*
X001410Y003519D02*
X001331Y003519D01*
X001331Y003441D02*
X001410Y003441D01*
X001458Y003441D02*
X010740Y003441D01*
X010740Y003504D02*
X010740Y003317D01*
X010812Y003144D01*
X010944Y003012D01*
X011116Y002941D01*
X011303Y002941D01*
X011475Y003012D01*
X011607Y003144D01*
X011679Y003317D01*
X011679Y003504D01*
X011607Y003676D01*
X011475Y003808D01*
X011303Y003880D01*
X011116Y003880D01*
X010944Y003808D01*
X010812Y003676D01*
X010740Y003504D01*
X010746Y003519D02*
X001709Y003519D01*
X001827Y003596D02*
X010778Y003596D01*
X010810Y003673D02*
X001910Y003673D01*
X001972Y003750D02*
X010886Y003750D01*
X010990Y003828D02*
X002018Y003828D01*
X002053Y003905D02*
X012189Y003905D01*
X012250Y003966D02*
X011961Y003677D01*
X011833Y003548D01*
X011833Y001863D01*
X011670Y001931D01*
X011395Y001931D01*
X011141Y001826D01*
X010947Y001632D01*
X010842Y001378D01*
X010842Y001104D01*
X010947Y000850D01*
X011141Y000656D01*
X011395Y000551D01*
X011670Y000551D01*
X011923Y000656D01*
X012117Y000850D01*
X012222Y001104D01*
X012222Y001378D01*
X012151Y001550D01*
X012271Y001670D01*
X012271Y002530D01*
X012288Y002466D01*
X012325Y002378D01*
X012373Y002295D01*
X012431Y002219D01*
X012499Y002152D01*
X012575Y002093D01*
X012658Y002046D01*
X012746Y002009D01*
X012838Y001984D01*
X012933Y001972D01*
X012942Y001972D01*
X012942Y002662D01*
X013020Y002662D01*
X013020Y001972D01*
X013029Y001972D01*
X013124Y001984D01*
X013216Y002009D01*
X013305Y002046D01*
X013387Y002093D01*
X013463Y002152D01*
X013531Y002219D01*
X013589Y002295D01*
X013637Y002378D01*
X013674Y002466D01*
X013699Y002559D01*
X013711Y002654D01*
X013711Y002662D01*
X013020Y002662D01*
X013020Y002741D01*
X012942Y002741D01*
X012942Y003431D01*
X012933Y003431D01*
X012838Y003419D01*
X012746Y003394D01*
X012658Y003358D01*
X012575Y003310D01*
X012499Y003252D01*
X012431Y003184D01*
X012373Y003108D01*
X012325Y003025D01*
X012288Y002937D01*
X012271Y002873D01*
X012271Y003367D01*
X012534Y003629D01*
X012586Y003577D01*
X012840Y003472D01*
X013114Y003472D01*
X013368Y003577D01*
X013562Y003771D01*
X013667Y004025D01*
X013667Y004299D01*
X013562Y004553D01*
X013368Y004747D01*
X013114Y004852D01*
X012840Y004852D01*
X012586Y004747D01*
X012392Y004553D01*
X012287Y004299D01*
X012287Y004025D01*
X012294Y004009D01*
X012250Y003966D01*
X012250Y003966D01*
X012266Y003982D02*
X011402Y003982D01*
X011522Y004059D02*
X012287Y004059D01*
X012287Y004137D02*
X011600Y004137D01*
X011636Y004214D02*
X012287Y004214D01*
X012287Y004291D02*
X011668Y004291D01*
X011679Y004368D02*
X012316Y004368D01*
X012348Y004445D02*
X011679Y004445D01*
X011671Y004523D02*
X012380Y004523D01*
X012439Y004600D02*
X011639Y004600D01*
X011606Y004677D02*
X012516Y004677D01*
X012604Y004754D02*
X011529Y004754D01*
X011419Y004832D02*
X012791Y004832D01*
X013164Y004832D02*
X013890Y004832D01*
X013890Y004754D02*
X013350Y004754D01*
X013438Y004677D02*
X013890Y004677D01*
X013890Y004600D02*
X013515Y004600D01*
X013575Y004523D02*
X013890Y004523D01*
X013890Y004445D02*
X013607Y004445D01*
X013639Y004368D02*
X013890Y004368D01*
X013890Y004291D02*
X013667Y004291D01*
X013667Y004214D02*
X013890Y004214D01*
X013890Y004137D02*
X013667Y004137D01*
X013667Y004059D02*
X013890Y004059D01*
X013890Y003982D02*
X013649Y003982D01*
X013617Y003905D02*
X013890Y003905D01*
X013890Y003828D02*
X013585Y003828D01*
X013541Y003750D02*
X013890Y003750D01*
X013890Y003673D02*
X013464Y003673D01*
X013386Y003596D02*
X013890Y003596D01*
X013890Y003519D02*
X013226Y003519D01*
X013216Y003394D02*
X013124Y003419D01*
X013029Y003431D01*
X013020Y003431D01*
X013020Y002741D01*
X013711Y002741D01*
X013711Y002749D01*
X013699Y002844D01*
X013674Y002937D01*
X013637Y003025D01*
X013589Y003108D01*
X013531Y003184D01*
X013463Y003252D01*
X013387Y003310D01*
X013305Y003358D01*
X013216Y003394D01*
X013289Y003364D02*
X013890Y003364D01*
X013890Y003287D02*
X013417Y003287D01*
X013505Y003210D02*
X013890Y003210D01*
X013890Y003132D02*
X013571Y003132D01*
X013620Y003055D02*
X013890Y003055D01*
X013890Y002978D02*
X013657Y002978D01*
X013683Y002901D02*
X013890Y002901D01*
X013890Y002823D02*
X013701Y002823D01*
X013711Y002746D02*
X013890Y002746D01*
X013890Y002669D02*
X013020Y002669D01*
X013020Y002746D02*
X012942Y002746D01*
X012942Y002741D02*
X012271Y002741D01*
X012271Y002662D01*
X012942Y002662D01*
X012942Y002741D01*
X012942Y002669D02*
X012271Y002669D01*
X012271Y002514D02*
X012276Y002514D01*
X012271Y002437D02*
X012301Y002437D01*
X012271Y002360D02*
X012335Y002360D01*
X012382Y002283D02*
X012271Y002283D01*
X012271Y002206D02*
X012445Y002206D01*
X012529Y002128D02*
X012271Y002128D01*
X012271Y002051D02*
X012648Y002051D01*
X012917Y001974D02*
X012271Y001974D01*
X012271Y001897D02*
X013890Y001897D01*
X013890Y001974D02*
X013045Y001974D01*
X013020Y001974D02*
X012942Y001974D01*
X012942Y002051D02*
X013020Y002051D01*
X013020Y002128D02*
X012942Y002128D01*
X012942Y002206D02*
X013020Y002206D01*
X013020Y002283D02*
X012942Y002283D01*
X012942Y002360D02*
X013020Y002360D01*
X013020Y002437D02*
X012942Y002437D01*
X012942Y002514D02*
X013020Y002514D01*
X013020Y002592D02*
X012942Y002592D01*
X012942Y002823D02*
X013020Y002823D01*
X013020Y002901D02*
X012942Y002901D01*
X012942Y002978D02*
X013020Y002978D01*
X013020Y003055D02*
X012942Y003055D01*
X012942Y003132D02*
X013020Y003132D01*
X013020Y003210D02*
X012942Y003210D01*
X012942Y003287D02*
X013020Y003287D01*
X013020Y003364D02*
X012942Y003364D01*
X012728Y003519D02*
X012423Y003519D01*
X012501Y003596D02*
X012568Y003596D01*
X012346Y003441D02*
X013890Y003441D01*
X013890Y002592D02*
X013703Y002592D01*
X013687Y002514D02*
X013890Y002514D01*
X013890Y002437D02*
X013662Y002437D01*
X013627Y002360D02*
X013890Y002360D01*
X013890Y002283D02*
X013580Y002283D01*
X013517Y002206D02*
X013890Y002206D01*
X013890Y002128D02*
X013433Y002128D01*
X013314Y002051D02*
X013890Y002051D01*
X013890Y001819D02*
X013269Y001819D01*
X013062Y001819D02*
X012271Y001819D01*
X012271Y001742D02*
X012825Y001742D01*
X012728Y001665D02*
X012266Y001665D01*
X012189Y001588D02*
X012642Y001588D01*
X012564Y001510D02*
X012167Y001510D01*
X012199Y001433D02*
X012530Y001433D01*
X012495Y001356D02*
X012222Y001356D01*
X012222Y001279D02*
X012461Y001279D01*
X012438Y001201D02*
X012222Y001201D01*
X012222Y001124D02*
X012438Y001124D01*
X012438Y001047D02*
X012199Y001047D01*
X012167Y000970D02*
X012438Y000970D01*
X012445Y000892D02*
X012135Y000892D01*
X012082Y000815D02*
X012479Y000815D01*
X012514Y000738D02*
X012005Y000738D01*
X011928Y000661D02*
X012548Y000661D01*
X012603Y000583D02*
X011748Y000583D01*
X011317Y000583D02*
X010384Y000583D01*
X010387Y000585D02*
X010470Y000633D01*
X010546Y000691D01*
X010614Y000759D01*
X010672Y000835D01*
X010720Y000917D01*
X010756Y001006D01*
X010781Y001098D01*
X010794Y001193D01*
X010794Y001202D01*
X010103Y001202D01*
X010103Y001280D01*
X010794Y001280D01*
X010794Y001289D01*
X010781Y001384D01*
X010756Y001476D01*
X010720Y001564D01*
X010672Y001647D01*
X010614Y001723D01*
X010546Y001791D01*
X010470Y001849D01*
X010387Y001897D01*
X010299Y001934D01*
X010206Y001958D01*
X010112Y001971D01*
X010103Y001971D01*
X010103Y001280D01*
X010024Y001280D01*
X010024Y001202D01*
X009334Y001202D01*
X009334Y001193D01*
X009346Y001098D01*
X009371Y001006D01*
X009408Y000917D01*
X009456Y000835D01*
X009514Y000759D01*
X009581Y000691D01*
X009657Y000633D01*
X009740Y000585D01*
X009829Y000548D01*
X009921Y000524D01*
X010016Y000511D01*
X010024Y000511D01*
X010024Y001202D01*
X010103Y001202D01*
X010103Y000511D01*
X010112Y000511D01*
X010206Y000524D01*
X010299Y000548D01*
X010387Y000585D01*
X010507Y000661D02*
X011137Y000661D01*
X011060Y000738D02*
X010593Y000738D01*
X010657Y000815D02*
X010982Y000815D01*
X010930Y000892D02*
X010705Y000892D01*
X010741Y000970D02*
X010898Y000970D01*
X010866Y001047D02*
X010767Y001047D01*
X010785Y001124D02*
X010842Y001124D01*
X010842Y001201D02*
X010794Y001201D01*
X010842Y001279D02*
X010103Y001279D01*
X010103Y001356D02*
X010024Y001356D01*
X010024Y001280D02*
X010024Y001971D01*
X010016Y001971D01*
X009921Y001958D01*
X009829Y001934D01*
X009740Y001897D01*
X009657Y001849D01*
X009581Y001791D01*
X009514Y001723D01*
X009456Y001647D01*
X009408Y001564D01*
X009371Y001476D01*
X009346Y001384D01*
X009334Y001289D01*
X009334Y001280D01*
X010024Y001280D01*
X010024Y001279D02*
X008722Y001279D01*
X008722Y001356D02*
X009343Y001356D01*
X009360Y001433D02*
X008699Y001433D01*
X008722Y001378D02*
X008651Y001550D01*
X008519Y001682D01*
X008346Y001754D01*
X008159Y001754D01*
X007987Y001682D01*
X007855Y001550D01*
X007783Y001378D01*
X007783Y001191D01*
X007855Y001018D01*
X007987Y000886D01*
X008159Y000815D01*
X007347Y000815D01*
X007346Y000815D02*
X007519Y000886D01*
X007651Y001018D01*
X007722Y001191D01*
X007722Y001378D01*
X007651Y001550D01*
X007519Y001682D01*
X007346Y001754D01*
X007159Y001754D01*
X006987Y001682D01*
X006855Y001550D01*
X006783Y001378D01*
X006783Y001191D01*
X006855Y001018D01*
X006987Y000886D01*
X007159Y000815D01*
X006347Y000815D01*
X006346Y000815D02*
X006519Y000886D01*
X006651Y001018D01*
X006722Y001191D01*
X006722Y001378D01*
X006651Y001550D01*
X006519Y001682D01*
X006346Y001754D01*
X006159Y001754D01*
X005987Y001682D01*
X005855Y001550D01*
X005783Y001378D01*
X005783Y001191D01*
X005855Y001018D01*
X005987Y000886D01*
X006159Y000815D01*
X004830Y000815D01*
X004865Y000850D02*
X004671Y000656D01*
X004418Y000551D01*
X004143Y000551D01*
X003890Y000656D01*
X003695Y000850D01*
X003590Y001104D01*
X003590Y001378D01*
X003695Y001632D01*
X003890Y001826D01*
X004143Y001931D01*
X004418Y001931D01*
X004671Y001826D01*
X004865Y001632D01*
X004970Y001378D01*
X004970Y001104D01*
X004865Y000850D01*
X004883Y000892D02*
X005981Y000892D01*
X005904Y000970D02*
X004915Y000970D01*
X004947Y001047D02*
X005843Y001047D01*
X005811Y001124D02*
X004970Y001124D01*
X004970Y001201D02*
X005783Y001201D01*
X005783Y001279D02*
X004970Y001279D01*
X004970Y001356D02*
X005783Y001356D01*
X005806Y001433D02*
X004947Y001433D01*
X004915Y001510D02*
X005838Y001510D01*
X005892Y001588D02*
X004883Y001588D01*
X004832Y001665D02*
X005970Y001665D01*
X006131Y001742D02*
X004755Y001742D01*
X004678Y001819D02*
X009618Y001819D01*
X009533Y001742D02*
X008374Y001742D01*
X008536Y001665D02*
X009469Y001665D01*
X009421Y001588D02*
X008613Y001588D01*
X008667Y001510D02*
X009385Y001510D01*
X009334Y001201D02*
X008722Y001201D01*
X008722Y001191D02*
X008651Y001018D01*
X008519Y000886D01*
X008346Y000815D01*
X008159Y000815D01*
X008347Y000815D02*
X009470Y000815D01*
X009422Y000892D02*
X008525Y000892D01*
X008602Y000970D02*
X009386Y000970D01*
X009360Y001047D02*
X008662Y001047D01*
X008694Y001124D02*
X009343Y001124D01*
X009535Y000738D02*
X004753Y000738D01*
X004676Y000661D02*
X009621Y000661D01*
X009744Y000583D02*
X004496Y000583D01*
X004065Y000583D02*
X003130Y000583D01*
X003143Y000589D02*
X003055Y000552D01*
X002962Y000527D01*
X002868Y000515D01*
X002859Y000515D01*
X002859Y001206D01*
X002859Y001284D01*
X003550Y001284D01*
X003550Y001293D01*
X003537Y001388D01*
X003512Y001480D01*
X003476Y001568D01*
X003428Y001651D01*
X003370Y001727D01*
X003302Y001795D01*
X003226Y001853D01*
X003143Y001901D01*
X003055Y001938D01*
X002962Y001962D01*
X002868Y001975D01*
X002859Y001975D01*
X002859Y001284D01*
X002780Y001284D01*
X002780Y001206D01*
X002090Y001206D01*
X002090Y001197D01*
X002102Y001102D01*
X002127Y001010D01*
X002164Y000921D01*
X002211Y000838D01*
X002270Y000763D01*
X002337Y000695D01*
X002413Y000637D01*
X002496Y000589D01*
X002585Y000552D01*
X002677Y000527D01*
X002772Y000515D01*
X002780Y000515D01*
X002780Y001206D01*
X002859Y001206D01*
X003550Y001206D01*
X003550Y001197D01*
X003537Y001102D01*
X003512Y001010D01*
X003476Y000921D01*
X003428Y000838D01*
X003370Y000763D01*
X003302Y000695D01*
X003226Y000637D01*
X003143Y000589D01*
X003257Y000661D02*
X003885Y000661D01*
X003808Y000738D02*
X003345Y000738D01*
X003410Y000815D02*
X003730Y000815D01*
X003678Y000892D02*
X003459Y000892D01*
X003496Y000970D02*
X003646Y000970D01*
X003614Y001047D02*
X003522Y001047D01*
X003540Y001124D02*
X003590Y001124D01*
X003590Y001201D02*
X003550Y001201D01*
X003590Y001279D02*
X002859Y001279D01*
X002859Y001356D02*
X002780Y001356D01*
X002780Y001284D02*
X002780Y001975D01*
X002772Y001975D01*
X002677Y001962D01*
X002585Y001938D01*
X002496Y001901D01*
X002413Y001853D01*
X002337Y001795D01*
X002270Y001727D01*
X002211Y001651D01*
X002164Y001568D01*
X002127Y001480D01*
X002102Y001388D01*
X002090Y001293D01*
X002090Y001284D01*
X002780Y001284D01*
X002780Y001279D02*
X001913Y001279D01*
X001897Y001356D02*
X002098Y001356D01*
X002114Y001433D02*
X001854Y001433D01*
X001798Y001510D02*
X002140Y001510D01*
X002175Y001588D02*
X001742Y001588D01*
X001662Y001665D02*
X002222Y001665D01*
X002285Y001742D02*
X001529Y001742D01*
X001508Y002000D02*
X001234Y002000D01*
X000980Y002105D01*
X000786Y002299D01*
X000681Y002553D01*
X000681Y002827D01*
X000786Y003081D01*
X000980Y003275D01*
X001234Y003380D01*
X001508Y003380D01*
X001762Y003275D01*
X001956Y003081D01*
X002061Y002827D01*
X002061Y002553D01*
X001956Y002299D01*
X001762Y002105D01*
X001508Y002000D01*
X001632Y002051D02*
X011833Y002051D01*
X011833Y001974D02*
X002875Y001974D01*
X002859Y001974D02*
X002780Y001974D01*
X002764Y001974D02*
X000489Y001974D01*
X000489Y002051D02*
X001110Y002051D01*
X000957Y002128D02*
X000489Y002128D01*
X000489Y002206D02*
X000879Y002206D01*
X000802Y002283D02*
X000489Y002283D01*
X000489Y002360D02*
X000761Y002360D01*
X000729Y002437D02*
X000489Y002437D01*
X000489Y002514D02*
X000697Y002514D01*
X000681Y002592D02*
X000489Y002592D01*
X000489Y002669D02*
X000681Y002669D01*
X000681Y002746D02*
X000489Y002746D01*
X000489Y002823D02*
X000681Y002823D01*
X000711Y002901D02*
X000489Y002901D01*
X000489Y002978D02*
X000743Y002978D01*
X000775Y003055D02*
X000489Y003055D01*
X000489Y003132D02*
X000838Y003132D01*
X000915Y003210D02*
X000489Y003210D01*
X000489Y003287D02*
X001010Y003287D01*
X001196Y003364D02*
X000489Y003364D01*
X000489Y003441D02*
X001284Y003441D01*
X001033Y003519D02*
X000489Y003519D01*
X000489Y003596D02*
X000915Y003596D01*
X000832Y003673D02*
X000489Y003673D01*
X000489Y003750D02*
X000770Y003750D01*
X000724Y003828D02*
X000489Y003828D01*
X000489Y003905D02*
X000689Y003905D01*
X000665Y003982D02*
X000489Y003982D01*
X000489Y004059D02*
X000649Y004059D01*
X001546Y003364D02*
X010740Y003364D01*
X010753Y003287D02*
X001732Y003287D01*
X001827Y003210D02*
X010784Y003210D01*
X010824Y003132D02*
X001904Y003132D01*
X001966Y003055D02*
X010901Y003055D01*
X011027Y002978D02*
X001998Y002978D01*
X002030Y002901D02*
X011833Y002901D01*
X011833Y002978D02*
X011392Y002978D01*
X011518Y003055D02*
X011833Y003055D01*
X011833Y003132D02*
X011595Y003132D01*
X011634Y003210D02*
X011833Y003210D01*
X011833Y003287D02*
X011666Y003287D01*
X011679Y003364D02*
X011833Y003364D01*
X011833Y003441D02*
X011679Y003441D01*
X011673Y003519D02*
X011833Y003519D01*
X011880Y003596D02*
X011641Y003596D01*
X011609Y003673D02*
X011957Y003673D01*
X011961Y003677D02*
X011961Y003677D01*
X012035Y003750D02*
X011533Y003750D01*
X011428Y003828D02*
X012112Y003828D01*
X012271Y003364D02*
X012673Y003364D01*
X012545Y003287D02*
X012271Y003287D01*
X012271Y003210D02*
X012457Y003210D01*
X012392Y003132D02*
X012271Y003132D01*
X012271Y003055D02*
X012342Y003055D01*
X012306Y002978D02*
X012271Y002978D01*
X012271Y002901D02*
X012279Y002901D01*
X011833Y002823D02*
X002061Y002823D01*
X002061Y002746D02*
X011833Y002746D01*
X011833Y002669D02*
X002061Y002669D01*
X002061Y002592D02*
X011833Y002592D01*
X011833Y002514D02*
X002045Y002514D01*
X002013Y002437D02*
X011833Y002437D01*
X011833Y002360D02*
X001981Y002360D01*
X001940Y002283D02*
X011833Y002283D01*
X011833Y002206D02*
X001862Y002206D01*
X001785Y002128D02*
X011833Y002128D01*
X011833Y001897D02*
X011752Y001897D01*
X011312Y001897D02*
X010388Y001897D01*
X010509Y001819D02*
X011135Y001819D01*
X011058Y001742D02*
X010595Y001742D01*
X010659Y001665D02*
X010980Y001665D01*
X010929Y001588D02*
X010706Y001588D01*
X010742Y001510D02*
X010897Y001510D01*
X010865Y001433D02*
X010768Y001433D01*
X010785Y001356D02*
X010842Y001356D01*
X010497Y001639D02*
X010351Y001528D01*
X010103Y001510D02*
X010024Y001510D01*
X010024Y001433D02*
X010103Y001433D01*
X010103Y001588D02*
X010024Y001588D01*
X010024Y001665D02*
X010103Y001665D01*
X010103Y001742D02*
X010024Y001742D01*
X010024Y001819D02*
X010103Y001819D01*
X010103Y001897D02*
X010024Y001897D01*
X009739Y001897D02*
X004500Y001897D01*
X004060Y001897D02*
X003151Y001897D01*
X003270Y001819D02*
X003883Y001819D01*
X003806Y001742D02*
X003355Y001742D01*
X003417Y001665D02*
X003729Y001665D01*
X003677Y001588D02*
X003465Y001588D01*
X003500Y001510D02*
X003645Y001510D01*
X003613Y001433D02*
X003525Y001433D01*
X003541Y001356D02*
X003590Y001356D01*
X003174Y001639D02*
X003107Y001532D01*
X002859Y001510D02*
X002780Y001510D01*
X002780Y001433D02*
X002859Y001433D01*
X002859Y001588D02*
X002780Y001588D01*
X002780Y001665D02*
X002859Y001665D01*
X002859Y001742D02*
X002780Y001742D01*
X002780Y001819D02*
X002859Y001819D01*
X002859Y001897D02*
X002780Y001897D01*
X002489Y001897D02*
X000489Y001897D01*
X000489Y001819D02*
X001055Y001819D01*
X001261Y001819D02*
X002369Y001819D01*
X002090Y001201D02*
X001930Y001201D01*
X001946Y001124D02*
X002099Y001124D01*
X002117Y001047D02*
X001954Y001047D01*
X001937Y000970D02*
X002144Y000970D01*
X002180Y000892D02*
X001921Y000892D01*
X001904Y000815D02*
X002229Y000815D01*
X002294Y000738D02*
X001880Y000738D01*
X001824Y000661D02*
X002382Y000661D01*
X002509Y000583D02*
X001768Y000583D01*
X001712Y000506D02*
X012688Y000506D01*
X012774Y000429D02*
X001590Y000429D01*
X002780Y000583D02*
X002859Y000583D01*
X002859Y000661D02*
X002780Y000661D01*
X002780Y000738D02*
X002859Y000738D01*
X002859Y000815D02*
X002780Y000815D01*
X002780Y000892D02*
X002859Y000892D01*
X002859Y000970D02*
X002780Y000970D01*
X002780Y001047D02*
X002859Y001047D01*
X002859Y001124D02*
X002780Y001124D01*
X002780Y001201D02*
X002859Y001201D01*
X000817Y001742D02*
X000489Y001742D01*
X000489Y001665D02*
X000720Y001665D01*
X000634Y001588D02*
X000489Y001588D01*
X000489Y001510D02*
X000556Y001510D01*
X000522Y001433D02*
X000489Y001433D01*
X002077Y003982D02*
X011017Y003982D01*
X010897Y004059D02*
X002093Y004059D01*
X003977Y005836D02*
X007769Y005836D01*
X007692Y005913D02*
X004054Y005913D01*
X004131Y005990D02*
X007614Y005990D01*
X007537Y006068D02*
X004208Y006068D01*
X004286Y006145D02*
X007460Y006145D01*
X007383Y006222D02*
X004363Y006222D01*
X004440Y006299D02*
X007305Y006299D01*
X007617Y006608D02*
X008170Y006608D01*
X008247Y006531D02*
X007694Y006531D01*
X007771Y006454D02*
X008324Y006454D01*
X008093Y006685D02*
X007544Y006685D01*
X007466Y006763D02*
X008015Y006763D01*
X008327Y007072D02*
X009208Y007072D01*
X009208Y006994D02*
X008404Y006994D01*
X008481Y006917D02*
X009208Y006917D01*
X009209Y006840D02*
X008558Y006840D01*
X008250Y007149D02*
X009144Y007149D01*
X009069Y007226D02*
X008172Y007226D01*
X008095Y007303D02*
X009037Y007303D01*
X009089Y006763D02*
X009209Y006763D01*
X009209Y006685D02*
X009165Y006685D01*
X009197Y006608D02*
X009210Y006608D01*
X008734Y006299D02*
X007926Y006299D01*
X007849Y006376D02*
X008666Y006376D01*
X008382Y007381D02*
X008018Y007381D01*
X007941Y007458D02*
X008304Y007458D01*
X008227Y007535D02*
X007863Y007535D01*
X008150Y007612D02*
X003613Y007612D01*
X003013Y009234D02*
X000489Y009234D01*
X000489Y009312D02*
X001167Y009312D01*
X000980Y009389D02*
X000489Y009389D01*
X000489Y009466D02*
X000898Y009466D01*
X000821Y009543D02*
X000489Y009543D01*
X000489Y009621D02*
X000764Y009621D01*
X000732Y009698D02*
X000489Y009698D01*
X000489Y009775D02*
X000700Y009775D01*
X000673Y009852D02*
X000489Y009852D01*
X000489Y009930D02*
X000673Y009930D01*
X000673Y010007D02*
X000489Y010007D01*
X000489Y010084D02*
X000673Y010084D01*
X000692Y010161D02*
X000489Y010161D01*
X000489Y010239D02*
X000724Y010239D01*
X000756Y010316D02*
X000489Y010316D01*
X000489Y010393D02*
X000803Y010393D01*
X000880Y010470D02*
X000489Y010470D01*
X000489Y010547D02*
X000958Y010547D01*
X001059Y010779D02*
X000489Y010779D01*
X000489Y010856D02*
X000931Y010856D01*
X000843Y010934D02*
X000489Y010934D01*
X000489Y011011D02*
X000777Y011011D01*
X000728Y011088D02*
X000489Y011088D01*
X000489Y011165D02*
X000691Y011165D01*
X000665Y011243D02*
X000489Y011243D01*
X000489Y011320D02*
X000647Y011320D01*
X000637Y011397D02*
X000489Y011397D01*
X001529Y012401D02*
X002341Y012401D01*
X002264Y012478D02*
X001662Y012478D01*
X001742Y012556D02*
X002215Y012556D01*
X002183Y012633D02*
X001798Y012633D01*
X001854Y012710D02*
X002151Y012710D01*
X002130Y012787D02*
X001897Y012787D01*
X001891Y012761D02*
X001891Y012761D01*
X001913Y012865D02*
X002130Y012865D01*
X002130Y012942D02*
X001930Y012942D01*
X001946Y013019D02*
X002130Y013019D01*
X002155Y013096D02*
X001954Y013096D01*
X001937Y013174D02*
X002187Y013174D01*
X002219Y013251D02*
X001921Y013251D01*
X001904Y013328D02*
X002274Y013328D01*
X002351Y013405D02*
X001880Y013405D01*
X001824Y013483D02*
X002428Y013483D01*
X002614Y013560D02*
X001768Y013560D01*
X001712Y013637D02*
X012688Y013637D01*
X012774Y013714D02*
X001590Y013714D01*
X003049Y012247D02*
X003946Y012247D01*
X003829Y012324D02*
X003221Y012324D01*
X003298Y012401D02*
X003745Y012401D01*
X003683Y012478D02*
X003375Y012478D01*
X003424Y012556D02*
X003637Y012556D01*
X003603Y012633D02*
X003456Y012633D01*
X003488Y012710D02*
X003578Y012710D01*
X003562Y012787D02*
X003510Y012787D01*
X003883Y012505D02*
X004001Y012607D01*
X004717Y013483D02*
X009677Y013483D01*
X009863Y013560D02*
X004585Y013560D01*
X006206Y012898D02*
X006245Y012859D01*
X006549Y012092D02*
X001700Y012092D01*
X001905Y009543D02*
X003110Y009543D01*
X003041Y009466D02*
X001828Y009466D01*
X001746Y009389D02*
X003009Y009389D01*
X003003Y009312D02*
X001559Y009312D01*
X000758Y006994D02*
X000489Y006994D01*
X000489Y006917D02*
X000651Y006917D01*
X000575Y006840D02*
X000489Y006840D01*
X000489Y006763D02*
X000543Y006763D01*
X000511Y006685D02*
X000489Y006685D01*
X000489Y006608D02*
X000504Y006608D01*
X000504Y006531D02*
X000489Y006531D01*
X000489Y006454D02*
X000516Y006454D01*
X000489Y006376D02*
X000548Y006376D01*
X000586Y006299D02*
X000489Y006299D01*
X000489Y006222D02*
X000663Y006222D01*
X000787Y006145D02*
X000489Y006145D01*
X005641Y009543D02*
X007065Y009543D01*
X007008Y009621D02*
X005718Y009621D01*
X005795Y009698D02*
X006979Y009698D01*
X006979Y009775D02*
X005873Y009775D01*
X005950Y009852D02*
X006998Y009852D01*
X007040Y009930D02*
X006027Y009930D01*
X006104Y010007D02*
X007135Y010007D01*
X007402Y010007D02*
X007803Y010007D01*
X007792Y009930D02*
X007880Y009930D01*
X007924Y009885D02*
X007924Y009885D01*
X007924Y009852D02*
X007869Y009852D01*
X007725Y010084D02*
X006182Y010084D01*
X007882Y010547D02*
X009034Y010547D01*
X008957Y010470D02*
X007960Y010470D01*
X008037Y010393D02*
X008879Y010393D01*
X008802Y010316D02*
X008114Y010316D01*
X008191Y010239D02*
X008725Y010239D01*
X008648Y010161D02*
X008292Y010161D01*
X008350Y010084D02*
X008571Y010084D01*
X008493Y010007D02*
X008443Y010007D01*
X010213Y009543D02*
X012059Y009543D01*
X012079Y009466D02*
X010291Y009466D01*
X010368Y009389D02*
X012078Y009389D01*
X012077Y009312D02*
X010445Y009312D01*
X010522Y009234D02*
X012076Y009234D01*
X012075Y009157D02*
X010600Y009157D01*
X010677Y009080D02*
X012074Y009080D01*
X012073Y009003D02*
X010754Y009003D01*
X010831Y008925D02*
X012072Y008925D01*
X012071Y008848D02*
X010909Y008848D01*
X010986Y008771D02*
X012036Y008771D01*
X011959Y008694D02*
X011063Y008694D01*
X011140Y008616D02*
X011881Y008616D01*
X011876Y008539D02*
X011217Y008539D01*
X011295Y008462D02*
X011876Y008462D01*
X011876Y008385D02*
X011372Y008385D01*
X011429Y008308D02*
X011876Y008308D01*
X011950Y008230D02*
X011429Y008230D01*
X011429Y008153D02*
X012027Y008153D01*
X011429Y008076D02*
X013890Y008076D01*
X013890Y008153D02*
X013463Y008153D01*
X013540Y008230D02*
X013890Y008230D01*
X013890Y008308D02*
X013614Y008308D01*
X013614Y008385D02*
X013890Y008385D01*
X013890Y008462D02*
X013614Y008462D01*
X013614Y008539D02*
X013890Y008539D01*
X013890Y008616D02*
X013608Y008616D01*
X013531Y008694D02*
X013890Y008694D01*
X013890Y008771D02*
X013454Y008771D01*
X013278Y009312D02*
X013890Y009312D01*
X013890Y009389D02*
X013410Y009389D01*
X013498Y009466D02*
X013890Y009466D01*
X013890Y009543D02*
X013564Y009543D01*
X013614Y009621D02*
X013890Y009621D01*
X013890Y009698D02*
X013652Y009698D01*
X013679Y009775D02*
X013890Y009775D01*
X013890Y009852D02*
X013697Y009852D01*
X013707Y009930D02*
X013890Y009930D01*
X013890Y010779D02*
X013184Y010779D01*
X013371Y010856D02*
X013890Y010856D01*
X013890Y010934D02*
X013449Y010934D01*
X013526Y011011D02*
X013890Y011011D01*
X013890Y011088D02*
X013581Y011088D01*
X013613Y011165D02*
X013890Y011165D01*
X013890Y011243D02*
X013645Y011243D01*
X013671Y011320D02*
X013890Y011320D01*
X013890Y011397D02*
X013671Y011397D01*
X013671Y011474D02*
X013890Y011474D01*
X013890Y011552D02*
X013671Y011552D01*
X013650Y011629D02*
X013890Y011629D01*
X013890Y011706D02*
X013618Y011706D01*
X013586Y011783D02*
X013890Y011783D01*
X013890Y011861D02*
X013538Y011861D01*
X013461Y011938D02*
X013890Y011938D01*
X013890Y012015D02*
X013383Y012015D01*
X013213Y012092D02*
X013890Y012092D01*
X013890Y012170D02*
X011618Y012170D01*
X011870Y012247D02*
X013890Y012247D01*
X013890Y012324D02*
X013269Y012324D01*
X013062Y012324D02*
X011988Y012324D01*
X012071Y012401D02*
X012825Y012401D01*
X012728Y012478D02*
X012133Y012478D01*
X012180Y012556D02*
X012642Y012556D01*
X012564Y012633D02*
X012214Y012633D01*
X012239Y012710D02*
X012530Y012710D01*
X012495Y012787D02*
X012254Y012787D01*
X012262Y012942D02*
X012250Y013037D01*
X011231Y013560D02*
X010256Y013560D01*
X010443Y013483D02*
X011100Y013483D01*
X011011Y013405D02*
X010525Y013405D01*
X010602Y013328D02*
X010945Y013328D01*
X010895Y013251D02*
X010659Y013251D01*
X010691Y013174D02*
X010858Y013174D01*
X010831Y013096D02*
X010723Y013096D01*
X010750Y013019D02*
X010812Y013019D01*
X010233Y012220D02*
X011235Y011218D01*
X010233Y012220D02*
X010197Y012205D01*
X010033Y012205D01*
X013536Y012401D02*
X013890Y012401D01*
X013890Y012478D02*
X013670Y012478D01*
X013750Y012556D02*
X013890Y012556D01*
X013890Y012633D02*
X013806Y012633D01*
X013862Y012710D02*
X013890Y012710D01*
X013890Y007999D02*
X011429Y007999D01*
X011429Y007921D02*
X013890Y007921D01*
X013890Y001742D02*
X013536Y001742D01*
X013670Y001665D02*
X013890Y001665D01*
X013890Y001588D02*
X013750Y001588D01*
X013806Y001510D02*
X013890Y001510D01*
X013890Y001433D02*
X013862Y001433D01*
X010103Y001201D02*
X010024Y001201D01*
X010024Y001124D02*
X010103Y001124D01*
X010103Y001047D02*
X010024Y001047D01*
X010024Y000970D02*
X010103Y000970D01*
X010103Y000892D02*
X010024Y000892D01*
X010024Y000815D02*
X010103Y000815D01*
X010103Y000738D02*
X010024Y000738D01*
X010024Y000661D02*
X010103Y000661D01*
X010103Y000583D02*
X010024Y000583D01*
X008722Y001191D02*
X008722Y001378D01*
X008131Y001742D02*
X007374Y001742D01*
X007536Y001665D02*
X007970Y001665D01*
X007892Y001588D02*
X007613Y001588D01*
X007667Y001510D02*
X007838Y001510D01*
X007806Y001433D02*
X007699Y001433D01*
X007722Y001356D02*
X007783Y001356D01*
X007783Y001279D02*
X007722Y001279D01*
X007722Y001201D02*
X007783Y001201D01*
X007811Y001124D02*
X007694Y001124D01*
X007662Y001047D02*
X007843Y001047D01*
X007904Y000970D02*
X007602Y000970D01*
X007525Y000892D02*
X007981Y000892D01*
X007346Y000815D02*
X007159Y000815D01*
X006981Y000892D02*
X006525Y000892D01*
X006602Y000970D02*
X006904Y000970D01*
X006843Y001047D02*
X006662Y001047D01*
X006694Y001124D02*
X006811Y001124D01*
X006783Y001201D02*
X006722Y001201D01*
X006722Y001279D02*
X006783Y001279D01*
X006783Y001356D02*
X006722Y001356D01*
X006699Y001433D02*
X006806Y001433D01*
X006838Y001510D02*
X006667Y001510D01*
X006613Y001588D02*
X006892Y001588D01*
X006970Y001665D02*
X006536Y001665D01*
X006374Y001742D02*
X007131Y001742D01*
X006346Y000815D02*
X006159Y000815D01*
D15*
X009276Y003646D02*
X009280Y005568D01*
X009213Y005670D01*
X009989Y006489D01*
X010064Y006580D01*
X010056Y006682D01*
X009198Y007505D02*
X009198Y007544D01*
X008213Y009080D02*
X008646Y009513D01*
X008646Y009906D01*
X008725Y009985D01*
X009237Y010497D01*
X009780Y012206D02*
X010056Y012481D01*
X010060Y012485D01*
X010060Y012497D01*
X010068Y012493D02*
X010237Y012493D01*
X010347Y012603D01*
X010347Y012359D01*
X011414Y011292D01*
X012430Y011292D01*
X012430Y011166D01*
X012174Y010910D01*
X012174Y009682D01*
X012261Y009595D01*
X012245Y008457D01*
X012808Y011044D02*
X012698Y011154D01*
X012580Y011272D01*
X012580Y011442D01*
X012580Y011611D01*
X012698Y011729D01*
X012816Y011847D01*
X012981Y011847D01*
X013150Y011847D01*
X013269Y011729D01*
X013387Y011611D01*
X013387Y011442D01*
X013269Y011150D02*
X013162Y011044D01*
X012981Y011044D01*
X012808Y011044D01*
X012430Y011292D02*
X012580Y011442D01*
X010465Y012894D02*
X010465Y013064D01*
X010347Y013182D01*
X010229Y013300D01*
X010060Y013300D01*
X009894Y013300D01*
X009776Y013182D01*
X009658Y013064D01*
X009658Y012894D01*
X009658Y012725D01*
X009776Y012607D01*
X009891Y012493D01*
X010068Y012493D01*
X010060Y012485D01*
X009780Y012206D02*
X006690Y012206D01*
X006245Y012650D01*
X006245Y012859D01*
X003883Y012505D02*
X003528Y012150D01*
X002229Y012150D01*
X001875Y011796D01*
X001772Y011442D01*
X001654Y011560D01*
X001654Y011729D01*
X001367Y011847D02*
X001202Y011847D01*
X001083Y011729D01*
X000965Y011442D02*
X000965Y011272D01*
X001083Y011154D01*
X001367Y011044D02*
X001548Y011044D01*
X001654Y011150D01*
X007394Y005670D02*
X009213Y005670D01*
X007394Y005670D02*
X006276Y004552D01*
X004552Y004552D01*
X009276Y003646D02*
X009418Y003646D01*
X010024Y003040D01*
X010024Y001769D01*
X010064Y001646D01*
D16*
X011820Y001528D02*
X012052Y001761D01*
X012052Y003457D01*
X012469Y003875D01*
X012694Y003875D01*
X012694Y004044D01*
X012576Y004162D01*
X012576Y004331D01*
X012694Y004450D01*
X012859Y004450D01*
X012977Y004568D01*
X013146Y004568D01*
X013265Y004450D01*
X013265Y004280D01*
X013383Y004162D01*
X013229Y004009D01*
X013229Y003867D01*
X013080Y003867D01*
X012977Y003765D01*
X013229Y003867D02*
X013233Y003871D01*
X013265Y003871D01*
X011209Y005410D02*
X011209Y008237D01*
X010083Y009363D01*
X009383Y009363D01*
X008213Y009198D02*
X008213Y009080D01*
X008213Y007859D01*
X008528Y007544D01*
X009198Y007544D01*
X009198Y007505D02*
X009209Y007505D01*
X009316Y007398D01*
X009316Y007402D01*
X009316Y007418D01*
X009320Y007422D01*
X009320Y007398D01*
X009304Y007398D01*
X009300Y007394D01*
X009312Y007394D01*
X009320Y007387D01*
X009331Y007375D01*
X009331Y007398D01*
X009324Y007406D01*
X009320Y007398D02*
X009320Y007387D01*
X009320Y007375D01*
X009324Y007371D01*
X009312Y007371D01*
X009312Y007375D01*
X009324Y007387D01*
X009320Y007391D02*
X009316Y007387D01*
X009320Y007391D02*
X009206Y007505D01*
X009198Y007505D01*
X009320Y007398D02*
X009324Y007394D01*
X009426Y007292D01*
X009430Y006446D01*
X009028Y006028D01*
X007883Y006032D01*
X007351Y006564D01*
X007351Y006568D01*
X004398Y006568D01*
X002902Y005072D01*
X001615Y005076D01*
X001418Y005076D01*
X001229Y005265D01*
X001229Y005269D01*
X001198Y005304D02*
X001198Y005217D01*
X001206Y004572D02*
X001087Y004454D01*
X001087Y004284D01*
X000969Y004166D01*
X000969Y003997D01*
X001087Y003879D01*
X001261Y003879D01*
X001371Y003769D01*
X001552Y003769D01*
X001658Y003875D01*
X001658Y004048D01*
X001489Y004048D01*
X001371Y004166D01*
X001658Y004048D02*
X001658Y004454D01*
X001371Y004572D02*
X001206Y004572D01*
X001658Y004048D02*
X001776Y004166D01*
X001658Y003875D02*
X001847Y003686D01*
X002859Y003686D01*
X002820Y003646D01*
X002820Y001650D01*
X002859Y003686D02*
X003686Y004513D01*
X004591Y004513D01*
X004552Y004552D01*
X002855Y005891D02*
X002572Y005595D01*
X002280Y005580D01*
X002855Y005891D02*
X002855Y006977D01*
X002257Y007576D01*
X001977Y007576D01*
X000977Y007576D01*
X000973Y006576D02*
X001973Y006576D01*
X002780Y008135D02*
X003568Y007347D01*
X007741Y007347D01*
X008489Y006599D01*
X008847Y006599D01*
X008918Y006524D01*
X007351Y006564D02*
X007339Y006576D01*
X005261Y007977D02*
X003922Y007977D01*
X003292Y008607D01*
X003292Y009316D01*
X002780Y008883D02*
X002780Y008135D01*
X002741Y008843D02*
X002780Y008883D01*
X004828Y010772D02*
X004280Y011351D01*
X004284Y012894D01*
X004828Y010772D02*
X007938Y010772D01*
X007977Y010733D01*
X007780Y010339D02*
X006127Y010339D01*
X005339Y009552D01*
X007269Y009749D02*
X007662Y009749D01*
X008213Y009198D01*
X008213Y009828D02*
X008135Y009985D01*
X007898Y010221D01*
X007780Y010339D01*
X009276Y003646D02*
X009276Y003528D01*
D17*
X009276Y003528D03*
X008918Y006524D03*
X009316Y007387D03*
X010056Y006682D03*
X009383Y009363D03*
X008213Y009828D03*
X007977Y010733D03*
X007269Y009749D03*
X005339Y009552D03*
X005261Y007977D03*
X003292Y009316D03*
X002741Y008843D03*
X002280Y005580D03*
X001198Y005304D03*
X004552Y004552D03*
M02*
