G75*
G70*
%OFA0B0*%
%FSLAX24Y24*%
%IPPOS*%
%LPD*%
%AMOC8*
5,1,8,0,0,1.08239X$1,22.5*
%
%ADD10C,0.1241*%
%ADD11R,0.0217X0.0375*%
%ADD12R,0.0532X0.0375*%
%ADD13R,0.1044X0.2422*%
%ADD14R,0.1123X0.1064*%
%ADD15R,0.0493X0.0454*%
%ADD16R,0.1005X0.1005*%
%ADD17R,0.1064X0.1123*%
%ADD18C,0.0800*%
%ADD19OC8,0.0600*%
%ADD20R,0.0532X0.0454*%
%ADD21R,0.0454X0.0532*%
%ADD22R,0.0454X0.0847*%
%ADD23C,0.0440*%
D10*
X001371Y002690D03*
X002820Y001245D03*
X004280Y001241D03*
X001371Y004166D03*
X001363Y009977D03*
X001367Y011442D03*
X002820Y012898D03*
X004284Y012894D03*
X010060Y012894D03*
X011532Y012894D03*
X012981Y011442D03*
X012977Y009977D03*
X012977Y004162D03*
X012981Y002702D03*
X011532Y001241D03*
X010064Y001241D03*
D11*
X004513Y008292D03*
X004198Y008292D03*
X003883Y008292D03*
X003568Y008292D03*
X003253Y008292D03*
X002938Y008292D03*
X002623Y008292D03*
X002623Y010103D03*
X002938Y010103D03*
X003253Y010103D03*
X003568Y010103D03*
X003883Y010103D03*
X004198Y010103D03*
X004513Y010103D03*
D12*
X007938Y009316D03*
X007938Y008607D03*
D13*
X008030Y006487D03*
X006337Y006487D03*
X005066Y006491D03*
X003373Y006491D03*
D14*
X006363Y008816D03*
X006363Y011312D03*
D15*
X010505Y008028D03*
X011174Y008028D03*
X008233Y004552D03*
X007564Y004552D03*
D16*
X004591Y011402D03*
X002859Y011402D03*
D17*
X003265Y003804D03*
X005761Y003804D03*
D18*
X006253Y001284D03*
X007253Y001284D03*
X008253Y001284D03*
X011209Y003410D03*
X011209Y004410D03*
X011209Y005410D03*
X008206Y012898D03*
X007206Y012898D03*
X006206Y012898D03*
X001977Y007576D03*
X000977Y007576D03*
X000973Y006576D03*
X001973Y006576D03*
D19*
X012245Y007457D03*
X013245Y007457D03*
X013245Y008457D03*
X012245Y008457D03*
D20*
X009355Y011402D03*
X008017Y011402D03*
X008017Y002780D03*
X009355Y002780D03*
D21*
X008686Y003450D03*
X008686Y010733D03*
D22*
X008686Y011599D03*
X008686Y002583D03*
D23*
X009276Y003528D03*
X008918Y006524D03*
X009316Y007387D03*
X010056Y006682D03*
X009383Y009363D03*
X008213Y009828D03*
X007977Y010733D03*
X007269Y009749D03*
X005339Y009552D03*
X005261Y007977D03*
X003292Y009316D03*
X002741Y008843D03*
X002280Y005580D03*
X001198Y005304D03*
X004552Y004552D03*
M02*
