G75*
G70*
%OFA0B0*%
%FSLAX24Y24*%
%IPPOS*%
%LPD*%
%AMOC8*
5,1,8,0,0,1.08239X$1,22.5*
%
%ADD10C,0.0000*%
%ADD11C,0.0000*%
%ADD12C,0.0020*%
%ADD13C,0.0010*%
%ADD14C,0.0059*%
%ADD15C,0.0030*%
%ADD16C,0.0050*%
%ADD17C,0.0060*%
%ADD18C,0.0080*%
%ADD19C,0.0040*%
D10*
X000603Y001068D02*
X000605Y001116D01*
X000611Y001164D01*
X000621Y001211D01*
X000635Y001257D01*
X000652Y001302D01*
X000673Y001345D01*
X000698Y001387D01*
X000726Y001426D01*
X000757Y001463D01*
X000791Y001497D01*
X000828Y001528D01*
X000867Y001556D01*
X000909Y001581D01*
X000952Y001602D01*
X000997Y001619D01*
X001043Y001633D01*
X001090Y001643D01*
X001138Y001649D01*
X001186Y001651D01*
X001234Y001649D01*
X001282Y001643D01*
X001329Y001633D01*
X001375Y001619D01*
X001420Y001602D01*
X001463Y001581D01*
X001505Y001556D01*
X001544Y001528D01*
X001581Y001497D01*
X001615Y001463D01*
X001646Y001426D01*
X001674Y001387D01*
X001699Y001345D01*
X001720Y001302D01*
X001737Y001257D01*
X001751Y001211D01*
X001761Y001164D01*
X001767Y001116D01*
X001769Y001068D01*
X001767Y001020D01*
X001761Y000972D01*
X001751Y000925D01*
X001737Y000879D01*
X001720Y000834D01*
X001699Y000791D01*
X001674Y000749D01*
X001646Y000710D01*
X001615Y000673D01*
X001581Y000639D01*
X001544Y000608D01*
X001505Y000580D01*
X001463Y000555D01*
X001420Y000534D01*
X001375Y000517D01*
X001329Y000503D01*
X001282Y000493D01*
X001234Y000487D01*
X001186Y000485D01*
X001138Y000487D01*
X001090Y000493D01*
X001043Y000503D01*
X000997Y000517D01*
X000952Y000534D01*
X000909Y000555D01*
X000867Y000580D01*
X000828Y000608D01*
X000791Y000639D01*
X000757Y000673D01*
X000726Y000710D01*
X000698Y000749D01*
X000673Y000791D01*
X000652Y000834D01*
X000635Y000879D01*
X000621Y000925D01*
X000611Y000972D01*
X000605Y001020D01*
X000603Y001068D01*
X000603Y013076D02*
X000605Y013124D01*
X000611Y013172D01*
X000621Y013219D01*
X000635Y013265D01*
X000652Y013310D01*
X000673Y013353D01*
X000698Y013395D01*
X000726Y013434D01*
X000757Y013471D01*
X000791Y013505D01*
X000828Y013536D01*
X000867Y013564D01*
X000909Y013589D01*
X000952Y013610D01*
X000997Y013627D01*
X001043Y013641D01*
X001090Y013651D01*
X001138Y013657D01*
X001186Y013659D01*
X001234Y013657D01*
X001282Y013651D01*
X001329Y013641D01*
X001375Y013627D01*
X001420Y013610D01*
X001463Y013589D01*
X001505Y013564D01*
X001544Y013536D01*
X001581Y013505D01*
X001615Y013471D01*
X001646Y013434D01*
X001674Y013395D01*
X001699Y013353D01*
X001720Y013310D01*
X001737Y013265D01*
X001751Y013219D01*
X001761Y013172D01*
X001767Y013124D01*
X001769Y013076D01*
X001767Y013028D01*
X001761Y012980D01*
X001751Y012933D01*
X001737Y012887D01*
X001720Y012842D01*
X001699Y012799D01*
X001674Y012757D01*
X001646Y012718D01*
X001615Y012681D01*
X001581Y012647D01*
X001544Y012616D01*
X001505Y012588D01*
X001463Y012563D01*
X001420Y012542D01*
X001375Y012525D01*
X001329Y012511D01*
X001282Y012501D01*
X001234Y012495D01*
X001186Y012493D01*
X001138Y012495D01*
X001090Y012501D01*
X001043Y012511D01*
X000997Y012525D01*
X000952Y012542D01*
X000909Y012563D01*
X000867Y012588D01*
X000828Y012616D01*
X000791Y012647D01*
X000757Y012681D01*
X000726Y012718D01*
X000698Y012757D01*
X000673Y012799D01*
X000652Y012842D01*
X000635Y012887D01*
X000621Y012933D01*
X000611Y012980D01*
X000605Y013028D01*
X000603Y013076D01*
X012611Y013076D02*
X012613Y013124D01*
X012619Y013172D01*
X012629Y013219D01*
X012643Y013265D01*
X012660Y013310D01*
X012681Y013353D01*
X012706Y013395D01*
X012734Y013434D01*
X012765Y013471D01*
X012799Y013505D01*
X012836Y013536D01*
X012875Y013564D01*
X012917Y013589D01*
X012960Y013610D01*
X013005Y013627D01*
X013051Y013641D01*
X013098Y013651D01*
X013146Y013657D01*
X013194Y013659D01*
X013242Y013657D01*
X013290Y013651D01*
X013337Y013641D01*
X013383Y013627D01*
X013428Y013610D01*
X013471Y013589D01*
X013513Y013564D01*
X013552Y013536D01*
X013589Y013505D01*
X013623Y013471D01*
X013654Y013434D01*
X013682Y013395D01*
X013707Y013353D01*
X013728Y013310D01*
X013745Y013265D01*
X013759Y013219D01*
X013769Y013172D01*
X013775Y013124D01*
X013777Y013076D01*
X013775Y013028D01*
X013769Y012980D01*
X013759Y012933D01*
X013745Y012887D01*
X013728Y012842D01*
X013707Y012799D01*
X013682Y012757D01*
X013654Y012718D01*
X013623Y012681D01*
X013589Y012647D01*
X013552Y012616D01*
X013513Y012588D01*
X013471Y012563D01*
X013428Y012542D01*
X013383Y012525D01*
X013337Y012511D01*
X013290Y012501D01*
X013242Y012495D01*
X013194Y012493D01*
X013146Y012495D01*
X013098Y012501D01*
X013051Y012511D01*
X013005Y012525D01*
X012960Y012542D01*
X012917Y012563D01*
X012875Y012588D01*
X012836Y012616D01*
X012799Y012647D01*
X012765Y012681D01*
X012734Y012718D01*
X012706Y012757D01*
X012681Y012799D01*
X012660Y012842D01*
X012643Y012887D01*
X012629Y012933D01*
X012619Y012980D01*
X012613Y013028D01*
X012611Y013076D01*
X012611Y001068D02*
X012613Y001116D01*
X012619Y001164D01*
X012629Y001211D01*
X012643Y001257D01*
X012660Y001302D01*
X012681Y001345D01*
X012706Y001387D01*
X012734Y001426D01*
X012765Y001463D01*
X012799Y001497D01*
X012836Y001528D01*
X012875Y001556D01*
X012917Y001581D01*
X012960Y001602D01*
X013005Y001619D01*
X013051Y001633D01*
X013098Y001643D01*
X013146Y001649D01*
X013194Y001651D01*
X013242Y001649D01*
X013290Y001643D01*
X013337Y001633D01*
X013383Y001619D01*
X013428Y001602D01*
X013471Y001581D01*
X013513Y001556D01*
X013552Y001528D01*
X013589Y001497D01*
X013623Y001463D01*
X013654Y001426D01*
X013682Y001387D01*
X013707Y001345D01*
X013728Y001302D01*
X013745Y001257D01*
X013759Y001211D01*
X013769Y001164D01*
X013775Y001116D01*
X013777Y001068D01*
X013775Y001020D01*
X013769Y000972D01*
X013759Y000925D01*
X013745Y000879D01*
X013728Y000834D01*
X013707Y000791D01*
X013682Y000749D01*
X013654Y000710D01*
X013623Y000673D01*
X013589Y000639D01*
X013552Y000608D01*
X013513Y000580D01*
X013471Y000555D01*
X013428Y000534D01*
X013383Y000517D01*
X013337Y000503D01*
X013290Y000493D01*
X013242Y000487D01*
X013194Y000485D01*
X013146Y000487D01*
X013098Y000493D01*
X013051Y000503D01*
X013005Y000517D01*
X012960Y000534D01*
X012917Y000555D01*
X012875Y000580D01*
X012836Y000608D01*
X012799Y000639D01*
X012765Y000673D01*
X012734Y000710D01*
X012706Y000749D01*
X012681Y000791D01*
X012660Y000834D01*
X012643Y000879D01*
X012629Y000925D01*
X012619Y000972D01*
X012613Y001020D01*
X012611Y001068D01*
D11*
X000300Y000969D02*
X000300Y013174D01*
X000302Y013228D01*
X000307Y013281D01*
X000316Y013334D01*
X000329Y013386D01*
X000345Y013438D01*
X000365Y013488D01*
X000388Y013536D01*
X000415Y013583D01*
X000444Y013628D01*
X000477Y013671D01*
X000512Y013711D01*
X000550Y013749D01*
X000590Y013784D01*
X000633Y013817D01*
X000678Y013846D01*
X000725Y013873D01*
X000773Y013896D01*
X000823Y013916D01*
X000875Y013932D01*
X000927Y013945D01*
X000980Y013954D01*
X001033Y013959D01*
X001087Y013961D01*
X013292Y013961D01*
X013346Y013959D01*
X013399Y013954D01*
X013452Y013945D01*
X013504Y013932D01*
X013556Y013916D01*
X013606Y013896D01*
X013654Y013873D01*
X013701Y013846D01*
X013746Y013817D01*
X013789Y013784D01*
X013829Y013749D01*
X013867Y013711D01*
X013902Y013671D01*
X013935Y013628D01*
X013964Y013583D01*
X013991Y013536D01*
X014014Y013488D01*
X014034Y013438D01*
X014050Y013386D01*
X014063Y013334D01*
X014072Y013281D01*
X014077Y013228D01*
X014079Y013174D01*
X014080Y013174D02*
X014080Y000969D01*
X014079Y000969D02*
X014077Y000915D01*
X014072Y000862D01*
X014063Y000809D01*
X014050Y000757D01*
X014034Y000705D01*
X014014Y000655D01*
X013991Y000607D01*
X013964Y000560D01*
X013935Y000515D01*
X013902Y000472D01*
X013867Y000432D01*
X013829Y000394D01*
X013789Y000359D01*
X013746Y000326D01*
X013701Y000297D01*
X013654Y000270D01*
X013606Y000247D01*
X013556Y000227D01*
X013504Y000211D01*
X013452Y000198D01*
X013399Y000189D01*
X013346Y000184D01*
X013292Y000182D01*
X001087Y000182D01*
X001033Y000184D01*
X000980Y000189D01*
X000927Y000198D01*
X000875Y000211D01*
X000823Y000227D01*
X000773Y000247D01*
X000725Y000270D01*
X000678Y000297D01*
X000633Y000326D01*
X000590Y000359D01*
X000550Y000394D01*
X000512Y000432D01*
X000477Y000472D01*
X000444Y000515D01*
X000415Y000560D01*
X000388Y000607D01*
X000365Y000655D01*
X000345Y000705D01*
X000329Y000757D01*
X000316Y000809D01*
X000307Y000862D01*
X000302Y000915D01*
X000300Y000969D01*
D12*
X001184Y005696D02*
X001148Y005733D01*
X001184Y005696D02*
X001258Y005696D01*
X001294Y005733D01*
X001294Y005806D01*
X001258Y005843D01*
X001221Y005843D01*
X001148Y005806D01*
X001148Y005916D01*
X001294Y005916D01*
X001369Y005916D02*
X001369Y005769D01*
X001442Y005696D01*
X001515Y005769D01*
X001515Y005916D01*
X001566Y008271D02*
X001566Y008491D01*
X001640Y008491D02*
X001750Y008491D01*
X001787Y008454D01*
X001787Y008307D01*
X001750Y008271D01*
X001640Y008271D01*
X001640Y008491D01*
X001419Y008491D02*
X001419Y008271D01*
X001345Y008307D02*
X001308Y008271D01*
X001235Y008271D01*
X001198Y008307D01*
X001198Y008454D01*
X001235Y008491D01*
X001308Y008491D01*
X001345Y008454D01*
X001345Y008381D02*
X001272Y008381D01*
X001345Y008381D02*
X001345Y008307D01*
X001419Y008491D02*
X001566Y008271D01*
X002197Y010301D02*
X002344Y010301D01*
X002380Y010338D01*
X002380Y010411D01*
X002344Y010448D01*
X002270Y010448D01*
X002270Y010374D01*
X002197Y010301D02*
X002160Y010338D01*
X002160Y010411D01*
X002197Y010448D01*
X002160Y010522D02*
X002380Y010669D01*
X002160Y010669D01*
X002160Y010522D02*
X002380Y010522D01*
X003932Y009231D02*
X003932Y009047D01*
X003969Y009011D01*
X004042Y009011D01*
X004079Y009047D01*
X004079Y009231D01*
X004153Y009194D02*
X004190Y009231D01*
X004263Y009231D01*
X004300Y009194D01*
X004300Y009158D01*
X004153Y009011D01*
X004300Y009011D01*
X004775Y010451D02*
X004885Y010451D01*
X004922Y010488D01*
X004922Y010635D01*
X004885Y010672D01*
X004775Y010672D01*
X004775Y010451D01*
X004996Y010451D02*
X005143Y010598D01*
X005143Y010635D01*
X005106Y010672D01*
X005033Y010672D01*
X004996Y010635D01*
X004996Y010451D02*
X005143Y010451D01*
X006676Y010421D02*
X006676Y010274D01*
X006786Y010274D01*
X006749Y010347D01*
X006749Y010384D01*
X006786Y010421D01*
X006859Y010421D01*
X006896Y010384D01*
X006896Y010311D01*
X006859Y010274D01*
X006859Y010200D02*
X006896Y010163D01*
X006896Y010090D01*
X006859Y010053D01*
X006713Y010053D01*
X006676Y010090D01*
X006676Y010163D01*
X006713Y010200D01*
X007661Y011842D02*
X007624Y011878D01*
X007661Y011842D02*
X007734Y011842D01*
X007771Y011878D01*
X007771Y011952D01*
X007734Y011988D01*
X007697Y011988D01*
X007624Y011952D01*
X007624Y012062D01*
X007771Y012062D01*
X007845Y012062D02*
X007845Y011915D01*
X007918Y011842D01*
X007992Y011915D01*
X007992Y012062D01*
X008892Y012713D02*
X009039Y012713D01*
X009113Y012786D01*
X009039Y012860D01*
X008892Y012860D01*
X008892Y012934D02*
X008892Y013007D01*
X008892Y012971D02*
X009113Y012971D01*
X009113Y013007D02*
X009113Y012934D01*
X009113Y013081D02*
X008892Y013081D01*
X009113Y013228D01*
X008892Y013228D01*
X007940Y013572D02*
X007866Y013499D01*
X007793Y013572D01*
X007793Y013719D01*
X007719Y013682D02*
X007682Y013719D01*
X007609Y013719D01*
X007572Y013682D01*
X007719Y013682D02*
X007719Y013646D01*
X007572Y013499D01*
X007719Y013499D01*
X007940Y013572D02*
X007940Y013719D01*
X007498Y013499D02*
X007351Y013499D01*
X007424Y013499D02*
X007424Y013719D01*
X007351Y013646D01*
X007277Y013719D02*
X007130Y013499D01*
X007056Y013572D02*
X007056Y013719D01*
X007056Y013572D02*
X006982Y013499D01*
X006909Y013572D01*
X006909Y013719D01*
X006835Y013719D02*
X006688Y013719D01*
X006688Y013609D01*
X006761Y013646D01*
X006798Y013646D01*
X006835Y013609D01*
X006835Y013536D01*
X006798Y013499D01*
X006725Y013499D01*
X006688Y013536D01*
X005569Y013152D02*
X005569Y013042D01*
X005349Y013042D01*
X005349Y013152D01*
X005386Y013189D01*
X005533Y013189D01*
X005569Y013152D01*
X005569Y012968D02*
X005349Y012968D01*
X005349Y012821D02*
X005569Y012968D01*
X005569Y012821D02*
X005349Y012821D01*
X005386Y012747D02*
X005349Y012710D01*
X005349Y012636D01*
X005386Y012600D01*
X005533Y012600D01*
X005569Y012636D01*
X005569Y012710D01*
X005533Y012747D01*
X005459Y012747D01*
X005459Y012673D01*
X009096Y011988D02*
X009169Y012062D01*
X009169Y011842D01*
X009096Y011842D02*
X009243Y011842D01*
X009317Y011842D02*
X009464Y011988D01*
X009464Y012025D01*
X009427Y012062D01*
X009354Y012062D01*
X009317Y012025D01*
X009317Y011842D02*
X009464Y011842D01*
X009538Y011915D02*
X009611Y011842D01*
X009685Y011915D01*
X009685Y012062D01*
X009538Y012062D02*
X009538Y011915D01*
X009451Y010684D02*
X009378Y010684D01*
X009341Y010647D01*
X009341Y010610D01*
X009378Y010574D01*
X009451Y010574D01*
X009488Y010537D01*
X009488Y010500D01*
X009451Y010464D01*
X009378Y010464D01*
X009341Y010500D01*
X009267Y010537D02*
X009267Y010684D01*
X009267Y010537D02*
X009193Y010464D01*
X009120Y010537D01*
X009120Y010684D01*
X009451Y010684D02*
X009488Y010647D01*
X011895Y009238D02*
X011895Y009091D01*
X011932Y009054D01*
X012005Y009054D01*
X012042Y009091D01*
X012042Y009164D01*
X011968Y009164D01*
X011895Y009238D02*
X011932Y009274D01*
X012005Y009274D01*
X012042Y009238D01*
X012116Y009274D02*
X012116Y009054D01*
X012263Y009054D02*
X012263Y009274D01*
X012337Y009274D02*
X012447Y009274D01*
X012484Y009238D01*
X012484Y009091D01*
X012447Y009054D01*
X012337Y009054D01*
X012337Y009274D01*
X012116Y009274D02*
X012263Y009054D01*
X013083Y009104D02*
X013156Y009031D01*
X013230Y009104D01*
X013230Y009251D01*
X013304Y009251D02*
X013377Y009251D01*
X013341Y009251D02*
X013341Y009031D01*
X013377Y009031D02*
X013304Y009031D01*
X013451Y009031D02*
X013451Y009251D01*
X013598Y009031D01*
X013598Y009251D01*
X013083Y009251D02*
X013083Y009104D01*
X013091Y006723D02*
X013055Y006686D01*
X013055Y006540D01*
X013091Y006503D01*
X013165Y006503D01*
X013201Y006540D01*
X013201Y006686D01*
X013165Y006723D01*
X013091Y006723D01*
X012980Y006723D02*
X012980Y006576D01*
X012907Y006503D01*
X012834Y006576D01*
X012834Y006723D01*
X012470Y006694D02*
X012470Y006547D01*
X012433Y006511D01*
X012323Y006511D01*
X012323Y006731D01*
X012433Y006731D01*
X012470Y006694D01*
X012249Y006731D02*
X012249Y006511D01*
X012102Y006731D01*
X012102Y006511D01*
X012028Y006547D02*
X012028Y006621D01*
X011954Y006621D01*
X011881Y006694D02*
X011881Y006547D01*
X011918Y006511D01*
X011991Y006511D01*
X012028Y006547D01*
X012028Y006694D02*
X011991Y006731D01*
X011918Y006731D01*
X011881Y006694D01*
X011924Y005706D02*
X012071Y005706D01*
X012144Y005632D01*
X012071Y005559D01*
X011924Y005559D01*
X011961Y005485D02*
X011924Y005448D01*
X011924Y005375D01*
X011961Y005338D01*
X011961Y005485D02*
X011998Y005485D01*
X012144Y005338D01*
X012144Y005485D01*
X012144Y005264D02*
X012144Y005117D01*
X012144Y005190D02*
X011924Y005190D01*
X011998Y005117D01*
X011937Y004603D02*
X011901Y004567D01*
X011901Y004457D01*
X012121Y004457D01*
X012121Y004567D01*
X012084Y004603D01*
X011937Y004603D01*
X011901Y004383D02*
X012121Y004383D01*
X011901Y004236D01*
X012121Y004236D01*
X012084Y004162D02*
X012011Y004162D01*
X012011Y004088D01*
X012084Y004015D02*
X012121Y004051D01*
X012121Y004125D01*
X012084Y004162D01*
X011937Y004162D02*
X011901Y004125D01*
X011901Y004051D01*
X011937Y004015D01*
X012084Y004015D01*
X012063Y003540D02*
X011916Y003540D01*
X011916Y003393D02*
X012063Y003393D01*
X012136Y003467D01*
X012063Y003540D01*
X012026Y003319D02*
X011990Y003282D01*
X011990Y003246D01*
X012026Y003172D01*
X011916Y003172D01*
X011916Y003319D01*
X012026Y003319D02*
X012100Y003319D01*
X012136Y003282D01*
X012136Y003209D01*
X012100Y003172D01*
X010585Y003670D02*
X010585Y003707D01*
X010548Y003744D01*
X010364Y003744D01*
X010364Y003707D02*
X010364Y003781D01*
X010364Y003855D02*
X010364Y003965D01*
X010401Y004002D01*
X010475Y004002D01*
X010511Y003965D01*
X010511Y003855D01*
X010585Y003855D02*
X010364Y003855D01*
X010401Y004076D02*
X010364Y004112D01*
X010364Y004186D01*
X010401Y004222D01*
X010438Y004222D01*
X010475Y004186D01*
X010511Y004222D01*
X010548Y004222D01*
X010585Y004186D01*
X010585Y004112D01*
X010548Y004076D01*
X010475Y004149D02*
X010475Y004186D01*
X010585Y003670D02*
X010548Y003634D01*
X009896Y003699D02*
X009823Y003773D01*
X009676Y003773D01*
X009676Y003626D02*
X009823Y003626D01*
X009896Y003699D01*
X009896Y003552D02*
X009896Y003405D01*
X009750Y003552D01*
X009713Y003552D01*
X009676Y003515D01*
X009676Y003442D01*
X009713Y003405D01*
X009676Y003257D02*
X009896Y003257D01*
X009896Y003184D02*
X009896Y003331D01*
X009750Y003184D02*
X009676Y003257D01*
X008976Y003965D02*
X008939Y003928D01*
X008866Y003928D01*
X008829Y003965D01*
X008866Y004038D02*
X008829Y004075D01*
X008829Y004112D01*
X008866Y004148D01*
X008939Y004148D01*
X008976Y004112D01*
X008939Y004038D02*
X008976Y004002D01*
X008976Y003965D01*
X008939Y004038D02*
X008866Y004038D01*
X008755Y004002D02*
X008755Y004148D01*
X008755Y004002D02*
X008682Y003928D01*
X008608Y004002D01*
X008608Y004148D01*
X007489Y002892D02*
X007489Y002746D01*
X007415Y002672D01*
X007342Y002746D01*
X007342Y002892D01*
X007268Y002892D02*
X007121Y002892D01*
X007121Y002782D01*
X007194Y002819D01*
X007231Y002819D01*
X007268Y002782D01*
X007268Y002709D01*
X007231Y002672D01*
X007158Y002672D01*
X007121Y002709D01*
X005566Y001453D02*
X005566Y001343D01*
X005345Y001343D01*
X005345Y001453D01*
X005382Y001489D01*
X005529Y001489D01*
X005566Y001453D01*
X005566Y001268D02*
X005345Y001268D01*
X005345Y001122D02*
X005566Y001268D01*
X005566Y001122D02*
X005345Y001122D01*
X005382Y001047D02*
X005345Y001011D01*
X005345Y000937D01*
X005382Y000901D01*
X005529Y000901D01*
X005566Y000937D01*
X005566Y001011D01*
X005529Y001047D01*
X005455Y001047D01*
X005455Y000974D01*
X006688Y000688D02*
X006688Y000578D01*
X006761Y000614D01*
X006798Y000614D01*
X006835Y000578D01*
X006835Y000504D01*
X006798Y000467D01*
X006725Y000467D01*
X006688Y000504D01*
X006688Y000688D02*
X006835Y000688D01*
X006909Y000688D02*
X006909Y000541D01*
X006982Y000467D01*
X007056Y000541D01*
X007056Y000688D01*
X007277Y000688D02*
X007130Y000467D01*
X007351Y000467D02*
X007498Y000467D01*
X007424Y000467D02*
X007424Y000688D01*
X007351Y000614D01*
X007572Y000651D02*
X007609Y000688D01*
X007682Y000688D01*
X007719Y000651D01*
X007719Y000614D01*
X007572Y000467D01*
X007719Y000467D01*
X007793Y000541D02*
X007866Y000467D01*
X007940Y000541D01*
X007940Y000688D01*
X007793Y000688D02*
X007793Y000541D01*
X008928Y000704D02*
X009075Y000704D01*
X009148Y000777D01*
X009075Y000850D01*
X008928Y000850D01*
X008965Y000925D02*
X009112Y000925D01*
X009148Y000961D01*
X009148Y001035D01*
X009112Y001071D01*
X008965Y001071D01*
X008928Y001035D01*
X008928Y000961D01*
X008965Y000925D01*
X008928Y001146D02*
X009112Y001146D01*
X009148Y001182D01*
X009148Y001256D01*
X009112Y001292D01*
X008928Y001292D01*
X008928Y001367D02*
X008928Y001513D01*
X008928Y001440D02*
X009148Y001440D01*
X004339Y005572D02*
X004339Y005719D01*
X004339Y005793D02*
X004192Y005940D01*
X004156Y005940D01*
X004119Y005903D01*
X004119Y005829D01*
X004156Y005793D01*
X004339Y005793D02*
X004339Y005940D01*
X004339Y005572D02*
X004119Y005572D01*
X008001Y007875D02*
X008148Y007875D01*
X008222Y007875D02*
X008369Y007875D01*
X008295Y007875D02*
X008295Y008095D01*
X008222Y008022D01*
X008001Y008095D02*
X008001Y007875D01*
X013276Y006723D02*
X013276Y006540D01*
X013312Y006503D01*
X013386Y006503D01*
X013422Y006540D01*
X013422Y006723D01*
X013497Y006723D02*
X013643Y006723D01*
X013570Y006723D02*
X013570Y006503D01*
D13*
X010717Y008333D02*
X010717Y008483D01*
X010642Y008408D01*
X010742Y008408D01*
X010594Y008358D02*
X010569Y008333D01*
X010519Y008333D01*
X010494Y008358D01*
X010494Y008458D01*
X010519Y008483D01*
X010569Y008483D01*
X010594Y008458D01*
X008418Y008997D02*
X008393Y008972D01*
X008293Y008972D01*
X008268Y008997D01*
X008268Y009047D01*
X008293Y009072D01*
X008293Y009119D02*
X008268Y009144D01*
X008268Y009194D01*
X008293Y009219D01*
X008318Y009219D01*
X008418Y009119D01*
X008418Y009219D01*
X008393Y009072D02*
X008418Y009047D01*
X008418Y008997D01*
X011117Y012037D02*
X011167Y012037D01*
X011192Y012062D01*
X011192Y012112D01*
X011142Y012112D01*
X011092Y012062D02*
X011117Y012037D01*
X011092Y012062D02*
X011092Y012162D01*
X011117Y012187D01*
X011167Y012187D01*
X011192Y012162D01*
X011240Y012187D02*
X011340Y012037D01*
X011340Y012187D01*
X011387Y012187D02*
X011462Y012187D01*
X011487Y012162D01*
X011487Y012062D01*
X011462Y012037D01*
X011387Y012037D01*
X011387Y012187D01*
X011240Y012187D02*
X011240Y012037D01*
X008156Y004247D02*
X008106Y004197D01*
X008059Y004222D02*
X008034Y004247D01*
X007984Y004247D01*
X007959Y004222D01*
X007959Y004122D01*
X007984Y004097D01*
X008034Y004097D01*
X008059Y004122D01*
X008106Y004097D02*
X008206Y004097D01*
X008156Y004097D02*
X008156Y004247D01*
X010650Y001924D02*
X010650Y001824D01*
X010675Y001799D01*
X010725Y001799D01*
X010751Y001824D01*
X010751Y001874D01*
X010700Y001874D01*
X010650Y001924D02*
X010675Y001949D01*
X010725Y001949D01*
X010751Y001924D01*
X010798Y001949D02*
X010898Y001799D01*
X010898Y001949D01*
X010945Y001949D02*
X011020Y001949D01*
X011045Y001924D01*
X011045Y001824D01*
X011020Y001799D01*
X010945Y001799D01*
X010945Y001949D01*
X010798Y001949D02*
X010798Y001799D01*
X004974Y004058D02*
X004949Y004033D01*
X004899Y004033D01*
X004874Y004058D01*
X004826Y004058D02*
X004801Y004033D01*
X004751Y004033D01*
X004726Y004058D01*
X004726Y004158D01*
X004751Y004183D01*
X004801Y004183D01*
X004826Y004158D01*
X004874Y004158D02*
X004899Y004183D01*
X004949Y004183D01*
X004974Y004158D01*
X004974Y004133D01*
X004949Y004108D01*
X004974Y004083D01*
X004974Y004058D01*
X004949Y004108D02*
X004924Y004108D01*
D14*
X012749Y007127D02*
X012745Y008808D01*
D15*
X013825Y009835D02*
X013825Y010028D01*
X013728Y009931D02*
X013922Y009931D01*
X013746Y011378D02*
X013746Y011625D01*
X011568Y013707D02*
X011375Y013707D01*
X011471Y013804D02*
X011471Y013610D01*
X010091Y013734D02*
X009844Y013734D01*
X004320Y013719D02*
X004127Y013719D01*
X004223Y013816D02*
X004223Y013622D01*
X002780Y013762D02*
X002533Y013762D01*
X000550Y011505D02*
X000550Y011312D01*
X000454Y011408D02*
X000647Y011408D01*
X000516Y009977D02*
X000516Y009730D01*
X000539Y004237D02*
X000539Y004044D01*
X000635Y004141D02*
X000442Y004141D01*
X000500Y002709D02*
X000500Y002462D01*
X002744Y000488D02*
X002938Y000488D01*
X002841Y000584D02*
X002841Y000391D01*
X004221Y000499D02*
X004414Y000499D01*
X009961Y000460D02*
X010154Y000460D01*
X010057Y000557D02*
X010057Y000363D01*
X011508Y000488D02*
X011701Y000488D01*
X013801Y002516D02*
X013801Y002709D01*
X013705Y002613D02*
X013898Y002613D01*
X013786Y004071D02*
X013786Y004264D01*
D16*
X010839Y007950D02*
X010839Y008107D01*
X009001Y010379D02*
X009001Y011087D01*
X009709Y011087D01*
X009709Y011717D01*
X009001Y011717D01*
X009001Y012111D01*
X008371Y012111D01*
X008371Y011717D01*
X007662Y011717D01*
X007662Y011127D01*
X007662Y011087D01*
X008371Y011087D01*
X008371Y010379D01*
X009001Y010379D01*
X009001Y011087D02*
X008410Y011087D01*
X008371Y011087D02*
X008371Y011717D01*
X009001Y011717D02*
X009001Y011087D01*
X004670Y010339D02*
X004670Y008056D01*
X002465Y008056D01*
X002465Y010339D01*
X004670Y010339D01*
X007898Y004631D02*
X007898Y004473D01*
X008371Y003804D02*
X008371Y003095D01*
X007662Y003095D01*
X007662Y002465D01*
X008371Y002465D01*
X008371Y002072D01*
X009001Y002072D01*
X009001Y002465D01*
X009709Y002465D01*
X009709Y003056D01*
X009709Y003095D01*
X009001Y003095D01*
X009001Y003804D01*
X008371Y003804D01*
X008371Y003095D02*
X008371Y002465D01*
X008371Y003095D02*
X008961Y003095D01*
X009001Y003095D02*
X009001Y002465D01*
D17*
X011895Y006957D02*
X012595Y006957D01*
X012745Y007107D01*
X012895Y006957D01*
X013595Y006957D01*
X013745Y007107D01*
X013745Y008807D01*
X013595Y008957D01*
X012895Y008957D01*
X012745Y008807D01*
X012595Y008957D01*
X011895Y008957D01*
X011745Y008807D01*
X011745Y007107D01*
X011895Y006957D01*
X008174Y008843D02*
X008174Y009080D01*
X007702Y009080D02*
X007702Y008843D01*
D18*
X007347Y008489D02*
X006954Y008095D01*
X005772Y008095D01*
X005379Y008489D01*
X005379Y009276D01*
X005379Y010851D02*
X005379Y012032D01*
X007347Y012032D01*
X007347Y010851D01*
X007456Y012398D02*
X006956Y012398D01*
X006706Y012648D01*
X006456Y012398D01*
X005956Y012398D01*
X005706Y012648D01*
X005706Y013148D01*
X005956Y013398D01*
X006456Y013398D01*
X006706Y013148D01*
X006956Y013398D01*
X007456Y013398D01*
X007706Y013148D01*
X007956Y013398D01*
X008456Y013398D01*
X008706Y013148D01*
X008706Y012648D01*
X008456Y012398D01*
X007956Y012398D01*
X007706Y012648D01*
X007456Y012398D01*
X007347Y009276D02*
X007347Y008489D01*
X010709Y005660D02*
X010709Y005160D01*
X010959Y004910D01*
X010709Y004660D01*
X010709Y004160D01*
X010959Y003910D01*
X010709Y003660D01*
X010709Y003160D01*
X010959Y002910D01*
X011459Y002910D01*
X011709Y003160D01*
X011709Y003660D01*
X011459Y003910D01*
X011709Y004160D01*
X011709Y004660D01*
X011459Y004910D01*
X011709Y005160D01*
X011709Y005660D01*
X011459Y005910D01*
X010959Y005910D01*
X010709Y005660D01*
X008503Y001784D02*
X008003Y001784D01*
X007753Y001534D01*
X007503Y001784D01*
X007003Y001784D01*
X006753Y001534D01*
X006503Y001784D01*
X006003Y001784D01*
X005753Y001534D01*
X005753Y001034D01*
X006003Y000784D01*
X006503Y000784D01*
X006753Y001034D01*
X007003Y000784D01*
X007503Y000784D01*
X007753Y001034D01*
X008003Y000784D01*
X008503Y000784D01*
X008753Y001034D01*
X008753Y001534D01*
X008503Y001784D01*
X006481Y003213D02*
X006087Y002820D01*
X005300Y002820D01*
X006481Y003213D02*
X006481Y004394D01*
X006087Y004788D01*
X005300Y004788D01*
X003725Y004788D02*
X002544Y004788D01*
X002544Y002820D01*
X003725Y002820D01*
X002223Y006076D02*
X001723Y006076D01*
X001473Y006326D01*
X001223Y006076D01*
X000723Y006076D01*
X000473Y006326D01*
X000473Y006826D01*
X000723Y007076D01*
X001223Y007076D01*
X001473Y006826D01*
X001723Y007076D01*
X002223Y007076D01*
X002473Y006826D01*
X002473Y006326D01*
X002223Y006076D01*
X002227Y007076D02*
X001727Y007076D01*
X001477Y007326D01*
X001227Y007076D01*
X000727Y007076D01*
X000477Y007326D01*
X000477Y007826D01*
X000727Y008076D01*
X001227Y008076D01*
X001477Y007826D01*
X001727Y008076D01*
X002227Y008076D01*
X002477Y007826D01*
X002477Y007326D01*
X002227Y007076D01*
X003801Y011009D02*
X003801Y011796D01*
X003477Y011402D01*
X003801Y011009D01*
D19*
X004615Y010652D02*
X002835Y010652D01*
X002835Y012152D02*
X004615Y012152D01*
M02*
