%
M48
M72
T01C0.0157
T02C0.0240
T03C0.0360
T04C0.0400
T05C0.0433
%
T01
X1087Y2402
X1371Y2292
X1658Y2398
X1776Y2690
X1658Y2977
X1371Y3095
X1087Y2977
X969Y2690
X1371Y3769
X1087Y3879
X969Y4166
X1087Y4454
X1371Y4572
X1658Y4454
X1776Y4166
X1658Y3875
X2820Y1650
X2536Y1532
X2418Y1245
X2536Y957
X2820Y847
X3107Y954
X3225Y1245
X3107Y1532
X3879Y1241
X3997Y1528
X4280Y1646
X4568Y1528
X4686Y1241
X4568Y950
X4280Y843
X3997Y954
X9662Y1241
X9780Y1528
X10064Y1646
X10351Y1528
X10469Y1241
X10351Y950
X10064Y843
X9780Y954
X11131Y1241
X11249Y1528
X11532Y1646
X11820Y1528
X11938Y1241
X11820Y950
X11532Y843
X11249Y954
X12698Y2414
X12981Y2304
X13269Y2410
X13387Y2702
X13269Y2989
X12981Y3107
X12698Y2989
X12580Y2702
X12977Y3765
X12694Y3875
X12576Y4162
X12694Y4450
X12977Y4568
X13265Y4450
X13383Y4162
X13265Y3871
X12977Y9580
X12694Y9690
X12576Y9977
X12694Y10265
X12977Y10383
X13265Y10265
X13383Y9977
X13265Y9686
X12981Y11044
X12698Y11154
X12580Y11442
X12698Y11729
X12981Y11847
X13269Y11729
X13387Y11442
X13269Y11150
X11820Y12603
X11532Y12497
X11249Y12607
X11131Y12894
X11249Y13182
X11532Y13300
X11820Y13182
X11938Y12894
X10465Y12894
X10347Y13182
X10060Y13300
X9776Y13182
X9658Y12894
X9776Y12607
X10060Y12497
X10347Y12603
X4690Y12894
X4572Y13182
X4284Y13300
X4001Y13182
X3883Y12894
X4001Y12607
X4284Y12497
X4572Y12603
X3225Y12898
X3107Y13186
X2820Y13304
X2536Y13186
X2418Y12898
X2536Y12611
X2820Y12501
X3107Y12607
X1772Y11442
X1654Y11729
X1367Y11847
X1083Y11729
X965Y11442
X1083Y11154
X1367Y11044
X1654Y11150
X1363Y10383
X1080Y10265
X961Y9977
X1080Y9690
X1363Y9580
X1650Y9686
X1769Y9977
X1650Y10265
T02
X2741Y8843
X3292Y9316
X5261Y7977
X5339Y9552
X7269Y9749
X8213Y9828
X7977Y10733
X9383Y9363
X9316Y7387
X10056Y6682
X8918Y6524
X9276Y3528
X4552Y4552
X2280Y5580
X1198Y5304
T03
X12245Y7457
X13245Y7457
X13245Y8457
X12245Y8457
T04
X11209Y5410
X11209Y4410
X11209Y3410
X8253Y1284
X7253Y1284
X6253Y1284
X1973Y6576
X1977Y7576
X977Y7576
X973Y6576
X6206Y12898
X7206Y12898
X8206Y12898
T05
X10060Y12894
X11532Y12894
X12981Y11442
X12977Y9977
X12977Y4162
X12981Y2702
X11532Y1241
X10064Y1241
X4280Y1241
X2820Y1245
X1371Y2690
X1371Y4166
X1363Y9977
X1367Y11442
X2820Y12898
X4284Y12894
M30
